<?xml version="1.0" encoding="UTF-8" standalone="no"?>
<!-- Generator: Adobe Illustrator 26.0.1, SVG Export Plug-In . SVG Version: 6.00 Build 0)  -->

<svg
   version="1.1"
   x="0px"
   y="0px"
   viewBox="0 0 293.86599 130.98608"
   xml:space="preserve"
   id="svg107"
   sodipodi:docname="fox-legs-blue.svg"
   width="293.866"
   height="130.98608"
   inkscape:version="1.3 (0e150ed6c4, 2023-07-21)"
   xmlns:inkscape="http://www.inkscape.org/namespaces/inkscape"
   xmlns:sodipodi="http://sodipodi.sourceforge.net/DTD/sodipodi-0.dtd"
   xmlns="http://www.w3.org/2000/svg"
   xmlns:svg="http://www.w3.org/2000/svg"><defs
   id="defs107" /><sodipodi:namedview
   id="namedview107"
   pagecolor="#505050"
   bordercolor="#ffffff"
   borderopacity="1"
   inkscape:showpageshadow="0"
   inkscape:pageopacity="0"
   inkscape:pagecheckerboard="1"
   inkscape:deskcolor="#505050"
   inkscape:zoom="1.9846131"
   inkscape:cx="158.21724"
   inkscape:cy="18.643432"
   inkscape:window-width="1920"
   inkscape:window-height="1051"
   inkscape:window-x="-9"
   inkscape:window-y="-9"
   inkscape:window-maximized="1"
   inkscape:current-layer="g106" />&#10;<style
   type="text/css"
   id="style1">&#10;	.st0{fill:#F4EFDF;stroke:#000000;stroke-width:1.4642;stroke-miterlimit:10;}&#10;	.st1{fill:#37342F;stroke:#000000;stroke-width:1.4642;stroke-miterlimit:10;}&#10;	.st2{opacity:0.28;}&#10;	.st3{fill:none;stroke:#000000;stroke-width:1.4642;stroke-miterlimit:10;}&#10;	.st4{fill:#59493D;}&#10;	.st5{fill:#FFFFFF;stroke:#000000;stroke-width:1.4642;stroke-miterlimit:10;}&#10;	.st6{fill:#4F4F4F;stroke:#000000;stroke-width:1.4642;stroke-miterlimit:10;}&#10;	.st7{fill:#A7A9A7;stroke:#000000;stroke-width:1.4642;stroke-miterlimit:10;}&#10;	.st8{fill:#485D4A;stroke:#000000;stroke-width:1.9522;stroke-miterlimit:10;}&#10;	.st9{fill:none;stroke:#000000;stroke-width:0.4881;stroke-miterlimit:10;}&#10;	.st10{fill:#485D4A;}&#10;	.st11{fill:#43392E;}&#10;</style>&#10;<g
   id="Layer_1"
   transform="translate(-180.1,-431.2396)">&#10;</g>&#10;<g
   id="Layer_19"
   transform="translate(-180.1,-431.2396)">&#10;</g>&#10;<g
   id="Layer_20"
   transform="translate(-180.1,-431.2396)">&#10;</g>&#10;<g
   id="Tail"
   transform="translate(-180.1,-431.2396)">&#10;</g>&#10;<g
   id="right_leg"
   transform="translate(-180.1,-431.2396)">&#10;</g>&#10;<g
   id="Left_leg"
   transform="translate(-180.1,-431.2396)">&#10;</g>&#10;<g
   id="body"
   transform="translate(-180.1,-431.2396)">&#10;</g>&#10;<g
   id="belt"
   transform="translate(-180.1,-431.2396)">&#10;</g>&#10;<g
   id="Face"
   transform="translate(-180.1,-431.2396)">&#10;</g>&#10;<g
   id="Left_ear"
   transform="translate(-180.1,-431.2396)">&#10;</g>&#10;<g
   id="Right_ear"
   transform="translate(-180.1,-431.2396)">&#10;</g>&#10;<g
   id="White_mouth"
   transform="translate(-180.1,-431.2396)">&#10;</g>&#10;<g
   id="Closed_mouth"
   transform="translate(-180.1,-431.2396)">&#10;	<g
   id="Mouth_copy">&#10;	</g>&#10;</g>&#10;<g
   id="Mouth"
   transform="translate(-180.1,-431.2396)">&#10;</g>&#10;<g
   id="wide_opened_mouth"
   transform="translate(-180.1,-431.2396)">&#10;	<g
   id="Mouth_copy_2">&#10;	</g>&#10;</g>&#10;<g
   id="Nose"
   transform="translate(-180.1,-431.2396)">&#10;</g>&#10;<g
   id="Nose_hair_2"
   transform="translate(-180.1,-431.2396)">&#10;</g>&#10;<g
   id="Nose_hair_1"
   transform="translate(-180.1,-431.2396)">&#10;</g>&#10;<g
   id="Eye_brow"
   transform="translate(-180.1,-431.2396)">&#10;</g>&#10;<g
   id="white_part_of_eyes"
   transform="translate(-180.1,-431.2396)">&#10;	<g
   id="Eyes_opened_copy">&#10;	</g>&#10;</g>&#10;<g
   id="eyes_2"
   transform="translate(-180.1,-431.2396)">&#10;	<g
   id="Layer_29">&#10;	</g>&#10;</g>&#10;<g
   id="eyes_1"
   transform="translate(-180.1,-431.2396)">&#10;	<g
   id="Layer_30">&#10;	</g>&#10;</g>&#10;<g
   id="Opened_eye_cover"
   transform="translate(-180.1,-431.2396)">&#10;</g>&#10;<g
   id="Eyes_closed"
   transform="translate(-180.1,-431.2396)">&#10;	<g
   id="Eyes_copy">&#10;	</g>&#10;</g>&#10;<g
   id="cap"
   transform="translate(-180.1,-431.2396)">&#10;</g>&#10;<g
   id="Glasses"
   transform="translate(-180.1,-431.2396)">&#10;	<g
   id="g107">&#10;		<g
   id="g106">&#10;			&#10;			&#10;			&#10;		<g
   id="g452"
   transform="matrix(0.45192721,0,0,0.45192721,82.649211,-52.46924)"><g
     id="g59">&#10;		<path
   class="st8"
   d="m 422.9,1083.2 c -2.8,-1.1 -62.1,53.2 -62.1,53.2 l 175.9,104.4 180.1,-104.9 -40.3,-47.5 c 0,-0.1 -135.8,42.6 -253.6,-5.2 z"
   id="path52"
   style="fill:#022847;stroke:#000000;stroke-width:4;stroke-miterlimit:10" />&#10;		<g
   id="g58">&#10;			<path
   class="st9"
   d="m 533.7,1110.7 c 0,0 31.1,-6.4 33.3,1.6 -0.9,41.6 8.7,67.9 -17.5,69.6 -22.5,1.6 -18.6,-3 -15.8,-71.2 z"
   id="path53"
   style="fill:#003768;stroke:#000000;stroke-width:4;stroke-miterlimit:10" />&#10;			<g
   id="g57">&#10;				<path
   class="st10"
   d="m 548.8,1110.1 c 0,0 0.8,24.9 0.9,30 0.1,5.1 -0.8,27.2 -0.2,33.6"
   id="path54"
   style="fill:none;stroke:#000000;stroke-width:3;stroke-miterlimit:10" />&#10;				<path
   class="st10"
   d="m 533.7,1110.7 c 0,0 -2.3,27.7 -1.7,35.1 0.7,7.5 -1.4,30.3 3.1,33.7 4.4,3.4 14.3,2.3 19.7,1.6 3.9,-0.5 12,-4 12.1,-13.9 0.1,-10.4 0.4,-41 -1.8,-58 z"
   id="path55"
   style="fill:none;stroke:#000000;stroke-width:3;stroke-miterlimit:10" />&#10;				<g
   id="g56">&#10;					<path
   d="m 561,1110.6 c 1.3,13.9 1.6,28 1.1,41.9 -0.1,3.5 -0.2,7 -0.4,10.5 -0.3,2.6 0,5.5 -1.2,7.9 -1.2,2.5 -4,3.9 -6.6,4.2 -3.5,0.4 -7,0.9 -10.5,0.3 -1.7,-0.3 -3.5,-0.7 -4.9,-1.7 1.5,0.9 3.2,1.3 4.9,1.5 3.5,0.4 7,-0.2 10.4,-0.7 3.4,-0.4 6.4,-2.9 6.6,-6.4 0.6,-12.1 0.2,-24.4 -0.4,-36.5 -0.5,-6.9 -1.2,-13.9 -2,-20.8 z"
   id="path56" />&#10;				</g>&#10;			</g>&#10;		</g>&#10;	</g><g
     id="g232">&#10;		<g
   id="g217">&#10;			<g
   id="g187">&#10;				<path
   class="st19"
   d="m 842.4,1297.8 c 3.9,24.5 3.2,41.2 -2.7,54.3 l -0.6,1.3 -1.4,-0.3 c -0.9,-0.2 -21.9,-4.7 -38.1,-16.4 -7.6,-5.4 -12.2,-9.1 -15.4,-11.5 -3.5,-2.8 -5.3,-4.2 -7.3,-5.1 l -0.6,-0.3 c -4.8,-2.2 -16.2,-7.4 -29.7,-17.4 -13.5,-10 -61.5,-8 -74.4,-5.1 -1.4,0.3 -34.1,7.4 -44.8,7 -7.8,-0.3 -32.7,-31.2 -38,-64.6 -4.2,-26.1 4.7,-47.7 25.3,-62.6 l 0.5,-0.4 h 0.6 c 0.3,0.1 29.5,1.2 52.7,5.8 24,4.8 39.8,3.2 47.1,2 9.9,-1.7 24.1,-5 25.9,-6.1 1.5,-1 3.9,-1 6.1,0 1.7,0.7 3,2 3.9,3.5 3.1,-2.9 9.2,-7.1 18.8,-6.3 4.4,0.3 7.5,0.4 9.7,0.4 4.9,0.1 7.2,0.1 8.8,3.8 0.5,0.9 1.1,2.5 1.7,4.4 2.3,6.4 6.6,18.5 13,26.4 2,2.6 4.5,4.6 7.1,6.7 7.6,6.1 17.1,13.8 23.8,42.3 3,12.4 6.1,25.8 8,38.2 z"
   id="path186"
   style="fill:#59493d" />&#10;				<path
   d="m 591.3,1239.2 c -3.4,-21.5 1.4,-44.2 24.6,-61 0,0 29,1.2 52.4,5.7 23.4,4.5 39.3,3.5 47.8,2 8.5,-1.5 24.2,-4.9 26.6,-6.3 2.2,-1.3 7.4,0.2 8.1,4.5 0.1,0.4 0.1,0.9 0.1,1.4 0,0 6.1,-9.5 19.5,-8.5 13.6,1.1 15.3,-0.7 17.1,3.2 1.8,4 6.5,20.7 14.9,31.2 8.4,10.4 21.7,10.4 30.7,48.4 3.2,13.6 6,26.4 7.9,38.3 3.4,21.2 3.7,39.3 -2.6,53.5 0,0 -21.3,-4.6 -37.3,-16.2 -16,-11.6 -19,-15 -23,-16.8 -4,-1.8 -15.9,-7.1 -30.1,-17.5 -14.2,-10.4 -62.6,-8.4 -75.8,-5.4 0,0 -33.8,7.3 -44.3,6.9 -6.6,-0.3 -31.3,-30.4 -36.6,-63.4 m -3.3,0.5 c 3.2,19.9 12.8,36.9 18.5,45.2 2.2,3.4 13.8,20.5 21.4,20.8 10.8,0.4 43.8,-6.7 45.2,-7 14.4,-3.2 60.8,-4.4 73,4.8 13.6,10.1 25.5,15.5 29.9,17.6 l 0.6,0.3 c 1.8,0.8 3.5,2.2 7,4.9 3.1,2.5 7.8,6.2 15.4,11.7 16.4,11.9 37.7,16.5 38.7,16.7 l 2.8,0.6 1.1,-2.5 c 5.8,-13.3 6.8,-30.3 2.8,-55.1 -2,-12.4 -4.9,-25.8 -8,-38.5 -6.9,-29.1 -16.6,-36.9 -24.4,-43.2 -2.6,-2.1 -4.8,-3.9 -6.8,-6.4 -6.1,-7.8 -10.4,-19.6 -12.7,-26 -0.8,-2 -1.2,-3.6 -1.7,-4.5 -2.1,-4.6 -5.4,-4.7 -10.3,-4.7 -2.3,-0.1 -5.4,-0.1 -9.6,-0.4 -8.9,-0.8 -14.9,2.5 -18.6,5.4 -1,-1 -2.1,-1.8 -3.6,-2.5 -2.7,-1.1 -5.6,-1.1 -7.7,0.1 -1.9,1 -15.1,4.1 -25.4,5.9 -7.2,1.2 -22.8,2.6 -46.4,-2 -23.3,-4.5 -52.6,-5.8 -52.9,-5.8 H 615 l -1,0.7 c -21.3,15.1 -30.3,37.3 -26,63.9 z"
   id="path187" />&#10;			</g>&#10;			<path
   class="st13"
   d="m 791,1189.4 c 1.4,3.7 7.6,20.1 17.9,27.9 10.3,7.8 15.4,13.2 22.6,36.1 7.1,22.9 11,55.6 11.8,71.4 0.8,15.9 -3.4,22.7 -5,26.4 -1.6,3.7 4.8,0.7 12.4,-1.8 7.7,-2.4 10.1,-12.9 12.9,-31.5 2.8,-18.6 -2.2,-39.7 -10.7,-67.3 -8.5,-27.6 -26.2,-31.8 -32.6,-37.2 -6.3,-5.4 -8,-12 -12.5,-25.7 -4.5,-13.8 -8.1,-12.4 -10.5,-13.4 -2.4,-1 -13.3,3.1 -13.3,3.1 3.7,0.2 5.6,8.3 7,12 z"
   id="path188"
   style="fill:#ffffff;stroke:#000000;stroke-width:3;stroke-miterlimit:10" />&#10;			<path
   class="st10"
   d="m 816.8,1224.6 c -12.1,11.7 -36.5,25.1 -37.4,58.3 -0.8,33.2 6.6,41.3 6.6,41.3"
   id="path189"
   style="fill:none;stroke:#000000;stroke-width:3;stroke-miterlimit:10" />&#10;			<g
   id="g190">&#10;				<path
   d="m 749.6,1179.6 c 0,0 3.3,-0.4 3.5,-0.3 0.7,10.3 1,20.7 -1.2,31 -0.7,3.4 -1.3,6.8 -2,10.2 0.7,-6.8 1.6,-13.7 1.7,-20.5 -0.1,-6.8 -1,-13.7 -2,-20.4 z"
   id="path190" />&#10;			</g>&#10;			<path
   class="st10"
   d="m 801.7,1207.4 c -17,2.2 -28.6,16 -28.6,16"
   id="path191"
   style="fill:none;stroke:#000000;stroke-width:3;stroke-miterlimit:10" />&#10;			<path
   d="m 828,1239.4 c -0.1,-2.7 -6,-15.6 -6,-15.6 0,0 11.1,11.3 10.3,10 -0.8,-1.3 -8.1,-12.3 -8.1,-12.3 l 12.5,11.6 -8,-11.2 6.5,1.3 c 0,0 -14.9,-9.8 -17.7,-11 -2.8,-1.2 -7.4,-6.6 -7.4,-6.6 l 1,6.1 -4.2,-3.7 4.4,5 -9.7,-6.3 7.1,10.5 c 11.8,3.5 19.3,24.9 19.3,22.2 z"
   id="path192" />&#10;			<path
   class="st1"
   d="m 659.7,1240.9 c 19.8,-2.3 38.5,4.3 53.6,9.7 15.1,5.4 28.2,13.5 28.2,13.5 l -2.2,26.9 c 0,0 -5.8,-1.6 -20.5,-5.8 -14.6,-4.2 -27.6,-3.6 -34.5,-2.5 -6.9,1.1 -55.5,17.1 -55.5,17.1 0,0 -4.5,0.5 -14.3,-12.1 -9.9,-12.7 -5.9,-37 -5.9,-37 0,0 31.1,-7.5 51.1,-9.8 z"
   id="path193"
   style="fill:#37342f;stroke:#000000;stroke-width:3;stroke-miterlimit:10" />&#10;			<g
   id="g195">&#10;				<path
   class="st10"
   d="m 779.7,1321.2 c -2.6,-11 -24.2,-24.1 -32.9,-26.7 -8.7,-2.6 -18.5,-4.6 -36.1,-10.3 -17.6,-5.7 -40,4.8 -49.9,7.2 -9.8,2.4 -39.5,11.3 -39.5,11.3"
   id="path194"
   style="fill:none;stroke:#000000;stroke-width:3;stroke-miterlimit:10" />&#10;				<path
   class="st10"
   d="m 771.9,1319.3 c -7.9,-9.6 -18.2,-15.6 -26.9,-18.2 -8.7,-2.6 -18.3,-4.6 -36.1,-10.3 -17.6,-5.7 -40,4.8 -49.9,7.2 -9.8,2.4 -39.5,11.3 -39.5,11.3"
   id="path195"
   style="fill:none;stroke:#000000;stroke-width:3;stroke-miterlimit:10" />&#10;			</g>&#10;			<g
   id="g199">&#10;				<path
   class="st10"
   d="m 606.2,1253.1 c 0,0 26.2,-7.1 40.4,-8.6 14.2,-1.5 30.5,-4 43.2,-0.4 12.7,3.5 24.9,3.6 41.6,12 16.8,8.4 17.5,9.8 25.3,6.9 7.8,-2.8 15.6,-12.4 22.1,-18.8 6.5,-6.5 15.5,-11.8 15.3,-13.1 -0.2,-1.3 -10.6,-13 -12.5,-12.4"
   id="path196"
   style="fill:none;stroke:#000000;stroke-width:3;stroke-miterlimit:10" />&#10;				<path
   class="st10"
   d="m 777.4,1220.7 c 1.6,2.3 8.9,8.3 9.1,9.5 0.2,1.1 -8.1,8.2 -14.1,14.1 -6,5.9 -11.6,11.9 -18.8,14.6 -4.7,1.7 -9,-3.9 -25.1,-10 -16.7,-6.3 -26.3,-8.1 -38.5,-10.6 -11.8,-2.5 -27.1,-0.7 -40.1,0.7 -12.9,1.4 -35.3,5.1 -35.3,5.1"
   id="path197"
   style="fill:none;stroke:#000000;stroke-width:3;stroke-miterlimit:10" />&#10;				<path
   class="st10"
   d="m 625.9,1219.9 c 25.4,-4 54.2,-0.7 54.2,-0.7 0,0 22.2,1.1 32.6,4.2 10.4,3.2 29.2,9.8 35.4,9.3 6.3,-0.5 18.3,-2.6 30.1,-12.3 l 3.4,-2.1 c 0,0 3.4,2.5 5.7,4.8"
   id="path198"
   style="fill:none;stroke:#000000;stroke-width:3;stroke-miterlimit:10" />&#10;				<line
   class="st10"
   x1="765.09998"
   y1="1228.5"
   x2="775.79999"
   y2="1240.2"
   id="line198"
   style="fill:none;stroke:#000000;stroke-width:3;stroke-miterlimit:10" />&#10;				<line
   class="st10"
   x1="769"
   y1="1226.6"
   x2="779.70001"
   y2="1238.3"
   id="line199"
   style="fill:none;stroke:#000000;stroke-width:3;stroke-miterlimit:10" />&#10;			</g>&#10;			<g
   id="g216">&#10;				&#10;					<ellipse
   transform="matrix(0.9604,-0.2785,0.2785,0.9604,-317.1521,258.8262)"
   class="st23"
   cx="752.5"
   cy="1245.8"
   rx="5.3000002"
   ry="4.9000001"
   id="ellipse199"
   style="fill:#4f4f4f;stroke:#000000;stroke-width:3;stroke-miterlimit:9.9996" />&#10;				<g
   id="g215">&#10;					&#10;						<ellipse
   transform="matrix(0.8346,-0.5509,0.5509,0.8346,-574.28,547.866)"
   class="st24"
   cx="625"
   cy="1230.1"
   rx="5.8000002"
   ry="5.9000001"
   id="ellipse200"
   style="fill:#4f4f4f;stroke:#000000;stroke-width:3;stroke-miterlimit:10" />&#10;					&#10;						<ellipse
   transform="matrix(0.8346,-0.5509,0.5509,0.8346,-568.5031,563.2032)"
   class="st24"
   cx="653.5"
   cy="1228.1"
   rx="5.8000002"
   ry="5.9000001"
   id="ellipse201"
   style="fill:#4f4f4f;stroke:#000000;stroke-width:3;stroke-miterlimit:10" />&#10;					&#10;						<ellipse
   transform="matrix(0.891,-0.454,0.454,0.891,-483.6404,442.1282)"
   class="st24"
   cx="679.09998"
   cy="1228.4"
   rx="5.3000002"
   ry="5.4000001"
   id="ellipse202"
   style="fill:#4f4f4f;stroke:#000000;stroke-width:3;stroke-miterlimit:10" />&#10;					&#10;						<ellipse
   transform="matrix(0.2641,-0.9645,0.9645,0.2641,-671.7557,1586.3716)"
   class="st25"
   cx="703.70001"
   cy="1233.4"
   rx="5.5"
   ry="5.1999998"
   id="ellipse203"
   style="fill:#4f4f4f;stroke:#000000;stroke-width:3.0004;stroke-miterlimit:10.0016" />&#10;					&#10;						<ellipse
   transform="matrix(0.2641,-0.9645,0.9645,0.2641,-660.9481,1619.6512)"
   class="st25"
   cx="731"
   cy="1243"
   rx="5.5"
   ry="5.1999998"
   id="ellipse204"
   style="fill:#4f4f4f;stroke:#000000;stroke-width:3.0004;stroke-miterlimit:10.0016" />&#10;					<g
   id="g209">&#10;						<path
   class="st26"
   d="m 651.1,1263.8 c -1.2,6.5 -9.7,31.6 -9.7,31.6 0,0 -17.6,7.4 -14,4.4 3.6,-3 11,-23.1 14.3,-32.7 3.4,-9.5 6.9,-30.8 8.6,-36.1 1.7,-5.2 3.8,-3.6 3.8,-3.6 5.6,1.9 -1.6,28.2 -3,36.4 z"
   id="path204"
   style="fill:#a7a9a7;stroke:#000000;stroke-width:3;stroke-miterlimit:10" />&#10;						<path
   class="st26"
   d="m 674.7,1262.5 c -1.1,6.5 -10.1,27.8 -10.1,27.8 0,0 -13.5,4.3 -9.9,1.2 3.6,-3.1 6.9,-13.9 10.2,-23.4 3.4,-9.5 7.4,-30.7 9,-35.8 1.6,-5.1 5.1,-4.1 5.1,-4.1 4.4,1.1 -2.6,26.1 -4.3,34.3 z"
   id="path205"
   style="fill:#a7a9a7;stroke:#000000;stroke-width:3;stroke-miterlimit:10" />&#10;						<path
   class="st26"
   d="m 696.7,1267.1 c -1.1,6.3 -5.3,16.6 -5.3,16.6 0,0 -2.7,0.2 -6.9,1.1 -1,0.2 3.1,-9 5.7,-18.8 2.6,-9.8 4.2,-21.6 6.3,-26.6 4.1,-9.3 6.7,-7 6.7,-7 4.8,2 -5,26.3 -6.5,34.7 z"
   id="path206"
   style="fill:#a7a9a7;stroke:#000000;stroke-width:3;stroke-miterlimit:10" />&#10;						<path
   class="st26"
   d="m 716.9,1267.1 c -2.6,5.9 -1.5,16.8 -1.5,16.8 0,0 -1.8,-1 -4.4,-0.6 -1.2,0.2 -3.6,-4.1 -1,-13.9 2.5,-9.7 5.8,-16.6 9.9,-21.7 9.2,-10.9 11,-5.9 11,-5.9 2.8,6.2 -4.9,4.5 -14,25.3 z"
   id="path207"
   style="fill:#a7a9a7;stroke:#000000;stroke-width:3;stroke-miterlimit:10" />&#10;						<path
   class="st26"
   d="m 743.6,1267.2 c -1.6,8.4 -0.2,29.7 -0.2,29.7 0,0 -2.7,-1 -5.2,-2.6 -1.1,-0.7 -3.3,-10 -2.2,-21.9 0.8,-8.1 3.7,-16.9 7.8,-22 5.9,-7.2 8.4,-5.1 8.4,-5.1 2.9,6.2 -4.7,3.5 -8.6,21.9 z"
   id="path208"
   style="fill:#a7a9a7;stroke:#000000;stroke-width:3;stroke-miterlimit:10" />&#10;						<path
   class="st26"
   d="m 627.9,1237.4 c 0.5,4.3 1.1,17.3 -3.5,35 -4.6,17.7 -15.5,31.8 -16.6,31.7 -1.1,-0.1 -3.8,-7.7 4.9,-27.5 8.7,-19.8 7.8,-35.6 8.6,-41.7 0.8,-6.2 2.9,-5.4 2.9,-5.4 3.9,0.5 3.1,3.6 3.7,7.9 z"
   id="path209"
   style="fill:#a7a9a7;stroke:#000000;stroke-width:3;stroke-miterlimit:10" />&#10;					</g>&#10;					<g
   id="g214">&#10;						<path
   class="st26"
   d="m 637.4,1282.3 c -5.6,-10.7 -10.8,-19.9 -10.8,-19.9 0,0 1.7,-15.2 2.7,-13.9 2.4,2.9 9.5,17.1 12.1,24.7 2.6,7.6 10.7,22.7 12.1,26.7 1.4,4.1 -0.6,4.3 -0.6,4.3 -4,1.9 -12.6,-16.2 -15.5,-21.9 z"
   id="path210"
   style="fill:#a7a9a7;stroke:#000000;stroke-width:3;stroke-miterlimit:10" />&#10;						<path
   class="st26"
   d="m 663.1,1279.5 c -7.1,-9.6 -10.5,-23.7 -10.5,-23.7 0,0 2.1,-11.5 2.6,-10 1.3,3.8 7,15.1 11.5,22.4 4.3,6.7 13.3,18.9 15.4,22.6 2.1,3.9 -1.6,4.8 -1.6,4.8 -3.6,2.7 -13.5,-10.9 -17.4,-16.1 z"
   id="path211"
   style="fill:#a7a9a7;stroke:#000000;stroke-width:3;stroke-miterlimit:10" />&#10;						<path
   class="st26"
   d="m 687.3,1278.2 c -7.1,-9.6 -10.5,-23.7 -10.5,-23.7 0,0 1.5,-14.3 4.1,-8.7 4.6,9.9 7.5,18.6 12,25.7 4.3,6.7 11.4,14.4 13.5,18.1 2.1,3.9 -1.6,4.8 -1.6,4.8 -3.7,2.6 -13.6,-11 -17.5,-16.2 z"
   id="path212"
   style="fill:#a7a9a7;stroke:#000000;stroke-width:3;stroke-miterlimit:10" />&#10;						<path
   class="st26"
   d="M 712.9,1283.8 C 704.2,1272.7 699,1259 699,1259 c 0,0 3.2,-10.8 4.1,-8.6 4.2,10.2 9.8,20.7 15.4,26.7 5.2,5.8 10,12.3 12.1,16.1 2.2,3.7 -0.3,3.6 -0.3,3.6 -3.8,2.5 -13.5,-7.9 -17.4,-13 z"
   id="path213"
   style="fill:#a7a9a7;stroke:#000000;stroke-width:3;stroke-miterlimit:10" />&#10;						<path
   class="st26"
   d="m 736.6,1288 c -8.7,-11.1 -17.4,-25.2 -17.4,-25.2 0,0 2,-7.1 3.6,-5.3 7.9,9.4 10.6,14.5 15.6,21.5 4.4,6.5 6.5,11.9 8.6,15.6 2.1,3.8 0.6,7.1 0.6,7.1 -3.7,2.6 -7.2,-8.6 -11,-13.7 z"
   id="path214"
   style="fill:#a7a9a7;stroke:#000000;stroke-width:3;stroke-miterlimit:10" />&#10;					</g>&#10;				</g>&#10;			</g>&#10;		</g>&#10;		<g
   id="g230">&#10;			<path
   class="st11"
   d="m 656.3,1234.6 c -6.6,-23 -12.5,-34.4 -16.4,-40.7 -3.9,-6.3 -8.7,-18 -17.5,-34.3 -8.8,-16.3 -12.1,-15.5 -15.7,-19.8 -3.6,-4.3 -13.1,5 -14.4,6.2 -1.3,1.3 -9.7,3.4 -13.3,1.6 -3.6,-1.8 -7.6,-1.6 -14.6,-1.6 -7,0 -14.9,8 -18.1,8.4 -3.2,0.4 -0.2,-1.9 -0.3,-3.9 -52.7,-29.1 -53.5,-19.3 -53.5,-19.3 l -36.4,-6.5 c 0.2,10.9 -29.2,-12.6 -34,-8.5 -11.3,-3.4 -136.1,-101.4 -185.2,19 -4.2,10.3 4.8,43.5 4.1,49.4 -1.9,15.5 16.4,42.3 31,45 14,2.6 39,11.8 39,11.8 -11.7,17.2 26.1,18.6 42.4,31.9 20.3,16.6 52.1,12.6 52.1,12.6 0,0 59.3,-8.2 89.2,9.2 29.9,17.4 57,10.1 57,10.1 5.2,3.1 11.9,5.6 23,6.7 11.2,1.1 20.3,-6 23.4,-7.5 3.1,-1.5 12.2,2.8 21.3,9.4 9.1,6.6 14.1,3.1 16.9,0 2.8,-3.1 16.1,-21.1 23,-31.4 6.9,-10.3 4.5,-16.6 4.5,-16.6 -0.3,-1.5 -0.8,-8 -7.5,-31.2 z"
   id="path217"
   style="fill:#003366;stroke:#000000;stroke-width:4;stroke-miterlimit:10" />&#10;			<g
   id="g218">&#10;				<path
   d="m 462.6,1282.1 c 0,0 -0.5,-4 -0.6,-4 5,-0.6 10.2,-1.9 15,-3.3 8.6,-2.6 17.1,-6.1 25.1,-10.3 5.7,-2.9 11.2,-6.5 16.5,-10.1 -16.3,12.9 -35.2,23.4 -56,27.7 z"
   id="path218" />&#10;			</g>&#10;			<g
   id="g219">&#10;				<path
   d="m 624.7,1208.9 c 10.8,12.2 16.2,28.2 17.5,44 0.7,12 -0.4,23.9 -2.7,35.6 -0.9,3.9 -1.9,7.8 -3.6,11.3 0.6,-1.9 0.9,-3.8 1.2,-5.7 1.6,-9.6 2.1,-19.5 2.2,-29.2 0.1,-3.9 0.1,-7.9 -0.2,-11.7 -1.2,-15.6 -5.9,-30.9 -14.4,-44.3 z"
   id="path219" />&#10;			</g>&#10;			<g
   id="g220">&#10;				<path
   d="m 578.6,1313.9 c 0,0 -0.2,-4 -0.2,-3.9 9.3,-0.7 17.7,-6.3 22.5,-13.6 1.7,-2.6 3.2,-5.4 4.6,-8 5.8,-11 10.2,-22.7 11.3,-35 -0.2,6.1 -1.3,12.2 -2.9,18.2 -2.6,9 -6.1,17.8 -10.7,26 -5,8.5 -14.2,15.1 -24.6,16.3 z"
   id="path220" />&#10;			</g>&#10;			<g
   id="g221">&#10;				<path
   d="m 533.6,1308.5 c 0,0 1.2,-3.8 1.3,-3.8 4.1,1 8.7,0.3 12.8,-0.7 11.3,-2.9 21.2,-9.3 30.3,-16.1 l 5.3,-4.3 -5.1,4.7 c -8.7,7.6 -18.3,14.8 -29.7,18.5 -4.6,1.5 -9.8,2.6 -14.9,1.7 z"
   id="path221" />&#10;			</g>&#10;			<g
   id="g222">&#10;				<path
   d="m 561.4,1148.5 c 0,0 -1.8,-3.6 -1.8,-3.6 4.3,-1.5 8.9,-1.6 13.3,-0.6 6.5,1.4 11.1,6.1 14.9,10.8 3.7,4.3 7.9,9 11.9,13.1 -4.4,-3.7 -8.9,-8.1 -13.1,-12.1 -2.8,-2.7 -5.5,-5.5 -9,-7.2 -5,-2.4 -11.2,-2.5 -16.2,-0.4 z"
   id="path222" />&#10;			</g>&#10;			<path
   class="st10"
   d="m 579.1,1147.7 c 0,0 11,5.3 23.5,16.1 12.5,10.8 21.7,36.6 21.7,36.6"
   id="path223"
   style="fill:none;stroke:#000000;stroke-width:3;stroke-miterlimit:10" />&#10;			<g
   id="g224">&#10;				<path
   d="m 624.4,1187.8 c -4.3,-8.2 -8.8,-16.5 -14.7,-24 -4.3,-5.4 -10.3,-9.7 -16.5,-13.4 -2.1,-1.2 -4.4,-2.3 -6.8,-2.4 1.2,-0.2 2.5,0.1 3.6,0.5 5.8,2.1 10.8,5.7 15.5,9.5 5.5,4.8 9.3,11 12.7,17.1 2.4,4.2 4.4,8.4 6.2,12.7 z"
   id="path224" />&#10;			</g>&#10;			<g
   id="g225">&#10;				<path
   d="m 563.4,1158.4 c 1.9,1.9 3.5,4.3 5,6.5 1.3,2.3 2.9,4.7 3.2,7.4 -2.4,-4.8 -6,-9.1 -8.2,-13.9 z"
   id="path225" />&#10;			</g>&#10;			<path
   class="st11"
   d="m 645.2,1203.6 c 5.2,9.7 14.9,45 14.9,45 -1.7,-7.2 0.1,-10.6 3.4,-14.9 3.3,-4.3 3.3,-6.1 -3.1,-32.7 -6.5,-26.6 -32.7,-31 -32.7,-31 0,0 12.3,24 17.5,33.6 z"
   id="path226"
   style="fill:#003366;stroke:#000000;stroke-width:4;stroke-miterlimit:10" />&#10;			<g
   id="g227">&#10;				<path
   d="m 573.1,1302.2 c 13.6,-4 24.9,-13.7 30.6,-25.6 0.9,-1.7 1.6,-3.6 2.4,-5.3 -0.6,1.8 -1,3.7 -1.8,5.4 -5.3,12.5 -17.1,22.8 -31.2,25.5 z"
   id="path227" />&#10;			</g>&#10;			<g
   id="g229">&#10;				<path
   class="st27"
   d="m 532.5,1147.6 c -3.6,7.3 -16,32.5 -16,32.5"
   id="path228"
   style="fill:#43392e" />&#10;				<path
   d="m 516.4,1180.2 c 1.1,-6 3.4,-11.6 6.1,-17.1 2.7,-5.4 5.7,-10.7 9.9,-15.4 -1.1,6 -3.4,11.5 -6.1,17.1 -2.6,5.4 -5.7,10.6 -9.9,15.4 z"
   id="path229" />&#10;			</g>&#10;			<path
   d="m 531.7,1209.5 c 6,-12.5 11.5,-25 15.7,-38.1 0.5,-2.1 1.3,-4.2 1.4,-6.5 0.3,-4.7 -0.5,-9.6 -0.6,-14.2 -0.2,-6.7 1.5,-13.6 0.8,-20.3 0,-0.1 0,-0.3 -0.1,-0.5 -1.4,0.1 -2.8,0.1 -4.2,0.2 v 0 c 0,0.2 0.1,0.4 0.1,0.6 0.4,5 -0.1,9.9 -0.6,15 -0.5,5.1 0.6,10.4 1,15.4 0.4,3.2 -0.2,6.3 -1,9.5 -3.5,13.1 -8.2,26.1 -12.5,38.9 z"
   id="path230" />&#10;		</g>&#10;		<path
   class="st28"
   d="m 259,1099.1 c 0,0 9.6,133.1 313.7,155.2 0,0 26.9,1.9 32.2,-8.5 5.3,-10.5 23.8,-3.6 24.9,11.4 1.1,14.9 4.8,-27 4.8,-27 0,0 13.6,67.5 -5,87.3 0,0 -25.6,-16.7 -30.1,-14.7 -4.5,2 -17,16.6 -47.8,2.4 0,0 -14.6,3 -30.7,-0.1 -16.1,-3.1 -28.4,-15.5 -50.8,-18.2 -22.4,-2.7 -33.1,-4.2 -64.7,-1 -31.6,3.2 -47.9,-9.4 -50,-11 -2.1,-1.6 -7.8,-7.8 -27.4,-14.2 -19.7,-6.4 -22.4,-11.9 -17,-19.3 0,0 -25.1,-10 -39,-11.8 0,0 -17.3,-5.2 -23.9,-21.2 -6.6,-16 -9,-18.6 -7.1,-26.1 0,0 -8.9,-36.5 -4.1,-47.1 4.7,-10.7 9.1,-25 22,-36.1 z"
   id="path231"
   style="opacity:0.63;fill:#001728;enable-background:new" />&#10;		<path
   class="st29"
   d="m 863.4,1294.6 c 0,0 -40.9,27.3 -72.4,13.5 -62.9,-27.6 -120,-21 -131.5,-27.6 l -14.6,19.9 c 0,0 6.2,4.9 9.6,0.8 3.4,-4.1 22.4,-7.3 36.3,-7.6 14,-0.3 50.6,2 56.6,7.5 5.9,5.5 14.4,11.8 26.8,17.6 12.4,5.8 21.1,18.8 36.3,25.3 15.3,6.5 22.1,11.9 27.7,10.1 5.6,-1.8 13.7,-3.2 16.1,-6.6 2.4,-3.4 13.2,-21.4 9.1,-52.9 z"
   id="path232"
   style="opacity:0.63;fill:#00070c;enable-background:new" />&#10;	</g><g
     id="g278">&#10;		<g
   id="g277">&#10;			<g
   id="g263">&#10;				<g
   id="g233">&#10;					<path
   class="st30"
   d="m 238.9,1301.8 c 1.8,-12.4 4.6,-25.9 7.3,-38.5 6.3,-28.7 15.7,-36.5 23.1,-42.6 2.6,-2.1 5,-4.1 7,-6.8 6.3,-8 10.4,-20.1 12.5,-26.6 0.6,-1.9 1.2,-3.6 1.7,-4.5 1.5,-3.6 3.8,-3.7 8.7,-3.9 2.3,0 5.3,-0.2 9.7,-0.5 9.5,-0.9 15.7,3.2 18.9,6.1 0.8,-1.5 2.1,-2.8 3.8,-3.5 2.2,-1 4.6,-1 6.1,-0.1 1.9,1.1 16.1,4.1 26,5.7 7.3,1.2 23.1,2.5 47.1,-2.6 23.1,-4.9 52.3,-6.4 52.6,-6.5 h 0.6 l 0.5,0.4 c 20.9,14.6 30.1,36.1 26.3,62.3 -4.8,33.4 -29.2,64.7 -37,65.1 -10.6,0.5 -43.4,-6.1 -44.9,-6.4 -13,-2.8 -61,-4.1 -74.3,6.1 -13.3,10.2 -24.7,15.5 -29.4,17.8 l -0.6,0.3 c -1.9,0.9 -3.7,2.4 -7.2,5.2 -3.1,2.5 -7.7,6.2 -15.2,11.8 -16,11.9 -36.9,16.7 -37.8,16.9 l -1.4,0.3 -0.6,-1.3 c -6,-12.9 -7,-29.6 -3.5,-54.2 z"
   id="path233"
   style="fill:#59493d;stroke:#000000;stroke-width:5;stroke-miterlimit:10" />&#10;				</g>&#10;				<path
   class="st13"
   d="m 295.5,1180.7 c 0,0 -10.9,-4 -13.3,-2.9 -2.4,1.1 -6.1,-0.3 -10.3,13.6 -4.2,13.8 -5.9,20.4 -12.1,25.9 -6.3,5.5 -24,10 -32,37.6 -8.1,27.8 -12.8,48.9 -9.7,67.5 3.1,18.6 5.7,29 13.4,31.3 7.7,2.4 14.1,5.3 12.5,1.6 -1.6,-3.7 -6,-10.5 -5.4,-26.3 0.6,-15.9 4,-48.6 10.7,-71.6 6.8,-22.9 11.9,-28.5 22,-36.4 10.1,-7.9 16.1,-24.4 17.4,-28.2 1.3,-3.8 3,-11.9 6.8,-12.1 z"
   id="path234"
   style="fill:#ffffff;stroke:#000000;stroke-width:3;stroke-miterlimit:10" />&#10;				<path
   class="st10"
   d="m 295.7,1327.4 c 0,0 7.3,-8.2 5.9,-41.4 -1.4,-33.2 -26,-46.3 -38.3,-57.7"
   id="path235"
   style="fill:none;stroke:#000000;stroke-width:3;stroke-miterlimit:10" />&#10;				<g
   id="g236">&#10;					<path
   d="m 329.8,1182.4 c -0.8,6.7 -1.6,13.6 -1.7,20.4 0.3,6.8 1.2,13.7 2.1,20.5 -0.8,-3.4 -1.4,-6.8 -2.2,-10.2 -2.4,-10.2 -2.3,-20.6 -1.7,-31 0.1,0 3.5,0.3 3.5,0.3 z"
   id="path236" />&#10;				</g>&#10;				<path
   class="st10"
   d="m 307,1226.6 c 0,0 -11.8,-13.7 -28.8,-15.7"
   id="path237"
   style="fill:none;stroke:#000000;stroke-width:3;stroke-miterlimit:10" />&#10;				<path
   d="m 271.3,1221.1 7,-10.6 -9.6,6.4 4.4,-5.1 -4.2,3.7 0.9,-6.2 c 0,0 -4.5,5.5 -7.3,6.7 -2.8,1.2 -17.5,11.2 -17.5,11.2 l 6.4,-1.4 -7.9,11.3 12.3,-11.8 c 0,0 -7.1,11.1 -7.9,12.4 -0.8,1.3 10.2,-10.2 10.2,-10.2 0,0 -5.7,13 -5.8,15.6 0.1,2.8 7.3,-18.7 19,-22 z"
   id="path238" />&#10;				<path
   class="st1"
   d="m 472,1251.6 c 0,0 4.3,24.3 -5.3,37.1 -9.7,12.8 -14.1,12.3 -14.1,12.3 0,0 -48.9,-15.4 -55.8,-16.4 -6.9,-1 -19.9,-1.4 -34.4,3 -14.6,4.4 -20.4,6.1 -20.4,6.1 l -2.6,-26.8 c 0,0 13,-8.3 28,-13.9 15,-5.6 33.5,-12.4 53.4,-10.4 19.9,2 51.2,9 51.2,9 z"
   id="path239"
   style="fill:#37342f;stroke:#000000;stroke-width:3;stroke-miterlimit:10" />&#10;				<g
   id="g241">&#10;					<path
   class="st10"
   d="m 460,1303.8 c 0,0 -29.8,-8.6 -39.7,-10.8 -9.9,-2.2 -32.5,-12.4 -50,-6.5 -17.5,5.9 -27.2,8.1 -35.9,10.8 -8.7,2.7 -30.1,16.1 -32.5,27.2"
   id="path240"
   style="fill:none;stroke:#000000;stroke-width:3;stroke-miterlimit:10" />&#10;					<path
   class="st10"
   d="m 461.9,1310.4 c 0,0 -29.8,-8.6 -39.7,-10.8 -9.9,-2.2 -32.5,-12.4 -50,-6.5 -17.6,5.9 -27.2,8.1 -35.9,10.8 -8.7,2.7 -18.8,8.8 -26.6,18.6"
   id="path241"
   style="fill:none;stroke:#000000;stroke-width:3;stroke-miterlimit:10" />&#10;				</g>&#10;				<g
   id="g245">&#10;					<path
   class="st10"
   d="m 298.5,1221.9 c -2,-0.6 -12.2,11.3 -12.3,12.5 -0.2,1.3 8.9,6.5 15.5,12.9 6.6,6.4 14.5,15.8 22.4,18.6 7.9,2.7 8.5,1.3 25.2,-7.3 16.5,-8.7 28.7,-8.9 41.4,-12.6 12.7,-3.7 29,-1.4 43.2,-0.1 14.2,1.3 40.6,8 40.6,8"
   id="path242"
   style="fill:none;stroke:#000000;stroke-width:3;stroke-miterlimit:10" />&#10;					<path
   class="st10"
   d="m 465.8,1245.1 c 0,0 -22.4,-3.3 -35.4,-4.6 -13,-1.3 -28.4,-2.8 -40.1,-0.2 -12.2,2.7 -21.7,4.5 -38.3,11.1 -16,6.3 -20.2,12.1 -25,10.4 -7.2,-2.6 -12.9,-8.6 -19,-14.4 -6.1,-5.8 -14.5,-12.7 -14.3,-13.9 0.2,-1.1 7.4,-7.2 9,-9.6"
   id="path243"
   style="fill:none;stroke:#000000;stroke-width:3;stroke-miterlimit:10" />&#10;					<path
   class="st10"
   d="m 292.9,1226.4 c 2.3,-2.4 5.6,-4.9 5.6,-4.9 l 3.4,2 c 11.9,9.5 24,11.5 30.3,11.9 6.3,0.4 25,-6.4 35.3,-9.8 10.3,-3.2 32.5,-4.6 32.5,-4.6 0,0 28.7,-3.6 54.2,0"
   id="path244"
   style="fill:none;stroke:#000000;stroke-width:3;stroke-miterlimit:10" />&#10;					<line
   class="st10"
   x1="304.60001"
   y1="1243.4"
   x2="315.20001"
   y2="1231.5"
   id="line244"
   style="fill:none;stroke:#000000;stroke-width:3;stroke-miterlimit:10" />&#10;					<line
   class="st10"
   x1="300.70001"
   y1="1241.5"
   x2="311.20001"
   y2="1229.7"
   id="line245"
   style="fill:none;stroke:#000000;stroke-width:3;stroke-miterlimit:10" />&#10;				</g>&#10;				<g
   id="g262">&#10;					&#10;						<ellipse
   transform="matrix(0.2766,-0.961,0.961,0.2766,-962.611,1218.4786)"
   class="st23"
   cx="328"
   cy="1248.6"
   rx="4.9000001"
   ry="5.3000002"
   id="ellipse245"
   style="fill:#4f4f4f;stroke:#000000;stroke-width:3;stroke-miterlimit:9.9996" />&#10;					<g
   id="g261">&#10;						&#10;							<ellipse
   transform="matrix(0.5148,-0.8573,0.8573,0.5148,-834.7117,987.6688)"
   class="st24"
   cx="455.20001"
   cy="1231.2"
   rx="5.9000001"
   ry="5.8000002"
   id="ellipse246"
   style="fill:#4f4f4f;stroke:#000000;stroke-width:3;stroke-miterlimit:10" />&#10;						&#10;							<ellipse
   transform="matrix(0.5148,-0.8573,0.8573,0.5148,-847.1692,962.5129)"
   class="st24"
   cx="426.70001"
   cy="1229.7"
   rx="5.9000001"
   ry="5.8000002"
   id="ellipse247"
   style="fill:#4f4f4f;stroke:#000000;stroke-width:3;stroke-miterlimit:10" />&#10;						&#10;							<ellipse
   transform="matrix(0.4125,-0.9109,0.9109,0.4125,-885.06,1088.167)"
   class="st24"
   cx="401.10001"
   cy="1230.3"
   rx="5.4000001"
   ry="5.3000002"
   id="ellipse248"
   style="fill:#4f4f4f;stroke:#000000;stroke-width:3;stroke-miterlimit:10" />&#10;						&#10;							<ellipse
   transform="matrix(0.9559,-0.2936,0.2936,0.9559,-346.1363,164.9755)"
   class="st25"
   cx="376.5"
   cy="1235.6"
   rx="5.0999999"
   ry="5.5"
   id="ellipse249"
   style="fill:#4f4f4f;stroke:#000000;stroke-width:3.0004;stroke-miterlimit:10.0016" />&#10;						&#10;							<ellipse
   transform="matrix(0.9559,-0.2936,0.2936,0.9559,-350.2397,157.4688)"
   class="st25"
   cx="349.5"
   cy="1245.5"
   rx="5.0999999"
   ry="5.5"
   id="ellipse250"
   style="fill:#4f4f4f;stroke:#000000;stroke-width:3.0004;stroke-miterlimit:10.0016" />&#10;						<g
   id="g255">&#10;							<path
   class="st26"
   d="m 426.1,1228.8 c 0,0 2.2,-1.6 3.9,3.6 1.7,5.2 5.6,26.5 9.1,36 3.5,9.5 11.2,29.4 14.8,32.5 3.6,3.1 -14,-4.2 -14,-4.2 0,0 -8.9,-25 -10.2,-31.4 -1.6,-8.2 -9.1,-34.4 -3.6,-36.5 z"
   id="path250"
   style="fill:#a7a9a7;stroke:#000000;stroke-width:3;stroke-miterlimit:10" />&#10;							<path
   class="st26"
   d="m 401.1,1230 c 0,0 3.4,-1 5.2,4.1 1.8,5.1 6.1,26.2 9.6,35.7 3.5,9.5 7,20.3 10.6,23.3 3.6,3 -9.9,-1.1 -9.9,-1.1 0,0 -9.3,-21.2 -10.5,-27.6 -1.9,-8.3 -9.3,-33.2 -5,-34.4 z"
   id="path251"
   style="fill:#a7a9a7;stroke:#000000;stroke-width:3;stroke-miterlimit:10" />&#10;							<path
   class="st26"
   d="m 376.9,1234.6 c 0,0 2.6,-2.3 6.8,7 2.2,5 3.9,16.8 6.7,26.5 2.8,9.8 7,19 6,18.8 -4.2,-0.9 -6.9,-1 -6.9,-1 0,0 -4.3,-10.2 -5.6,-16.6 -1.4,-8.5 -11.6,-32.7 -7,-34.7 z"
   id="path252"
   style="fill:#a7a9a7;stroke:#000000;stroke-width:3;stroke-miterlimit:10" />&#10;							<path
   class="st26"
   d="m 349.5,1244.3 c 0,0 1.7,-5 11.1,5.8 4.3,5 7.6,11.8 10.3,21.6 2.8,9.8 0.5,14.1 -0.8,13.9 -2.7,-0.3 -4.4,0.7 -4.4,0.7 0,0 0.9,-10.9 -1.8,-16.8 -9.4,-20.7 -17.1,-18.9 -14.4,-25.2 z"
   id="path253"
   style="fill:#a7a9a7;stroke:#000000;stroke-width:3;stroke-miterlimit:10" />&#10;							<path
   class="st26"
   d="m 328.2,1248.1 c 0,0 2.5,-2.1 8.5,5 4.3,5 7.3,13.8 8.2,21.9 1.2,11.9 -0.8,21.2 -1.9,21.9 -2.5,1.6 -5.1,2.6 -5.1,2.6 0,0 1.1,-21.2 -0.6,-29.7 -4.3,-18.3 -11.8,-15.4 -9.1,-21.7 z"
   id="path254"
   style="fill:#a7a9a7;stroke:#000000;stroke-width:3;stroke-miterlimit:10" />&#10;							<path
   class="st26"
   d="m 456.1,1230.6 c 0,0 2,-0.8 3,5.4 0.8,6.2 0.1,21.9 9.2,41.6 9.1,19.7 6.5,27.3 5.4,27.4 -1.1,0.1 -12.3,-13.8 -17.1,-31.5 -4.8,-17.7 -4.4,-30.7 -4.1,-35 0.4,-4.2 -0.4,-7.3 3.6,-7.9 z"
   id="path255"
   style="fill:#a7a9a7;stroke:#000000;stroke-width:3;stroke-miterlimit:10" />&#10;						</g>&#10;						<g
   id="g260">&#10;							<path
   class="st26"
   d="m 428.4,1305.7 c 0,0 -2,-0.3 -0.6,-4.3 1.4,-4.1 9.2,-19.2 11.7,-26.9 2.5,-7.7 9.4,-22 11.7,-24.9 1,-1.3 2.9,13.9 2.9,13.9 0,0 -5.1,9.2 -10.5,20 -2.8,5.9 -11,24.1 -15.2,22.2 z"
   id="path256"
   style="fill:#a7a9a7;stroke:#000000;stroke-width:3;stroke-miterlimit:10" />&#10;							<path
   class="st26"
   d="m 400.7,1297.7 c 0,0 -3.7,-0.9 -1.7,-4.8 2,-3.8 10.9,-16 15.1,-22.8 4.5,-7.4 10,-18.8 11.2,-22.6 0.4,-1.5 2.8,9.9 2.8,9.9 0,0 -3.1,14.1 -10.1,23.8 -3.9,5.2 -13.6,19 -17.3,16.5 z"
   id="path257"
   style="fill:#a7a9a7;stroke:#000000;stroke-width:3;stroke-miterlimit:10" />&#10;							<path
   class="st26"
   d="m 376.4,1296.6 c 0,0 -3.7,-0.9 -1.7,-4.8 2,-3.8 9,-11.5 13.2,-18.3 4.4,-7.1 7.2,-15.9 11.6,-25.8 2.5,-5.6 4.2,8.6 4.2,8.6 0,0 -3.1,14.1 -10.1,23.8 -3.8,5.3 -13.4,19.1 -17.2,16.5 z"
   id="path258"
   style="fill:#a7a9a7;stroke:#000000;stroke-width:3;stroke-miterlimit:10" />&#10;							<path
   class="st26"
   d="m 351.1,1299.3 c 0,0 -2.5,0.2 -0.4,-3.6 2,-3.8 6.7,-10.4 11.8,-16.2 5.5,-6.1 10.9,-16.7 15,-26.9 0.9,-2.2 4.2,8.5 4.2,8.5 0,0 -5,13.7 -13.6,24.9 -3.7,5.3 -13.3,15.8 -17,13.3 z"
   id="path259"
   style="fill:#a7a9a7;stroke:#000000;stroke-width:3;stroke-miterlimit:10" />&#10;							<path
   class="st26"
   d="m 333.8,1304.4 c 0,0 -1.6,-3.3 0.4,-7.1 2,-3.8 4,-9.2 8.4,-15.7 4.9,-7.1 7.5,-12.2 15.2,-21.7 1.5,-1.8 3.7,5.3 3.7,5.3 0,0 -8.5,14.2 -17,25.4 -3.6,5.1 -7,16.4 -10.7,13.8 z"
   id="path260"
   style="fill:#a7a9a7;stroke:#000000;stroke-width:3;stroke-miterlimit:10" />&#10;						</g>&#10;					</g>&#10;				</g>&#10;			</g>&#10;			<g
   id="g276">&#10;				<path
   class="st11"
   d="m 417.1,1267.3 c 0,0 -2.3,6.4 4.7,16.6 7,10.2 20.6,28 23.5,31.1 2.9,3.1 7.9,6.5 16.9,-0.2 9,-6.7 18,-11.1 21.2,-9.7 3.2,1.4 12.3,8.5 23.5,7.2 11.1,-1.3 17.8,-3.8 22.9,-7 0,0 27.2,7 56.8,-10.9 29.6,-17.7 89,-10.4 89,-10.4 0,0 31.9,3.6 51.9,-13.3 16,-13.5 53.8,-15.4 41.8,-32.5 0,0 24.9,-9.6 38.8,-12.3 14.6,-2.9 32.4,-30 30.3,-45.4 -0.8,-5.9 7.7,-39.2 3.3,-49.4 -51,-119.7 -174.2,-20.1 -185.5,-16.5 -4.8,-4 -33.9,19.9 -33.8,9 l -36.3,7 c 0,0 -1,-9.8 -53.2,20 -0.1,2 2.9,4.2 -0.2,3.9 -3.2,-0.3 -11.2,-8.2 -18.2,-8.1 -7,0.1 -11,0 -14.6,1.8 -3.6,1.9 -12,-0.2 -13.3,-1.4 -1.3,-1.2 -11,-10.4 -14.5,-6 -3.5,4.4 -6.7,3.6 -15.3,20 -8.6,16.4 -13.2,28.1 -17,34.5 -3.8,6.4 -9.5,17.8 -15.8,40.9 -6.4,23.2 -6.8,29.7 -6.9,31.1 z"
   id="path263"
   style="fill:#003366;stroke:#000000;stroke-width:4;stroke-miterlimit:10" />&#10;				<g
   id="g264">&#10;					<path
   d="m 618.4,1281.1 c -20.9,-4 -40,-14.3 -56.4,-26.8 5.3,3.5 10.9,7 16.6,9.8 8,4.1 16.6,7.5 25.2,9.9 4.9,1.3 10.1,2.5 15,3.1 0.1,0 -0.4,4 -0.4,4 z"
   id="path264" />&#10;				</g>&#10;				<g
   id="g265">&#10;					<path
   d="m 455.1,1210 c -8.3,13.6 -12.7,28.9 -13.7,44.4 -0.3,3.8 -0.3,7.8 -0.1,11.7 0.3,9.7 1,19.6 2.7,29.2 0.4,2 0.7,3.8 1.3,5.7 -1.7,-3.6 -2.8,-7.4 -3.8,-11.3 -2.5,-11.6 -3.8,-23.5 -3.3,-35.5 1.2,-15.7 6.4,-31.8 16.9,-44.2 z"
   id="path265" />&#10;				</g>&#10;				<g
   id="g266">&#10;					<path
   d="m 503,1314.4 c -10.4,-1 -19.8,-7.5 -24.9,-16 -4.7,-8.2 -8.4,-16.9 -11.1,-25.9 -1.7,-6 -2.9,-12.1 -3.2,-18.2 1.4,12.3 5.9,23.9 11.9,34.8 1.5,2.6 3,5.4 4.8,8 4.9,7.3 13.4,12.7 22.7,13.3 -0.1,0 -0.2,4 -0.2,4 z"
   id="path266" />&#10;				</g>&#10;				<g
   id="g267">&#10;					<path
   d="m 547.9,1308.5 c -5.1,1 -10.3,-0.1 -15,-1.6 -11.4,-3.6 -21.2,-10.6 -30,-18.1 l -5.1,-4.6 5.4,4.2 c 9.2,6.6 19.2,12.9 30.5,15.7 4.2,0.9 8.7,1.6 12.8,0.6 0.1,0 1.4,3.8 1.4,3.8 z"
   id="path267" />&#10;				</g>&#10;				<g
   id="g268">&#10;					<path
   d="m 517.6,1148.8 c -5.1,-2.1 -11.2,-1.9 -16.1,0.6 -3.5,1.8 -6.1,4.5 -8.9,7.3 -4.1,4 -8.6,8.5 -12.9,12.2 3.9,-4.1 8,-8.8 11.7,-13.2 3.7,-4.8 8.2,-9.5 14.7,-11 4.3,-1 9,-1.1 13.3,0.4 -0.1,0.1 -1.8,3.7 -1.8,3.7 z"
   id="path268" />&#10;				</g>&#10;				<path
   class="st10"
   d="m 455.5,1201.6 c 0,0 8.8,-25.9 21.1,-36.9 12.3,-11 23.2,-16.5 23.2,-16.5"
   id="path269"
   style="fill:none;stroke:#000000;stroke-width:3;stroke-miterlimit:10" />&#10;				<g
   id="g270">&#10;					<path
   d="m 455.2,1189 c 1.7,-4.3 3.7,-8.6 5.9,-12.7 3.4,-6.1 7,-12.4 12.5,-17.2 4.6,-3.8 9.6,-7.5 15.4,-9.7 1.1,-0.4 2.5,-0.7 3.6,-0.5 -2.5,0.1 -4.7,1.2 -6.8,2.4 -6.1,3.7 -12,8.1 -16.2,13.6 -5.9,7.4 -10.2,15.8 -14.4,24.1 z"
   id="path270" />&#10;				</g>&#10;				<g
   id="g271">&#10;					<path
   d="m 515.7,1158.7 c -2.2,4.9 -5.7,9.2 -8,14 0.3,-2.7 1.8,-5.1 3.1,-7.5 1.5,-2.2 3,-4.5 4.9,-6.5 z"
   id="path271" />&#10;				</g>&#10;				<path
   class="st11"
   d="m 451.5,1171.2 c 0,0 -26.2,4.8 -32.2,31.4 -6,26.7 -5.9,28.6 -2.5,32.8 3.4,4.2 5.3,7.5 3.7,14.8 0,0 9.2,-35.4 14.2,-45.2 4.9,-9.7 16.8,-33.8 16.8,-33.8 z"
   id="path272"
   style="fill:#003366;stroke:#000000;stroke-width:4;stroke-miterlimit:10" />&#10;				<g
   id="g273">&#10;					<path
   d="m 508.3,1302.7 c -14.1,-2.5 -26.1,-12.7 -31.6,-25.1 -0.8,-1.7 -1.3,-3.6 -1.9,-5.4 0.8,1.7 1.5,3.5 2.5,5.3 5.9,11.9 17.3,21.4 31,25.2 z"
   id="path273" />&#10;				</g>&#10;				<g
   id="g275">&#10;					<path
   class="st27"
   d="m 563,1179.9 c 0,0 -12.9,-25.1 -16.5,-32.3"
   id="path274"
   style="fill:#43392e" />&#10;					<path
   d="m 563,1179.9 c -4.3,-4.7 -7.4,-9.8 -10.2,-15.2 -2.8,-5.5 -5.2,-11 -6.4,-17 4.3,4.6 7.4,9.8 10.2,15.2 2.8,5.4 5.2,11 6.4,17 z"
   id="path275" />&#10;				</g>&#10;				<path
   d="m 535.1,1170.7 c -0.8,-3.2 -1.5,-6.3 -1.1,-9.5 0.3,-5 1.3,-10.3 0.7,-15.4 -0.6,-5 -1.2,-9.9 -0.9,-14.9 0,-0.2 0.1,-0.4 0.1,-0.6 v 0 c -1.4,-0.1 -2.8,-0.1 -4.2,-0.1 0,0.2 -0.1,0.4 -0.1,0.5 -0.5,6.8 1.3,13.6 1.2,20.3 -0.1,4.5 -0.8,9.5 -0.4,14.2 0.2,2.2 1,4.4 1.5,6.5 4.4,13.1 10.1,25.5 16.3,37.9 -4.5,-13 -9.4,-25.8 -13.1,-38.9 z"
   id="path276" />&#10;			</g>&#10;			<path
   class="st29"
   d="m 217.8,1298 c 0,0 40.9,27.3 72.4,13.5 62.9,-27.6 120,-21 131.5,-27.6 l 14.6,19.9 c 0,0 -6.2,4.9 -9.6,0.8 -3.4,-4.1 -22.4,-7.3 -36.3,-7.6 -14,-0.3 -50.6,2 -56.6,7.5 -6,5.5 -14.4,11.8 -26.8,17.6 -12.4,5.8 -21.1,18.8 -36.3,25.3 -15.2,6.5 -22.1,11.9 -27.7,10.1 -5.6,-1.8 -13.7,-3.2 -16.1,-6.6 -2.4,-3.5 -13.1,-21.4 -9.1,-52.9 z"
   id="path277"
   style="opacity:0.63;fill:#00070c;enable-background:new" />&#10;		</g>&#10;		<path
   class="st28"
   d="m 801.3,1203.8 c -11.8,7.7 -24.3,12.6 -37.4,17.9 -12.2,4.9 -26.8,15 -40.6,10.2 -7,-2.4 -8.7,-7.1 -14.1,-11.2 -7.6,-5.9 -12.5,-5 -22,-1.9 -27.3,8.9 -43,35.3 -67.9,48.2 -19.1,9.9 -33,8.5 -49.1,-3.5 -12.7,-9.5 -25.7,-11.8 -41.4,-6.5 -28.9,9.7 -49.6,32.8 -75.9,46.8 -3.4,1.8 -8.4,5.8 -11.3,7 4,3.4 5.5,6.1 9.8,7.9 0,0 8.5,-1.2 28.2,-13.5 7.7,-4.8 6.7,12.4 32.1,6.7 6.3,-1.4 10.9,-5.7 18,-6.5 8.7,-1 20.1,1.5 29.5,-0.3 16.5,-3 35.4,-16.6 53.1,-20.1 14.4,-2.9 61.8,2 76.1,-1.3 34.7,-8.1 34.3,-8.9 51.1,-20 5.2,-3.4 34.1,-11.6 31,-18.8 -5.5,-12.7 42.9,-18.4 53.2,-29.4 13.3,-14.1 16.9,-31.6 13,-44.7 -9.3,12.3 -20.8,23.4 -35.4,33 z"
   id="path278"
   style="opacity:0.63;fill:#001728;enable-background:new" />&#10;	</g></g></g>&#10;	</g>&#10;</g>&#10;</svg>
