<?xml version="1.0" encoding="UTF-8" standalone="no"?>
<!-- Generator: Adobe Illustrator 28.0.0, SVG Export Plug-In . SVG Version: 6.00 Build 0)  -->

<svg
   version="1.1"
   x="0px"
   y="0px"
   viewBox="0 0 163.09745 184.72449"
   xml:space="preserve"
   id="svg449"
   sodipodi:docname="Fox SVG (character) (meditating)[1].svg"
   inkscape:version="1.3.2 (091e20e, 2023-11-25, custom)"
   width="163.09744"
   height="184.7245"
   xmlns:inkscape="http://www.inkscape.org/namespaces/inkscape"
   xmlns:sodipodi="http://sodipodi.sourceforge.net/DTD/sodipodi-0.dtd"
   xmlns="http://www.w3.org/2000/svg"
   xmlns:svg="http://www.w3.org/2000/svg"><defs
   id="defs449"><clipPath
     clipPathUnits="userSpaceOnUse"
     id="clipPath2"><rect
       style="opacity:0.696067;fill:#fffeec;stroke-width:2.78091"
       id="rect2"
       width="491.79776"
       height="275.06613"
       x="294.5011"
       y="716.91315" /></clipPath></defs><sodipodi:namedview
   id="namedview449"
   pagecolor="#505050"
   bordercolor="#ffffff"
   borderopacity="1"
   inkscape:showpageshadow="0"
   inkscape:pageopacity="0"
   inkscape:pagecheckerboard="1"
   inkscape:deskcolor="#505050"
   inkscape:zoom="2.1266118"
   inkscape:cx="110.97465"
   inkscape:cy="119.43882"
   inkscape:window-width="1920"
   inkscape:window-height="991"
   inkscape:window-x="-9"
   inkscape:window-y="-9"
   inkscape:window-maximized="1"
   inkscape:current-layer="g451" />
<style
   type="text/css"
   id="style1">
	.st0{fill:#F4EFDF;stroke:#000000;stroke-width:3;stroke-miterlimit:10;}
	.st1{fill:#37342F;stroke:#000000;stroke-width:3;stroke-miterlimit:10;}
	.st2{opacity:0.28;enable-background:new    ;}
	.st3{fill:#003366;stroke:#000000;stroke-width:4;stroke-linecap:round;stroke-linejoin:round;stroke-miterlimit:10;}
	.st4{fill:#011E35;}
	.st5{fill:none;stroke:#000000;stroke-width:3;stroke-linecap:round;stroke-linejoin:round;stroke-miterlimit:10;}
	.st6{fill:#635F3B;}
	.st7{fill:#FFFFFF;stroke:#000000;stroke-width:3;stroke-linecap:round;stroke-linejoin:round;stroke-miterlimit:10;}
	.st8{fill:#022847;stroke:#000000;stroke-width:4;stroke-miterlimit:10;}
	.st9{fill:#003768;stroke:#000000;stroke-width:4;stroke-miterlimit:10;}
	.st10{fill:none;stroke:#000000;stroke-width:3;stroke-miterlimit:10;}
	.st11{fill:#003366;stroke:#000000;stroke-width:4;stroke-miterlimit:10;}
	.st12{fill:none;stroke:#000000;stroke-width:2;stroke-miterlimit:10;}
	.st13{fill:#FFFFFF;stroke:#000000;stroke-width:3;stroke-miterlimit:10;}
	.st14{fill:#7C735F;stroke:#000000;stroke-width:4;stroke-miterlimit:10;}
	.st15{fill:#A09989;}
	.st16{fill:#011E35;stroke:#000000;stroke-width:5;stroke-miterlimit:10;}
	.st17{fill:#D8D8D8;}
	.st18{fill:none;stroke:#000000;stroke-width:2;stroke-linecap:round;stroke-linejoin:round;stroke-miterlimit:10;}
	.st19{fill:#59493D;}
	.st20{fill:#5B5445;stroke:#000000;stroke-width:4;stroke-miterlimit:10;}
	.st21{opacity:0.43;enable-background:new    ;}
	.st22{fill:#DDDDDD;stroke:#000000;stroke-width:3;stroke-miterlimit:10;}
	.st23{fill:#4F4F4F;stroke:#000000;stroke-width:3;stroke-miterlimit:9.9996;}
	.st24{fill:#4F4F4F;stroke:#000000;stroke-width:3;stroke-miterlimit:10;}
	.st25{fill:#4F4F4F;stroke:#000000;stroke-width:3.0004;stroke-miterlimit:10.0016;}
	.st26{fill:#A7A9A7;stroke:#000000;stroke-width:3;stroke-miterlimit:10;}
	.st27{fill:#43392E;}
	.st28{opacity:0.63;fill:#001728;enable-background:new    ;}
	.st29{opacity:0.63;fill:#00070C;enable-background:new    ;}
	.st30{fill:#59493D;stroke:#000000;stroke-width:5;stroke-miterlimit:10;}
	.st31{fill:#16191C;stroke:#000000;stroke-width:4;stroke-miterlimit:10;}
	.st32{fill:#43392E;stroke:#000000;stroke-width:4;stroke-miterlimit:10;}
	.st33{fill:#332A22;stroke:#000000;stroke-width:4;stroke-miterlimit:10;}
	.st34{opacity:0.47;enable-background:new    ;}
	.st35{fill:#756F65;}
	.st36{fill:#F4EFDF;}
	.st37{fill:#FFFFFF;stroke:#000000;stroke-width:4;stroke-miterlimit:10;}
	.st38{fill:#3A0F0F;}
	.st39{fill:#3F0E0E;}
	.st40{fill:none;stroke:#000000;stroke-linecap:round;stroke-linejoin:round;stroke-miterlimit:10;}
	.st41{stroke:#000000;stroke-width:3;stroke-miterlimit:10;}
	.st42{fill:#262728;}
	.st43{opacity:0.75;fill:#FFFFFF;enable-background:new    ;}
	.st44{fill:#37342F;}
	.st45{fill:#3F0E0E;stroke:#000000;stroke-width:3;stroke-miterlimit:10;}
	.st46{fill:#AA9D7B;stroke:#000000;stroke-width:0.5;stroke-miterlimit:10;}
	.st47{opacity:0.32;enable-background:new    ;}
	.st48{fill:#09568A;stroke:#000000;stroke-width:3;stroke-miterlimit:10;}
	.st49{fill:#000002;}
	.st50{fill:#FAFFFF;}
	.st51{fill:#030000;}
	.st52{fill:#564D36;stroke:#000000;stroke-width:4;stroke-miterlimit:10;}
	.st53{fill:none;stroke:#000000;stroke-width:4;stroke-miterlimit:10;}
	.st54{fill:#817B66;stroke:#000000;stroke-width:4;stroke-miterlimit:10;}
	.st55{fill:#514E3F;stroke:#000000;stroke-width:3;stroke-miterlimit:10;}
	.st56{fill:#262314;stroke:#000000;stroke-width:3;stroke-miterlimit:10;}
	.st57{fill:#173A50;stroke:#000000;stroke-width:4;stroke-miterlimit:10;}
	.st58{opacity:0.86;fill:#7CA3B0;enable-background:new    ;}
</style>
<g
   id="Layer_1"
   transform="translate(-308.26533,-520.56774)">
	<g
   id="Layer_1_00000000195485673124976050000012168667985312893366_">
	</g>
	
	
	
	
	
	
	
	
	
	
	
	
	
	
	
	
	
	
	
	
	
	
	
	
	
	
	
	
	
	
	
	
	<g
   id="g451"
   transform="matrix(0.54213609,0,0,0.54213609,96.279287,117.00163)"><g
     id="body_00000125574957413158125070000012424274066792843906_"
     clip-path="url(#clipPath2)">
		<g
   id="g150">
			<path
   class="st11"
   d="m 427.6,1002.1 c 0,0 -10.1,5.8 -4.1,24.9 6,19.1 4,41.1 45.8,48 41.9,6.9 164.3,14.6 182.5,-0.9 18.2,-15.5 43.3,-35.1 29,-56.6 -14.3,-21.5 -21.5,-5.5 -29.3,-32.3 -7.8,-26.8 -7.4,-114.3 -2.9,-122.2 4.5,-7.9 -151.7,-1.7 -179.8,1.8 -28,3.7 -38.7,106.7 -41.2,137.3 z"
   id="path59" />
			<g
   id="g62">
				<path
   class="st12"
   d="m 584.6,958.3 c 0,0 11.7,-8.7 20.3,-10.3 8.5,-1.5 22.2,-4.2 34.9,-9.3 12.7,-5.1 11,1 11,1 0,0 9.9,27.6 5.5,31.8 -4.4,4.2 -14.4,8.1 -27.5,12.1 -13,4 -25.6,6.4 -29.7,6.2 -4.1,-0.1 -11.2,-1.7 -12.9,-13.9 -1.7,-12.2 -1.6,-17.6 -1.6,-17.6 z"
   id="path60" />
				<path
   class="st10"
   d="m 586.3,976.9 c -0.6,-3.7 -1.7,-18.7 -1.7,-18.7 0,0 8,-7.7 25.5,-11.2 17.5,-3.5 25.4,-8.7 29.7,-8.4 4.3,0.3 8.8,-5.3 11,1 2.2,6.3 6.4,24.5 6.4,24.5 0.4,2.7 14.4,22.8 10.7,36.1 -3.7,13.3 -33.1,19 -33.1,19 0,0 -29.6,6.6 -38.8,-2.7 -9.2,-9.4 -7.2,-16.6 -8.2,-34 0,0.1 -1.2,-3.5 -1.5,-5.6 z"
   id="path61" />
				<path
   class="st13"
   d="m 639.1,1004.7 c 0,3.1 -1.5,5.3 -4.6,5.3 -3.1,0 -5.7,-1.7 -5.7,-4.9 0,-3.2 2.5,-5.7 5.7,-5.7 3.2,0 4.6,2.1 4.6,5.3 z"
   id="path62" />
			</g>
			<g
   id="g65">
				<path
   class="st12"
   d="m 505.5,958.7 c 0,0 -11.2,-8 -19,-9 -7.8,-1.1 -20.5,-2.9 -32.4,-7.3 -11.9,-4.4 -10,1.6 -10,1.6 0,0 -7.4,27.7 -3.1,31.7 4.3,3.9 13.6,7.2 25.7,10.5 12.1,3.3 23.7,4.9 27.4,4.6 3.7,-0.4 10.1,-2.3 11,-14.3 0.8,-12.3 0.4,-17.8 0.4,-17.8 z"
   id="path63" />
				<path
   class="st10"
   d="m 505,977.2 c 0.3,-3.7 0.5,-18.5 0.5,-18.5 0,0 -7.7,-7.2 -23.9,-9.7 -16.1,-2.5 -23.7,-7.2 -27.6,-6.7 -3.9,0.5 -8.4,-4.8 -10,1.6 -1.6,6.4 -4.4,24.5 -4.4,24.5 -0.2,2.7 -9.5,22 -5.4,34.9 4.1,12.9 29,18.2 29,18.2 0,0 27.4,4.9 35.1,-4.7 7.9,-9.7 5.6,-16.8 5.5,-34 0.1,0 1,-3.6 1.2,-5.6 z"
   id="path64" />
				<path
   class="st13"
   d="m 455.4,1004.3 c 0.2,2.7 1.4,4.4 3.9,4.3 2.5,-0.1 4.4,-1.7 4.2,-4.4 -0.2,-2.7 -2.3,-4.7 -4.7,-4.6 -2.5,0.1 -3.5,2 -3.4,4.7 z"
   id="path65" />
			</g>
			<g
   id="g72">
				<path
   class="st14"
   d="m 674.5,872.6 c 0,0 -3.6,3.6 -3.3,15.1 0.4,11.5 -2.2,36.3 -1.7,57.2 0.5,20.9 -5.9,35.2 -4.9,38.3 1,3.1 6.9,15.3 15.8,20.7 0,0 3.9,23 -15.9,7.3 -19.9,-15.7 -28.1,-34 -30.1,-45.3 -2,-11.2 -2.4,-33 -4.1,-42.6 -1.7,-9.6 -3.7,-32 3.7,-41.5 7.4,-9.5 43.7,-20.1 40.5,-9.2 z"
   id="path66" />
				<g
   id="g67">
					<path
   d="m 665.8,872.9 c -4.4,6 -5.6,13.8 -3.8,20.9 2.3,12.4 3.3,25.2 1.5,37.7 -0.4,2.5 -0.9,5.1 -1.6,7.5 -4,13.8 -0.2,28.4 2.9,42 0.8,3 1.7,6.1 3.1,8.8 -2.3,-3 -3.7,-6.7 -5,-10.2 -2.3,-5.9 -3.3,-12.2 -4.1,-18.5 -0.7,-6.3 -1,-12.7 0.2,-19 0.9,-3.7 2,-7.2 2.5,-10.9 1.8,-12.9 0.7,-26.1 -1.9,-38.9 -1.6,-6.9 1.2,-14.3 6.2,-19.4 z"
   id="path67" />
				</g>
				<g
   id="g68">
					<path
   d="m 652.5,872.9 c -2,4.9 -2.6,10.1 -2.8,15.3 -0.4,5.2 -0.2,10.4 0.4,15.5 1.2,8.8 4.4,22 6.2,30.8 1.6,7.7 3.1,15.6 3.6,23.5 0.2,5.2 0.7,10.3 2.3,15.3 2.4,7.4 4.9,14.9 9,21.6 -5.1,-6.1 -8.8,-13.4 -10.9,-21 -1.6,-5.1 -2.2,-10.5 -2.3,-15.7 -0.5,-7.8 -2,-15.5 -3.6,-23.2 -1.1,-5 -3.9,-18.2 -4.9,-23.1 -2.5,-12.9 -3.8,-27.3 3,-39 z"
   id="path68" />
				</g>
				<g
   id="g69">
					<path
   d="m 643,879.1 c -3.6,8.7 -4.5,18.1 -4.1,27.4 0.5,6.1 2,21.7 2.5,28.1 1.4,15.4 2.2,31.3 8.6,45.7 1.2,2.8 2.9,5.4 4.6,8.1 3.4,5.2 7,10.4 11.3,14.8 4.1,4.6 9.4,8.3 15.7,8.8 -6.5,0.3 -12.5,-3.1 -17.1,-7.4 -4.5,-4.6 -8.1,-9.8 -11.5,-15.1 -1.7,-2.7 -3.4,-5.4 -4.7,-8.3 -6.5,-14.6 -7.3,-30.7 -8.7,-46.3 -0.6,-9 -2.6,-24.1 -2.6,-32.9 -0.1,-8.1 2.1,-16.1 6,-22.9 z"
   id="path69" />
				</g>
				<g
   id="g70">
					<path
   d="m 648.6,933.3 c 2,2.9 3.4,6.3 4.4,9.8 0.6,3.5 0.7,7.2 0.6,10.8 -0.3,6.9 -0.8,13.6 2.5,19.9 4.8,9 10.3,18.1 17.8,25.2 2.2,2.7 4.5,5.3 6.9,8 -3.1,-1.8 -6.1,-3.7 -8.9,-5.9 -5.2,-4.9 -9.5,-10.8 -13.1,-16.8 -3.7,-6 -7.8,-12.5 -8.3,-19.9 -0.3,-3.7 0,-7.2 0.1,-10.7 0.1,-3.5 0,-6.8 -0.6,-10.2 -0.1,-3.3 -0.5,-6.7 -1.4,-10.2 z"
   id="path70" />
				</g>
				<g
   id="g71">
					<path
   d="m 643.6,958.4 c 0.7,3.1 2.1,5.8 3,8.6 0.3,1.5 1,3.3 1.5,4.7 3.2,8 8,15.4 14.2,21.4 2.7,2.7 6,5.6 9.1,7.8 3.4,2.3 6.3,5 9.4,7.8 -2.6,-0.9 -5.2,-1.9 -7.8,-3 -3.3,-2.3 -6.8,-5 -9.8,-7.6 -7.2,-6.5 -13.2,-14.4 -17.1,-23.4 -0.4,-1 -1.2,-2.9 -1.5,-3.9 -1.6,-3.9 -1.7,-8.3 -1,-12.4 z"
   id="path71" />
				</g>
			</g>
			<g
   id="g78">
				<path
   class="st14"
   d="m 410.2,879.9 c 0,0 3.8,3.4 3.9,14.9 0.1,11.5 3.7,36.1 4.1,57.1 0.4,20.9 7.4,34.9 6.5,38.1 -0.9,3.2 -6.2,15.6 -14.9,21.3 0,0 -3,23.1 16.2,6.6 19.2,-16.5 26.6,-35.2 28.1,-46.5 1.6,-11.3 1,-33.1 2.3,-42.7 1.3,-9.6 2.4,-32.1 -5.5,-41.3 -7.9,-9.2 -44.4,-18.2 -40.7,-7.5 z"
   id="path72" />
				<g
   id="g73">
					<path
   d="m 418.9,879.9 c 5.2,4.8 8.3,12.1 7,19.2 -2,12.8 -2.6,26.1 -0.2,38.9 0.7,3.7 1.9,7.2 3,10.8 1.5,6.2 1.5,12.7 1,19 -0.6,6.3 -1.3,12.6 -3.3,18.6 -1.2,3.5 -2.5,7.3 -4.6,10.4 1.4,-2.8 2,-5.9 2.7,-8.9 2.6,-13.8 5.7,-28.4 1.1,-42.1 -0.8,-2.4 -1.5,-4.9 -1.9,-7.4 -2.3,-12.5 -1.9,-25.3 -0.1,-37.7 1.5,-7.2 -0.1,-15 -4.7,-20.8 z"
   id="path73" />
				</g>
				<g
   id="g74">
					<path
   d="m 432.2,879.3 c 7.3,11.4 6.6,25.8 4.7,38.7 -0.8,4.9 -3.1,18.2 -3.9,23.3 -1.3,7.7 -2.4,15.5 -2.6,23.3 0,5.3 -0.3,10.7 -1.7,15.8 -1.8,7.7 -5.2,15.2 -10,21.5 3.8,-6.8 6,-14.5 8.1,-22 1.3,-5 1.6,-10.2 1.6,-15.4 0.2,-7.9 1.3,-15.8 2.6,-23.6 1.4,-8.9 4.1,-22.2 4.8,-31 0.4,-5.2 0.4,-10.4 -0.2,-15.5 -0.4,-5.1 -1.2,-10.3 -3.4,-15.1 z"
   id="path74" />
				</g>
				<g
   id="g75">
					<path
   d="m 442,885 c 4.1,6.7 6.7,14.6 7.2,22.4 0.3,8.8 -1,24.1 -1.2,33 -0.7,15.7 -0.9,31.8 -6.7,46.7 -1.1,3 -2.8,5.8 -4.3,8.5 -3.2,5.4 -6.6,10.8 -10.9,15.6 -4.4,4.5 -10.3,8.2 -16.8,8.1 6.3,-0.8 11.5,-4.7 15.3,-9.5 4.1,-4.6 7.5,-9.9 10.6,-15.2 1.5,-2.7 3.1,-5.3 4.2,-8.2 5.7,-14.6 5.9,-30.5 6.6,-46 0.3,-7.7 1.3,-22.9 1.3,-30.5 -0.4,-8.5 -1.6,-17 -5.3,-24.9 z"
   id="path75" />
				</g>
				<g
   id="g76">
					<path
   d="m 438.6,939.5 c -0.7,3.5 -1,6.9 -1,10.4 -0.4,3.4 -0.4,6.8 -0.1,10.2 0.2,3.5 0.7,7 0.6,10.7 -0.1,7.4 -4,14 -7.4,20.2 -3.4,6.2 -7.4,12.3 -12.4,17.4 -2.8,2.3 -5.7,4.3 -8.7,6.2 2.2,-2.8 4.5,-5.5 6.5,-8.3 7.2,-7.4 12.3,-16.8 16.7,-26 3.1,-6.4 2.3,-13.1 1.7,-20 -0.3,-3.5 -0.3,-7.2 0.1,-10.8 0.9,-3.5 2.1,-7 4,-10 z"
   id="path76" />
				</g>
				<g
   id="g77">
					<path
   d="m 444.7,964.3 c 0.9,4.1 1,8.5 -0.4,12.5 l -0.6,2 -0.7,2 c -3.4,9.2 -9.1,17.3 -16,24.2 -2.9,2.8 -6.3,5.6 -9.5,8.1 -2.5,1.2 -5.1,2.3 -7.7,3.3 1.9,-2 4,-3.8 5.9,-5.8 2.1,-1.7 4.3,-3.2 6.2,-5.1 4,-3.5 7.6,-7.6 10.8,-11.8 3.5,-4.9 6.2,-10.2 8.2,-15.9 0.4,-1.5 1,-3.3 1.3,-4.8 0.7,-2.8 1.9,-5.6 2.5,-8.7 z"
   id="path77" />
				</g>
			</g>
			<polygon
   class="st15"
   points="654.7,821.7 546.3,744.4 451.8,826.7 497.4,912.9 540.4,949.7 547.1,970.3 584.1,923 637.2,863.1 "
   id="polygon78" />
			<g
   id="g100">
				<path
   class="st16"
   d="m 416.5,826.2 c 0,0 -29.3,23.9 -21.7,43.8 7.7,19.9 37.8,33.7 69.4,38.3 0,0 -6.6,2 3.6,6.1 10.2,4.1 23.2,6.6 36.9,22 13.7,15.4 32.7,37.8 35.7,41.4 3,3.6 4.7,-3.1 0,-28.1 -4.7,-25 -14.9,-41.9 -18.5,-43.4 -3.6,-1.5 -16,-4.1 -19.2,-8.2 -3.2,-4.1 -14.6,-19.9 -17.6,-29.1 -3,-9.2 -29.5,-63 -68.6,-42.8 z"
   id="path78" />
				<path
   class="st11"
   d="m 427.8,821.7 c 0,0 -26.9,13.6 -9,34.8 17.9,21.2 29.8,30.4 49.6,37.5 19.8,7.1 28,13.8 29,18.9 1,5.1 5.6,13.8 15.8,23.5 10.2,9.7 31.5,26 30.1,38.3 0,0 -0.4,6 -2.9,3.1 -2.5,-2.9 -18,-21.1 -23.7,-27.7 -5.7,-6.5 -16.3,-22.7 -31.6,-28.8 -15.3,-6.1 -22.6,-7.3 -22.8,-10.3 -0.2,-3 1.9,-2.7 1.9,-2.7 0,0 -43.4,-5.8 -61.7,-26.4 -18.2,-20.6 -5.3,-34.2 -0.9,-39.8 4.4,-5.6 12.4,-14.8 14.7,-15.9 2.5,-1.1 11.5,-4.5 11.5,-4.5 z"
   id="path79" />
				<path
   class="st12"
   d="m 499.9,894.4 c 0,0 12.6,17.5 2.8,29.7"
   id="path80" />
				<path
   class="st12"
   d="m 523.5,917 c 0,0 -16.6,1.1 -17,-3.6"
   id="path81" />
				<path
   class="st12"
   d="m 437.8,835.8 c 0,0 26.1,12.3 34.8,47.9"
   id="path82" />
				<g
   id="g99">
					<g
   id="g84">
						<path
   class="st17"
   d="m 510.9,942.9 c -0.3,0 -0.5,-0.1 -0.7,-0.3 l -3.2,-3.2 c -0.4,-0.4 -0.4,-1 0,-1.4 l 3.2,-3.2 c 0.2,-0.2 0.4,-0.3 0.7,-0.3 0.3,0 0.5,0.1 0.7,0.3 l 3.2,3.2 c 0.4,0.4 0.4,1 0,1.4 l -3.2,3.2 c -0.2,0.2 -0.5,0.3 -0.7,0.3 z"
   id="path83" />
						<path
   d="m 510.9,935.4 3.2,3.2 -3.2,3.2 -3.2,-3.2 3.2,-3.2 m 0,-2 c -0.5,0 -1,0.2 -1.4,0.6 l -3.2,3.2 c -0.8,0.8 -0.8,2 0,2.8 l 3.2,3.2 c 0.4,0.4 0.9,0.6 1.4,0.6 0.5,0 1,-0.2 1.4,-0.6 l 3.2,-3.2 c 0.4,-0.4 0.6,-0.9 0.6,-1.4 0,-0.5 -0.2,-1 -0.6,-1.4 l -3.2,-3.2 c -0.4,-0.4 -0.9,-0.6 -1.4,-0.6 z"
   id="path84" />
					</g>
					<g
   id="g86">
						<path
   class="st17"
   d="m 516.5,948.4 c -0.3,0 -0.5,-0.1 -0.7,-0.3 l -3.2,-3.2 c -0.2,-0.2 -0.3,-0.4 -0.3,-0.7 0,-0.3 0.1,-0.5 0.3,-0.7 l 3.2,-3.2 c 0.2,-0.2 0.5,-0.3 0.7,-0.3 0.2,0 0.5,0.1 0.7,0.3 l 3.2,3.2 c 0.2,0.2 0.3,0.4 0.3,0.7 0,0.3 -0.1,0.5 -0.3,0.7 l -3.2,3.2 c -0.2,0.2 -0.4,0.3 -0.7,0.3 z"
   id="path85" />
						<path
   d="m 516.5,941 3.2,3.2 -3.2,3.2 -3.2,-3.2 3.2,-3.2 m 0,-2 c -0.5,0 -1,0.2 -1.4,0.6 l -3.2,3.2 c -0.8,0.8 -0.8,2 0,2.8 l 3.2,3.2 c 0.4,0.4 0.9,0.6 1.4,0.6 0.5,0 1,-0.2 1.4,-0.6 l 3.2,-3.2 c 0.8,-0.8 0.8,-2 0,-2.8 l -3.2,-3.2 c -0.4,-0.4 -0.9,-0.6 -1.4,-0.6 z"
   id="path86" />
					</g>
					<g
   id="g88">
						<path
   class="st17"
   d="m 521.7,953.8 c -0.3,0 -0.5,-0.1 -0.7,-0.3 l -3.2,-3.2 c -0.4,-0.4 -0.4,-1 0,-1.4 l 3.4,-3.4 c 0.2,-0.2 0.5,-0.3 0.7,-0.3 0.2,0 0.5,0.1 0.7,0.3 l 3.2,3.2 c 0.2,0.2 0.3,0.4 0.3,0.7 0,0.3 -0.1,0.5 -0.3,0.7 l -3.4,3.4 c -0.1,0.2 -0.4,0.3 -0.7,0.3 z"
   id="path87" />
						<path
   d="m 521.9,946.1 3.2,3.2 -3.4,3.4 -3.2,-3.2 3.4,-3.4 m 0,-2 c -0.5,0 -1,0.2 -1.4,0.6 l -3.4,3.4 c -0.8,0.8 -0.8,2 0,2.8 l 3.2,3.2 c 0.4,0.4 0.9,0.6 1.4,0.6 0.5,0 1,-0.2 1.4,-0.6 l 3.4,-3.4 c 0.8,-0.8 0.8,-2 0,-2.8 l -3.2,-3.2 c -0.3,-0.4 -0.8,-0.6 -1.4,-0.6 z"
   id="path88" />
					</g>
					<g
   id="g90">
						<path
   class="st17"
   d="m 530.4,963.4 c -0.3,0 -0.5,-0.1 -0.7,-0.3 l -2.4,-2.4 c -0.4,-0.4 -0.4,-1 0,-1.4 l 3.5,-3.5 c 0.2,-0.2 0.5,-0.3 0.7,-0.3 0.2,0 0.5,0.1 0.7,0.3 l 2.4,2.4 c 0.2,0.2 0.3,0.4 0.3,0.7 0,0.3 -0.1,0.5 -0.3,0.7 l -3.5,3.5 c -0.2,0.2 -0.5,0.3 -0.7,0.3 z"
   id="path89" />
						<path
   d="m 531.5,956.5 2.4,2.4 -3.5,3.5 -2.4,-2.4 3.5,-3.5 m 0,-2 c -0.5,0 -1,0.2 -1.4,0.6 l -3.5,3.5 c -0.4,0.4 -0.6,0.9 -0.6,1.4 0,0.5 0.2,1 0.6,1.4 l 2.4,2.4 c 0.4,0.4 0.9,0.6 1.4,0.6 0.5,0 1,-0.2 1.4,-0.6 l 3.5,-3.5 c 0.4,-0.4 0.6,-0.9 0.6,-1.4 0,-0.5 -0.2,-1 -0.6,-1.4 l -2.4,-2.4 c -0.4,-0.4 -0.9,-0.6 -1.4,-0.6 z"
   id="path90" />
					</g>
					<g
   id="g92">
						<path
   class="st17"
   d="m 526.1,959.1 c -0.3,0 -0.5,-0.1 -0.7,-0.3 l -2.4,-2.4 c -0.4,-0.4 -0.4,-1 0,-1.4 l 3.5,-3.5 c 0.2,-0.2 0.5,-0.3 0.7,-0.3 0.2,0 0.5,0.1 0.7,0.3 l 2.4,2.4 c 0.2,0.2 0.3,0.4 0.3,0.7 0,0.3 -0.1,0.5 -0.3,0.7 l -3.5,3.5 c -0.1,0.2 -0.4,0.3 -0.7,0.3 z"
   id="path91" />
						<path
   d="m 527.2,952.3 2.4,2.4 -3.5,3.5 -2.4,-2.4 3.5,-3.5 m 0,-2 c -0.5,0 -1,0.2 -1.4,0.6 l -3.5,3.5 c -0.8,0.8 -0.8,2 0,2.8 l 2.4,2.4 c 0.4,0.4 0.9,0.6 1.4,0.6 0.5,0 1,-0.2 1.4,-0.6 l 3.5,-3.5 c 0.8,-0.8 0.8,-2 0,-2.8 l -2.4,-2.4 c -0.3,-0.4 -0.8,-0.6 -1.4,-0.6 z"
   id="path92" />
					</g>
					<g
   id="g94">
						<path
   class="st17"
   d="m 534.2,968.2 c -0.3,0 -0.5,-0.1 -0.7,-0.3 l -2.4,-2.4 c -0.2,-0.2 -0.3,-0.4 -0.3,-0.7 0,-0.3 0.1,-0.5 0.3,-0.7 l 3.7,-3.7 c 0.2,-0.2 0.4,-0.3 0.7,-0.3 0.3,0 0.5,0.1 0.7,0.3 l 2.4,2.4 c 0.4,0.4 0.4,1 0,1.4 l -3.7,3.7 c -0.2,0.2 -0.4,0.3 -0.7,0.3 z"
   id="path93" />
						<path
   d="m 535.4,961.1 2.4,2.4 -3.7,3.7 -2.4,-2.4 3.7,-3.7 m 0,-2 c -0.5,0 -1,0.2 -1.4,0.6 l -3.7,3.7 c -0.4,0.4 -0.6,0.9 -0.6,1.4 0,0.5 0.2,1 0.6,1.4 l 2.4,2.4 c 0.4,0.4 0.9,0.6 1.4,0.6 0.5,0 1,-0.2 1.4,-0.6 l 3.7,-3.7 c 0.4,-0.4 0.6,-0.9 0.6,-1.4 0,-0.5 -0.2,-1 -0.6,-1.4 l -2.4,-2.4 c -0.3,-0.4 -0.9,-0.6 -1.4,-0.6 z"
   id="path94" />
					</g>
					<g
   id="g96">
						<path
   class="st17"
   d="m 537.6,972.5 c -0.3,0 -0.5,-0.1 -0.7,-0.3 l -1.8,-2 c -0.4,-0.4 -0.3,-1 0.1,-1.4 l 3.6,-3.3 c 0.2,-0.2 0.4,-0.3 0.7,-0.3 h 0.1 c 0.3,0 0.5,0.2 0.7,0.4 l 1.6,2.2 c 0.3,0.4 0.2,1 -0.1,1.3 l -3.4,3 c -0.3,0.3 -0.5,0.4 -0.8,0.4 z"
   id="path95" />
						<path
   d="m 539.4,966.2 1.6,2.2 -3.4,3 -1.8,-2 3.6,-3.2 m 0,-2 c -0.5,0 -1,0.2 -1.4,0.5 l -3.6,3.3 c -0.8,0.7 -0.9,2 -0.1,2.8 l 1.8,2 c 0.4,0.4 0.9,0.7 1.5,0.7 0.5,0 1,-0.2 1.3,-0.5 l 3.4,-3 c 0.8,-0.7 0.9,-1.8 0.3,-2.7 l -1.6,-2.2 c -0.3,-0.5 -0.9,-0.8 -1.4,-0.8 -0.1,-0.1 -0.1,-0.1 -0.2,-0.1 z"
   id="path96" />
					</g>
					<g
   id="g98">
						<path
   class="st17"
   d="m 540.9,977 c -0.3,0 -0.5,-0.1 -0.7,-0.3 l -2.2,-2.5 c -0.2,-0.2 -0.3,-0.5 -0.3,-0.7 0,-0.3 0.1,-0.5 0.3,-0.7 l 3.4,-3 c 0.2,-0.2 0.4,-0.3 0.7,-0.3 0.1,0 0.2,0 0.2,0 0.3,0.1 0.6,0.3 0.7,0.6 l 1.2,3.3 c 0.1,0.4 0,0.8 -0.3,1.1 l -2.4,2.2 c -0.1,0.2 -0.4,0.3 -0.6,0.3 z"
   id="path97" />
						<path
   d="m 542.1,970.5 1.2,3.3 -2.4,2.2 -2.2,-2.5 3.4,-3 m 0,-2 c -0.5,0 -1,0.2 -1.3,0.5 l -3.4,3 c -0.4,0.4 -0.6,0.9 -0.7,1.4 0,0.5 0.2,1 0.5,1.4 l 2.2,2.5 c 0.4,0.4 0.9,0.7 1.5,0.7 0.5,0 1,-0.2 1.3,-0.5 l 2.4,-2.2 c 0.6,-0.5 0.8,-1.4 0.5,-2.2 l -1.2,-3.3 c -0.2,-0.6 -0.8,-1.1 -1.4,-1.2 -0.1,-0.1 -0.3,-0.1 -0.4,-0.1 z"
   id="path98" />
					</g>
				</g>
			</g>
			<g
   id="g121">
				<path
   class="st16"
   d="m 643.6,819.5 c 0,0 39.1,17.7 43.9,34.4 4.8,16.7 -0.3,22.5 -8.5,25.9 -8.2,3.4 -45.7,21.1 -51.6,24.2 -5.9,3.1 -32.1,25.9 -42.8,33.7 -10.7,7.8 -33.5,38.5 -35.9,39.5 -2.4,1 -6.1,1 -3.4,-9.5 2.7,-10.6 4.1,-14.6 6,-26.6 1.9,-11.9 12.5,-33 23,-39.5 10.5,-6.5 9.8,-3 12.5,-7.1 2.7,-4.1 12.5,-21.9 37.4,-37.9 25,-16.1 -4,-23.5 19.4,-37.1 z"
   id="path100" />
				<path
   class="st12"
   d="m 643.6,819.5 c -4.4,3.1 -11.4,5.6 -9.1,17.9 2.3,12.3 -4.8,14.9 -14.2,21.7 -9.5,6.8 -27.3,22.9 -35.4,37.4 -8.1,14.6 -1.9,19.1 -0.9,26.5 1,7.3 -13.4,16 -28.8,33 -15.3,17 -10,20.9 -10,20.9"
   id="path101" />
				<path
   class="st12"
   d="m 581,911.8 c 0,0 -8.2,2.4 -11,5.3 -2.8,2.9 -4.3,2.9 -4.3,2.9"
   id="path102" />
				<path
   class="st11"
   d="m 642.8,826.2 c 0,0 21.5,4.5 26.8,18.1 5.2,13.6 -27.6,36.8 -48.7,47.3 -21.1,10.6 -30,23.6 -30,23.6 0,0 -8.2,16.5 -24.2,29.1 0,0 -8.1,6.4 -14,14.6 0,0 -9.8,10 -8.3,17.1 0,0 2.2,3.8 6,-0.6 3.8,-4.4 17.2,-20.7 21.9,-25.8 4.7,-5.1 8.4,-10.1 25.6,-22.6 17.3,-12.5 23.8,-20.5 34.2,-25.5 10.4,-5 36.1,-16.4 45.7,-21.3 9.6,-5 11.7,-7.2 11.4,-18.6 -0.3,-11.4 -7.9,-23.5 -37.4,-38.1 l -6.7,-3.4 c 0,0.1 -8.7,0.8 -2.3,6.1 z"
   id="path103" />
				<g
   id="g120">
					<g
   id="g105">
						<path
   class="st17"
   d="m 576,943.6 c -0.2,0 -0.5,-0.1 -0.7,-0.2 l -3.2,-2.8 c -0.2,-0.2 -0.3,-0.4 -0.3,-0.7 0,-0.3 0.1,-0.5 0.3,-0.7 l 3,-3.1 c 0.2,-0.2 0.5,-0.3 0.7,-0.3 0.2,0 0.5,0.1 0.7,0.2 l 3.2,2.8 c 0.2,0.2 0.3,0.4 0.3,0.7 0,0.3 -0.1,0.5 -0.3,0.7 l -3,3.1 c -0.2,0.2 -0.5,0.3 -0.7,0.3 z"
   id="path104" />
						<path
   d="m 575.7,936.7 3.2,2.8 -3,3.1 -3.2,-2.8 3,-3.1 m 0,-2 c -0.5,0 -1.1,0.2 -1.4,0.6 l -3,3.1 c -0.4,0.4 -0.6,0.9 -0.6,1.5 0,0.5 0.3,1.1 0.7,1.4 l 3.2,2.8 c 0.4,0.3 0.9,0.5 1.3,0.5 0.5,0 1.1,-0.2 1.4,-0.6 l 3,-3.1 c 0.4,-0.4 0.6,-0.9 0.6,-1.5 0,-0.5 -0.3,-1.1 -0.7,-1.4 l -3.2,-2.8 c -0.3,-0.4 -0.8,-0.5 -1.3,-0.5 z"
   id="path105" />
					</g>
					<g
   id="g107">
						<path
   class="st17"
   d="m 570.8,949 c -0.2,0 -0.5,-0.1 -0.7,-0.2 l -3.2,-2.8 c -0.2,-0.2 -0.3,-0.4 -0.3,-0.7 0,-0.3 0.1,-0.5 0.3,-0.7 l 3,-3.1 c 0.2,-0.2 0.5,-0.3 0.7,-0.3 0.2,0 0.5,0.1 0.7,0.2 l 3.2,2.8 c 0.2,0.2 0.3,0.4 0.3,0.7 0,0.3 -0.1,0.5 -0.3,0.7 l -3,3.1 c -0.2,0.2 -0.5,0.3 -0.7,0.3 z"
   id="path106" />
						<path
   d="m 570.5,942 3.2,2.8 -3,3.1 -3.2,-2.8 3,-3.1 m 0,-2 c -0.5,0 -1.1,0.2 -1.4,0.6 l -3,3.1 c -0.4,0.4 -0.6,0.9 -0.6,1.5 0,0.5 0.3,1.1 0.7,1.4 l 3.2,2.8 c 0.4,0.3 0.9,0.5 1.3,0.5 0.5,0 1.1,-0.2 1.4,-0.6 l 3,-3.1 c 0.4,-0.4 0.6,-0.9 0.6,-1.5 0,-0.6 -0.3,-1.1 -0.7,-1.4 l -3.2,-2.8 c -0.3,-0.3 -0.8,-0.5 -1.3,-0.5 z"
   id="path107" />
					</g>
					<g
   id="g109">
						<path
   class="st17"
   d="m 565.9,954.1 c -0.2,0 -0.5,-0.1 -0.7,-0.2 l -3.4,-3 c -0.2,-0.2 -0.3,-0.4 -0.3,-0.7 0,-0.3 0.1,-0.5 0.3,-0.7 l 3,-3.1 c 0.2,-0.2 0.5,-0.3 0.7,-0.3 0.2,0 0.5,0.1 0.7,0.2 l 3.4,3 c 0.2,0.2 0.3,0.4 0.3,0.7 0,0.3 -0.1,0.5 -0.3,0.7 l -3,3.1 c -0.1,0.2 -0.4,0.3 -0.7,0.3 z"
   id="path108" />
						<path
   d="m 565.5,947 3.4,3 -3,3.1 -3.4,-3 3,-3.1 m 0,-2 c -0.5,0 -1.1,0.2 -1.4,0.6 l -3,3.1 c -0.4,0.4 -0.6,0.9 -0.6,1.5 0,0.5 0.3,1.1 0.7,1.4 l 3.4,3 c 0.4,0.3 0.9,0.5 1.3,0.5 0.5,0 1.1,-0.2 1.4,-0.6 l 3,-3.1 c 0.4,-0.4 0.6,-0.9 0.6,-1.5 0,-0.5 -0.3,-1.1 -0.7,-1.4 l -3.4,-3 c -0.4,-0.3 -0.8,-0.5 -1.3,-0.5 z"
   id="path109" />
					</g>
					<g
   id="g111">
						<path
   class="st17"
   d="m 558,963.3 c -0.2,0 -0.5,-0.1 -0.7,-0.2 l -3.5,-3.1 c -0.2,-0.2 -0.3,-0.4 -0.3,-0.7 0,-0.3 0.1,-0.5 0.3,-0.7 l 2.2,-2.3 c 0.2,-0.2 0.5,-0.3 0.7,-0.3 0.2,0 0.5,0.1 0.7,0.2 l 3.5,3.1 c 0.2,0.2 0.3,0.4 0.3,0.7 0,0.3 -0.1,0.5 -0.3,0.7 l -2.2,2.3 c -0.2,0.2 -0.5,0.3 -0.7,0.3 z"
   id="path110" />
						<path
   d="m 556.7,957 3.5,3.1 -2.2,2.3 -3.5,-3.1 2.2,-2.3 m 0,-2 c -0.5,0 -1.1,0.2 -1.4,0.6 l -2.2,2.3 c -0.4,0.4 -0.6,0.9 -0.6,1.5 0,0.6 0.3,1.1 0.7,1.4 l 3.5,3.1 c 0.4,0.3 0.9,0.5 1.3,0.5 0.5,0 1.1,-0.2 1.4,-0.6 l 2.2,-2.3 c 0.4,-0.4 0.6,-0.9 0.6,-1.5 0,-0.5 -0.3,-1.1 -0.7,-1.4 l -3.5,-3.1 c -0.3,-0.4 -0.8,-0.5 -1.3,-0.5 z"
   id="path111" />
					</g>
					<g
   id="g113">
						<path
   class="st17"
   d="m 561.9,959.3 c -0.2,0 -0.5,-0.1 -0.7,-0.2 l -3.5,-3.1 c -0.2,-0.2 -0.3,-0.4 -0.3,-0.7 0,-0.3 0.1,-0.5 0.3,-0.7 l 2.2,-2.3 c 0.2,-0.2 0.5,-0.3 0.7,-0.3 0.2,0 0.5,0.1 0.7,0.2 l 3.5,3.1 c 0.2,0.2 0.3,0.4 0.3,0.7 0,0.3 -0.1,0.5 -0.3,0.7 l -2.2,2.3 c -0.2,0.2 -0.4,0.3 -0.7,0.3 z"
   id="path112" />
						<path
   d="m 560.6,952.9 3.5,3.1 -2.2,2.3 -3.5,-3.1 2.2,-2.3 m 0,-2 c -0.5,0 -1.1,0.2 -1.4,0.6 l -2.2,2.3 c -0.4,0.4 -0.6,0.9 -0.6,1.5 0,0.5 0.3,1.1 0.7,1.4 l 3.5,3.1 c 0.4,0.3 0.9,0.5 1.3,0.5 0.5,0 1.1,-0.2 1.4,-0.6 l 2.2,-2.3 c 0.4,-0.4 0.6,-0.9 0.6,-1.5 0,-0.5 -0.3,-1.1 -0.7,-1.4 l -3.5,-3.1 c -0.3,-0.3 -0.8,-0.5 -1.3,-0.5 z"
   id="path113" />
					</g>
					<g
   id="g115">
						<path
   class="st17"
   d="m 554.5,968 c -0.2,0 -0.5,-0.1 -0.7,-0.2 l -3.7,-3.2 c -0.2,-0.2 -0.3,-0.4 -0.3,-0.7 0,-0.3 0.1,-0.5 0.3,-0.7 l 2.3,-2.4 c 0.2,-0.2 0.5,-0.3 0.7,-0.3 0.2,0 0.5,0.1 0.7,0.2 l 3.7,3.2 c 0.2,0.2 0.3,0.4 0.3,0.7 0,0.3 -0.1,0.5 -0.3,0.7 l -2.3,2.4 c -0.2,0.2 -0.4,0.3 -0.7,0.3 z"
   id="path114" />
						<path
   d="m 553.1,961.4 3.7,3.2 -2.3,2.4 -3.7,-3.2 2.3,-2.4 m 0,-2 c -0.5,0 -1.1,0.2 -1.4,0.6 l -2.3,2.4 c -0.4,0.4 -0.6,0.9 -0.6,1.5 0,0.5 0.3,1.1 0.7,1.4 l 3.7,3.2 c 0.4,0.3 0.9,0.5 1.3,0.5 0.5,0 1.1,-0.2 1.4,-0.6 l 2.3,-2.4 c 0.4,-0.4 0.6,-0.9 0.6,-1.5 0,-0.5 -0.3,-1.1 -0.7,-1.4 l -3.7,-3.2 c -0.4,-0.4 -0.8,-0.5 -1.3,-0.5 z"
   id="path115" />
					</g>
					<g
   id="g117">
						<path
   class="st17"
   d="m 551.4,972.1 c -0.2,0 -0.4,-0.1 -0.6,-0.2 l -3.4,-2.7 c -0.4,-0.3 -0.5,-0.9 -0.2,-1.4 l 1.5,-2.1 c 0.2,-0.2 0.4,-0.4 0.7,-0.4 h 0.1 c 0.2,0 0.5,0.1 0.6,0.2 l 3.5,2.9 c 0.2,0.2 0.3,0.4 0.4,0.7 0,0.3 -0.1,0.5 -0.2,0.7 l -1.6,1.9 c -0.2,0.2 -0.5,0.4 -0.8,0.4 z"
   id="path116" />
						<path
   d="m 549.5,966.3 3.5,2.9 -1.6,1.9 -3.4,-2.7 1.5,-2.1 m 0,-2 c -0.1,0 -0.2,0 -0.3,0 -0.6,0.1 -1,0.4 -1.4,0.8 l -1.5,2.1 c -0.6,0.9 -0.4,2.1 0.4,2.7 l 3.4,2.7 c 0.4,0.3 0.8,0.4 1.2,0.4 0.6,0 1.1,-0.2 1.5,-0.7 l 1.6,-1.9 c 0.4,-0.4 0.5,-0.9 0.5,-1.5 0,-0.5 -0.3,-1 -0.7,-1.4 l -3.5,-2.9 c -0.3,-0.2 -0.8,-0.3 -1.2,-0.3 z"
   id="path117" />
					</g>
					<g
   id="g119">
						<path
   class="st17"
   d="m 548.4,976.3 c -0.2,0 -0.4,-0.1 -0.6,-0.2 l -2.4,-1.9 c -0.3,-0.3 -0.5,-0.7 -0.3,-1.1 l 1.1,-3.1 c 0.1,-0.3 0.4,-0.5 0.7,-0.6 0.1,0 0.2,0 0.3,0 0.2,0 0.4,0.1 0.6,0.2 l 3.4,2.7 c 0.2,0.2 0.3,0.4 0.4,0.7 0,0.3 -0.1,0.5 -0.2,0.7 l -2,2.4 c -0.4,0.1 -0.7,0.2 -1,0.2 z"
   id="path118" />
						<path
   d="m 547.1,970.3 3.4,2.7 -2,2.4 -2.4,-1.9 1,-3.2 m 0,-2 c -0.2,0 -0.4,0 -0.6,0.1 -0.6,0.2 -1.1,0.7 -1.3,1.3 l -1.1,3.1 c -0.3,0.8 0,1.7 0.7,2.2 l 2.4,1.9 c 0.4,0.3 0.8,0.4 1.2,0.4 0.6,0 1.1,-0.2 1.5,-0.7 l 2,-2.4 c 0.4,-0.4 0.5,-1 0.5,-1.5 -0.1,-0.5 -0.3,-1 -0.8,-1.4 l -3.4,-2.7 c -0.3,-0.2 -0.7,-0.3 -1.1,-0.3 z"
   id="path119" />
					</g>
				</g>
			</g>
			<g
   id="g149">
				<g
   id="g122">
					<path
   class="st17"
   d="m 541.9,982.5 c -0.3,0 -0.5,-0.1 -0.7,-0.3 -0.2,-0.2 -0.3,-0.5 -0.3,-0.7 l 0.1,-2.9 c 0,-0.5 0.5,-1 1,-1 l 4.6,0.2 c 0.3,0 0.5,0.1 0.7,0.3 0.2,0.2 0.3,0.5 0.3,0.7 l -0.1,2.9 c 0,0.5 -0.5,1 -1,1 z"
   id="path121" />
					<path
   d="m 542.1,978.6 4.6,0.2 -0.1,2.9 -4.6,-0.2 0.1,-2.9 m 0,-2 c -1.1,0 -2,0.8 -2,1.9 l -0.1,2.9 c 0,0.5 0.2,1 0.5,1.4 0.4,0.4 0.9,0.6 1.4,0.6 l 4.6,0.2 h 0.1 c 1.1,0 2,-0.8 2,-1.9 l 0.1,-2.9 c 0,-0.5 -0.2,-1 -0.5,-1.4 -0.4,-0.4 -0.9,-0.6 -1.4,-0.6 z"
   id="path122" />
				</g>
				<g
   id="g124">
					<path
   class="st17"
   d="m 541.7,988.2 c -0.6,0 -1,-0.5 -1,-1 l 0.1,-2.6 c 0,-0.3 0.1,-0.5 0.3,-0.7 0.2,-0.2 0.4,-0.3 0.7,-0.3 l 4.6,0.2 c 0.3,0 0.5,0.1 0.7,0.3 0.2,0.2 0.3,0.5 0.3,0.7 l -0.1,2.6 c 0,0.5 -0.5,1 -1,1 0,-0.1 -4.6,-0.2 -4.6,-0.2 z"
   id="path123" />
					<path
   d="m 541.8,984.6 4.6,0.2 -0.1,2.6 -4.6,-0.2 0.1,-2.6 m 0,-2 c -0.5,0 -1,0.2 -1.4,0.5 -0.4,0.4 -0.6,0.9 -0.6,1.4 l -0.1,2.6 c 0,1.1 0.8,2 1.9,2.1 l 4.6,0.2 h 0.1 c 0.5,0 1,-0.2 1.4,-0.5 0.4,-0.4 0.6,-0.9 0.6,-1.4 l 0.1,-2.6 c 0,-1.1 -0.8,-2 -1.9,-2.1 l -4.7,-0.2 c 0.1,0 0,0 0,0 z"
   id="path124" />
				</g>
				<g
   id="g126">
					<path
   class="st17"
   d="m 541.9,994.2 c -0.6,0 -1,-0.4 -1,-1 v -2.9 c 0,-0.3 0.1,-0.5 0.3,-0.7 0.2,-0.2 0.4,-0.3 0.7,-0.3 h 4.6 c 0.6,0 1,0.4 1,1 v 2.9 c 0,0.3 -0.1,0.5 -0.3,0.7 -0.2,0.2 -0.4,0.3 -0.7,0.3 z"
   id="path125" />
					<path
   d="m 546.4,990.3 v 2.9 h -4.6 v -2.9 h 4.6 m 0,-2 v 0 h -4.6 c -1.1,0 -2,0.9 -2,2 v 2.9 c 0,1.1 0.9,2 2,2 v 0 h 4.6 c 0.5,0 1,-0.2 1.4,-0.6 0.4,-0.4 0.6,-0.9 0.6,-1.4 v -2.9 c 0,-0.5 -0.2,-1 -0.6,-1.4 -0.3,-0.4 -0.8,-0.6 -1.4,-0.6 z"
   id="path126" />
				</g>
				<g
   id="g128">
					<path
   class="st17"
   d="m 541.9,999.9 c -0.3,0 -0.5,-0.1 -0.7,-0.3 -0.2,-0.2 -0.3,-0.4 -0.3,-0.7 v -2.6 c 0,-0.6 0.4,-1 1,-1 h 4.6 c 0.3,0 0.5,0.1 0.7,0.3 0.2,0.2 0.3,0.4 0.3,0.7 v 2.6 c 0,0.6 -0.4,1 -1,1 z"
   id="path127" />
					<path
   d="m 546.4,996.3 v 2.6 h -4.6 v -2.6 h 4.6 m 0,-2 v 0 h -4.6 c -1.1,0 -2,0.9 -2,2 v 2.6 c 0,1.1 0.9,2 2,2 v 0 h 4.6 c 0.5,0 1,-0.2 1.4,-0.6 0.4,-0.4 0.6,-0.9 0.6,-1.4 v -2.6 c 0,-0.5 -0.2,-1 -0.6,-1.4 -0.3,-0.4 -0.8,-0.6 -1.4,-0.6 z"
   id="path128" />
				</g>
				<g
   id="g130">
					<path
   class="st17"
   d="m 541.9,1005.8 c -0.3,0 -0.5,-0.1 -0.7,-0.3 -0.2,-0.2 -0.3,-0.4 -0.3,-0.7 v -2.9 c 0,-0.6 0.4,-1 1,-1 h 4.6 c 0.3,0 0.5,0.1 0.7,0.3 0.2,0.2 0.3,0.4 0.3,0.7 v 2.9 c 0,0.6 -0.4,1 -1,1 z"
   id="path129" />
					<path
   d="m 546.4,1001.9 v 2.9 h -4.6 v -2.9 h 4.6 m 0,-2 v 0 h -4.6 c -1.1,0 -2,0.9 -2,2 v 2.9 c 0,0.5 0.2,1 0.6,1.4 0.4,0.4 0.9,0.6 1.4,0.6 v 0 h 4.6 c 1.1,0 2,-0.9 2,-2 v -2.9 c 0,-0.5 -0.2,-1 -0.6,-1.4 -0.3,-0.4 -0.8,-0.6 -1.4,-0.6 z"
   id="path130" />
				</g>
				<g
   id="g132">
					<path
   class="st17"
   d="m 541.9,1011.5 c -0.3,0 -0.5,-0.1 -0.7,-0.3 -0.2,-0.2 -0.3,-0.4 -0.3,-0.7 v -2.6 c 0,-0.6 0.4,-1 1,-1 h 4.6 c 0.3,0 0.5,0.1 0.7,0.3 0.2,0.2 0.3,0.4 0.3,0.7 v 2.6 c 0,0.6 -0.4,1 -1,1 z"
   id="path131" />
					<path
   d="m 546.4,1007.9 v 2.6 h -4.6 v -2.6 h 4.6 m 0,-2 v 0 h -4.6 c -1.1,0 -2,0.9 -2,2 v 2.6 c 0,0.5 0.2,1 0.6,1.4 0.4,0.4 0.9,0.6 1.4,0.6 v 0 h 4.6 c 1.1,0 2,-0.9 2,-2 v -2.6 c 0,-0.5 -0.2,-1 -0.6,-1.4 -0.3,-0.4 -0.8,-0.6 -1.4,-0.6 z"
   id="path132" />
				</g>
				<g
   id="g134">
					<path
   class="st17"
   d="m 541.9,1017.5 c -0.3,0 -0.5,-0.1 -0.7,-0.3 -0.2,-0.2 -0.3,-0.4 -0.3,-0.7 v -2.9 c 0,-0.6 0.4,-1 1,-1 h 4.6 c 0.3,0 0.5,0.1 0.7,0.3 0.2,0.2 0.3,0.4 0.3,0.7 v 2.9 c 0,0.6 -0.4,1 -1,1 z"
   id="path133" />
					<path
   d="m 546.4,1013.5 v 2.9 h -4.6 v -2.9 h 4.6 m 0,-2 v 0 h -4.6 c -1.1,0 -2,0.9 -2,2 v 2.9 c 0,0.5 0.2,1 0.6,1.4 0.4,0.4 0.9,0.6 1.4,0.6 v 0 h 4.6 c 1.1,0 2,-0.9 2,-2 v -2.9 c 0,-0.5 -0.2,-1 -0.6,-1.4 -0.3,-0.4 -0.8,-0.6 -1.4,-0.6 z"
   id="path134" />
				</g>
				<g
   id="g136">
					<path
   class="st17"
   d="m 541.9,1023.1 c -0.3,0 -0.5,-0.1 -0.7,-0.3 -0.2,-0.2 -0.3,-0.4 -0.3,-0.7 v -2.6 c 0,-0.6 0.4,-1 1,-1 h 4.6 c 0.3,0 0.5,0.1 0.7,0.3 0.2,0.2 0.3,0.4 0.3,0.7 v 2.6 c 0,0.6 -0.4,1 -1,1 z"
   id="path135" />
					<path
   d="m 546.4,1019.5 v 2.6 h -4.6 v -2.6 h 4.6 m 0,-2 v 0 h -4.6 c -0.5,0 -1,0.2 -1.4,0.6 -0.4,0.4 -0.6,0.9 -0.6,1.4 v 2.6 c 0,0.5 0.2,1 0.6,1.4 0.4,0.4 0.9,0.6 1.4,0.6 v 0 h 4.6 c 1.1,0 2,-0.9 2,-2 v -2.6 c 0,-1.1 -0.9,-2 -2,-2 z"
   id="path136" />
				</g>
				<g
   id="g138">
					<path
   class="st17"
   d="m 541.9,1029.1 c -0.3,0 -0.5,-0.1 -0.7,-0.3 -0.2,-0.2 -0.3,-0.4 -0.3,-0.7 v -2.9 c 0,-0.6 0.4,-1 1,-1 h 4.6 c 0.3,0 0.5,0.1 0.7,0.3 0.2,0.2 0.3,0.4 0.3,0.7 v 2.9 c 0,0.6 -0.4,1 -1,1 z"
   id="path137" />
					<path
   d="m 546.4,1025.1 v 2.9 h -4.6 v -2.9 h 4.6 m 0,-2 v 0 h -4.6 c -0.5,0 -1,0.2 -1.4,0.6 -0.4,0.4 -0.6,0.9 -0.6,1.4 v 2.9 c 0,0.5 0.2,1 0.6,1.4 0.4,0.4 0.9,0.6 1.4,0.6 v 0 h 4.6 c 1.1,0 2,-0.9 2,-2 v -2.9 c 0,-1.1 -0.9,-2 -2,-2 z"
   id="path138" />
				</g>
				<g
   id="g140">
					<path
   class="st17"
   d="m 541.9,1034.7 c -0.3,0 -0.5,-0.1 -0.7,-0.3 -0.2,-0.2 -0.3,-0.4 -0.3,-0.7 v -2.6 c 0,-0.6 0.4,-1 1,-1 h 4.6 c 0.3,0 0.5,0.1 0.7,0.3 0.2,0.2 0.3,0.4 0.3,0.7 v 2.6 c 0,0.6 -0.4,1 -1,1 z"
   id="path139" />
					<path
   d="m 546.4,1031.1 v 2.6 h -4.6 v -2.6 h 4.6 m 0,-2 v 0 h -4.6 c -1.1,0 -2,0.9 -2,2 v 2.6 c 0,0.5 0.2,1 0.6,1.4 0.4,0.4 0.9,0.6 1.4,0.6 v 0 h 4.6 c 1.1,0 2,-0.9 2,-2 v -2.6 c 0,-0.5 -0.2,-1 -0.6,-1.4 -0.3,-0.4 -0.8,-0.6 -1.4,-0.6 z"
   id="path140" />
				</g>
				<g
   id="g142">
					<path
   class="st17"
   d="m 541.8,1040.7 c -0.3,0 -0.5,-0.1 -0.7,-0.3 -0.2,-0.2 -0.3,-0.4 -0.3,-0.7 v -2.9 c 0,-0.6 0.4,-1 1,-1 h 4.6 c 0.3,0 0.5,0.1 0.7,0.3 0.2,0.2 0.3,0.4 0.3,0.7 v 2.9 c 0,0.6 -0.4,1 -1,1 z"
   id="path141" />
					<path
   d="m 546.3,1036.8 v 2.9 h -4.6 v -2.9 h 4.6 m 0,-2 v 0 h -4.6 c -1.1,0 -2,0.9 -2,2 v 2.9 c 0,0.5 0.2,1 0.6,1.4 0.4,0.4 0.9,0.6 1.4,0.6 v 0 h 4.6 c 1.1,0 2,-0.9 2,-2 v -2.9 c 0,-0.5 -0.2,-1 -0.6,-1.4 -0.3,-0.4 -0.8,-0.6 -1.4,-0.6 z"
   id="path142" />
				</g>
				<g
   id="g144">
					<path
   class="st17"
   d="m 541.8,1046.3 c -0.3,0 -0.5,-0.1 -0.7,-0.3 -0.2,-0.2 -0.3,-0.4 -0.3,-0.7 v -2.6 c 0,-0.6 0.4,-1 1,-1 h 4.6 c 0.6,0 1,0.4 1,1 v 2.6 c 0,0.3 -0.1,0.5 -0.3,0.7 -0.2,0.2 -0.4,0.3 -0.7,0.3 z"
   id="path143" />
					<path
   d="m 546.3,1042.7 v 2.6 h -4.6 v -2.6 h 4.6 m 0,-2 v 0 h -4.6 c -1.1,0 -2,0.9 -2,2 v 2.6 c 0,0.5 0.2,1 0.6,1.4 0.4,0.4 0.9,0.6 1.4,0.6 v 0 h 4.6 c 1.1,0 2,-0.9 2,-2 v -2.6 c 0,-0.5 -0.2,-1 -0.6,-1.4 -0.3,-0.4 -0.8,-0.6 -1.4,-0.6 z"
   id="path144" />
				</g>
				<g
   id="g146">
					<path
   class="st17"
   d="m 541.8,1053 c -0.3,0 -0.5,-0.1 -0.7,-0.3 -0.2,-0.2 -0.3,-0.4 -0.3,-0.7 v -2.9 c 0,-0.6 0.4,-1 1,-1 h 4.6 c 0.3,0 0.5,0.1 0.7,0.3 0.2,0.2 0.3,0.4 0.3,0.7 v 2.9 c 0,0.6 -0.4,1 -1,1 z"
   id="path145" />
					<path
   d="m 546.3,1049 v 2.9 h -4.6 v -2.9 h 4.6 m 0,-2 v 0 h -4.6 c -1.1,0 -2,0.9 -2,2 v 2.9 c 0,0.5 0.2,1 0.6,1.4 0.4,0.4 0.9,0.6 1.4,0.6 v 0 h 4.6 c 1.1,0 2,-0.9 2,-2 v -2.9 c 0,-0.5 -0.2,-1 -0.6,-1.4 -0.3,-0.4 -0.8,-0.6 -1.4,-0.6 z"
   id="path146" />
				</g>
				<g
   id="g148">
					<path
   class="st17"
   d="m 541.8,1058.6 c -0.3,0 -0.5,-0.1 -0.7,-0.3 -0.2,-0.2 -0.3,-0.4 -0.3,-0.7 v -2.6 c 0,-0.6 0.4,-1 1,-1 h 4.6 c 0.3,0 0.5,0.1 0.7,0.3 0.2,0.2 0.3,0.4 0.3,0.7 v 2.6 c 0,0.6 -0.4,1 -1,1 z"
   id="path147" />
					<path
   d="m 546.3,1055 v 2.6 h -4.6 v -2.6 h 4.6 m 0,-2 v 0 h -4.6 c -0.5,0 -1,0.2 -1.4,0.6 -0.4,0.4 -0.6,0.9 -0.6,1.4 v 2.6 c 0,0.5 0.2,1 0.6,1.4 0.4,0.4 0.9,0.6 1.4,0.6 v 0 h 4.6 c 1.1,0 2,-0.9 2,-2 v -2.6 c 0,-1.1 -0.9,-2 -2,-2 z"
   id="path148" />
				</g>
				<path
   class="st18"
   d="m 536.5,973.9 c 0,0 4.5,5.9 3.9,8.9 -0.6,3.1 0.3,19.8 0,28.7 -0.2,8.9 0,30.9 0,37.5 0.1,6.6 -0.1,8.6 0,9.7 0.1,1.1 0.1,1.1 0.1,1.1 h 7.4 v -10.1 -22.3 -16.3 -16.1 -12 c 0,0 0.9,-4.1 3.6,-7.2 2.7,-2.9 -6.2,-12.7 -15,-1.9 z"
   id="path149" />
			</g>
			<path
   class="st10"
   d="m 503.2,934.8 c 0,0 1.8,10.8 7.6,24.9 5.8,14 12.6,10.6 14.3,34.8 1.7,24.2 2.4,53.1 1.5,65.5 0,0 12.5,0 21.3,0 8.8,0 14.5,0 14.5,0 0,0 0.2,-20.2 0.7,-43.4 0.5,-23.2 -1.2,-31.8 7.5,-41.3 8.7,-9.5 25.9,-40.1 27.2,-48.2 1.4,-8.2 -30.6,20.5 -39.9,35.2 -9.3,14.8 -13.7,17.8 -13.7,17.8 0,0 -33.9,-43.4 -41,-45.3 z"
   id="path150" />
		</g>
	</g></g>
</g>
<g
   id="Layer_2"
   transform="translate(-308.26533,-520.56774)">
</g>
</svg>
