<?xml version="1.0" encoding="UTF-8" standalone="no"?>
<!-- Generator: Adobe Illustrator 26.0.1, SVG Export Plug-In . SVG Version: 6.00 Build 0)  -->

<svg
   version="1.1"
   x="0px"
   y="0px"
   viewBox="0 0 191.09431 96.718115"
   xml:space="preserve"
   id="svg107"
   sodipodi:docname="fox-tail.svg"
   width="191.09431"
   height="96.718117"
   inkscape:version="1.3 (0e150ed6c4, 2023-07-21)"
   xmlns:inkscape="http://www.inkscape.org/namespaces/inkscape"
   xmlns:sodipodi="http://sodipodi.sourceforge.net/DTD/sodipodi-0.dtd"
   xmlns="http://www.w3.org/2000/svg"
   xmlns:svg="http://www.w3.org/2000/svg"><defs
   id="defs107" /><sodipodi:namedview
   id="namedview107"
   pagecolor="#505050"
   bordercolor="#ffffff"
   borderopacity="1"
   inkscape:showpageshadow="0"
   inkscape:pageopacity="0"
   inkscape:pagecheckerboard="1"
   inkscape:deskcolor="#505050"
   inkscape:zoom="2.8066667"
   inkscape:cx="83.372921"
   inkscape:cy="67.695961"
   inkscape:window-width="1920"
   inkscape:window-height="1051"
   inkscape:window-x="-9"
   inkscape:window-y="-9"
   inkscape:window-maximized="1"
   inkscape:current-layer="g8" />&#10;<style
   type="text/css"
   id="style1">&#10;	.st0{fill:#F4EFDF;stroke:#000000;stroke-width:1.4642;stroke-miterlimit:10;}&#10;	.st1{fill:#37342F;stroke:#000000;stroke-width:1.4642;stroke-miterlimit:10;}&#10;	.st2{opacity:0.28;}&#10;	.st3{fill:none;stroke:#000000;stroke-width:1.4642;stroke-miterlimit:10;}&#10;	.st4{fill:#59493D;}&#10;	.st5{fill:#FFFFFF;stroke:#000000;stroke-width:1.4642;stroke-miterlimit:10;}&#10;	.st6{fill:#4F4F4F;stroke:#000000;stroke-width:1.4642;stroke-miterlimit:10;}&#10;	.st7{fill:#A7A9A7;stroke:#000000;stroke-width:1.4642;stroke-miterlimit:10;}&#10;	.st8{fill:#485D4A;stroke:#000000;stroke-width:1.9522;stroke-miterlimit:10;}&#10;	.st9{fill:none;stroke:#000000;stroke-width:0.4881;stroke-miterlimit:10;}&#10;	.st10{fill:#485D4A;}&#10;	.st11{fill:#43392E;}&#10;</style>&#10;<g
   id="Layer_1"
   transform="translate(-282.87147,-379.92415)">&#10;</g>&#10;<g
   id="Layer_19"
   transform="translate(-282.87147,-379.92415)">&#10;</g>&#10;<g
   id="Layer_20"
   transform="translate(-282.87147,-379.92415)">&#10;</g>&#10;<g
   id="Tail"
   transform="translate(-282.87147,-379.92415)">&#10;</g>&#10;<g
   id="right_leg"
   transform="translate(-282.87147,-379.92415)">&#10;</g>&#10;<g
   id="Left_leg"
   transform="translate(-282.87147,-379.92415)">&#10;</g>&#10;<g
   id="body"
   transform="translate(-282.87147,-379.92415)">&#10;</g>&#10;<g
   id="belt"
   transform="translate(-282.87147,-379.92415)">&#10;</g>&#10;<g
   id="Face"
   transform="translate(-282.87147,-379.92415)">&#10;</g>&#10;<g
   id="Left_ear"
   transform="translate(-282.87147,-379.92415)">&#10;</g>&#10;<g
   id="Right_ear"
   transform="translate(-282.87147,-379.92415)">&#10;</g>&#10;<g
   id="White_mouth"
   transform="translate(-282.87147,-379.92415)">&#10;</g>&#10;<g
   id="Closed_mouth"
   transform="translate(-282.87147,-379.92415)">&#10;	<g
   id="Mouth_copy">&#10;	</g>&#10;</g>&#10;<g
   id="Mouth"
   transform="translate(-282.87147,-379.92415)">&#10;</g>&#10;<g
   id="wide_opened_mouth"
   transform="translate(-282.87147,-379.92415)">&#10;	<g
   id="Mouth_copy_2">&#10;	</g>&#10;</g>&#10;<g
   id="Nose"
   transform="translate(-282.87147,-379.92415)">&#10;</g>&#10;<g
   id="Nose_hair_2"
   transform="translate(-282.87147,-379.92415)">&#10;</g>&#10;<g
   id="Nose_hair_1"
   transform="translate(-282.87147,-379.92415)">&#10;</g>&#10;<g
   id="Eye_brow"
   transform="translate(-282.87147,-379.92415)">&#10;</g>&#10;<g
   id="white_part_of_eyes"
   transform="translate(-282.87147,-379.92415)">&#10;	<g
   id="Eyes_opened_copy">&#10;	</g>&#10;</g>&#10;<g
   id="eyes_2"
   transform="translate(-282.87147,-379.92415)">&#10;	<g
   id="Layer_29">&#10;	</g>&#10;</g>&#10;<g
   id="eyes_1"
   transform="translate(-282.87147,-379.92415)">&#10;	<g
   id="Layer_30">&#10;	</g>&#10;</g>&#10;<g
   id="Opened_eye_cover"
   transform="translate(-282.87147,-379.92415)">&#10;</g>&#10;<g
   id="Eyes_closed"
   transform="translate(-282.87147,-379.92415)">&#10;	<g
   id="Eyes_copy">&#10;	</g>&#10;</g>&#10;<g
   id="cap"
   transform="translate(-282.87147,-379.92415)">&#10;</g>&#10;<g
   id="Glasses"
   transform="translate(-282.87147,-379.92415)">&#10;	<g
   id="g107">&#10;		<g
   id="g106">&#10;			<g
   id="g8"
   transform="matrix(1,0,0,-1,-9.3100466e-6,856.56642)">&#10;				<g
   id="g5">&#10;					&#10;					&#10;					&#10;					&#10;					&#10;				</g>&#10;				&#10;				&#10;				<g
   id="g1"
   transform="matrix(1,0,0,-1,0,856.56642)"><path
     class="st0"
     d="m 286.4,393.4 c 0,0 -11.8,16.9 18.4,58.3 16,21.9 28.1,24.4 54.1,23.6 l -4.1,-2.8 c 0,0 21.3,4.6 38.8,-1.6 0,0 -11.5,1.7 -15.1,-1 0,0 4.7,0.2 8.2,0.5 3.5,0.3 7.1,-2.2 13.5,-2 6.4,0.2 19.6,4.7 36.8,-5.4 0,0 -7.4,0.1 -9.1,-0.9 0,0 11.2,-1.5 16.1,-4.5 4.9,-3 8.1,-6.1 8.1,-6.1 0,0 -4.8,0 -5.4,0 -0.6,0 11.9,-0.4 19.9,-19.1 8.2,-19.3 1.9,-8.1 1.9,-8.1 0,0 7.4,-10.8 3.7,-24.8 0,0 -1.7,-0.6 -2.7,-1.1 -1,-0.5 -1.7,-5.8 -12.3,-8.8 h 4.3 c 0,0 -5.3,-3.9 -17.3,-5.1 -12,-1.2 -20.4,-0.1 -24.9,2.4 -4.5,2.5 -0.4,-1 -0.4,-1 0,0 -1.6,-0.2 -7.7,5 -6.1,5.2 -19,12.1 -28.8,10.6 -9.8,-1.5 0.8,-0.1 3.7,-1.7 2.9,-1.6 -29.8,1.1 -37,-6 -11.3,-10.9 -55.3,-22.3 -62.7,-0.4 z"
     id="path1" /><path
     class="st1"
     d="m 417.6,387.9 3.8,-1.8 c 0,0 -3.4,3.3 -1.9,5 1.5,1.6 4.3,2.1 7.2,2.4 3,0.2 4.7,5.2 5.7,7.2 1,2 5.2,4 7.7,4 0,0 -4.7,5.2 -1.2,8 3.5,2.7 5.5,6.9 5.7,10 0.2,3.2 2.7,4.1 2.7,0.1 0,-4.1 2,7.6 -1.5,12.1 -3.5,4.5 0.5,8.3 2.5,7.4 1,-0.5 -3,3.3 -4.2,6.6 -1.2,3.2 4.7,2.9 4.7,2.9 h 3.1 c 0,0 -4.1,8.2 -24.2,10.6 h -2.3 c 0,0 4.2,-4.3 4,-6 -0.2,-1.7 -6.5,1.5 -7.2,1 -0.7,-0.5 4,-3.5 4.3,-6.5 0.3,-3 -4.7,-3.3 -4.7,-3.3 0,0 4.5,-5.8 5.3,-8.6 0.8,-2.8 1.5,-7.3 -0.7,-9.5 -2.2,-2.2 -4.7,4 -4.7,4 0,0 2.6,-6 1.1,-11.9 -0.5,-1.9 -5.6,-3.6 -6.4,-1.2 -0.6,1.7 1,-6.7 0,-7.6 -4.1,-3.9 -5.9,-4.7 -7.8,-4.1 l 0.3,-2.9 c 0,0 0.6,-7.7 -11.3,-6.6 0,0 7.6,-3.5 12.3,-7.1 4.6,-3.6 8.7,-5.7 8.7,-5.7 z"
     id="path2" /><path
     class="st1"
     d="m 348.4,391.8 5.4,4.7 c 0,0 -5.3,-0.4 -4.7,2.2 0.6,2.6 0.5,3.1 3.5,5.4 3,2.3 2,7 1.9,9.6 -0.1,2.6 -0.8,5.8 1.8,7.6 0,0 -4.4,2.1 -2.4,7 2,5 -0.5,8.9 -2.2,12.1 -1.7,3.1 0.8,7.6 3.3,3.8 2.5,-3.8 1,8.2 -5.4,10 -6.4,1.8 -4.5,8.1 -1.9,8.6 1.4,0.3 -5.2,1 -8.5,3.2 -3.3,2.2 3.2,6 3.2,6 l 13.6,3.5 c 0,0 -14.6,2.5 -31.1,-4.8 0,0 -3.5,-2.6 -6.5,-5.5 -2.7,-2.5 -6.9,-6.1 -6.9,-6.1 0,0 5.7,4.1 6.5,2.4 0.8,-1.7 -0.7,-6.7 -1.6,-7.5 -0.7,-0.7 3.8,2 6,-0.5 2.2,-2.5 -3.3,-7.8 -3.3,-7.8 0,0 5.1,0.7 7.7,-1.3 2.6,-2.1 1.2,-5.1 0.2,-8.6 -0.9,-3.5 -4,-6.4 -4,-6.4 0,0 4.6,3.2 6.7,-3.2 0.7,-2.2 -1.7,-7.9 -4,-6.3 -1.6,1.2 4.5,-4.4 4,-5.9 -1.9,-6.5 -2.9,-8 -5.3,-8.7 0,0 3.7,-3.3 4.4,-6 0.6,-2.7 -4.4,-6.4 -4.4,-6.4 0,0 7.4,-6.4 1,-9.6 0,0 6.1,1.7 13.3,4.1 6.7,2.2 12.4,2.9 12.4,2.9 z"
     id="path3" /><path
     class="st1"
     d="m 386.6,401.5 3,-0.4 c 0,0 -0.2,4.6 0.7,6.6 0.9,2 0.3,4.6 3,5.8 2.7,1.3 5.2,1.1 4.3,3.1 -1.3,2.8 -1.1,4.6 1.9,3.2 0,0 -0.1,1.4 2.2,5.1 1.8,3 3.2,0.9 2.6,3.1 -0.2,0.6 -0.6,2.1 -1,3.4 -0.6,1.7 2.2,1.6 3.4,1.7 1,0.1 0.6,-0.2 -0.5,3.8 -0.6,2 3.1,4.4 4.6,5.9 0.8,0.8 1.3,0.6 -0.4,1.6 -7.9,4.9 2.3,3.3 2.1,4.2 -0.3,1.9 -4.6,3.6 -6.5,5.6 -2.7,2.8 4.4,2.6 4.9,2.3 1,-0.5 -1.6,5.8 -3.9,8.4 -2.3,2.6 -6.6,3.7 -6.6,3.7 l 6.5,0.4 c 0,0 -10.3,6.9 -29.9,2.1 l -2.1,-0.8 c 0,0 5.4,-2.6 5.8,-4.2 0.4,-1.6 -6.6,-0.9 -7.1,-1.6 -0.5,-0.7 5,-1.9 6.3,-4.6 1.4,-2.7 -3.2,-4.7 -3.2,-4.7 0,0 0.1,-3.1 1.8,-5.4 1.8,-2.4 4.9,-7.6 3.6,-10.4 -1.3,-2.8 -4.3,-2.5 -4.3,-2.5 0,0 4.6,-4.3 0.7,-12.9 -3.9,-8.6 -5.5,-7.7 -7.9,-7.8 l 2,-6.9 c 0,0 -0.7,-8.3 -12.2,-11.5 0,0 7.4,1 13.3,1.1 4.7,0.1 14.5,0.8 14.5,0.8 z"
     id="path4" /><path
     class="st1"
     d="m 461.5,389.7 c 0,0 -11.7,-4.4 -14.5,-4.7 l -8.8,-0.8 11.6,2.8 -9.1,0.1 c 0,0 6.1,0.5 12.3,7.3 6.1,6.8 2,13.5 2,13.5 0,0 3,-2.6 6.5,2.4 3.5,4.9 2.3,7.4 2.3,7.4 0,0 0.8,-0.8 4,-1.3 3.2,-0.5 0.6,8.1 0.6,8.1 0,0 7.1,-9.3 3.7,-24.8 l -2.7,-1.1 c 0,0 -4.5,-7.5 -12.3,-8.8 h 4.4 z"
     id="path6" /><path
     class="st1"
     d="m 292.4,386.1 c 0,0 3,-2 6.9,-3.9 l 16,-1.4 -5.3,6.8 4.2,7.6 c 0,0 -2.7,1.1 -6.6,8.5 -2.3,4.4 5.7,13.5 5.7,13.5 0,0 -5.6,-2.2 -8.1,6.6 -2.6,8.8 0.3,11.8 0.3,11.8 0,0 -1.6,-0.8 -6.4,0.1 -4.8,0.9 3.1,11.9 3.1,11.9 0,0 -14.7,-9.8 -17.5,-33.8 l -1,-7.1 c 0,0 -1.2,-7.9 4.6,-16.3 z"
     id="path7" /><path
     class="st3"
     d="M 299.3,382.2"
     id="path8" /></g>&#10;			</g>&#10;			&#10;			&#10;		</g>&#10;	</g>&#10;</g>&#10;</svg>
