<?xml version="1.0" encoding="UTF-8" standalone="no"?>
<!-- Generator: Adobe Illustrator 26.0.1, SVG Export Plug-In . SVG Version: 6.00 Build 0)  -->

<svg
   version="1.1"
   x="0px"
   y="0px"
   viewBox="0 0 224.928 43.608249"
   xml:space="preserve"
   id="svg85"
   sodipodi:docname="fox-eyes-close.svg"
   width="224.92799"
   height="43.60825"
   inkscape:version="1.3.2 (091e20e, 2023-11-25, custom)"
   xmlns:inkscape="http://www.inkscape.org/namespaces/inkscape"
   xmlns:sodipodi="http://sodipodi.sourceforge.net/DTD/sodipodi-0.dtd"
   xmlns="http://www.w3.org/2000/svg"
   xmlns:svg="http://www.w3.org/2000/svg"><defs
   id="defs85" /><sodipodi:namedview
   id="namedview85"
   pagecolor="#505050"
   bordercolor="#ffffff"
   borderopacity="1"
   inkscape:showpageshadow="0"
   inkscape:pageopacity="0"
   inkscape:pagecheckerboard="1"
   inkscape:deskcolor="#505050"
   inkscape:zoom="1.4033333"
   inkscape:cx="161.75772"
   inkscape:cy="-33.491687"
   inkscape:window-width="1920"
   inkscape:window-height="991"
   inkscape:window-x="-9"
   inkscape:window-y="-9"
   inkscape:window-maximized="1"
   inkscape:current-layer="g84" />
<style
   type="text/css"
   id="style1">
	.st0{fill:#37342F;stroke:#000000;stroke-width:1.4642;stroke-miterlimit:10;}
	.st1{fill:#F4EFDF;stroke:#000000;stroke-width:1.4642;stroke-miterlimit:10;}
	.st2{fill:#A09989;}
	.st3{fill:#756F65;}
	.st4{fill:#F4EFDF;}
	.st5{fill:#3A0F0F;}
	.st6{fill:#3F0E0E;}
	.st7{fill:none;stroke:#000000;stroke-width:0.4881;stroke-linecap:round;stroke-linejoin:round;stroke-miterlimit:10;}
	.st8{stroke:#000000;stroke-width:1.4642;stroke-miterlimit:10;}
	.st9{fill:#262728;}
	.st10{opacity:0.75;fill:#FFFFFF;}
	.st11{fill:#AA9D7B;stroke:#000000;stroke-width:0.244;stroke-miterlimit:10;}
	.st12{opacity:0.28;}
	.st13{fill:#37342F;}
	.st14{fill:#FFFFFF;stroke:#000000;stroke-width:1.4642;stroke-miterlimit:10;}
	.st15{opacity:0.32;}
	.st16{fill:#09568A;stroke:#000000;stroke-width:1.4642;stroke-miterlimit:10;}
	.st17{fill:#000002;}
	.st18{fill:#FAFFFF;}
	.st19{fill:#030000;}
	.st20{fill:#495D4A;stroke:#000000;stroke-width:1.9522;stroke-miterlimit:10;}
	.st21{fill:#564D36;stroke:#000000;stroke-width:1.9522;stroke-miterlimit:10;}
	.st22{fill:none;stroke:#000000;stroke-width:1.9522;stroke-miterlimit:10;}
	.st23{fill:#817B66;stroke:#000000;stroke-width:1.9522;stroke-miterlimit:10;}
	.st24{fill:#514E3F;stroke:#000000;stroke-width:1.4642;stroke-miterlimit:10;}
	.st25{fill:#262314;stroke:#000000;stroke-width:1.4642;stroke-miterlimit:10;}
	.st26{fill:#173A50;stroke:#000000;stroke-width:1.9522;stroke-miterlimit:10;}
	.st27{opacity:0.86;fill:#7CA3B0;}
</style>
<g
   id="Layer_1"
   transform="translate(-199.6,-184.94521)">
</g>
<g
   id="Layer_19"
   transform="translate(-199.6,-184.94521)">
</g>
<g
   id="Layer_20"
   transform="translate(-199.6,-184.94521)">
</g>
<g
   id="Tail"
   transform="translate(-199.6,-184.94521)">
</g>
<g
   id="right_leg"
   transform="translate(-199.6,-184.94521)">
</g>
<g
   id="Left_leg"
   transform="translate(-199.6,-184.94521)">
</g>
<g
   id="body"
   transform="translate(-199.6,-184.94521)">
</g>
<g
   id="belt"
   transform="translate(-199.6,-184.94521)">
</g>
<g
   id="Face"
   transform="translate(-199.6,-184.94521)">
</g>
<g
   id="Left_ear"
   transform="translate(-199.6,-184.94521)">
</g>
<g
   id="Right_ear"
   transform="translate(-199.6,-184.94521)">
</g>
<g
   id="White_mouth"
   transform="translate(-199.6,-184.94521)">
</g>
<g
   id="Closed_mouth"
   transform="translate(-199.6,-184.94521)">
	<g
   id="Mouth_copy">
	</g>
</g>
<g
   id="Mouth"
   transform="translate(-199.6,-184.94521)">
</g>
<g
   id="wide_opened_mouth"
   transform="translate(-199.6,-184.94521)">
	<g
   id="Mouth_copy_2">
	</g>
</g>
<g
   id="Nose"
   transform="translate(-199.6,-184.94521)">
</g>
<g
   id="Nose_hair_2"
   transform="translate(-199.6,-184.94521)">
</g>
<g
   id="Nose_hair_1"
   transform="translate(-199.6,-184.94521)">
</g>
<g
   id="Eye_brow"
   transform="translate(-199.6,-184.94521)">
</g>
<g
   id="white_part_of_eyes"
   transform="translate(-199.6,-184.94521)">
	<g
   id="Eyes_opened_copy">
	</g>
</g>
<g
   id="eyes_2"
   transform="translate(-199.6,-184.94521)">
	<g
   id="Layer_29">
	</g>
</g>
<g
   id="eyes_1"
   transform="translate(-199.6,-184.94521)">
	<g
   id="Layer_30">
	</g>
</g>
<g
   id="Opened_eye_cover"
   transform="translate(-199.6,-184.94521)">
</g>
<g
   id="Eyes_closed"
   transform="translate(-199.6,-184.94521)">
	<g
   id="Eyes_copy">
	</g>
</g>
<g
   id="cap"
   transform="translate(-199.6,-184.94521)">
</g>
<g
   id="Glasses"
   transform="translate(-199.6,-184.94521)">
	<g
   id="g85">
		<g
   id="g84">
			
			
			
			
			
			
			
			
			
			
			
			
			
			
			
			
			
			
			
			
			
			
			
			
			
			
			
			
			
			
		<g
   id="Eyes_closed-8"
   transform="matrix(0.51341703,0,0,0.51341703,32.739465,-166.59017)">
		<g
   id="Eyes_copy-9">
			<g
   id="g425">
				<path
   class="st44"
   d="m 358.1,689.9 c 0,0 12.7,-6.3 44.6,-2.8 26.6,-1.1 41,-7.1 66,5.4 25.3,16.3 24.9,10.9 39.7,27 16.2,17.7 3.3,30.5 -12.9,30.5 -16.1,0 -39.1,25.8 -67.8,18.1 -28.6,-7.8 -115.5,-53.3 -69.6,-78.2 z"
   id="path424"
   style="fill:#37342f" />
				<path
   class="st44"
   d="m 715.9,686.9 c 0,0 -15.7,-4 -58.5,6.4 -23.9,-10.4 -43.7,-8.2 -72.3,15.7 -10.2,6 -13.4,3.4 -19.6,12.5 -13.5,19.9 1.2,28.6 17.4,28.6 16.2,0 39.1,25.8 67.8,18.1 28.6,-7.9 130.3,-66.6 65.2,-81.3 z"
   id="path425"
   style="fill:#37342f" />
			</g>
			
			
		</g>
		<g
   id="g429">
			<path
   class="st1"
   d="m 704.2,691.4 c 0,0 1.9,34.6 -17,49.4 -14.6,11.5 -29.5,18.1 -57,15.5 -27.5,-2.6 -38,-18.2 -33.9,-41.1 0.1,0.1 50.6,-21 107.9,-23.8 z"
   id="path428"
   style="fill:#37342f;stroke:#000000;stroke-width:3;stroke-miterlimit:10" />
			<path
   class="st47"
   d="m 697.8,727.3 c 0,0 0.9,-16.6 -2.3,-19.5 -3.1,-2.7 -38.4,12.6 -46.5,18 -8.1,5.3 -26,18.2 -33.9,27 0,0 -14.6,-6.8 -16.9,-15.9 -2.3,-9.1 -5.4,-20 -1.8,-21.8 3.5,-1.8 31.6,-11.2 59.8,-16.6 28.3,-5.4 48,-7.3 48,-7.3 0,0 4.1,22.7 -6.4,36.1 z"
   id="path429"
   style="opacity:0.32;enable-background:new" />
		</g>
		<g
   id="g431">
			<path
   class="st1"
   d="m 373,695.1 c 0,0 -0.1,27.5 18.2,43.5 12.8,11.1 34.2,20.4 63.2,16.1 23.3,-3.4 30.5,-21.4 27.5,-36.5 0.1,0 -48.6,-21.7 -108.9,-23.1 z"
   id="path430"
   style="fill:#37342f;stroke:#000000;stroke-width:3;stroke-miterlimit:10" />
			<path
   class="st47"
   d="m 385.4,730.9 c 0,0 -2.8,-15.5 1.6,-19.4 4.3,-3.8 49.7,8.4 66.6,19.1 16.9,10.7 20.6,15 20.6,15 0,0 9.9,-15.3 8.9,-23.5 -1,-8.2 -7.2,-9.3 -33.3,-15.7 -24.1,-5.8 -72.8,-11.2 -76.1,-11.9 -3.3,-0.5 5.1,29.4 11.7,36.4 z"
   id="path431"
   style="opacity:0.32;enable-background:new" />
		</g>
		<path
   class="st51"
   d="m 326.1,692.1 c 0,0 30,-6.4 69.6,-0.3 39.8,6.1 51,9.1 51,9.1 0,0 -25.5,-9.1 -31.4,-14.5 0,0 15.1,4.4 22.9,6.9 7,2.3 20.3,8.7 26.9,10.3 6.6,1.5 30.2,9.4 39.4,21.4 0,0 -3.8,-3.9 -11.9,-7.4 0,0 6.7,14.3 5.9,18.4 0,0 -4.3,-4.8 -5,-6.8 -0.7,-2 -5.4,-11.1 -7.7,-13.4 -2.2,-2.3 -4.4,-3.3 -4.1,-1.6 0.4,1.7 5.1,11.1 -1.2,17.7 0,0 1.6,-7.9 -9.3,-15.8 -7.5,-5.5 -15.4,-6.6 -26.3,-7.9 -10.8,-1.3 -40.5,-5.8 -52,-7.9 -11.4,-2.1 -44.1,-6.3 -53.1,-6.6 -8.6,-0.2 -13.7,-1.6 -13.7,-1.6 z"
   id="path432"
   style="fill:#030000" />
		<path
   class="st51"
   d="m 595.4,715.8 c 2.2,-2.4 1.8,-3.7 1.5,-2 -0.3,1.7 -5,11.4 1.5,18.1 0,0 -1.7,-8.1 9.1,-16.3 7.4,-5.7 15.9,-5.1 26.7,-6.6 10.7,-1.5 39.9,-8.5 51.3,-10.9 11.4,-2.4 42.9,-8.7 51.8,-9.1 9,-0.4 17.2,-2.4 17.2,-2.4 0,0 -26.5,-3 -66.2,3.9 -39.7,6.9 -38.3,6.4 -38.3,6.4 0,0 14,-3.6 19.9,-8 0,0 -22.3,3.2 -29.1,6.1 -6.8,2.9 -13.2,2.6 -28.7,7.9 -6.3,2.2 -26.3,5.6 -33.8,24.2 0,0 4.1,-4.2 10.3,-8.6 z"
   id="path433"
   style="fill:#030000" />
		<g
   id="Opened_eye_cover_happy_00000152978511514586613250000006489681951972032926_">
			<g
   id="g434">
				<path
   class="st51"
   d="m 463.4,709.2 c 2.4,-0.4 4.8,-0.7 7.2,-0.7 2.1,0 4.2,0.2 6.2,0.5 8.4,0.6 14.5,4.9 20.7,9.7 5.6,3.2 8,7.3 8,7.3 -10,-16.5 -32.5,-24.8 -39,-26.3 -6.6,-1.5 -20.4,-1.8 -27.4,-4.8 -7,-3 -22.3,-7.2 -22.3,-7.2 6.4,4.9 31.4,9.7 31.4,9.7 0,0 -13.7,-1.6 -52.9,-6.8 -39.2,-5.1 -70.3,1.4 -70.3,1.4 0,0 10.2,3.1 18.8,2.8 8.7,-0.1 40.8,3.2 52.3,5.1 11.4,1.8 40.8,5.8 51.4,6.7 6,0.5 11.1,1 15.9,2.6 z"
   id="path434"
   style="fill:#030000" />
			</g>
			<g
   id="g435">
				<path
   class="st51"
   d="m 657,699.7 c 17.3,-2.5 34.7,-5.3 52.2,-5.2 13.7,-2.6 30.4,-5.7 36.5,-5.8 9,-0.2 17.4,-2.3 17.4,-2.3 0,0 -26.2,-4.2 -66.5,2.6 -40.2,6.7 -35.8,5.1 -35.8,5.1 0,0 8.1,-4.6 18.1,-7.5 0,0 -24.1,2.6 -31.1,5.8 -7.1,3.1 -12.4,3 -28.2,8.7 -0.3,0.1 -0.6,0.2 -0.9,0.3 12.9,0.6 25.6,-0.1 38.3,-1.7 z"
   id="path435"
   style="fill:#030000" />
			</g>
		</g>
	</g></g>
	</g>
</g>
</svg>
