<?xml version="1.0" encoding="UTF-8" standalone="no"?>
<!-- Generator: Adobe Illustrator 28.0.0, SVG Export Plug-In . SVG Version: 6.00 Build 0)  -->

<svg
   version="1.1"
   x="0px"
   y="0px"
   viewBox="0 0 302.697 216.33083"
   xml:space="preserve"
   id="svg449"
   sodipodi:docname="Fox SVG (character) (meditating)[1].svg"
   inkscape:version="1.3.2 (091e20e, 2023-11-25, custom)"
   width="302.69699"
   height="216.33084"
   xmlns:inkscape="http://www.inkscape.org/namespaces/inkscape"
   xmlns:sodipodi="http://sodipodi.sourceforge.net/DTD/sodipodi-0.dtd"
   xmlns="http://www.w3.org/2000/svg"
   xmlns:svg="http://www.w3.org/2000/svg"><defs
   id="defs449" /><sodipodi:namedview
   id="namedview449"
   pagecolor="#505050"
   bordercolor="#ffffff"
   borderopacity="1"
   inkscape:showpageshadow="0"
   inkscape:pageopacity="0"
   inkscape:pagecheckerboard="1"
   inkscape:deskcolor="#505050"
   inkscape:zoom="2.1266118"
   inkscape:cx="123.6709"
   inkscape:cy="119.43882"
   inkscape:window-width="1920"
   inkscape:window-height="991"
   inkscape:window-x="-9"
   inkscape:window-y="-9"
   inkscape:window-maximized="1"
   inkscape:current-layer="g451" />
<style
   type="text/css"
   id="style1">
	.st0{fill:#F4EFDF;stroke:#000000;stroke-width:3;stroke-miterlimit:10;}
	.st1{fill:#37342F;stroke:#000000;stroke-width:3;stroke-miterlimit:10;}
	.st2{opacity:0.28;enable-background:new    ;}
	.st3{fill:#003366;stroke:#000000;stroke-width:4;stroke-linecap:round;stroke-linejoin:round;stroke-miterlimit:10;}
	.st4{fill:#011E35;}
	.st5{fill:none;stroke:#000000;stroke-width:3;stroke-linecap:round;stroke-linejoin:round;stroke-miterlimit:10;}
	.st6{fill:#635F3B;}
	.st7{fill:#FFFFFF;stroke:#000000;stroke-width:3;stroke-linecap:round;stroke-linejoin:round;stroke-miterlimit:10;}
	.st8{fill:#022847;stroke:#000000;stroke-width:4;stroke-miterlimit:10;}
	.st9{fill:#003768;stroke:#000000;stroke-width:4;stroke-miterlimit:10;}
	.st10{fill:none;stroke:#000000;stroke-width:3;stroke-miterlimit:10;}
	.st11{fill:#003366;stroke:#000000;stroke-width:4;stroke-miterlimit:10;}
	.st12{fill:none;stroke:#000000;stroke-width:2;stroke-miterlimit:10;}
	.st13{fill:#FFFFFF;stroke:#000000;stroke-width:3;stroke-miterlimit:10;}
	.st14{fill:#7C735F;stroke:#000000;stroke-width:4;stroke-miterlimit:10;}
	.st15{fill:#A09989;}
	.st16{fill:#011E35;stroke:#000000;stroke-width:5;stroke-miterlimit:10;}
	.st17{fill:#D8D8D8;}
	.st18{fill:none;stroke:#000000;stroke-width:2;stroke-linecap:round;stroke-linejoin:round;stroke-miterlimit:10;}
	.st19{fill:#59493D;}
	.st20{fill:#5B5445;stroke:#000000;stroke-width:4;stroke-miterlimit:10;}
	.st21{opacity:0.43;enable-background:new    ;}
	.st22{fill:#DDDDDD;stroke:#000000;stroke-width:3;stroke-miterlimit:10;}
	.st23{fill:#4F4F4F;stroke:#000000;stroke-width:3;stroke-miterlimit:9.9996;}
	.st24{fill:#4F4F4F;stroke:#000000;stroke-width:3;stroke-miterlimit:10;}
	.st25{fill:#4F4F4F;stroke:#000000;stroke-width:3.0004;stroke-miterlimit:10.0016;}
	.st26{fill:#A7A9A7;stroke:#000000;stroke-width:3;stroke-miterlimit:10;}
	.st27{fill:#43392E;}
	.st28{opacity:0.63;fill:#001728;enable-background:new    ;}
	.st29{opacity:0.63;fill:#00070C;enable-background:new    ;}
	.st30{fill:#59493D;stroke:#000000;stroke-width:5;stroke-miterlimit:10;}
	.st31{fill:#16191C;stroke:#000000;stroke-width:4;stroke-miterlimit:10;}
	.st32{fill:#43392E;stroke:#000000;stroke-width:4;stroke-miterlimit:10;}
	.st33{fill:#332A22;stroke:#000000;stroke-width:4;stroke-miterlimit:10;}
	.st34{opacity:0.47;enable-background:new    ;}
	.st35{fill:#756F65;}
	.st36{fill:#F4EFDF;}
	.st37{fill:#FFFFFF;stroke:#000000;stroke-width:4;stroke-miterlimit:10;}
	.st38{fill:#3A0F0F;}
	.st39{fill:#3F0E0E;}
	.st40{fill:none;stroke:#000000;stroke-linecap:round;stroke-linejoin:round;stroke-miterlimit:10;}
	.st41{stroke:#000000;stroke-width:3;stroke-miterlimit:10;}
	.st42{fill:#262728;}
	.st43{opacity:0.75;fill:#FFFFFF;enable-background:new    ;}
	.st44{fill:#37342F;}
	.st45{fill:#3F0E0E;stroke:#000000;stroke-width:3;stroke-miterlimit:10;}
	.st46{fill:#AA9D7B;stroke:#000000;stroke-width:0.5;stroke-miterlimit:10;}
	.st47{opacity:0.32;enable-background:new    ;}
	.st48{fill:#09568A;stroke:#000000;stroke-width:3;stroke-miterlimit:10;}
	.st49{fill:#000002;}
	.st50{fill:#FAFFFF;}
	.st51{fill:#030000;}
	.st52{fill:#564D36;stroke:#000000;stroke-width:4;stroke-miterlimit:10;}
	.st53{fill:none;stroke:#000000;stroke-width:4;stroke-miterlimit:10;}
	.st54{fill:#817B66;stroke:#000000;stroke-width:4;stroke-miterlimit:10;}
	.st55{fill:#514E3F;stroke:#000000;stroke-width:3;stroke-miterlimit:10;}
	.st56{fill:#262314;stroke:#000000;stroke-width:3;stroke-miterlimit:10;}
	.st57{fill:#173A50;stroke:#000000;stroke-width:4;stroke-miterlimit:10;}
	.st58{opacity:0.86;fill:#7CA3B0;enable-background:new    ;}
</style>
<g
   id="Layer_1"
   transform="translate(-240.39896,-520.56774)">
	<g
   id="Layer_1_00000000195485673124976050000012168667985312893366_">
	</g>
	
	
	
	
	
	
	
	
	
	
	
	
	
	
	
	
	
	
	
	
	
	
	
	
	
	
	
	
	
	
	
	
	<g
   id="g451"
   transform="matrix(0.54213609,0,0,0.54213609,96.279287,117.00163)"><g
     id="Layer_20_00000020393159206758880780000003773040009029899404_">
		<g
   id="g30">
			<g
   id="g29">
				<path
   class="st3"
   d="m 387.3,862 c 0,0 -11.4,23.1 -9.4,27.2 2,4.1 -2.9,-2.1 -2.9,-2.1 0,0 2.4,5.8 -1.4,15.9 -3.8,10.1 -8.4,23.9 -7.5,25.4 0.8,1.5 -6.8,0.6 -7.6,3.6 -0.8,3 -6.1,37.5 -11.6,43.6 -5.6,6.1 0.6,23.7 -1.9,30.2 -2.5,6.5 -20.9,35.5 -7.3,50.7 13.5,15.1 33,15.5 36,20.5 3,5 7.8,13.8 9.4,16 1.6,2.2 -5.6,-25.7 15.1,-39.2 20.7,-13.5 38.2,-11.7 38.2,-11.7 0,0 18.9,-66.7 19.1,-76.8 C 489.4,892.1 420.9,818.1 387.3,862 Z"
   id="path8" />
				<path
   class="st4"
   d="m 412.9,890.1 c 0,0 12.5,23.3 -3.5,46.7 -8.1,6.2 -10.5,8.3 -10.3,13.9 0.2,5.6 5.5,5.7 3.8,18.6 -1.8,13 -6.9,17.5 -6.1,20.6 0.9,3 8.1,7.4 15.3,8.3 7.2,0.9 5,2 -4,4.1 -8.9,2 -18,0.1 -30.3,6.3 -12.3,6.2 13.4,-7.5 30.9,8.3 10.6,9.5 17.7,32.6 24.5,25.4 7.1,-14.1 13.2,-43.5 20.1,-71.9 1.8,-7.4 8.9,-23.7 9.7,-43.2 0.4,-10.3 -1.5,-21.4 -5.6,-34.2 -11.4,-35.9 -47.7,-52.6 -61.3,-37.6 -4.4,4.6 10.9,18.4 16.8,34.7 z"
   id="path9" />
				<path
   class="st5"
   d="m 411,946.9 c 0,0 8.5,15.3 13.8,20.3 5.3,5 12.6,11.5 8.8,18.3 -3.8,6.8 -2.5,14.2 -2.5,14.2"
   id="path10" />
				<g
   id="g12">
					<path
   class="st6"
   d="m 383.5,1094.3 c -0.1,0 -0.2,0.1 -0.2,0.1 -0.7,0.2 -1.4,-0.1 -1.8,-0.7 l -7.3,-12.5 c -0.1,-0.2 -0.2,-0.4 -0.2,-0.6 0,-0.2 -3.2,-23.9 25.7,-37.8 10.2,-4.9 23.2,-8.1 38.8,-9.4 0.5,0 1,0.2 1.3,0.6 0.3,0.4 0.4,0.9 0.2,1.4 l -2.4,7 c -0.1,0.4 -0.4,0.8 -0.8,0.9 -0.2,0.1 -0.4,0.2 -0.7,0.1 -0.1,0 -16.5,-0.1 -28,5.5 -2.1,1 -3.8,2 -5.3,3.3 -1.3,1.1 -2.5,2 -3.6,2.9 -9.7,7.5 -16.1,12.4 -15,37.6 0.2,0.8 -0.1,1.4 -0.7,1.6 z"
   id="path11" />
					<path
   d="m 400.4,1044.3 c 9.1,-4.4 21.4,-7.8 38.2,-9.2 l -2.4,7 c 0,0 -16.7,-0.1 -28.7,5.7 -2.1,1 -4,2.1 -5.6,3.5 -11.5,9.3 -20.4,12.6 -19.1,41.7 l -7.3,-12.5 c 0,0 -3.3,-22.6 24.9,-36.2 m -1.3,-2.7 c -15.5,7.5 -21.9,17.7 -24.5,24.9 -2.9,8 -2,14.2 -2,14.5 0.1,0.4 0.2,0.8 0.4,1 l 7.3,12.5 c 0.7,1.2 2.2,1.7 3.4,1.3 0.2,-0.1 0.3,-0.1 0.5,-0.2 1.1,-0.5 1.8,-1.6 1.7,-2.8 -1.1,-24.4 5,-29.2 14.3,-36.4 1.2,-0.9 2.4,-1.8 3.6,-2.9 1.4,-1.1 3.1,-2.1 5.1,-3.1 11.3,-5.4 27.1,-5.4 27.4,-5.4 0.4,0 0.9,-0.1 1.3,-0.3 0.7,-0.3 1.3,-1 1.6,-1.8 l 2.4,-7 c 0.3,-0.9 0.1,-2.1 -0.5,-2.8 -0.6,-0.8 -1.6,-1.2 -2.7,-1.2 -15.7,1.5 -29,4.7 -39.3,9.7 z"
   id="path12" />
				</g>
				<path
   class="st7"
   d="m 354.7,942.6 c 0,0 5.9,5.7 12.4,6.8 0,0 -2.9,13.6 -6.1,21.2 -2.3,5.2 -2.3,9.1 -2.3,9.1 0,0 -9.7,-4.5 -12.2,-8.2 -1.9,-2.8 0.4,-10.3 1.2,-11.6 0.8,-1.3 2.9,-18.7 7,-17.3 z"
   id="path13" />
				<path
   class="st7"
   d="m 349.3,965.3 c 0,0 2.7,1.2 3.4,1.3 0,0 2.4,1.3 3.4,1.9 0.8,0.4 1.3,0.7 1.3,0.7 0,0 -2.1,-0.7 -3.1,-1.1 -0.7,-0.3 -1.9,-0.9 -2,-1.1 0,0.1 -3.6,-1.8 -3,-1.7 z"
   id="path14" />
				<path
   class="st7"
   d="m 350.8,960.7 c 0,0 2.7,1.2 3.4,1.3 0,0 2.4,1.3 3.4,1.9 0.8,0.4 1.3,0.7 1.3,0.7 0,0 -2.1,-0.7 -3.1,-1.1 -0.7,-0.3 -1.9,-0.9 -2,-1.1 -0.1,0 -3.8,-1.9 -3,-1.7 z"
   id="path15" />
				<path
   class="st7"
   d="m 351.6,955.1 c 0,0 2.7,1.2 3.4,1.3 0,0 2.4,1.3 3.4,1.9 0.8,0.4 1.3,0.7 1.3,0.7 0,0 -2.1,-0.7 -3.1,-1.1 -0.7,-0.3 -1.9,-0.9 -2,-1.1 0,-0.1 -3.6,-1.9 -3,-1.7 z"
   id="path16" />
				<path
   class="st7"
   d="m 353.4,950.2 c 0,0 2.7,1.2 3.4,1.3 0,0 2.4,1.3 3.4,1.9 0.8,0.4 1.3,0.7 1.3,0.7 0,0 -2.1,-0.7 -3.1,-1.1 -0.7,-0.3 -1.9,-0.9 -2,-1.1 0,0 -3.7,-1.9 -3,-1.7 z"
   id="path17" />
				<g
   id="g17">
					<polygon
   points="375.8,935.3 365.1,927.3 367.1,925.1 "
   id="polygon17" />
				</g>
				<path
   class="st5"
   d="m 379.2,880.8 c 0,0 -1.9,8 7,20.4 8.9,12.4 17.3,23.4 21.2,29.9 3.9,6.5 6.2,14.5 9.2,20.8 3,6.3 9.9,17.8 14.4,21.6"
   id="path18" />
				<path
   class="st5"
   d="m 381.4,877.1 c 0,0 -0.9,5.4 5.8,16.6 6.7,11.2 20.9,25.4 27.6,41 6.8,15.5 6.5,18.8 12.9,26.5 7.1,8.5 14.3,14.9 10,24.6"
   id="path19" />
				<g
   id="g26">
					<g
   id="g20">
						<path
   d="m 363.2,1062.8 c -0.2,-8.9 5,-17.7 11.3,-23.9 11.3,-10.1 26.9,-13.1 41.5,-14.6 -5.6,1.8 -11.3,3.2 -16.8,5.1 -8.2,2.7 -16.3,6 -22.8,11.7 -6.2,5.7 -11.4,13.2 -13.2,21.7 z"
   id="path20" />
					</g>
					<g
   id="g21">
						<path
   d="m 370.1,1011.1 c -7.6,4.7 -14.3,10.4 -20,17.3 -4.3,4.9 -9,9.7 -9.7,16.3 -0.3,2.1 0,4.3 0.3,6.5 -1,-2.1 -1.6,-4.2 -1.7,-6.6 -0.5,-7.2 4.5,-13.4 8.9,-18.3 5.9,-6.9 13.4,-12.7 22.2,-15.2 z"
   id="path21" />
					</g>
					<g
   id="g22">
						<path
   d="m 402,1025.4 c -11,-0.4 -21.4,1.6 -32,4.6 8.8,-7.1 21.8,-9.3 32,-4.6 z"
   id="path22" />
					</g>
					<g
   id="g23">
						<path
   d="m 344.6,1042.2 c 14.2,-17.8 38.5,-32.8 61.9,-29.8 -3.7,0.3 -7.3,0.7 -10.8,1.5 -19.4,4.2 -36.2,15.6 -51.1,28.3 z"
   id="path23" />
					</g>
					<g
   id="g24">
						<path
   d="m 359.7,1032.8 c 6.7,-8.1 17.9,-14.3 28.6,-13.8 -9.9,3.8 -19,8.8 -28.6,13.8 z"
   id="path24" />
					</g>
					<g
   id="g25">
						<path
   d="m 410,964.5 c 8.5,4.9 13.7,16.3 9.8,25.7 -2.3,4.7 -1.1,1.5 -1.1,-1.3 0.7,-9 -3.7,-17.2 -8.7,-24.4 z"
   id="path25" />
					</g>
				</g>
				<g
   id="g27">
					<path
   d="m 343.2,1009.4 c 0.6,-8.3 6.7,-16.5 14.8,-18.7 -5.7,5.8 -10.3,12 -14.8,18.7 z"
   id="path26" />
				</g>
				<g
   id="g28">
					<path
   d="m 395.3,989 c 9.2,0.7 20.3,5.9 24.2,14.7 -7.5,-6.1 -16,-9.8 -24.2,-14.7 z"
   id="path27" />
				</g>
			</g>
		</g>
	</g><g
     id="Layer_20_00000108302860237106111440000004821669207916764075_">
		<g
   id="g52">
			<g
   id="g51">
				<path
   class="st3"
   d="m 627.4,965.3 c 0.2,10.1 19.1,76.8 19.1,76.8 0,0 17.6,-1.9 38.2,11.7 20.7,13.5 13.4,41.4 15.1,39.2 1.6,-2.2 6.4,-11 9.4,-16 3,-5 22.5,-5.4 36,-20.5 13.6,-15.2 -4.8,-44.2 -7.3,-50.7 -2.5,-6.5 3.7,-24.1 -1.9,-30.2 -5.5,-6.1 -10.9,-40.5 -11.6,-43.6 -0.8,-3 -8.4,-2.2 -7.6,-3.6 0.8,-1.5 -3.7,-15.3 -7.5,-25.4 -3.8,-10.1 -1.4,-15.9 -1.4,-15.9 0,0 -4.9,6.3 -2.9,2.1 2,-4.1 -9.4,-27.2 -9.4,-27.2 -33.7,-43.9 -102.2,30.1 -68.2,103.3 z"
   id="path30" />
				<path
   class="st4"
   d="m 686.8,855.3 c -13.6,-15 -49.9,1.7 -61.3,37.6 -4.1,12.8 -5.9,24 -5.6,34.2 0.7,19.4 7.9,35.8 9.7,43.2 6.9,28.4 13,57.8 20.1,71.9 6.8,7.3 13.9,-15.8 24.5,-25.4 17.5,-15.8 43.2,-2.2 30.9,-8.3 -12.3,-6.1 -21.4,-4.3 -30.3,-6.3 -9,-2 -11.2,-3.2 -4,-4.1 7.2,-0.9 14.4,-5.3 15.3,-8.3 0.8,-3.1 -4.2,-7.6 -6.1,-20.6 -1.8,-12.9 3.6,-12.9 3.8,-18.6 0.2,-5.7 -2.2,-7.7 -10.3,-13.9 -16,-23.4 -3.5,-46.7 -3.5,-46.7 5.8,-16.2 21.1,-30 16.8,-34.7 z"
   id="path31" />
				<path
   class="st5"
   d="m 651.6,999.7 c 0,0 1.3,-7.4 -2.5,-14.2 -3.8,-6.8 3.5,-13.3 8.8,-18.3 5.3,-5 13.8,-20.3 13.8,-20.3"
   id="path32" />
				<g
   id="g34">
					<path
   class="st6"
   d="m 698.4,1092.9 c 1.2,-25.2 -5.2,-30.2 -15,-37.6 -1.1,-0.9 -2.4,-1.8 -3.6,-2.9 -1.5,-1.3 -3.2,-2.3 -5.3,-3.3 -11.5,-5.6 -27.9,-5.5 -28,-5.5 -0.4,0 -0.5,0 -0.7,-0.1 -0.4,-0.2 -0.6,-0.5 -0.8,-0.9 l -2.4,-7 c -0.2,-0.5 -0.1,-1 0.2,-1.4 0.3,-0.4 0.8,-0.6 1.3,-0.6 15.6,1.3 28.6,4.5 38.8,9.4 28.9,13.9 25.7,37.6 25.7,37.8 0,0.2 -0.1,0.4 -0.2,0.6 l -7.3,12.5 c -0.4,0.6 -1.1,0.9 -1.8,0.7 0,0 -0.1,0 -0.2,-0.1 -0.4,-0.4 -0.7,-1 -0.7,-1.6 z"
   id="path33" />
					<path
   d="m 682.4,1044.3 c 28.2,13.6 24.8,36.3 24.8,36.3 l -7.3,12.5 c 1.4,-29.1 -7.6,-32.4 -19.1,-41.7 -1.6,-1.3 -3.5,-2.5 -5.6,-3.5 -12,-5.8 -28.7,-5.7 -28.7,-5.7 l -2.4,-7 c 16.9,1.3 29.2,4.7 38.3,9.1 m 1.3,-2.7 c -10.4,-5 -23.6,-8.2 -39.3,-9.6 -1.1,-0.1 -2.1,0.3 -2.7,1.2 -0.6,0.7 -0.8,1.8 -0.5,2.8 l 2.4,7 c 0.3,0.8 0.9,1.4 1.6,1.8 0.4,0.2 0.9,0.3 1.3,0.3 0.2,0 16.1,0 27.4,5.4 2,1 3.7,2 5.1,3.1 1.2,1 2.4,1.9 3.6,2.9 9.3,7.2 15.4,12 14.3,36.4 0,1.2 0.7,2.3 1.7,2.8 0.2,0.1 0.3,0.1 0.5,0.2 1.3,0.4 2.7,-0.1 3.4,-1.3 l 7.3,-12.5 c 0.2,-0.2 0.3,-0.6 0.4,-1 0,-0.3 0.9,-6.5 -2,-14.5 -2.6,-7.4 -9,-17.6 -24.5,-25 z"
   id="path34" />
				</g>
				<path
   class="st7"
   d="m 735.1,959.9 c 0.8,1.3 3.1,8.7 1.2,11.6 -2.5,3.7 -12.2,8.2 -12.2,8.2 0,0 0,-3.9 -2.3,-9.1 -3.2,-7.6 -6.1,-21.2 -6.1,-21.2 6.5,-1.1 12.4,-6.8 12.4,-6.8 4.1,-1.4 6.2,16 7,17.3 z"
   id="path35" />
				<path
   class="st7"
   d="m 730.4,967.1 c -0.1,0.2 -1.2,0.7 -2,1.1 -0.9,0.3 -3.1,1.1 -3.1,1.1 0,0 0.6,-0.3 1.3,-0.7 1,-0.6 3.4,-1.9 3.4,-1.9 0.8,-0.2 3.4,-1.3 3.4,-1.3 0.7,-0.2 -2.9,1.7 -3,1.7 z"
   id="path36" />
				<path
   class="st7"
   d="m 728.9,962.5 c -0.1,0.2 -1.2,0.7 -2,1.1 -0.9,0.3 -3.1,1.1 -3.1,1.1 0,0 0.6,-0.3 1.3,-0.7 1,-0.6 3.4,-1.9 3.4,-1.9 0.8,-0.2 3.4,-1.3 3.4,-1.3 0.9,-0.3 -2.8,1.6 -3,1.7 z"
   id="path37" />
				<path
   class="st7"
   d="m 728.1,956.9 c -0.1,0.2 -1.2,0.7 -2,1.1 -0.9,0.3 -3.1,1.1 -3.1,1.1 0,0 0.6,-0.3 1.3,-0.7 1,-0.6 3.4,-1.9 3.4,-1.9 0.8,-0.2 3.4,-1.3 3.4,-1.3 0.7,-0.3 -2.9,1.5 -3,1.7 z"
   id="path38" />
				<path
   class="st7"
   d="m 726.3,952.1 c -0.1,0.2 -1.2,0.7 -2,1.1 -0.9,0.3 -3.1,1.1 -3.1,1.1 0,0 0.6,-0.3 1.3,-0.7 1,-0.6 3.4,-1.9 3.4,-1.9 0.8,-0.2 3.4,-1.3 3.4,-1.3 0.8,-0.4 -2.9,1.5 -3,1.7 z"
   id="path39" />
				<g
   id="g39">
					<polygon
   points="707,935.3 715.7,925.1 717.7,927.3 "
   id="polygon39" />
				</g>
				<path
   class="st5"
   d="m 651.7,973.4 c 4.5,-3.8 11.4,-15.4 14.4,-21.6 3,-6.2 5.3,-14.3 9.2,-20.8 3.9,-6.5 12.2,-17.5 21.2,-29.9 9,-12.4 7,-20.4 7,-20.4"
   id="path40" />
				<path
   class="st5"
   d="m 645.1,985.9 c -4.3,-9.7 2.9,-16.1 10,-24.6 6.4,-7.7 6.1,-11 12.9,-26.5 6.7,-15.5 20.9,-29.8 27.6,-41 6.7,-11.2 5.8,-16.6 5.8,-16.6"
   id="path41" />
				<g
   id="g48">
					<g
   id="g42">
						<path
   d="m 719.6,1062.8 c -1.8,-8.5 -6.9,-16 -13.1,-21.7 -6.5,-5.7 -14.6,-8.9 -22.8,-11.7 -5.5,-1.9 -11.3,-3.3 -16.8,-5.1 14.6,1.6 30.1,4.5 41.5,14.6 6.2,6.2 11.3,15 11.2,23.9 z"
   id="path42" />
					</g>
					<g
   id="g43">
						<path
   d="m 712.7,1011.1 c 8.8,2.5 16.3,8.3 22.2,15.2 4.4,4.9 9.4,11.1 8.9,18.3 -0.1,2.4 -0.7,4.5 -1.7,6.6 0.3,-2.2 0.6,-4.4 0.3,-6.5 -0.7,-6.7 -5.4,-11.4 -9.7,-16.3 -5.7,-6.8 -12.4,-12.6 -20,-17.3 z"
   id="path43" />
					</g>
					<g
   id="g44">
						<path
   d="m 680.8,1025.4 c 10.2,-4.6 23.3,-2.4 32,4.6 -10.6,-3.1 -21.1,-5 -32,-4.6 z"
   id="path44" />
					</g>
					<g
   id="g45">
						<path
   d="m 738.2,1042.2 c -14.9,-12.6 -31.7,-24 -51.1,-28.3 -3.5,-0.8 -7.1,-1.2 -10.8,-1.5 23.4,-3.1 47.7,11.9 61.9,29.8 z"
   id="path45" />
					</g>
					<g
   id="g46">
						<path
   d="m 723.1,1032.8 c -9.5,-4.9 -18.6,-10 -28.6,-13.8 10.7,-0.5 21.8,5.6 28.6,13.8 z"
   id="path46" />
					</g>
					<g
   id="g47">
						<path
   d="m 672.8,964.5 c -5,7.2 -9.4,15.4 -8.8,24.4 0.1,2.8 1.2,5.9 -1.1,1.3 -3.8,-9.5 1.4,-20.8 9.9,-25.7 z"
   id="path47" />
					</g>
				</g>
				<g
   id="g49">
					<path
   d="m 739.6,1009.4 c -4.5,-6.7 -9.1,-12.9 -14.8,-18.7 8.1,2.2 14.3,10.5 14.8,18.7 z"
   id="path48" />
				</g>
				<g
   id="g50">
					<path
   d="m 687.5,989 c -8.2,4.9 -16.7,8.6 -24.2,14.7 4,-8.8 15,-14 24.2,-14.7 z"
   id="path49" />
				</g>
			</g>
		</g>
	</g><g
     id="g184">
		<g
   id="g164">
			<g
   id="g152">
				<path
   class="st19"
   d="m 536.1,1115.6 c -4.5,0 -8.8,-0.1 -12.7,-0.4 -2,-0.1 -4,-0.2 -6.1,-0.4 -29.8,-1.8 -57.9,-3.5 -82.2,-23.4 -11.2,-9.2 -15.4,-21.5 -11.3,-33 3.2,-8.8 10.6,-14.7 18.6,-14.7 2.1,0 4.2,0.4 6.3,1.2 h 0.1 0.1 c 0.2,0.1 21.2,11.2 51.2,14.7 9.1,1.1 17.4,1.6 25.5,1.6 8.3,0 14.7,-0.6 19.8,-1 3.5,-0.3 6.5,-0.6 9.2,-0.6 h 3.9 c 12.6,0 29.3,-0.4 46.5,-3.4 15.4,-2.7 24.2,-5.5 28.9,-6.9 1.7,-0.5 2.9,-0.9 3.7,-1 0.3,-0.1 1.3,-0.4 2.3,-0.7 4.2,-1.3 11.9,-3.8 18.7,-3.8 5.4,0 9.1,1.6 11.2,4.7 l 0.4,0.6 c 3.5,5.1 8.7,12.8 6.2,21.8 -2.5,8.6 -11.3,16.1 -27.1,23.1 -36.1,16 -83.5,21.6 -113.2,21.6 z"
   id="path151" />
				<path
   d="m 442.5,1045.3 c 1.9,0 3.8,0.4 5.7,1.1 0,0 21.1,11.3 51.7,14.9 10.2,1.2 18.6,1.6 25.6,1.6 14,0 22.5,-1.6 28.9,-1.6 1.2,0 2.5,0 3.9,0 10.6,0 28.3,-0.2 46.8,-3.4 20.9,-3.7 29.9,-7.5 32.6,-8 1.8,-0.3 12.2,-4.5 20.8,-4.5 4.2,0 8,1 10,4 6.1,9 19,26.2 -19.9,43.3 -34.1,15 -80.3,21.4 -112.5,21.4 -4.5,0 -8.8,-0.1 -12.7,-0.4 -31.7,-2 -61.9,-2.5 -87.4,-23.4 -22.7,-18.7 -9.6,-45 6.5,-45 m 0,-3 v 0 c -8.6,0 -16.7,6.3 -20,15.7 -4.3,12.1 0.1,25 11.8,34.6 24.6,20.2 53,21.9 83,23.7 2,0.1 4,0.2 6.1,0.4 4,0.2 8.3,0.4 12.8,0.4 29.8,0 77.5,-5.7 113.7,-21.6 16.2,-7.2 25.4,-15 28,-24 2.8,-9.6 -2.7,-17.7 -6.4,-23 l -0.4,-0.6 c -2.4,-3.5 -6.6,-5.3 -12.5,-5.3 -7,0 -14.9,2.5 -19.2,3.9 -0.9,0.3 -1.9,0.6 -2.1,0.7 -0.9,0.2 -2.1,0.5 -3.8,1.1 -4.7,1.5 -13.4,4.2 -28.7,6.9 -17.1,3 -33.7,3.4 -46.3,3.4 h -2.2 -1.7 c -2.7,0 -5.8,0.3 -9.3,0.6 -5.1,0.4 -11.4,1 -19.6,1 -8,0 -16.2,-0.5 -25.3,-1.6 -29.8,-3.5 -50.5,-14.4 -50.7,-14.5 l -0.1,-0.1 -0.1,-0.1 c -2.4,-1.1 -4.7,-1.6 -7,-1.6 z"
   id="path152" />
			</g>
			<g
   id="g158">
				<g
   id="g153">
					<path
   d="m 454.2,1056 c 7.9,5.1 17.3,7.9 26.5,9.9 4.6,1 9.6,1.7 14.3,2.3 4.2,0.5 10.2,0.8 14.4,1 h -7.3 c -12.1,-0.2 -24.3,-1.5 -36,-5 -4.8,-1.5 -9.3,-3.1 -13.7,-5.8 0.1,0.1 1.8,-2.4 1.8,-2.4 z"
   id="path153" />
				</g>
				<g
   id="g154">
					<path
   d="m 450.7,1073.7 c 4.2,2.7 8.9,4.7 13.6,6.2 -3.8,-0.4 -7.6,-1.2 -11.3,-2.3 -1.3,-0.4 -2.5,-0.8 -3.7,-1.3 z"
   id="path154" />
				</g>
				<g
   id="g155">
					<path
   d="m 491.7,1096.9 c 5.4,2.1 11.2,3.4 16.9,4.4 -4.4,0 -8.9,-0.2 -13.3,-0.8 -1.5,-0.2 -2.9,-0.4 -4.5,-0.8 z"
   id="path155" />
				</g>
				<g
   id="g157">
					<path
   class="st19"
   d="m 488.3,1115.6 c -2.1,0 -4.2,-1.8 -5.2,-2.9 -1.5,-1.8 -1.4,-6.9 -0.6,-18.3 0.1,-1.5 0.2,-2.9 0.3,-4.2 0.4,-7.5 0.3,-25.1 0.1,-27.2 -0.2,-1.9 -0.7,-6.3 6,-7.1 0.5,-0.1 0.9,-0.1 1.4,-0.1 4.1,0 5.6,2.3 5.8,2.6 l 0.8,1.3 -1.4,0.8 c 0,0 -1.3,0.8 -3.3,3.3 -0.6,0.7 -2.3,4.4 -1.6,21.9 0.1,3.1 0.4,6.7 0.6,10.3 0.5,6.8 0.9,13.2 0.5,16.1 -0.3,3.2 -2.7,3.5 -3.4,3.5 z"
   id="path156" />
					<path
   d="m 490.3,1057.2 c 3.3,0 4.5,1.9 4.5,1.9 0,0 -1.5,0.8 -3.7,3.7 -2.2,2.8 -2.3,13.9 -1.9,22.9 0.4,9 1.7,21.9 1.2,26.1 -0.2,1.8 -1,2.4 -2,2.4 -1.4,0 -3.1,-1.3 -4,-2.4 -1.6,-1.9 -0.4,-14.1 0,-21.5 0.4,-7.4 0.3,-25.2 0.1,-27.5 -0.3,-2.3 -0.3,-4.9 4.7,-5.5 0.3,-0.1 0.7,-0.1 1.1,-0.1 m 0,-3 c -0.5,0 -1,0 -1.5,0.1 -8.2,1 -7.5,6.8 -7.3,8.8 0.2,2.1 0.3,19.5 -0.1,27 -0.1,1.3 -0.2,2.7 -0.3,4.2 -0.9,12.7 -0.8,17.2 1,19.4 1.3,1.6 3.8,3.5 6.3,3.5 2.1,0 4.5,-1.3 4.9,-5 0.4,-3 0,-9.2 -0.5,-16.4 -0.2,-3.5 -0.5,-7.1 -0.6,-10.2 -0.8,-18 1.2,-20.8 1.3,-20.9 1.6,-2 2.6,-2.8 2.8,-2.9 l 2.9,-1.4 -1.9,-2.7 c -0.2,-0.6 -2.2,-3.5 -7,-3.5 z"
   id="path157" />
				</g>
			</g>
			<g
   id="g163">
				<g
   id="g159">
					<path
   d="m 645.7,1086.3 c -8.7,4.7 -18.4,6.9 -28,8.4 -9.4,1.4 -19.4,1.8 -28.9,1.6 l 7.2,-0.3 c 11.9,-0.8 23.9,-2.6 35.3,-6.4 4.4,-1.5 9,-3.3 12.8,-5.8 z"
   id="path158" />
				</g>
				<g
   id="g160">
					<path
   d="m 641.8,1067.1 c -4.9,1.7 -9.9,2.7 -15,3.2 3.6,-1.1 7.1,-2.5 10.5,-4.2 1.1,-0.6 2.2,-1.2 3.2,-1.8 z"
   id="path159" />
				</g>
				<g
   id="g161">
					<path
   d="m 603.6,1066.7 c -5.9,1.1 -11.9,1.3 -17.8,1.4 5.7,-1 11.5,-2.2 16.9,-4.2 0,-0.1 0.9,2.8 0.9,2.8 z"
   id="path160" />
				</g>
				<g
   id="g162">
					<path
   class="st19"
   d="m 606.1,1109.3 c -0.7,0 -3,-0.3 -3.4,-3.6 -0.4,-2.7 0.1,-8.8 0.5,-15.2 0.2,-3.3 0.5,-6.7 0.6,-9.6 0.6,-13 -0.4,-19.1 -1.6,-20.5 -1.9,-2.3 -3.2,-3.1 -3.3,-3.1 l -1.4,-0.8 0.9,-1.4 c 0.2,-0.2 1.7,-2.4 5.7,-2.4 0.4,0 0.9,0 1.3,0.1 2.5,0.3 4.1,1 5.1,2.2 1.1,1.4 1.1,3.1 0.9,4.6 -0.2,2 -0.3,18.5 0.1,25.6 0.1,1.2 0.2,2.6 0.3,4 0.8,10.8 0.9,15.6 -0.6,17.3 -0.9,1.1 -3,2.8 -5.1,2.8 z"
   id="path161" />
					<path
   d="m 604.1,1054.3 c 0.4,0 0.8,0 1.2,0.1 5,0.6 4.9,3 4.7,5.1 -0.2,2.1 -0.3,18.9 0.1,25.8 0.4,7 1.6,18.4 0,20.2 -0.9,1.1 -2.7,2.2 -4,2.2 -1,0 -1.7,-0.6 -2,-2.2 -0.5,-4 0.8,-16.1 1.2,-24.5 0.4,-8.4 0.3,-18.9 -1.9,-21.5 -2.2,-2.6 -3.7,-3.5 -3.7,-3.5 0,0 1.1,-1.7 4.4,-1.7 m 0,-3 c -3.7,0 -6.1,1.7 -7,3.1 l -1.9,2.9 3,1.4 c 0.2,0.1 1.3,0.9 2.8,2.7 0.1,0.1 2,2.8 1.2,19.5 -0.1,2.9 -0.4,6.3 -0.6,9.6 -0.5,6.7 -0.9,12.6 -0.5,15.5 0.5,3.6 2.8,4.9 4.9,4.9 2.5,0 4.9,-1.8 6.2,-3.3 1.9,-2.1 1.9,-6.4 1,-18.4 -0.1,-1.4 -0.2,-2.7 -0.3,-4 -0.4,-7 -0.3,-23.4 -0.1,-25.3 0.1,-1.2 0.4,-3.6 -1.2,-5.7 -1.2,-1.6 -3.2,-2.5 -6.1,-2.8 -0.4,-0.1 -0.9,-0.1 -1.4,-0.1 z"
   id="path162" />
				</g>
			</g>
		</g>
		<g
   id="g173">
			<path
   class="st14"
   d="m 632.8,1049.3 c 0,0 -6.2,-4.4 -4,-10.8 2.2,-6.4 5.5,-7.9 17.8,-17 12.3,-9.1 26.3,-17.5 34,-17.7 7.7,-0.3 14.8,-0.7 24.8,12.8 10,13.5 13.8,27.6 6.1,29.3 0,0 7.4,11.7 5.1,20.2 -2.3,8.4 -11.5,19.4 -15.8,23 0,0 -5.1,6.4 -10,3.1 0,0 -11.7,16.6 -26,17.6 -7.3,0.5 -16.1,-16.1 -16.1,-16.1 0,0 -4,-15.1 -5,-20.7 -0.9,-5.6 -3.2,-16.6 -3.5,-18.6 -0.3,-2.1 -6.1,-3.9 -7.4,-5.1 z"
   id="path164" />
			<path
   class="st10"
   d="m 689.4,1093.9 c 0.5,-0.4 3.8,-10.6 0,-28 -3.8,-17.4 -5.4,-14 -4.3,-18.4 1,-4.3 0.8,-6.4 -3.6,-16.1 -4.3,-9.7 -9.1,-19.7 -16.8,-21.7"
   id="path165" />
			<path
   class="st12"
   d="m 664.6,1011.1 c 0,0 6.6,2 14.8,18.5 6.2,12.6 6.8,15.4 4.5,18.3 -2.3,2.8 -8.4,8.8 -13.8,10.9 -5.4,2 -7.9,5.1 -8.9,1.8 -1,-3.3 -1.8,-9.2 -7.4,-14.6 -5.1,-4.9 -10.2,-6.1 -12.5,-7.1 -2.3,-1 -13.9,0.6 -11.3,-3 2.6,-3.6 21.8,-19.3 34.6,-24.8 z"
   id="path166" />
			<path
   class="st12"
   d="m 714.9,1042.8 c 0,0 -8.9,7 -16.6,7 -7.7,0 -1.5,-25.6 -20.4,-38 0,0 -5.1,-4.1 -12,-2.8 0,0 10,-6.8 21.2,-5.1 11.2,1.7 17.9,11.2 24.4,22.8 6.5,11.6 4.1,11.5 3.4,16.1 z"
   id="path167" />
			<path
   class="st20"
   d="m 696.8,1092.3 c 6.8,-4.8 4.9,-16.2 3.1,-26.2 -1.8,-10 -1.5,-16.3 -1.5,-16.3 0,0 -4.1,-1.3 -8.2,-19.7 -4.1,-18.4 -20.9,-20.2 -20.9,-20.2 0,0 -1.5,3.5 1.9,6.1 5.3,4 14,21.1 14.8,24.8 0.8,3.7 -0.2,6.4 -0.7,7.7 -0.5,1.3 1.7,7.1 2.6,10.7 0.9,3.6 4.8,19.6 3.1,30.1 l -0.2,2.7 c -0.1,0.2 3.6,2 6,0.3 z"
   id="path168" />
			<path
   class="st20"
   d="m 664.7,1109.8 c 4.2,0 0.7,-22.7 -2.5,-30.1 -3.2,-7.3 -4.6,-10.7 -4.9,-19.7 -0.3,-9 -1.3,-8.8 -2.5,-10.2 -2.9,-3.6 -6.2,-8 -12.8,-8.7 -6.6,-0.7 -13.2,-2.6 -13.2,-2.6 0,0 -1.8,4.3 1.8,8.6 3.6,4.2 7.4,4.3 8.5,5.8 1.1,1.5 3.6,10.6 4.6,17.9 1,7.2 2.5,18.7 5,23 2.5,4.3 8,16 16,16 z"
   id="path169" />
			<g
   id="g170">
				<path
   d="m 637.8,1033.9 c 8.1,-7.9 17.8,-14.4 28.2,-18.9 -8.2,8 -17.8,14.4 -28.2,18.9 z"
   id="path170" />
			</g>
			<g
   id="g171">
				<path
   d="m 693,1009.9 c 11.1,4.3 17.5,16.7 18.1,28.1 -0.5,-1.4 -1,-2.7 -1.4,-4.1 -3.3,-9.2 -8.5,-18.2 -16.7,-24 z"
   id="path171" />
			</g>
			<path
   class="st21"
   d="m 696.4,1049.3 c 0,0 -10.7,-0.4 -10.6,-4.4 0.1,-4 -15.4,-30.1 -13.2,-28.8 6.7,3.8 9.4,-1 19.8,22.5 0.5,1.1 2.1,8.3 4,10.7 z"
   id="path172" />
			<path
   class="st21"
   d="m 659.8,1072.9 c 0,0 -13.8,-3.9 -16.2,-10.9 -5.5,-16.3 -20.8,-11.9 -14.9,-21.2 4.1,-6.5 30.4,1.1 28.5,19.2 0,1.2 0.7,10.6 2.6,12.9 z"
   id="path173" />
		</g>
		<g
   id="g183">
			<path
   class="st14"
   d="m 459.7,1051.9 c 0,0 6.2,-4.4 4,-10.8 -2.2,-6.4 -5.5,-7.9 -17.8,-17 -12.3,-9.1 -26.3,-17.5 -34,-17.7 -7.7,-0.3 -14.8,-0.7 -24.8,12.8 -10,13.5 -13.8,27.6 -6.1,29.3 0,0 -7.4,11.7 -5.1,20.2 2.3,8.5 11.5,19.4 15.8,23 0,0 5.1,6.4 10,3.1 0,0 11.7,16.6 26,17.6 7.3,0.5 16.1,-16.1 16.1,-16.1 0,0 4,-15.1 5,-20.7 0.9,-5.6 3.2,-16.6 3.5,-18.6 0.2,-2.1 6,-3.9 7.4,-5.1 z"
   id="path174" />
			<path
   class="st10"
   d="m 403,1096.4 c -0.5,-0.4 -3.8,-10.6 0,-28 3.8,-17.4 5.4,-14 4.3,-18.4 -1,-4.3 -0.8,-6.4 3.6,-16.1 4.4,-9.7 9.1,-19.7 16.8,-21.7"
   id="path175" />
			<path
   class="st12"
   d="m 427.9,1013.7 c 0,0 -6.6,2 -14.8,18.5 -6.2,12.6 -6.8,15.4 -4.5,18.3 2.3,2.8 8.4,8.8 13.8,10.9 5.4,2 7.9,5.1 8.9,1.8 1,-3.3 1.8,-9.2 7.4,-14.6 5.1,-4.9 10.2,-6.1 12.5,-7.1 2.3,-1 13.9,0.6 11.3,-3 -2.7,-3.7 -21.9,-19.4 -34.6,-24.8 z"
   id="path176" />
			<path
   class="st12"
   d="m 377.5,1045.4 c 0,0 8.9,7 16.6,7 7.7,0 1.5,-25.6 20.4,-38 0,0 5.1,-4.1 12,-2.8 0,0 -10,-6.8 -21.2,-5.1 -11.2,1.7 -17.9,11.2 -24.4,22.8 -6.5,11.5 -4.1,11.5 -3.4,16.1 z"
   id="path177" />
			<path
   class="st20"
   d="m 395.7,1094.8 c -6.8,-4.8 -4.9,-16.2 -3.1,-26.2 1.8,-10 1.5,-16.3 1.5,-16.3 0,0 4.1,-1.3 8.2,-19.7 4.1,-18.4 20.9,-20.2 20.9,-20.2 0,0 1.5,3.5 -1.9,6.1 -5.3,4 -14,21.1 -14.8,24.8 -0.8,3.7 0.2,6.4 0.7,7.7 0.5,1.3 -1.7,7.1 -2.6,10.7 -0.9,3.6 -4.8,19.6 -3.1,30.1 l 0.2,2.7 c 0,0.2 -3.6,2 -6,0.3 z"
   id="path178" />
			<path
   class="st20"
   d="m 427.7,1112.3 c -4.2,0 -0.7,-22.7 2.5,-30.1 3.2,-7.3 4.6,-10.7 4.9,-19.7 0.3,-9 1.3,-8.8 2.5,-10.2 2.9,-3.6 6.2,-8 12.8,-8.7 6.6,-0.7 13.2,-2.6 13.2,-2.6 0,0 1.8,4.3 -1.8,8.6 -3.6,4.2 -7.4,4.3 -8.5,5.8 -1.1,1.5 -3.6,10.6 -4.6,17.9 -1,7.2 -2.5,18.7 -5,23 -2.4,4.2 -7.9,16 -16,16 z"
   id="path179" />
			<g
   id="g180">
				<path
   d="m 454.7,1036.5 c -10.4,-4.5 -20.1,-10.9 -28.2,-18.9 10.4,4.5 20.1,11 28.2,18.9 z"
   id="path180" />
			</g>
			<g
   id="g181">
				<path
   d="m 399.4,1012.5 c -8.2,5.8 -13.4,14.7 -16.7,24 -0.5,1.3 -0.9,2.7 -1.4,4.1 0.7,-11.4 7,-23.8 18.1,-28.1 z"
   id="path181" />
			</g>
			<path
   class="st21"
   d="m 396,1051.8 c 0,0 10.7,-0.4 10.6,-4.4 -0.1,-4 15.4,-30.1 13.2,-28.8 -6.7,3.8 -9.4,-1 -19.8,22.5 -0.4,1.1 -2,8.4 -4,10.7 z"
   id="path182" />
			<path
   class="st21"
   d="m 432.6,1075.5 c 0,0 13.8,-3.9 16.2,-10.9 5.5,-16.3 20.8,-11.9 14.9,-21.2 -4.1,-6.5 -30.4,1.1 -28.5,19.2 0.1,1.2 -0.6,10.5 -2.6,12.9 z"
   id="path183" />
		</g>
	</g><g
     id="g185">
		<path
   class="st22"
   d="m 564.2,1117.9 h -34.6 c -6.4,0 -11.7,-5.2 -11.7,-11.7 v -34.6 c 0,-6.4 5.2,-11.7 11.7,-11.7 h 34.6 c 6.4,0 11.7,5.2 11.7,11.7 v 34.6 c -0.1,6.5 -5.3,11.7 -11.7,11.7 z"
   id="path184" />
		<path
   class="st22"
   d="m 557.3,1110.9 h -19 c -6.4,0 -11.7,-5.2 -11.7,-11.7 v -21.4 c 0,-6.4 5.2,-11.7 11.7,-11.7 h 19 c 6.4,0 11.7,5.2 11.7,11.7 v 21.4 c -0.1,6.5 -5.3,11.7 -11.7,11.7 z"
   id="path185" />
	</g><g
     id="g298">
		<g
   id="g280">
			<path
   class="st3"
   d="m 338.4,1006.8 c -0.7,0.9 -1.3,2 -1.5,3.4 -0.5,3.4 0.9,6.4 2.3,9.3 0.5,1.1 0.7,2.2 0.7,3.3 26.9,-3.4 54.3,2 77.6,14.1 0.5,-2.3 1,-4.5 1.4,-6.7 -24.1,-15.1 -52.7,-24.5 -80.5,-23.4 z"
   id="path279" />
			<path
   class="st3"
   d="m 351.2,996.7 c 0,0.6 -0.1,1.1 -0.3,1.7 -2,4.8 -9.2,4.5 -12.4,8.4 27.8,-1.1 56.4,8.3 80.6,23.4 1.2,-6 2,-11.7 2.5,-16.8 -20.7,-12.7 -46.3,-18.8 -70.4,-16.7 z"
   id="path280" />
		</g>
		<g
   id="g282">
			<path
   class="st31"
   d="m 393.2,1115 c 0,0 -6.4,29.3 -49.5,8.2 -43.1,-21.1 -28.3,-62.9 -28.3,-62.9 0,0 78.6,12.5 77.8,54.7 z"
   id="path281" />
			<path
   class="st3"
   d="m 340,1022.9 c 0,2.7 -1.4,5.3 -3.8,7 -7.2,4.9 -16,15 -18.8,20 -2.8,5 -6.3,11 -1.6,14.9 2.7,2.2 73.6,28.9 77.4,50.2 0,0 16.4,-42.6 24.4,-78 -23.3,-12.1 -50.7,-17.5 -77.6,-14.1 z"
   id="path282" />
		</g>
		<g
   id="g287">
			<path
   class="st32"
   d="m 368.1,1120.6 c 1.6,-2.5 2.8,-5.2 3.8,-7.8 2.3,-6.4 3.3,-13.9 2.2,-20.5 -0.5,-3 -2.5,-8.1 -5.8,-8.7 4.9,-14 -3.7,-25.2 -14.9,-20.6 -3.4,-17.3 -17.1,-15.3 -22.9,-14.4 -2.2,-6.7 -11.3,-6.7 -15.9,-6.1 -12.9,1.7 -24.9,12.8 -32.8,21.8 -6.8,7.8 -11.5,15.9 -13,26 -0.5,3.6 -1.1,7 0,10.5 0.9,2.6 2.4,5 4,7.2 28.7,15.1 62.6,18.5 95.3,12.6 z"
   id="path283" />
			<path
   class="st33"
   d="m 272.8,1107.9 c 0.6,0.8 1.2,1.5 1.8,2.2 5.7,6.8 11,13.4 18.9,18.2 8.6,5.3 18.6,9.2 28.5,11.5 4.2,1 8.3,1.6 12.7,1.5 6.1,-0.2 10.3,-2 15.7,-4.4 7.2,-3.3 13.5,-9.4 17.7,-16.3 -32.7,5.9 -66.6,2.5 -95.3,-12.7 z"
   id="path284" />
			<path
   d="m 319.2,1098.6 c -2.4,3.3 3,7.1 5.9,4.3 7.1,-7 12.6,-15.4 18.5,-23.2 3.3,-4.3 7.3,-11.8 9.7,-16.6 -0.8,-3.9 -2.1,-6.8 -3.6,-8.9 -4.3,7.3 -7.9,14.7 -13.1,21.6 -5.8,7.6 -11.8,15.1 -17.4,22.8 z"
   id="path285" />
			<path
   d="m 296.3,1084.1 c -2.4,3.3 3,7.1 5.9,4.3 7.1,-7 12.6,-15.4 18.5,-23.2 3.3,-4.3 7.3,-11.8 9.7,-16.6 -0.9,-2.9 -3.1,-4.5 -5.7,-5.4 -3.5,6.1 -6.8,12.2 -11.1,18.1 -5.7,7.6 -11.7,15.1 -17.3,22.8 z"
   id="path286" />
			<path
   d="m 367.2,1066.9 c -3.2,7.1 -6.1,14.3 -10.3,21.2 -4.9,8.1 -10.2,16.1 -15,24.2 -2.1,3.5 3.7,6.8 6.3,3.7 6.4,-7.5 11.1,-16.4 16.2,-24.7 1.3,-2.1 2.7,-4.9 4,-7.7 2.2,-6.7 1.4,-12.7 -1.2,-16.7 z"
   id="path287" />
		</g>
		<g
   id="g289">
			<path
   class="st3"
   d="m 751.6,1006.8 c 0.7,0.9 1.3,2 1.5,3.4 0.5,3.4 -0.9,6.4 -2.3,9.3 -0.5,1.1 -0.7,2.2 -0.7,3.3 -26.9,-3.4 -50.4,0.1 -73.7,12.2 -0.5,-2.3 0.4,-2.9 0,-5.1 24.1,-15 47.4,-24.2 75.2,-23.1 z"
   id="path288" />
			<path
   class="st3"
   d="m 734.5,999.4 c -1,-1.3 4.4,-1.6 4.7,-1 2,4.8 9.2,4.5 12.4,8.4 -27.8,-1.1 -51.1,8.1 -75.3,23.2 -4.7,-4 -3.7,-26.3 0,-28.1 20.5,-12.8 46.2,-6.4 58.2,-2.5 z"
   id="path289" />
		</g>
		<g
   id="g291">
			<path
   class="st31"
   d="m 696.8,1115 c 0,0 6.4,29.3 49.5,8.2 43.1,-21.1 28.3,-62.9 28.3,-62.9 0,0 -78.6,12.5 -77.8,54.7 z"
   id="path290" />
			<path
   class="st3"
   d="m 750,1022.9 c 0,2.7 1.4,5.3 3.8,7 7.2,4.9 16,15 18.8,20 2.8,5 6.3,11 1.6,14.9 -2.7,2.2 -73.6,28.9 -77.4,50.2 -2.1,2.2 -16.6,-37.7 -19.8,-78 23.3,-12.1 46.1,-17.5 73,-14.1 z"
   id="path291" />
		</g>
		<g
   id="g296">
			<path
   class="st32"
   d="m 821.9,1097.9 c 0.2,-2.5 -0.2,-5.1 -0.6,-7.6 -1.5,-10 -6.2,-18.2 -13,-26 -7.9,-9 -19.9,-20.1 -32.8,-21.8 -4.5,-0.6 -13.7,-0.6 -15.9,6.1 -5.8,-0.8 -19.6,-2.8 -22.9,14.4 -11.2,-4.5 -19.8,6.7 -14.9,20.6 -3.3,0.6 -5.3,5.7 -5.8,8.7 -1.1,6.7 -0.1,14.1 2.2,20.5 1.1,2.9 2.5,5.9 4.3,8.7 33.7,6 68.1,-5.6 99.4,-23.6 z"
   id="path292" />
			<path
   class="st33"
   d="m 722.5,1121.5 c 4.2,6.5 10.2,12.3 17.1,15.5 5.4,2.4 9.6,4.2 15.7,4.4 4.4,0.2 8.5,-0.5 12.7,-1.5 9.9,-2.3 20,-6.2 28.5,-11.5 7.8,-4.8 13.2,-11.4 18.9,-18.2 2.4,-2.9 4.6,-5.9 5.8,-9.4 0.3,-1 0.5,-1.9 0.6,-2.9 -31.2,18 -65.6,29.6 -99.3,23.6 z"
   id="path293" />
			<path
   d="m 770.8,1098.6 c 2.4,3.3 -3,7.1 -5.9,4.3 -7.1,-7 -12.6,-15.4 -18.5,-23.2 -3.3,-4.3 -7.3,-11.8 -9.7,-16.6 0.8,-3.9 2.1,-6.8 3.6,-8.9 4.3,7.3 7.9,14.7 13.1,21.6 5.8,7.6 11.8,15.1 17.4,22.8 z"
   id="path294" />
			<path
   d="m 793.7,1084.1 c 2.4,3.3 -3,7.1 -5.9,4.3 -7.1,-7 -12.6,-15.4 -18.5,-23.2 -3.3,-4.3 -7.3,-11.8 -9.7,-16.6 0.9,-2.9 3.1,-4.5 5.7,-5.4 3.5,6.1 6.8,12.2 11.1,18.1 5.7,7.6 11.7,15.1 17.3,22.8 z"
   id="path295" />
			<path
   d="m 722.9,1066.9 c 3.2,7.1 6.1,14.3 10.3,21.2 4.9,8.1 10.2,16.1 15,24.2 2.1,3.5 -3.7,6.8 -6.3,3.7 -6.4,-7.5 -11.1,-16.4 -16.2,-24.7 -1.3,-2.1 -2.7,-4.9 -4,-7.7 -2.3,-6.7 -1.5,-12.7 1.2,-16.7 z"
   id="path296" />
		</g>
		<path
   class="st34"
   d="m 426.4,986.4 c 0,0 0.9,52.4 11.3,56.2 10.5,3.8 11.6,59.5 27.3,63.3 15.7,3.8 -22.2,5.8 -60,17.2 -28.1,8.5 -50.3,4.7 -61.3,0 -10.1,-4.2 88,-110.3 82.7,-136.7 z"
   id="path297" />
		<path
   class="st34"
   d="m 668,986.4 c 0,0 -0.9,52.4 -11.3,56.2 -10.5,3.8 -11.6,59.5 -27.3,63.3 -15.7,3.8 22.2,5.7 60,17.2 38.7,11.8 59.4,10.9 61.3,0 1.9,-10.8 -88,-110.3 -82.7,-136.7 z"
   id="path298" />
	</g></g>
</g>
<g
   id="Layer_2"
   transform="translate(-240.39896,-520.56774)">
</g>
</svg>
