<?xml version="1.0" encoding="UTF-8" standalone="no"?>
<!-- Generator: Adobe Illustrator 28.0.0, SVG Export Plug-In . SVG Version: 6.00 Build 0)  -->

<svg
   version="1.1"
   id="Layer_1"
   x="0px"
   y="0px"
   viewBox="0 0 337.89002 231.94787"
   xml:space="preserve"
   sodipodi:docname="Fox SVG (character) (smil.svg"
   inkscape:version="1.3.2 (091e20e, 2023-11-25, custom)"
   width="337.89001"
   height="231.94788"
   xmlns:inkscape="http://www.inkscape.org/namespaces/inkscape"
   xmlns:sodipodi="http://sodipodi.sourceforge.net/DTD/sodipodi-0.dtd"
   xmlns="http://www.w3.org/2000/svg"
   xmlns:svg="http://www.w3.org/2000/svg"><defs
   id="defs457" /><sodipodi:namedview
   id="namedview457"
   pagecolor="#505050"
   bordercolor="#ffffff"
   borderopacity="1"
   inkscape:showpageshadow="0"
   inkscape:pageopacity="0"
   inkscape:pagecheckerboard="1"
   inkscape:deskcolor="#505050"
   inkscape:zoom="1.1341432"
   inkscape:cx="154.30151"
   inkscape:cy="188.6887"
   inkscape:window-width="1920"
   inkscape:window-height="991"
   inkscape:window-x="-9"
   inkscape:window-y="-9"
   inkscape:window-maximized="1"
   inkscape:current-layer="Layer_1" />
<style
   type="text/css"
   id="style1">
	.st0{fill:#43392E;stroke:#000000;stroke-width:4;stroke-miterlimit:10;}
	.st1{fill:#F4EFDF;stroke:#000000;stroke-width:3;stroke-miterlimit:10;}
	.st2{opacity:0.28;enable-background:new    ;}
	.st3{fill:#003366;stroke:#000000;stroke-width:4;stroke-miterlimit:10;}
	.st4{fill:#011E35;}
	.st5{fill:none;stroke:#000000;stroke-width:3;stroke-miterlimit:10;}
	.st6{fill:#635F3B;}
	.st7{fill:#FFFFFF;stroke:#000000;stroke-width:3;stroke-miterlimit:10;}
	.st8{fill:#37342F;stroke:#000000;stroke-width:3;stroke-miterlimit:10;}
	.st9{fill:#59493D;}
	.st10{fill:#4F4F4F;stroke:#000000;stroke-width:3;stroke-miterlimit:9.9997;}
	.st11{fill:#4F4F4F;stroke:#000000;stroke-width:3;stroke-miterlimit:10;}
	.st12{fill:#4F4F4F;stroke:#000000;stroke-width:3.0003;stroke-miterlimit:10.0012;}
	.st13{fill:#A7A9A7;stroke:#000000;stroke-width:3;stroke-miterlimit:10;}
	.st14{fill:none;stroke:#000000;stroke-miterlimit:10;}
	.st15{fill:#003366;}
	.st16{fill:#43392E;}
	.st17{fill:none;stroke:#000000;stroke-width:2;stroke-miterlimit:10;}
	.st18{fill:#7C735F;stroke:#000000;stroke-width:4;stroke-miterlimit:10;}
	.st19{fill:#A09989;}
	.st20{fill:#011E35;stroke:#000000;stroke-width:5;stroke-miterlimit:10;}
	.st21{fill:#D8D8D8;}
	.st22{fill:none;stroke:#000000;stroke-width:2;stroke-linecap:round;stroke-linejoin:round;stroke-miterlimit:10;}
	.st23{fill:#5B5445;stroke:#000000;stroke-width:4;stroke-miterlimit:10;}
	.st24{opacity:0.43;enable-background:new    ;}
	.st25{fill:#DDDDDD;stroke:#000000;stroke-width:3;stroke-miterlimit:10;}
	.st26{fill:#756F65;}
	.st27{fill:#F4EFDF;}
	.st28{fill:#FFFFFF;stroke:#000000;stroke-width:4;stroke-miterlimit:10;}
	.st29{fill:#3A0F0F;}
	.st30{display:none;}
	.st31{display:inline;}
	.st32{fill:#3F0E0E;}
	.st33{fill:none;stroke:#000000;stroke-linecap:round;stroke-linejoin:round;stroke-miterlimit:10;}
	.st34{stroke:#000000;stroke-width:3;stroke-miterlimit:10;}
	.st35{fill:#262728;}
	.st36{opacity:0.75;fill:#FFFFFF;enable-background:new    ;}
	.st37{display:inline;fill:#37342F;}
	.st38{fill:#3F0E0E;stroke:#000000;stroke-width:3;stroke-miterlimit:10;}
	.st39{fill:#37342F;}
	.st40{stroke:#000000;stroke-miterlimit:10;}
	.st41{fill:#FFFFFF;}
	.st42{fill:#CA2639;stroke:#000000;stroke-width:2;stroke-miterlimit:10;}
	.st43{fill:#FF5C60;}
	.st44{fill:#AA9D7B;stroke:#000000;stroke-width:0.5;stroke-miterlimit:10;}
	.st45{opacity:0.32;enable-background:new    ;}
	.st46{fill:#09568A;stroke:#000000;stroke-width:3;stroke-miterlimit:10;}
	.st47{fill:#000002;}
	.st48{fill:#FAFFFF;}
	.st49{fill:#030000;}
	.st50{display:inline;fill:#030000;}
	.st51{fill:#564D36;stroke:#000000;stroke-width:4;stroke-miterlimit:10;}
	.st52{fill:none;stroke:#000000;stroke-width:4;stroke-miterlimit:10;}
	.st53{fill:#817B66;stroke:#000000;stroke-width:4;stroke-miterlimit:10;}
	.st54{fill:#514E3F;stroke:#000000;stroke-width:3;stroke-miterlimit:10;}
	.st55{fill:#262314;stroke:#000000;stroke-width:3;stroke-miterlimit:10;}
	.st56{fill:#173A50;stroke:#000000;stroke-width:4;stroke-miterlimit:10;}
	.st57{opacity:0.86;fill:#7CA3B0;enable-background:new    ;}
</style>
<g
   id="Layer_1_00000000195485673124976050000012168667985312893366_"
   transform="translate(-250.70111,-678.30667)">
</g>















<g
   id="wide_opened_mouth"
   class="st30"
   transform="translate(-250.70111,-678.30667)">
	<g
   id="Mouth_copy_2"
   class="st31">
		<path
   class="st27"
   d="m 510.4,830.1 c 0,0 11.5,11.4 30.7,10.1 19.1,-1.3 24.3,-7.9 30.2,-8.8 5.9,-0.9 38.2,3.4 33.1,13.7 -5.1,10.3 -25.6,30.2 -67.9,26 -42.2,-4.2 -52.1,-13.4 -55.2,-20.8 -3.1,-7.4 4.4,-17.8 29.1,-20.2 z"
   id="path302" />
		<g
   id="g304">
			<path
   class="st32"
   d="m 573.3,848.6 c -6.8,-6.5 -17,-9.5 -29.5,-8.6 0,0 -0.4,0 -0.4,-0.1 -29.4,2.2 -36.2,17.6 -37.8,23.9 0,0.1 0.1,0.2 0.2,0.3 4.2,-1.1 9.5,-1.6 11.9,-1.8 4.3,-0.3 8.1,-0.3 10.1,0.1 4,0.7 8.9,1.4 14.7,1 4.4,-0.3 8.7,-1.1 13.3,-2.6 3.1,-1 6.6,-1.7 10.5,-1.9 4.6,-0.3 9.1,-0.1 13.7,0.2 -0.7,-2.3 -2.6,-6.6 -6.7,-10.5 z"
   id="path303" />
			<path
   d="m 575.9,860 c 0.8,0 1.5,0.1 2.3,0.1 0.4,0 0.8,0 1.1,0 0.1,0 0.2,0 0.2,0 h 0.1 c 0.2,0 0.3,-0.1 0.5,-0.1 h 0.1 c 0,0 0,0 0.1,0 0.1,0 0.1,-0.1 0.2,-0.1 v 0 0 l 0.1,-0.1 0.1,-0.1 v 0 0 c 0,-0.2 0.1,-0.3 0.1,-0.5 v 0 0 -0.1 c 0,-0.1 0,-0.2 0,-0.3 0,-0.2 0,-0.3 0,-0.5 0,-0.1 0,-0.1 0,-0.2 v 0 0 c 0,-0.1 0,-0.2 0,-0.3 0,-0.2 -0.1,-0.4 -0.1,-0.5 -0.1,-0.4 -0.2,-0.7 -0.3,-1.1 v 0 0 -0.1 c 0,-0.1 -0.1,-0.2 -0.1,-0.2 -0.1,-0.1 -0.1,-0.2 -0.2,-0.3 -0.1,-0.1 -0.1,-0.3 -0.1,-0.4 -3.6,-7.1 -13.3,-18.1 -36.2,-16.6 -0.1,0 -0.3,0 -0.4,0 -27.3,2 -35.8,15.6 -38.4,23 0.1,1 0.4,2 0.9,2.8 0.4,0.6 1.1,0.8 1.7,0.9 h 0.1 c 3,-0.7 6.7,-1.1 10.2,-1.4 4.2,-0.3 7.9,-0.2 9.7,0 4.1,0.8 9,1.5 14.9,1.1 l -0.2,-3 c -5.7,0.4 -10.4,-0.3 -14.4,-0.9 -2.1,-0.4 -6,-0.4 -10.4,-0.1 -2.1,0.1 -6.1,0.5 -9.9,1.3 2.4,-6.8 10.4,-18.8 35.9,-20.7 h 0.4 c 12.1,-0.8 22,2 28.5,8.2 2.9,2.7 4.6,5.6 5.6,7.7 -3.9,-0.2 -7.8,-0.3 -11.6,0 -4.1,0.3 -7.6,0.9 -10.9,1.9 -4.4,1.4 -8.7,2.3 -13,2.6 l 0.2,3 c 4.1,-0.3 8.6,-1.1 13.7,-2.7 3.3,-1 6.7,-1.7 10.3,-1.9 2.9,-0.2 5.9,-0.2 9,-0.1 -0.2,-0.2 0,-0.3 0.2,-0.3 z"
   id="path304" />
		</g>
	</g>
</g>

<g
   class="st30"
   id="g321"
   transform="translate(-250.70111,-678.30667)">
	<path
   class="st37"
   d="m 503.2,753.5 c 0,0 -43,27.3 -71.7,60.6 -12.7,14.7 -30.7,22.4 -23.5,24.5 7.2,2.1 21.4,0 25,0 3.5,0 189.5,10.8 232.5,-1.8 0,0 -7,-36.5 -27.7,-52.2 -20.7,-15.7 -75.1,-44.7 -95.9,-48 -20.8,-3.3 -35.2,13.9 -38.7,16.9 z"
   id="path311" />
	<g
   id="White_mouth_00000078005877805800247390000007419957079329206405_"
   class="st31">
		<path
   class="st1"
   d="m 541.8,736.6 c 0,0 3.2,10.9 3.9,12.3 0.7,1.5 4,-7.2 5.4,-6.2 1.4,1 2.4,13.8 2.4,13.8 0,0 5.3,-10.5 10.4,-10 0,0 6.4,8.9 20.1,10 13.8,1 24.8,12.7 34.8,25.2 8.1,10 16.2,9.9 16.2,9.9 0,0 -2.6,2.4 -12.3,1.8 -9.6,-0.7 11.1,5.5 14.5,3.4 3.3,-2.2 -6.4,12.9 -2.2,13.2 4.2,0.3 5.5,0 5.5,0 0,0 -1.8,3.5 0,6.9 1.8,3.4 3.1,6.2 3.6,8 0.4,1.9 2.2,8 4.9,8.6 2.8,0.6 -8.6,4.7 -8.6,4.7 0,0 13,0.1 13.1,-0.2 1,-3.2 -6,4.5 -8.1,4.7 -2.1,0.2 16.6,-3.4 16.6,-3.4 0,0 -23.1,9.9 -49.2,22.6 -26.2,12.7 -36.7,31.1 -67.4,30.5 h -9.1 c -30.6,0.6 -39.7,-17.8 -65.9,-30.5 -26.2,-12.7 -49.2,-19.2 -49.2,-19.2 0,0 18.6,0.3 16.6,0 -2,-0.3 -8.1,-4.7 -8.1,-3.1 0,0.2 13.1,-1.4 13.1,-1.4 0,0 -11.3,-4.2 -8.6,-4.7 2.8,-0.6 4.5,-6.7 4.9,-8.6 0.4,-1.9 1.9,-4.6 3.6,-8 1.8,-3.4 0,-6.9 0,-6.9 0,0 1.4,0.3 5.5,0 4.2,-0.3 -5.5,-15.4 -2.2,-13.2 3.3,2.2 24.1,-4.1 14.5,-3.4 -9.6,0.7 -12.3,-1.8 -12.3,-1.8 0,0 8.3,0.1 16.2,-9.9 10,-12.6 21.1,-24.2 34.8,-25.2 13.8,-1 20.1,-10 20.1,-10 5,-0.6 10.4,10 10.4,10 0,0 1,-12.9 2.4,-13.8 1.4,-0.9 4.7,7.7 5.4,6.2 1.1,-1.5 4.3,-12.3 4.3,-12.3"
   id="path312" />
	</g>
	<g
   id="wide_opened_mouth_00000027589512892454482830000005802836717495677617_"
   class="st31">
		<g
   id="Mouth_copy_2_00000169522191760841552690000001075496521837221762_">
			<path
   class="st27"
   d="m 510.4,830.1 c 0,0 13.8,9.8 33,8.5 19.1,-1.3 22,-6.3 27.9,-7.2 5.9,-0.9 38.2,3.4 33.1,13.7 -5.1,10.3 -25.6,30.2 -67.9,26 -42.2,-4.2 -52.1,-13.4 -55.2,-20.8 -3.1,-7.4 4.4,-17.8 29.1,-20.2 z"
   id="path313" />
			<ellipse
   class="st38"
   cx="544"
   cy="861"
   rx="31.799999"
   ry="22.4"
   id="ellipse313" />
		</g>
	</g>
	<g
   id="Nose_00000016773263756968708530000002722518437659678134_"
   class="st31">
		<g
   id="g320">
			<g
   id="g316">
				<path
   class="st33"
   d="m 485.9,807.5 c 0,0 2.1,5.9 8.5,9.1"
   id="path314" />
				<path
   class="st33"
   d="m 490.2,817.3 c 0.8,0.6 3.5,4.4 10.6,6.7"
   id="path315" />
				<path
   class="st33"
   d="m 593.4,808 c 0,0 -4.8,5.9 -7.1,7.7 -2.4,1.9 1.8,0 1.8,0 0,0 -3.4,4.5 -10.6,8.7"
   id="path316" />
			</g>
			<g
   id="g319">
				<path
   class="st34"
   d="m 500.8,798.8 c 0,0 -1.3,-14.3 9.7,-18.9 11,-4.6 23.2,-4.9 31.1,-5.1 7.9,-0.3 23.5,0.8 32.4,6.1 8.9,5.3 7.7,16.1 7.4,17.9 -0.3,1.8 -5.5,31.9 -40.3,31.9 -34.7,0 -40.3,-31.9 -40.3,-31.9 z"
   id="path317" />
				<path
   class="st35"
   d="m 505.8,797.7 c 0,0 -5.9,-18.9 35,-19.1 40.9,-0.2 37.8,15.6 34.2,15.8 -3,0.2 -7.1,3.6 -12.5,3.3 -4.1,-0.2 -10.5,3.8 -8.2,14 2.3,10.2 6.1,7.1 6.1,7.9 0,0.8 -5.1,6.1 -17.4,5.6 -12.3,-0.5 -17.1,-2.6 -16.9,-4.6 0.3,-2 5.1,0 5.6,-8.2 0.5,-8.2 -3.3,-13.5 -9.2,-14.6 -5.9,-1 -6.4,0.3 -8.2,-1.8 -1.9,-2.1 -8,-0.3 -8.5,1.7 z"
   id="path318" />
				<path
   class="st36"
   d="m 516.6,791.4 c 0,0 6.9,-3.4 22,-3.7 15.1,-0.3 27.3,2.2 27.3,3.1 0,0.9 -7,2.7 -24.6,2.5 -17.6,-0.2 -23.7,0.4 -24.7,-1.9 z"
   id="path319" />
			</g>
		</g>
	</g>
</g>










<g
   id="Eyes_closed_00000094613395569386377330000000372584751252232630_"
   class="st30"
   transform="translate(-250.70111,-678.30667)">
	<g
   id="Eyes_copy_00000005232876265983138750000012599159417583179950_"
   class="st31">
		<g
   id="g416">
			<path
   class="st39"
   d="m 353.1,692.1 c 0,0 18.1,-3.3 50,0 32.7,3.4 50.4,-14.2 63.1,3.1 12.9,17.6 16.1,25.4 38.6,33.2 22.5,7.8 6.1,27.3 -10.1,27.3 -16.1,0 -39.1,24 -67.8,16.8 -28.6,-7.2 -119.7,-57.2 -73.8,-80.4 z"
   id="path415" />
			<path
   class="st39"
   d="m 723.8,692.1 c 0,0 -18.2,-3.5 -50,0 -30.7,3.4 -42.3,-14.5 -62.5,5.9 -15.4,15.5 -16.7,22.7 -39.2,30.5 -22.5,7.8 -6.1,27.3 10.1,27.3 16.2,0 39.1,24 67.8,16.8 28.5,-7.3 119.7,-57.3 73.8,-80.5 z"
   id="path416" />
		</g>
		<path
   class="st27"
   d="m 717,685.2 c 0,0 -24.8,0.5 -42,3.6 -17.2,3.1 -32.9,-3.6 -32.9,-3.6 0,0 -5.1,-4.1 22.5,-1.9 27.6,2.2 48,-21.1 84.8,-12.9 36.8,8.2 23.5,23.8 0,19.2 C 726.2,685 717,685.2 717,685.2 Z"
   id="path417" />
		<path
   class="st27"
   d="m 366.9,685.2 c 0,0 24.8,0.5 42,3.6 17.2,3.1 32.9,-3.6 32.9,-3.6 0,0 5.1,-4.1 -22.5,-1.9 -27.7,2.2 -48,-21.1 -84.8,-12.9 -36.8,8.2 -23.5,23.8 0,19.2 23.3,-4.6 32.4,-4.4 32.4,-4.4 z"
   id="path418" />
	</g>
	<g
   class="st31"
   id="g424">
		<g
   id="g420">
			<path
   class="st8"
   d="m 701.5,694.9 c 0,0 4.1,26.8 -13.8,39.6 -13.8,9.9 -28.3,16.1 -55.9,15.9 -27.6,-0.2 -39.1,-11.6 -36.4,-29.7 0.1,0 49.3,-19.8 106.1,-25.8 z"
   id="path419" />
			<path
   class="st45"
   d="m 697.5,723.2 c 0,0 -0.2,-13 -3.5,-15 -3.3,-1.9 -37.5,12.4 -45.2,17.1 -7.7,4.7 -24.8,15.9 -32.1,23.3 0,0 -15,-4.3 -17.9,-11.2 -2.9,-6.9 -6.7,-15.2 -3.2,-16.8 3.4,-1.6 30.8,-10.8 58.6,-16.9 27.9,-6.1 47.4,-8.9 47.4,-8.9 0,0 5.4,17.3 -4.1,28.4 z"
   id="path420" />
		</g>
		<g
   id="g422">
			<path
   class="st8"
   d="m 374.2,697.3 c 0,0 -2.2,21.9 14.8,36.1 11.9,9.9 32.5,19 61.7,18 23.5,-0.8 32,-14.5 30.2,-26.8 0.1,0 -46.8,-21.3 -106.7,-27.3 z"
   id="path421" />
			<path
   class="st45"
   d="m 383.8,726.8 c 0,0 -1.6,-12.6 3.1,-15.3 4.6,-2.7 48.9,10.8 64.9,20.7 16,9.9 19.4,13.6 19.4,13.6 0,0 11,-11.4 10.6,-18 -0.4,-6.6 -6.5,-8 -32,-15.2 -23.6,-6.6 -71.7,-14.9 -74.9,-15.7 -3.2,-0.7 2.9,23.8 8.9,29.9 z"
   id="path422" />
		</g>
		<path
   class="st49"
   d="m 327.7,691.2 c 0,0 30.4,-3.5 69.4,5.4 39.1,8.9 50,12.6 50,12.6 0,0 -24.3,-8.3 -29.9,-12.8 0,0 16.1,3.5 22.7,6.6 6.6,3.1 18.9,8.3 25.3,10.3 6.4,1.9 29.3,11.2 37.4,23.1 0,0 -3.4,-3.9 -11.2,-7.8 0,0 5.4,13.8 4.3,17.5 0,0 -3.9,-4.8 -4.4,-6.7 -0.5,-1.9 -4.4,-10.7 -6.5,-13.1 -2,-2.3 -4.1,-3.4 -3.9,-1.8 0.2,1.6 4.1,10.7 -2.8,16.3 0,0 2.3,-7.2 -7.9,-15.4 -7,-5.7 -14.8,-7.4 -25.5,-9.5 -10.6,-2.1 -39.8,-8.7 -51.1,-11.6 -11.2,-2.9 -43.4,-9.5 -52.3,-10.5 -8.7,-0.9 -13.6,-2.6 -13.6,-2.6 z"
   id="path423" />
		<path
   class="st49"
   d="m 592.2,724.2 c 2,-2.3 4.1,-3.4 3.9,-1.8 -0.2,1.6 -4.1,10.7 2.8,16.3 0,0 -2.3,-7.2 7.9,-15.4 7,-5.7 15.5,-5.7 26.1,-7.8 10.6,-2.1 39.2,-10.4 50.4,-13.3 11.2,-2.9 42.1,-10.8 51,-11.7 8.9,-1 17,-3.3 17,-3.3 0,0 -26.6,-0.9 -65.7,8 -39.1,8.9 -37.7,8.4 -37.7,8.4 0,0 13.7,-4.2 19.3,-8.6 0,0 -22,4.4 -28.6,7.5 -6.6,3.1 -13,3.2 -28,9.1 -6.1,2.4 -28.3,9.8 -36.3,24.2 0,0 2.2,-2.1 10,-6 z"
   id="path424" />
	</g>
</g>
<g
   id="Eyes_closed"
   class="st30"
   transform="translate(-250.70111,-678.30667)">
	<g
   id="Eyes_copy"
   class="st31">
		<g
   id="g426">
			<path
   class="st39"
   d="m 358.1,689.9 c 0,0 12.7,-6.3 44.6,-2.8 26.6,-1.1 41,-7.1 66,5.4 25.3,16.3 24.9,10.9 39.7,27 16.2,17.7 3.3,30.5 -12.9,30.5 -16.1,0 -39.1,25.8 -67.8,18.1 -28.6,-7.8 -115.5,-53.3 -69.6,-78.2 z"
   id="path425" />
			<path
   class="st39"
   d="m 715.9,686.9 c 0,0 -15.7,-4 -58.5,6.4 -23.9,-10.4 -43.7,-8.2 -72.3,15.7 -10.2,6 -13.4,3.4 -19.6,12.5 -13.5,19.9 1.2,28.6 17.4,28.6 16.2,0 39.1,25.8 67.8,18.1 28.6,-7.9 130.3,-66.6 65.2,-81.3 z"
   id="path426" />
		</g>
		<path
   class="st27"
   d="m 718.5,683.5 c 0,0 -4.7,-5.9 -59.1,5.7 -6.4,1.4 -15.5,-5 -27.6,-4.6 0,0 8.2,-10.3 35.7,-7.5 37.6,3.7 57.8,-24.4 82.7,-18.7 36.7,17.3 25.2,38.1 1.7,33.2 -13,2 -33.4,-8.1 -33.4,-8.1 z"
   id="path427" />
		<path
   class="st27"
   d="m 354,686 c 0,0 5.6,-4 57.4,-2.9 17.5,0.4 31.2,-8.8 31.2,-8.8 0,0 2,1.1 -25.6,3.5 -27.7,2.4 -47.3,-15.5 -82.4,-15.1 -36.8,8.8 -21.3,36.2 2.2,31.2 C 346.2,689 354,686 354,686 Z"
   id="path428" />
	</g>
	<g
   class="st31"
   id="g430">
		<path
   class="st8"
   d="m 704.2,691.4 c 0,0 1.9,34.6 -17,49.4 -14.6,11.5 -29.5,18.1 -57,15.5 -27.5,-2.6 -38,-18.2 -33.9,-41.1 0.1,0.1 50.6,-21 107.9,-23.8 z"
   id="path429" />
		<path
   class="st45"
   d="m 697.8,727.3 c 0,0 0.9,-16.6 -2.3,-19.5 -3.1,-2.7 -38.4,12.6 -46.5,18 -8.1,5.3 -26,18.2 -33.9,27 0,0 -14.6,-6.8 -16.9,-15.9 -2.3,-9.1 -5.4,-20 -1.8,-21.8 3.5,-1.8 31.6,-11.2 59.8,-16.6 28.3,-5.4 48,-7.3 48,-7.3 0,0 4.1,22.7 -6.4,36.1 z"
   id="path430" />
	</g>
	<g
   class="st31"
   id="g432">
		<path
   class="st8"
   d="m 373,695.1 c 0,0 -0.1,27.5 18.2,43.5 12.8,11.1 34.2,20.4 63.2,16.1 23.3,-3.4 30.5,-21.4 27.5,-36.5 0.1,0 -48.6,-21.7 -108.9,-23.1 z"
   id="path431" />
		<path
   class="st45"
   d="m 385.4,730.9 c 0,0 -2.8,-15.5 1.6,-19.4 4.3,-3.8 49.7,8.4 66.6,19.1 16.9,10.7 20.6,15 20.6,15 0,0 9.9,-15.3 8.9,-23.5 -1,-8.2 -7.2,-9.3 -33.3,-15.7 -24.1,-5.8 -72.8,-11.2 -76.1,-11.9 -3.3,-0.5 5.1,29.4 11.7,36.4 z"
   id="path432" />
	</g>
	<path
   class="st50"
   d="m 326.1,692.1 c 0,0 30,-6.4 69.6,-0.3 39.8,6.1 51,9.1 51,9.1 0,0 -25.5,-9.1 -31.4,-14.5 0,0 15.1,4.4 22.9,6.9 7,2.3 20.3,8.7 26.9,10.3 6.6,1.5 30.2,9.4 39.4,21.4 0,0 -3.8,-3.9 -11.9,-7.4 0,0 6.7,14.3 5.9,18.4 0,0 -4.3,-4.8 -5,-6.8 -0.7,-2 -5.4,-11.1 -7.7,-13.4 -2.2,-2.3 -4.4,-3.3 -4.1,-1.6 0.4,1.7 5.1,11.1 -1.2,17.7 0,0 1.6,-7.9 -9.3,-15.8 -7.5,-5.5 -15.4,-6.6 -26.3,-7.9 -10.8,-1.3 -40.5,-5.8 -52,-7.9 -11.4,-2.1 -44.1,-6.3 -53.1,-6.6 -8.6,-0.2 -13.7,-1.6 -13.7,-1.6 z"
   id="path433" />
	<path
   class="st50"
   d="m 595.4,715.8 c 2.2,-2.4 1.8,-3.7 1.5,-2 -0.3,1.7 -5,11.4 1.5,18.1 0,0 -1.7,-8.1 9.1,-16.3 7.4,-5.7 15.9,-5.1 26.7,-6.6 10.7,-1.5 39.9,-8.5 51.3,-10.9 11.4,-2.4 42.9,-8.7 51.8,-9.1 9,-0.4 17.2,-2.4 17.2,-2.4 0,0 -26.5,-3 -66.2,3.9 -39.7,6.9 -38.3,6.4 -38.3,6.4 0,0 14,-3.6 19.9,-8 0,0 -22.3,3.2 -29.1,6.1 -6.8,2.9 -13.2,2.6 -28.7,7.9 -6.3,2.2 -26.3,5.6 -33.8,24.2 0,0 4.1,-4.2 10.3,-8.6 z"
   id="path434" />
	<g
   id="Opened_eye_cover_happy_00000152978511514586613250000006489681951972032926_"
   class="st31">
		<g
   id="g435">
			<path
   class="st49"
   d="m 463.4,709.2 c 2.4,-0.4 4.8,-0.7 7.2,-0.7 2.1,0 4.2,0.2 6.2,0.5 8.4,0.6 14.5,4.9 20.7,9.7 5.6,3.2 8,7.3 8,7.3 -10,-16.5 -32.5,-24.8 -39,-26.3 -6.6,-1.5 -20.4,-1.8 -27.4,-4.8 -7,-3 -22.3,-7.2 -22.3,-7.2 6.4,4.9 31.4,9.7 31.4,9.7 0,0 -13.7,-1.6 -52.9,-6.8 -39.2,-5.1 -70.3,1.4 -70.3,1.4 0,0 10.2,3.1 18.8,2.8 8.7,-0.1 40.8,3.2 52.3,5.1 11.4,1.8 40.8,5.8 51.4,6.7 6,0.5 11.1,1 15.9,2.6 z"
   id="path435" />
		</g>
		<g
   id="g436">
			<path
   class="st49"
   d="m 657,699.7 c 17.3,-2.5 34.7,-5.3 52.2,-5.2 13.7,-2.6 30.4,-5.7 36.5,-5.8 9,-0.2 17.4,-2.3 17.4,-2.3 0,0 -26.2,-4.2 -66.5,2.6 -40.2,6.7 -35.8,5.1 -35.8,5.1 0,0 8.1,-4.6 18.1,-7.5 0,0 -24.1,2.6 -31.1,5.8 -7.1,3.1 -12.4,3 -28.2,8.7 -0.3,0.1 -0.6,0.2 -0.9,0.3 12.9,0.6 25.6,-0.1 38.3,-1.7 z"
   id="path436" />
		</g>
	</g>
</g>

<g
   id="g1"
   transform="matrix(0.47941466,0,0,0.47941466,-91.033946,-193.16)"><g
     id="g12"><g
       id="Face">
	<path
   class="st8"
   d="m 541.1,874.3 c 0,0 22.9,2.4 40.5,-4.6 17.6,-7.1 52.9,-22.5 67.7,-26.8 14.9,-4.3 29.3,-5.3 40.8,-6.1 11.5,-0.8 21.2,-2.6 25.9,-4.3 4.7,-1.7 9.3,-1.9 9.3,-1.9 0,0 -7.9,-1.5 -11.7,-3.8 -3.8,-2.3 41.9,-1.2 73.8,-26 31.9,-24.8 -5.1,0 -5.1,0 0,0 36.3,-27.1 41.1,-33.2 4.9,-6.1 18.4,-23.1 30.1,-37.1 11.7,-14 14.3,-21 14.3,-21 0,0 -10.6,8.1 -19.4,16.9 -8.8,8.8 15.4,-14.1 17.8,-23.8 2.3,-9.8 6.8,-12.3 6.8,-12.3 l 7.1,-3.1 c 0,0 -32.7,-0.8 -47.3,0 -14.6,0.8 5.1,-4.6 5.6,-6.9 0.5,-2.3 -5.9,0.8 -17.6,-5.1 -11.7,-5.9 -6.5,-11.7 -16.3,-18.9 -9.9,-7.1 7,2.2 9.5,0.2 0,0 -3.2,-0.6 -3.2,-4.9 0,-4.3 -3.7,-4.5 -14.7,-7 -11.1,-2.6 -0.3,-1.9 0,-6.8 0,0 -9.9,4.5 -10.2,1.7 -0.3,-2.8 0.3,7.9 -3.1,7.7 0,0 13.4,-228.8 -230.9,-232.9 -244.3,-4.1 -251.4,203.2 -250.4,223.7 1,20.4 -10.6,11.4 -13.6,6.6 -3.1,-4.9 -15,0 -15,0 0,0 13.6,-2.8 12.9,4.3 -0.7,7.1 -7.1,13.3 -15,14.6 -7.8,1.4 5.4,1.4 5.4,1.4 0,0 -4.4,14.6 -26.2,16.6 -21.8,2 -18.4,0 -18.4,0 l 7.1,4.1 c 0,0 -24.5,2.7 -31.7,1.4 -7.1,-1.4 8.2,15.7 8.2,15.7 l 9.2,9.7 -14.3,-5 c 0,0 13,21.7 23.2,29.1 10.2,7.4 -12.1,-5.9 -12.1,-5.9 0,0 15.7,18.7 25.9,24.1 10.2,5.4 18.9,8.9 18.9,8.9 0,0 -25,-5.8 -33.2,-12.3 0,0 28,21.4 38.1,25.2 10.1,3.8 -9.2,0.9 -9.2,0.9 0,0 10.9,20.6 46.3,31.5 35.4,10.9 29.2,7.5 12.4,6.8 -16.8,-0.7 28.8,7.1 31.5,11.2 2.7,4.1 6.8,1.3 6.8,1.3 0,0 -10.3,3.8 -20,2 0,0 13.8,2.8 16.3,4.9 2.5,2.1 16.9,3.8 26.6,1.8 9.7,-2 -8.4,5.1 -7.5,4.9 0.9,-0.3 36.9,-4.2 61.9,1.9 25,6 45.7,19.1 58,23.3 12.3,4.2 25.2,8.8 47.1,7.3 z"
   id="path285" />
</g><g
       id="White_mouth">
	<path
   class="st1"
   d="m 541.8,742.1 c 0,0 3.3,9.9 4,11.2 0.7,1.4 4.1,-6.5 5.5,-5.6 1.4,0.9 2.4,12.5 2.4,12.5 0,0 5.4,-9.5 10.6,-9.1 0,0 6.5,8.1 20.4,9.1 14,0.9 25.2,11.5 35.4,22.9 8.2,9.1 16.5,9 16.5,9 0,0 -2.6,2.2 -12.5,1.6 -9.8,-0.6 11.3,5 14.7,3.1 3.4,-2 -6.5,11.7 -2.2,12 4.3,0.3 5.6,0 5.6,0 0,0 -1.8,3.2 0,6.3 1.8,3.1 3.2,5.6 3.7,7.3 0.4,1.7 2.2,7.3 5,7.8 2.8,0.5 -8.7,4.3 -8.7,4.3 0,0 13,1.3 13.3,1.3 0.3,0 -6.1,2.6 -8.2,2.8 -2.1,0.2 16.9,0 16.9,0 0,0 -23.5,5.9 -50,17.4 -26.6,11.5 -37,18.9 -68.2,18.4 h -8.3 c -31.1,0.5 -41.6,-6.9 -68.2,-18.4 -26.6,-11.5 -50,-17.4 -50,-17.4 0,0 18.9,0.3 16.9,0 -2,-0.3 -8.4,-2.8 -8.2,-2.8 0.2,0 13.3,-1.3 13.3,-1.3 0,0 -11.5,-3.8 -8.7,-4.3 2.8,-0.5 4.6,-6.1 5,-7.8 0.4,-1.7 1.9,-4.2 3.7,-7.3 1.8,-3.1 0,-6.3 0,-6.3 0,0 1.4,0.3 5.6,0 4.3,-0.3 -5.6,-14 -2.2,-12 3.4,2 24.5,-3.7 14.7,-3.1 -9.8,0.6 -12.5,-1.6 -12.5,-1.6 0,0 8.4,0.1 16.5,-9 10.2,-11.4 21.4,-22 35.4,-22.9 14,-0.9 20.4,-9.1 20.4,-9.1 5.1,-0.5 10.6,9.1 10.6,9.1 0,0 1,-11.7 2.4,-12.5 1.4,-0.8 4.8,7 5.5,5.6 0.6,-1.4 3.9,-11.2 3.9,-11.2"
   id="path294" />
</g><g
       id="Closed_mouth_00000089568677096063062580000014589333944883081361_">
	<g
   id="Mouth_copy_00000077285975337303201040000009307161942701292475_">
		<path
   class="st27"
   d="m 510.4,830.1 c 0,0 11.5,11.4 30.7,10.1 19.1,-1.3 24.3,-7.9 30.2,-8.8 5.9,-0.9 38.2,3.4 33.1,13.7 -5.1,10.3 -25.6,30.2 -67.9,26 -42.2,-4.2 -52.1,-13.4 -55.2,-20.8 -3.1,-7.4 4.4,-17.8 29.1,-20.2 z"
   id="path295" />
		<path
   d="m 515,859 c 0,0 3.4,-8.9 30.6,-12.1 27.2,-3.2 31.1,8.3 30.7,8.5 -0.4,0.4 -17,-5.1 -23.6,-3.8 -6.6,1.3 -15.1,2.4 -18.4,2.2 -3.2,-0.1 -14.1,5.5 -19.3,5.2 z"
   id="path296" />
	</g>
</g><g
       id="Smiling_with_teeth">
	<g
   id="Mouth_copy_00000031888338416989932910000006116364171551001996_">
		<path
   class="st27"
   d="m 507.2,826.4 c 0,0 11.5,11.4 30.7,10.1 19.1,-1.3 24.3,-7.9 30.2,-8.8 5.9,-0.9 38.2,3.4 33.1,13.7 -5.1,10.3 -25.6,30.2 -67.9,26 -42.2,-4.2 -52.1,-13.4 -55.2,-20.8 -3.1,-7.4 4.4,-17.8 29.1,-20.2 z"
   id="path297" />
	</g>
	<path
   class="st28"
   d="m 491.8,836.4 c 6.6,2 44.1,17.2 97.8,-2 0.4,-0.1 0.7,0.3 0.5,0.7 -2.7,5.2 -17.2,29 -50.6,29.2 -33.3,0.2 -45.8,-22.3 -48.2,-27.3 -0.2,-0.3 0.1,-0.7 0.5,-0.6 z"
   id="path298" />
</g><g
       id="curius_Mouth">
	<path
   class="st27"
   d="m 510.4,830.1 c 0,0 11.5,11.4 30.7,10.1 19.1,-1.3 24.3,-7.9 30.2,-8.8 5.9,-0.9 38.2,3.4 33.1,13.7 -5.1,10.3 -25.6,30.2 -67.9,26 -42.2,-4.2 -52.1,-13.4 -55.2,-20.8 -3.1,-7.4 4.4,-17.8 29.1,-20.2 z"
   id="path299" />
	<g
   id="g301">
		<path
   class="st29"
   d="m 547.8,845.7 c 21,-1.1 29.1,6.4 31.2,10.1 -4,-0.2 -7.9,-0.3 -11.8,-0.1 -3.4,0.2 -6.3,0.5 -9,1.2 -3.9,0.9 -7.7,1.4 -11.6,1.6 -5.2,0.3 -9.6,-0.1 -13.2,-0.5 -1.8,-0.2 -5.5,-0.2 -9.3,0 v 0 c -1.9,0.1 -6,0.4 -9.6,1 2.3,-3.9 9.6,-12 33.3,-13.3 z"
   id="path300" />
		<path
   d="m 546.5,857.2 v 0 c -5.1,0.3 -9.4,-0.1 -12.9,-0.5 -1.9,-0.2 -5.6,-0.2 -9.5,0 -1.6,0.1 -3.9,0.2 -6.2,0.5 3.6,-3.9 11.7,-8.9 30,-9.9 16.9,-0.9 24.6,3.7 27.9,7.1 -2.9,0 -5.7,-0.1 -8.6,0.1 -3.5,0.2 -6.5,0.5 -9.2,1.2 -4,0.8 -7.7,1.3 -11.5,1.5 m 0.2,3 c 3.6,-0.2 7.5,-0.7 11.8,-1.6 2.8,-0.7 5.8,-1 8.8,-1.2 4.4,-0.2 9.1,-0.1 13.8,0.2 v 0 c 0.5,0 -3.6,-14.8 -33.3,-13.2 -33.5,1.8 -35.5,16.9 -35.5,16.9 2.8,-0.9 7.7,-1.3 12,-1.5 3.9,-0.2 7.4,-0.2 9,0 3.7,0.3 8.2,0.6 13.4,0.4 z"
   id="path301" />
	</g>
</g><g
       id="Nose">
	<g
   id="g311">
		<g
   id="g307">
			<path
   class="st33"
   d="m 485.8,813.6 c 0,0 2.1,5.9 8.5,9.1"
   id="path305" />
			<path
   class="st33"
   d="m 490.1,823.4 c 0.8,0.6 3.5,4.4 10.6,6.7"
   id="path306" />
			<path
   class="st33"
   d="m 593.3,814.1 c 0,0 -4.8,5.9 -7.1,7.7 -2.4,1.9 1.8,0 1.8,0 0,0 -3.4,4.5 -10.6,8.7"
   id="path307" />
		</g>
		<g
   id="g310">
			<path
   class="st34"
   d="m 500.7,804.9 c 0,0 -1.3,-14.3 9.7,-18.9 11,-4.6 23.2,-4.9 31.1,-5.1 7.9,-0.3 23.5,0.8 32.4,6.1 8.9,5.3 7.7,16.1 7.4,17.9 -0.3,1.8 -5.5,31.9 -40.3,31.9 -34.7,0 -40.3,-31.9 -40.3,-31.9 z"
   id="path308" />
			<path
   class="st35"
   d="m 505.7,803.8 c 0,0 -5.9,-18.9 35,-19.1 40.9,-0.2 37.8,15.6 34.2,15.8 -3,0.2 -7.1,3.6 -12.5,3.3 -4.1,-0.2 -10.5,3.8 -8.2,14 2.3,10.2 6.1,7.1 6.1,7.9 0,0.8 -5.1,6.1 -17.4,5.6 -12.3,-0.5 -17.1,-2.6 -16.9,-4.6 0.3,-2 5.1,0 5.6,-8.2 0.5,-8.2 -3.3,-13.5 -9.2,-14.6 -5.9,-1 -6.4,0.3 -8.2,-1.8 -1.8,-2.1 -8,-0.3 -8.5,1.7 z"
   id="path309" />
			<path
   class="st36"
   d="m 516.5,797.5 c 0,0 6.9,-3.4 22,-3.7 15.1,-0.3 27.3,2.2 27.3,3.1 0,0.9 -7,2.7 -24.6,2.5 -17.6,-0.2 -23.7,0.4 -24.7,-1.9 z"
   id="path310" />
		</g>
	</g>
</g><g
       id="happy_smiling">
	<path
   class="st39"
   d="m 503.2,753.5 c 0,0 -43,27.3 -71.7,60.6 -12.7,14.7 -30.7,22.4 -23.5,24.5 7.2,2.1 21.4,0 25,0 3.5,0 189.5,10.8 232.5,-1.8 0,0 -7,-36.5 -27.7,-52.2 -20.7,-15.7 -75.1,-44.7 -95.9,-48 -20.8,-3.3 -35.2,13.9 -38.7,16.9 z"
   id="path321" />
	<g
   id="White_mouth_00000108305958437854901020000013767503256622189185_">
		<path
   class="st1"
   d="m 541.8,736.6 c 0,0 3.2,10.9 3.9,12.3 0.7,1.5 4,-7.2 5.4,-6.2 1.4,1 2.4,13.8 2.4,13.8 0,0 5.3,-10.5 10.4,-10 0,0 6.4,8.9 20.1,10 13.8,1 24.8,12.7 34.8,25.2 8.1,10 16.2,9.9 16.2,9.9 0,0 -2.6,2.4 -12.3,1.8 -9.6,-0.7 11.1,5.5 14.5,3.4 3.3,-2.2 -6.4,12.9 -2.2,13.2 4.2,0.3 5.5,0 5.5,0 0,0 -1.8,3.5 0,6.9 1.8,3.4 3.1,6.2 3.6,8 0.4,1.9 2.2,8 4.9,8.6 2.8,0.6 -8.6,4.7 -8.6,4.7 0,0 13,0.1 13.1,-0.2 1,-3.2 -6,4.5 -8.1,4.7 -2.1,0.2 16.6,-3.4 16.6,-3.4 0,0 -23.1,9.9 -49.2,22.6 -26.2,12.7 -34.1,23.9 -64.9,23.3 l -9.8,-0.5 c -30.6,0.6 -41.6,-10.1 -67.8,-22.8 -26.2,-12.7 -49.2,-19.2 -49.2,-19.2 0,0 18.6,0.3 16.6,0 -2,-0.3 -8.1,-4.7 -8.1,-3.1 0,0.2 13.1,-1.4 13.1,-1.4 0,0 -11.3,-4.2 -8.6,-4.7 2.8,-0.6 4.5,-6.7 4.9,-8.6 0.4,-1.9 1.9,-4.6 3.6,-8 1.8,-3.4 0,-6.9 0,-6.9 0,0 1.4,0.3 5.5,0 4.2,-0.3 -5.5,-15.4 -2.2,-13.2 3.3,2.2 24.1,-4.1 14.5,-3.4 -9.6,0.7 -12.3,-1.8 -12.3,-1.8 0,0 8.3,0.1 16.2,-9.9 10,-12.6 21.1,-24.2 34.8,-25.2 13.8,-1 20.1,-10 20.1,-10 5,-0.6 10.4,10 10.4,10 0,0 1,-12.9 2.4,-13.8 1.4,-0.9 4.7,7.7 5.4,6.2 1.2,-1.5 4.4,-12.3 4.4,-12.3"
   id="path322" />
	</g>
	<g
   id="wide_opened_mouth_00000011019843952802046520000000793552122051923377_">
		<g
   id="Mouth_copy_2_00000081635500665055013130000015813021331753139875_">
			<path
   class="st27"
   d="m 510.4,830.1 c 0,0 13.8,13 33,11.3 19.1,-1.7 22,-8.4 27.9,-9.6 5.9,-1.2 38.2,4.5 33.1,18.2 -5.1,13.7 -26.6,34.9 -69,29.3 -42.2,-5.6 -51.1,-12.5 -54.2,-22.3 -3,-9.9 4.5,-23.7 29.2,-26.9 z"
   id="path323" />
		</g>
	</g>
	<g
   id="Nose_00000094620348723674985260000016439672473829719183_">
		<g
   id="g330">
			<g
   id="g326">
				<path
   class="st33"
   d="m 485.9,807.5 c 0,0 2.1,5.9 8.5,9.1"
   id="path324" />
				<path
   class="st33"
   d="m 490.2,817.3 c 0.8,0.6 3.5,4.4 10.6,6.7"
   id="path325" />
				<path
   class="st33"
   d="m 593.4,808 c 0,0 -4.8,5.9 -7.1,7.7 -2.4,1.9 1.8,0 1.8,0 0,0 -3.4,4.5 -10.6,8.7"
   id="path326" />
			</g>
			<g
   id="g329">
				<path
   class="st34"
   d="m 500.8,798.8 c 0,0 -1.3,-14.3 9.7,-18.9 11,-4.6 23.2,-4.9 31.1,-5.1 7.9,-0.3 23.5,0.8 32.4,6.1 8.9,5.3 7.7,16.1 7.4,17.9 -0.3,1.8 -5.5,31.9 -40.3,31.9 -34.7,0 -40.3,-31.9 -40.3,-31.9 z"
   id="path327" />
				<path
   class="st35"
   d="m 505.8,797.7 c 0,0 -5.9,-18.9 35,-19.1 40.9,-0.2 37.8,15.6 34.2,15.8 -3,0.2 -7.1,3.6 -12.5,3.3 -4.1,-0.2 -10.5,3.8 -8.2,14 2.3,10.2 6.1,7.1 6.1,7.9 0,0.8 -5.1,6.1 -17.4,5.6 -12.3,-0.5 -17.1,-2.6 -16.9,-4.6 0.3,-2 5.1,0 5.6,-8.2 0.5,-8.2 -3.3,-13.5 -9.2,-14.6 -5.9,-1 -6.4,0.3 -8.2,-1.8 -1.9,-2.1 -8,-0.3 -8.5,1.7 z"
   id="path328" />
				<path
   class="st36"
   d="m 516.6,791.4 c 0,0 6.9,-3.4 22,-3.7 15.1,-0.3 27.3,2.2 27.3,3.1 0,0.9 -7,2.7 -24.6,2.5 -17.6,-0.2 -23.7,0.4 -24.7,-1.9 z"
   id="path329" />
			</g>
		</g>
	</g>
	<g
   id="g335">
		<g
   id="g333">
			<path
   class="st40"
   d="m 588.7,826.9 c -2.5,-0.5 -7.1,0.3 -8.1,1.6 1.8,0.1 3.6,0.2 5.4,0.4 0.1,0.1 0.1,0.2 0.2,0.3 -1.4,1.4 -2.6,3.1 -4.3,4.3 -5.5,4.2 -12,5.9 -19.3,7.8 -3.4,0.9 -7.9,1.1 -11.6,1.4 0,0 -0.1,0 -0.1,-0.1 -0.5,0.1 -1,0.2 -1.5,0.2 -0.7,0.1 -1.3,0.1 -2,0.2 -0.1,0.1 -0.1,0.1 -0.2,0.2 -3.1,0.2 -5.5,0.6 -7.9,0.7 -8.1,0.4 -16.4,0.6 -24.1,-2.2 -2.4,-0.9 -4.4,-2.3 -5.8,-4.1 1.2,-1.2 3,-1.4 4.8,-1.9 -2.1,-1.1 -7,-0.5 -9.5,1 -2.8,1.6 -4.1,4.8 -3.1,7.4 0.7,-1 1.2,-2 2,-2.8 0.8,-0.8 1.9,-1.5 3,-2.3 0.3,0.4 0.5,0.5 0.7,0.7 4.6,5.8 9.6,11.3 15.6,16.4 2.7,2.3 5.3,4.7 8.8,6.4 6.8,3.2 14.2,3.8 22.2,2.4 6.8,-1.2 12.7,-3.8 17.1,-8.2 4.8,-4.8 8.3,-10.1 11.3,-15.5 1.9,-3.4 3.7,-6.8 5.5,-10.2 0.5,-1 0.7,-1.1 1.8,-0.6 1.1,0.5 2.1,1.2 3.1,1.9 0.5,0.3 0.8,0.8 1.4,1.3 0.1,-3.7 -2,-6 -5.4,-6.7 z m -22.6,30.5 c -7.4,4.5 -15.6,6.5 -24.6,5.1 -3.3,-0.5 -6.5,-1.3 -9.2,-2.8 -0.7,-0.4 -1.1,-1 -1.6,-1.5 0.9,-0.1 1.8,-0.3 2.6,-0.2 1.2,0.2 2.4,0.5 3.5,0.8 7.3,2.4 14.7,1.6 22.1,-0.8 2.1,-0.7 4,-1.9 6.1,-2.9 1.3,-0.6 2.5,-1.2 4.3,-1 -0.8,1.4 -1.9,2.5 -3.2,3.3 z m -21.9,-1.1 c -0.1,-0.5 0.3,-0.6 0.9,-0.9 2,-0.8 3.6,0.2 5.3,0.3 0.5,0 0.9,0.6 1.2,1 0.7,0.2 1.3,-1.4 2.3,-0.2 -3.1,2.4 -6.8,1.5 -10.3,1.8 0,-0.1 0,-0.2 0,-0.3 0.4,-0.1 0.8,-0.1 1.3,-0.2 -0.3,-0.5 -0.6,-1 -0.7,-1.5 z m 24.4,-11.9 c -3.1,1.8 -6.6,2.7 -10.2,3.5 -6.9,1.6 -13.9,2 -21,2 -3.1,0 -6,-0.6 -8.8,-1.3 -1.6,-0.4 -2.9,-1.4 -3.3,-2.2 2.5,0 5.2,0.8 7.7,0.7 5.2,-0.3 10,1.6 14.5,-0.5 0.8,-0.3 1.8,-0.1 2.6,0.1 7,1.4 13.4,-3.3 20.5,-5.1 0.3,-0.1 0.5,-0.1 1.1,-0.2 -0.8,1.3 -1.8,2.3 -3.1,3 z"
   id="path330" />
			<path
   class="st41"
   d="m 551,846.1 c -6.8,0.7 -13.5,0.8 -20,0.3 -1.9,0 -3.8,0 -5.6,0 0.4,0.9 1.7,1.8 3.3,2.2 2.8,0.7 5.7,1.3 8.8,1.3 7,0 14,-0.4 21,-2 3.6,-0.8 7.1,-1.7 10.2,-3.5 1.2,-0.7 2.2,-1.6 3.1,-2.8 -6.6,2.4 -13.5,3.9 -20.8,4.5 z"
   id="path331" />
			<path
   class="st41"
   d="m 569.2,854.1 c -0.6,1.4 -1.8,2.5 -3.1,3.3 -7.4,4.5 -15.6,6.5 -24.6,5.1 -3.3,-0.5 -6.5,-1.3 -9.2,-2.8 -0.7,-0.4 -1.1,-1 -1.6,-1.5 0.9,-0.1 1.8,-0.3 2.6,-0.2 1.2,0.2 2.4,0.5 3.5,0.8 7.3,2.4 14.7,1.6 22.1,-0.8 2.1,-0.7 4,-1.9 6.1,-2.9 1.2,-0.6 2.4,-1.2 4.2,-1 z"
   id="path332" />
			<path
   class="st41"
   d="m 543.6,858.1 c 0.4,-0.1 0.8,-0.1 1.3,-0.2 -0.2,-0.5 -0.6,-1 -0.7,-1.5 -0.1,-0.5 0.3,-0.6 0.9,-0.9 2,-0.8 3.6,0.2 5.3,0.3 0.5,0 0.9,0.6 1.2,1 0.7,0.2 1.3,-1.4 2.3,-0.2 -3.1,2.4 -6.8,1.5 -10.3,1.8 0,-0.1 0,-0.2 0,-0.3 z"
   id="path333" />
		</g>
		<path
   class="st42"
   d="m 548.9,853.4 c 0,0 -4.1,-2.5 -9.1,-1.9 -5,0.6 -7.8,3.2 -8.5,4.4 0,0 3.6,0.3 6.6,1.8 3.2,1.6 13.1,0.9 16.6,-0.1 3.5,-1 6.4,-2.2 8.4,-3.3 2,-1.1 2.1,-1.5 4.4,-1.5 0,0 -0.9,-3.6 -8.3,-3.4 -7.4,0.2 -10.1,4 -10.1,4 z"
   id="path334" />
		<path
   class="st43"
   d="m 534.1,856.5 c 0,0 2.4,-2.7 5.7,-3.1 3.2,-0.4 6.2,0.4 8.4,0.3 2.2,-0.1 6,-1.5 8.4,-2.2 2.4,-0.7 3.6,-0.5 5.3,0.1 1.7,0.6 3,1.4 3.3,1.7 0,0 -3,1.7 -5.2,2.6 -2.2,0.8 -8.7,2.6 -10.5,2.7 -1.8,0.1 -5.7,0.4 -7.7,0.1 -2,-0.3 -2.4,-0.3 -4,-1 -1.7,-0.7 -3.7,-1.2 -3.7,-1.2 z"
   id="path335" />
	</g>
</g><g
       id="Nose_hair_1">
	<g
   id="g346">
		<path
   class="st44"
   d="m 628.1,808.4 c 0.6,-1 1.6,-1.6 2.5,-2.3 2.8,-2 5.8,-3.7 8.8,-5.3 8,-4.1 16.6,-7.7 24.7,-11.4 20.5,-9.7 39.5,-22.3 58.7,-34.3 -18.1,13.7 -37.9,25.2 -58.3,35.2 -8.1,3.7 -16.8,7.4 -24.7,11.4 -3.1,1.4 -6.1,2.9 -9.1,4.7 -0.9,0.5 -1.9,1.1 -2.6,2 z"
   id="path342" />
		<path
   class="st44"
   d="m 658.5,797.8 c 27.1,-4.1 54.3,-7.8 81.4,-12.1 20.4,-3 40.9,-5.1 61,-9.1 6.7,-1.2 13.4,-2.7 19.9,-5 -12.8,5.1 -26.5,7.5 -40,9.5 -13.6,2 -27.2,3.7 -40.8,5.6 -27.1,4.1 -54.2,8.7 -81.5,11.1 z"
   id="path343" />
		<path
   class="st44"
   d="m 697.5,808.4 c 40.5,-3.3 82.8,-4.5 123.3,-6 22.6,-1.2 45,-5.4 67.7,-5.4 2.1,0.1 4.1,0.1 6.1,0.8 -2,-0.6 -4.1,-0.5 -6.1,-0.5 -22.6,1.2 -45,4.8 -67.6,6.2 -8.2,0.6 -16.5,0.5 -24.7,0.8 -31.9,0.9 -66.7,3.2 -98.7,4.1 z"
   id="path344" />
		<path
   class="st44"
   d="m 640.5,819.2 c 1.8,-0.2 3.5,-0.4 5.2,-0.6 l 5.2,-0.1 c 3.5,-0.1 7,-0.3 10.5,-0.5 4.3,-0.3 8.7,-0.7 13,-1.3 1.5,-0.3 3.7,-0.6 5.2,-0.8 0.9,-0.1 1.7,-0.4 2.6,-0.5 -0.8,0.3 -1.6,0.7 -2.4,1 -0.8,0.3 -1.7,0.6 -2.5,0.8 l -2.6,0.5 c -4.3,0.6 -8.8,1 -13.1,1.3 -3.5,0.2 -7,0.4 -10.5,0.5 l -5.3,0.1 c -1.8,-0.1 -3.6,-0.2 -5.3,-0.4 z"
   id="path345" />
		<path
   class="st44"
   d="m 694.5,828.4 c -1.9,0 -3.9,-0.2 -5.8,-0.3 l -5.7,-0.8 c -3.8,-0.6 -7.6,-1.2 -11.4,-1.9 -7.5,-1.6 -15.6,-2.3 -22.2,-6.2 11,3.4 22.4,5.3 33.8,7.1 3.5,0.5 7.8,1.2 11.3,2.1 z"
   id="path346" />
	</g>
</g><g
       id="Eye_brow">
	<g
   id="g351">
		<g
   id="g348">
			<path
   class="st1"
   d="m 585.2,713.9 c 0,0 -17.8,15.7 -19.3,8.9 -1.5,-6.9 -0.5,9.3 -4.6,1.7 -4.1,-7.6 -14.3,-26 -6.6,-52.2 11.6,-39.5 8.1,-15.2 8.1,-15.2 l -0.2,8.7 c 0,0 3.8,-12.5 19.5,-20.8 1,-0.6 -6.9,18.8 -6.5,17.6 1.3,-4 5.9,-14.9 21.8,-23.7 17.4,-9.6 102.4,-18 136.4,-2.6 34.4,15.7 39.4,25 50,30.6 10.6,5.6 29.8,16.1 29.8,16.1 l -5.6,1.3 c 0,0 21.2,9.5 38.5,5.6 17.3,-3.9 38.5,-8.1 42.9,-7.7 4.4,0.4 -5.8,8.7 -10.9,10.6 -5.1,2 4.6,2 4.6,2 0,0 -7.1,11.8 -22.4,16.2 -15.3,4.4 2.5,3.3 4.6,2.9 2,-0.4 -7.6,18.2 -28.5,29.4 -20.8,11.3 3.6,0 3.6,0 0,0 -29,24.5 -45.3,27.9 0,0 3.1,-5.4 6.6,-14.7 3.6,-9.3 -8.6,4.6 -3.6,-6.8 5.1,-11.4 11.2,-16.7 5.6,-17.2 -5.6,-0.5 -4.1,-1.5 7.1,-5.9 11.2,-4.4 -12.7,4.4 -35.1,-9.3 -22.4,-13.7 -24.9,-13.2 -26.4,-14.7 -1.5,-1.5 12.9,2.4 12.9,2.4 0,0 -20.6,-7.8 -25.7,-10.8 -5.1,-2.9 -16.3,-6.9 -37.1,-4.9 -20.8,2 -26.9,6.9 -52.9,1 -25.9,-5.9 -34.1,6 -34.1,6 0,0 2,-5.5 6.6,-8.4 4.9,-2.9 -22.5,17.6 -33.8,26 z"
   id="path347" />
			<path
   class="st2"
   d="m 848.3,722.5 c 0,0 -18.4,6.6 -31.3,3.9 0,0 11.9,-6.6 15.7,-8.6 0,0 -13.7,4.7 -24.6,5.8 l -6.1,1.6 10.7,0.7 -11.3,6.2 4.6,1.3 -8.8,19.5 c 0,0 -1.3,1.3 2.5,0 3.8,-1.3 1.5,11 -2.7,15 -4.2,4 2.1,2.4 4.9,1.1 2.8,-1.3 28.2,-17.4 31.5,-20 3.3,-2.6 7.2,-5.8 7.2,-5.8 l -11.9,4.9 21.1,-14.3 -15,5.4 c 0,0 19.3,-8.5 24.4,-15.7 4.5,-6.4 6.4,-9.8 6.4,-9.8 0,0 -10.7,13.9 -22.2,15.6 -0.2,0.2 4.2,-4.2 4.9,-6.8 z"
   id="path348" />
		</g>
		<g
   id="g350">
			<path
   class="st1"
   d="m 498.6,714.4 c 0,0 17.9,16.4 19.4,9.2 1.5,-7.1 0.5,9.7 4.6,1.8 4.1,-7.9 17.9,-28.4 6.6,-54.4 C 518,645 521,655.2 521,655.2 l -1,9.5 c 0,0 -3.6,-19.8 -21.4,-28.9 -17.9,-9.2 -113.4,-28.6 -146,-9.7 -32.6,18.9 -47.5,40.9 -58.2,46.8 -10.7,5.8 -29.1,8.5 -29.1,8.5 h 9.2 c 0,0 -20.9,12.1 -38.3,8 -17.4,-4.1 -38.7,-8.4 -43.1,-8 -4.4,0.4 5.8,9.1 10.9,11.1 5.1,2 -4.6,2 -4.6,2 0,0 7.1,12.3 22.5,16.9 15.4,4.6 -2.6,3.5 -4.6,3 -2,-0.5 7.7,18.9 28.6,30.7 20.9,11.8 -3.6,0 -3.6,0 0,0 29.1,25.5 45.4,29.1 0,0 -3.1,-5.6 -6.6,-15.3 -3.6,-9.7 8.7,4.8 3.6,-7 -5.1,-11.8 -11.2,-17.5 -5.6,-18 5.6,-0.5 4.1,-1.5 -7.1,-6.1 -11.2,-4.6 12.8,4.6 35.2,-9.7 22.5,-14.3 25,-13.8 26.6,-15.3 1.6,-1.5 -13,2.6 -13,2.6 0,0 20.7,-8.2 25.8,-11.2 5.1,-3 16.3,-7.1 37.3,-5.1 20.9,2 27.1,7.1 53.1,1 26,-6.1 34.2,6.2 34.2,6.2 0,0 -2,-5.7 -6.6,-8.8 -4.8,-3.1 22.7,18.2 34,26.9 z"
   id="path349" />
			<path
   class="st2"
   d="m 221.9,711.4 c 0,0 11.2,8.2 30.6,12.3 19.4,4.1 27.9,6.5 28.5,8.1 0.6,1.6 -5.3,1.7 -4.1,4.6 1.3,3 7.2,13.4 8.7,18.2 1.5,4.8 -4.7,0.7 -4.7,0.7 l 6.7,18.9 c 0,0 -30.2,-14.9 -42.2,-26.3 -12,-11.4 0.3,-2.8 0.3,-2.8 0,0 -26.7,-18.9 -28.6,-30.7 z"
   id="path350" />
		</g>
	</g>
</g><g
       id="white_part_of_eyes">
	<g
   id="Eyes_opened_copy">
		<g
   id="g352">
			<path
   class="st39"
   d="m 353.7,694.1 c 0,0 18.5,-5.8 50,0 31.5,5.8 51.3,-11.4 65.3,5.4 14,16.7 13.9,18.5 36.4,26.4 22.5,7.9 6.2,29.2 -10,29.2 -16.1,0 -39.1,26.7 -67.8,19.5 -28.7,-7.3 -119.8,-57.3 -73.9,-80.5 z"
   id="path351" />
			<path
   class="st39"
   d="m 724.3,694.1 c 0,0 -18.5,-5.8 -50,0 -31.5,5.8 -51.3,-11.4 -65.3,5.4 -14,16.7 -11.1,18.5 -33.6,26.4 -22.5,7.9 -7.2,27.2 9,27.2 16.2,0 37.2,28.6 65.9,21.4 28.8,-7.2 119.9,-57.2 74,-80.4 z"
   id="path352" />
		</g>
		<g
   id="g354">
			<path
   class="st7"
   d="m 702.1,687.2 c 0,0 4.1,35.2 -13.8,52.1 -13.8,13 -28.3,21.2 -55.9,20.9 -27.6,-0.3 -39.1,-15.2 -36.4,-39.1 0.1,0 49.2,-26 106.1,-33.9 z"
   id="path353" />
			<path
   class="st45"
   d="m 698,724.5 c 0,0 -0.2,-17.2 -3.5,-19.7 -3.3,-2.6 -37.5,16.3 -45.2,22.5 -7.7,6.1 -24.8,20.9 -32.1,30.6 0,0 -15,-5.6 -17.9,-14.7 -2.9,-9.1 -6.7,-20 -3.2,-22.1 3.4,-2 30.8,-14.2 58.6,-22.3 27.9,-8.1 47.4,-11.7 47.4,-11.7 0,0 5.5,22.7 -4.1,37.4 z"
   id="path354" />
		</g>
		<g
   id="g356">
			<path
   class="st7"
   d="m 374.8,690.3 c 0,0 -2.2,28.9 14.8,47.5 11.9,13 32.5,25 61.7,23.7 23.5,-1 32,-19.1 30.2,-35.2 0.1,-0.1 -46.8,-28.1 -106.7,-36 z"
   id="path355" />
			<path
   class="st45"
   d="m 384.4,729.2 c 0,0 -1.6,-16.6 3.1,-20.1 4.6,-3.6 48.9,14.2 64.9,27.3 16,13.1 19.4,17.9 19.4,17.9 0,0 11,-15 10.6,-23.7 -0.4,-8.7 -6.5,-10.5 -32,-20 -23.6,-8.7 -71.7,-19.7 -74.9,-20.7 -3.2,-1 2.9,31.2 8.9,39.3 z"
   id="path356" />
		</g>
	</g>
</g><g
       id="eyes_2">
	<g
   id="Layer_29">
		<g
   id="g359">
			<path
   class="st46"
   d="m 649.3,753.2 c 0,0 18.9,-5.8 23.5,-21.1 4.6,-15.3 1.2,-27 -5,-36.8 -6.2,-9.8 -65,-14.8 -61.4,24.6 0,0 3.1,24.9 18,31.6 13,5.8 24.9,1.7 24.9,1.7 z"
   id="path357" />
			<path
   class="st47"
   d="m 647.7,739.9 c 0,0 10.1,-4.7 12.4,-16.2 2.1,-10.1 -0.1,-17.7 -5.5,-20.9 -5.4,-3.2 -39.9,-8.1 -37.5,15.5 0,0 2,11.8 6.5,16.8 5.4,5.7 15.1,8 24.1,4.8 z"
   id="path358" />
			<path
   class="st48"
   d="m 624.4,718.4 c 0,0 13.4,-1.5 13.4,9.2 0,10.7 -11.6,8.7 -14.1,7.5 -2.5,-1.3 -11,-11.3 0.7,-16.7 z"
   id="path359" />
		</g>
	</g>
</g><g
       id="eyes_1">
	<g
   id="Layer_30">
		<g
   id="g362">
			<path
   class="st46"
   d="m 432.7,748.6 c 0,0 -20.2,-3.8 -26.1,-17.6 -5.9,-13.8 -3.3,-25.5 2.6,-34.8 6.7,-10.7 60,-23.2 64.1,25.9 0,0 0.5,15.6 -14.6,23 -13.2,6.3 -26,3.5 -26,3.5 z"
   id="path360" />
			<path
   class="st47"
   d="m 429.8,735.6 c 0,0 -10.6,-2.8 -12.7,-13.6 -2.2,-11.5 -1.5,-14.3 5.5,-22 6.9,-7.6 33.4,-9 37,13.9 0,0 0.7,11.6 -3.6,16.6 -5.2,5.8 -16.6,7.3 -26.2,5.1 z"
   id="path361" />
			<path
   class="st48"
   d="m 429.5,709.5 c 0,0 -13.3,-0.9 -12.3,12.1 0.8,10.7 11.8,9.2 14.6,8.1 6.7,-2.6 10.4,-15.1 -2.3,-20.2 z"
   id="path362" />
		</g>
	</g>
</g><g
       id="Opened_eye_cover">
	<path
   class="st39"
   d="m 371.9,677 c 0,0 40.9,8.7 68.4,4.4 27.5,-4.3 51.4,3.3 55,13.6 3.6,10.2 13.7,44 -16.9,27.5 -30.6,-16.5 -50,-17.3 -72.9,-23.7 -23,-6.4 -52.3,-20.9 -33.6,-21.8 z"
   id="path363" />
	<path
   class="st39"
   d="m 716.5,677 c 0,0 -40.9,8.7 -68.4,4.4 -27.5,-4.3 -51.4,3.3 -55,13.6 -3.6,10.2 -13.7,44 16.9,27.5 30.6,-16.5 50,-17.3 72.9,-23.7 23,-6.4 52.3,-20.9 33.6,-21.8 z"
   id="path364" />
	<g
   id="g369">
		<g
   id="g366">
			<path
   class="st1"
   d="m 585.2,713.9 c 0,0 -17.8,15.7 -19.3,8.9 -1.5,-6.9 -0.5,9.3 -4.6,1.7 -4.1,-7.6 -14.3,-26 -6.6,-52.2 11.6,-39.5 8.1,-15.2 8.1,-15.2 l -0.2,8.7 c 0,0 3.8,-12.5 19.5,-20.8 1,-0.6 -6.9,18.8 -6.5,17.6 1.3,-4 5.9,-14.9 21.8,-23.7 17.4,-9.6 102.4,-18 136.4,-2.6 34.4,15.7 39.4,25 50,30.6 10.6,5.6 29.8,16.1 29.8,16.1 l -5.6,1.3 c 0,0 21.2,9.5 38.5,5.6 17.3,-3.9 38.5,-8.1 42.9,-7.7 4.4,0.4 -5.8,8.7 -10.9,10.6 -5.1,2 4.6,2 4.6,2 0,0 -7.1,11.8 -22.4,16.2 -15.3,4.4 2.5,3.3 4.6,2.9 2,-0.4 -7.6,18.2 -28.5,29.4 -20.8,11.3 3.6,0 3.6,0 0,0 -29,24.5 -45.3,27.9 0,0 3.1,-5.4 6.6,-14.7 3.6,-9.3 -8.6,4.6 -3.6,-6.8 5.1,-11.4 11.2,-16.7 5.6,-17.2 -5.6,-0.5 -4.1,-1.5 7.1,-5.9 11.2,-4.4 -12.7,4.4 -35.1,-9.3 -22.4,-13.7 -24.9,-13.2 -26.4,-14.7 -1.5,-1.5 12.9,2.4 12.9,2.4 0,0 -20.6,-7.8 -25.7,-10.8 -5.1,-2.9 -16.3,-6.9 -37.1,-4.9 -20.8,2 -26.9,6.9 -52.9,1 -25.9,-5.9 -34.1,6 -34.1,6 0,0 2,-5.5 6.6,-8.4 4.9,-2.9 -22.5,17.6 -33.8,26 z"
   id="path365" />
			<path
   class="st2"
   d="m 848.3,722.5 c 0,0 -18.4,6.6 -31.3,3.9 0,0 11.9,-6.6 15.7,-8.6 0,0 -13.7,4.7 -24.6,5.8 l -6.1,1.6 10.7,0.7 -11.3,6.2 4.6,1.3 -8.8,19.5 c 0,0 -1.3,1.3 2.5,0 3.8,-1.3 1.5,11 -2.7,15 -4.2,4 2.1,2.4 4.9,1.1 2.8,-1.3 28.2,-17.4 31.5,-20 3.3,-2.6 7.2,-5.8 7.2,-5.8 l -11.9,4.9 21.1,-14.3 -15,5.4 c 0,0 19.3,-8.5 24.4,-15.7 4.5,-6.4 6.4,-9.8 6.4,-9.8 0,0 -10.7,13.9 -22.2,15.6 -0.2,0.2 4.2,-4.2 4.9,-6.8 z"
   id="path366" />
		</g>
		<g
   id="g368">
			<path
   class="st1"
   d="m 498.6,714.4 c 0,0 17.9,16.4 19.4,9.2 1.5,-7.1 0.5,9.7 4.6,1.8 4.1,-7.9 17.9,-28.4 6.6,-54.4 C 518,645 521,655.2 521,655.2 l -1,9.5 c 0,0 -3.6,-19.8 -21.4,-28.9 -17.9,-9.2 -113.4,-28.6 -146,-9.7 -32.6,18.9 -47.5,40.9 -58.2,46.8 -10.7,5.8 -29.1,8.5 -29.1,8.5 h 9.2 c 0,0 -20.9,12.1 -38.3,8 -17.4,-4.1 -38.7,-8.4 -43.1,-8 -4.4,0.4 5.8,9.1 10.9,11.1 5.1,2 -4.6,2 -4.6,2 0,0 7.1,12.3 22.5,16.9 15.4,4.6 -2.6,3.5 -4.6,3 -2,-0.5 7.7,18.9 28.6,30.7 20.9,11.8 -3.6,0 -3.6,0 0,0 29.1,25.5 45.4,29.1 0,0 -3.1,-5.6 -6.6,-15.3 -3.6,-9.7 8.7,4.8 3.6,-7 -5.1,-11.8 -11.2,-17.5 -5.6,-18 5.6,-0.5 4.1,-1.5 -7.1,-6.1 -11.2,-4.6 12.8,4.6 35.2,-9.7 22.5,-14.3 25,-13.8 26.6,-15.3 1.6,-1.5 -13,2.6 -13,2.6 0,0 20.7,-8.2 25.8,-11.2 5.1,-3 16.3,-7.1 37.3,-5.1 20.9,2 27.1,7.1 53.1,1 26,-6.1 34.2,6.2 34.2,6.2 0,0 -2,-5.7 -6.6,-8.8 -4.8,-3.1 22.7,18.2 34,26.9 z"
   id="path367" />
			<path
   class="st2"
   d="m 221.9,711.4 c 0,0 11.2,8.2 30.6,12.3 19.4,4.1 27.9,6.5 28.5,8.1 0.6,1.6 -5.3,1.7 -4.1,4.6 1.3,3 7.2,13.4 8.7,18.2 1.5,4.8 -4.7,0.7 -4.7,0.7 l 6.7,18.9 c 0,0 -30.2,-14.9 -42.2,-26.3 -12,-11.4 0.3,-2.8 0.3,-2.8 0,0 -26.7,-18.9 -28.6,-30.7 z"
   id="path368" />
		</g>
	</g>
	<path
   class="st49"
   d="m 328.3,682.3 c 0,0 30.4,-4.6 69.4,7.1 39,11.7 50,16.6 50,16.6 0,0 -24.3,-11 -29.9,-16.9 0,0 16.1,4.6 22.7,8.7 6.6,4.1 18.9,11 25.3,13.5 6.4,2.6 29.3,14.8 37.4,30.5 0,0 -3.4,-5.1 -11.2,-10.2 0,0 5.4,18.2 4.3,23 0,0 -3.9,-6.3 -4.4,-8.9 -0.5,-2.6 -4.4,-14.1 -6.5,-17.2 -2,-3.1 -4.1,-4.4 -3.9,-2.4 0.2,2 4.1,14 -2.8,21.5 0,0 2.3,-9.5 -7.9,-20.2 -7,-7.5 -14.8,-9.8 -25.5,-12.5 -10.6,-2.7 -39.8,-11.5 -51.1,-15.3 -11.3,-3.8 -43.4,-12.5 -52.3,-13.8 -8.7,-1.2 -13.6,-3.5 -13.6,-3.5 z"
   id="path369" />
	<path
   class="st49"
   d="m 592.8,725.8 c 2,-3.1 4.1,-4.4 3.9,-2.4 -0.2,2 -4.1,14 2.8,21.5 0,0 -2.3,-9.5 7.9,-20.2 7,-7.5 15.5,-7.6 26.1,-10.3 10.6,-2.7 39.2,-13.7 50.4,-17.5 11.2,-3.8 42.1,-14.2 51,-15.5 8.9,-1.3 17,-4.4 17,-4.4 0,0 -26.6,-1.2 -65.7,10.6 -39.1,11.7 -37.7,11 -37.7,11 0,0 13.7,-5.5 19.3,-11.3 0,0 -22,5.8 -28.6,9.9 -6.6,4.1 -13,4.2 -28,12 -6.1,3.2 -28.3,12.9 -36.3,31.9 0,0 2.2,-2.7 10,-7.8 z"
   id="path370" />
</g><g
       id="g391">
	<g
   id="white_part_of_eyes_00000072990070036660337520000002351767165256605082_">
		<g
   id="Eyes_opened_copy_00000116193568061968415650000014721445359453227668_">
			<g
   id="g372">
				<path
   class="st39"
   d="m 353.1,694.1 c 0,0 18.5,-5.8 50,0 31.5,5.8 51.3,-11.4 65.3,5.4 14,16.7 14,23.1 36.5,31 22.5,7.9 6.7,22.6 -9.5,22.6 -16.1,0 -39.7,28.7 -68.4,21.5 -28.7,-7.3 -119.8,-57.3 -73.9,-80.5 z"
   id="path371" />
				<path
   class="st39"
   d="m 723.8,694.1 c 0,0 -18.5,-5.8 -50,0 -31.5,5.8 -51.3,-11.4 -65.3,5.4 -14,16.7 -11.9,16.3 -34.4,24.2 -22.5,7.9 -5.8,29.5 10.4,29.5 16.2,0 36.7,28.6 65.4,21.4 28.6,-7.3 119.8,-57.3 73.9,-80.5 z"
   id="path372" />
			</g>
			<g
   id="g374">
				<path
   class="st7"
   d="m 701.5,687.2 c 0,0 4.1,35.2 -13.8,52.1 -13.8,13 -28.3,21.2 -55.9,20.9 -27.6,-0.3 -43.3,-26.5 -33.6,-47.7 0.2,0 46.5,-17.4 103.3,-25.3 z"
   id="path373" />
				<path
   class="st45"
   d="m 697.5,724.5 c 0,0 -0.2,-17.2 -3.5,-19.7 -3.3,-2.6 -37.5,16.3 -45.2,22.5 -7.7,6.1 -24.8,20.9 -32.1,30.6 0,0 -15,-5.6 -17.9,-14.7 -2.9,-9.1 -5.7,-26.3 -2.2,-28.4 3.4,-2 29.8,-7.9 57.6,-16 27.9,-8.1 47.4,-11.7 47.4,-11.7 0,0 5.4,22.7 -4.1,37.4 z"
   id="path374" />
			</g>
			<g
   id="g376">
				<path
   class="st7"
   d="m 374.3,696.2 c 0,0 -2.3,23 14.7,41.6 11.9,13 32.5,25 61.7,23.7 23.5,-1 32,-19.1 30.2,-35.2 0.2,-26.8 -46.7,-22.2 -106.6,-30.1 z"
   id="path375" />
				<path
   class="st45"
   d="m 383.8,729.2 c 0,0 -1.6,-16.6 3.1,-20.1 4.6,-3.6 48.9,14.2 64.9,27.3 16,13.1 19.4,17.9 19.4,17.9 0,0 11,-15 10.6,-23.7 -0.4,-8.7 1.3,-15.2 -24.2,-24.7 -23.6,-8.7 -79.2,-9.9 -82.4,-10.9 -3.2,-1 2.6,26.1 8.6,34.2 z"
   id="path376" />
			</g>
		</g>
	</g>
	<g
   id="eyes_2_00000119815226542960926080000003263705436318502040_">
		<g
   id="Layer_29_00000150066089983726257730000011631080246622076086_">
			<g
   id="g379">
				<path
   class="st46"
   d="m 648.8,753.2 c 0,0 18.9,-5.8 23.5,-21.1 4.6,-15.3 1.2,-27 -5,-36.8 -6.2,-9.8 -65,-14.8 -61.4,24.6 0,0 3.1,24.9 18,31.6 13,5.8 24.9,1.7 24.9,1.7 z"
   id="path377" />
				<path
   class="st47"
   d="m 647.2,739.9 c 0,0 10.1,-4.7 12.4,-16.2 2.1,-10.1 -0.1,-17.7 -5.5,-20.9 -5.4,-3.2 -39.9,-8.1 -37.5,15.5 0,0 2,11.8 6.5,16.8 5.4,5.7 15.1,8 24.1,4.8 z"
   id="path378" />
				<path
   class="st48"
   d="m 623.9,718.4 c 0,0 13.4,-1.5 13.4,9.2 0,10.7 -11.6,8.7 -14.1,7.5 -2.5,-1.3 -11,-11.3 0.7,-16.7 z"
   id="path379" />
			</g>
		</g>
	</g>
	<g
   id="eyes_1_00000105385954222359670630000011450227545679186563_">
		<g
   id="Layer_30_00000169557285477743813040000003719475857466246832_">
			<g
   id="g382">
				<path
   class="st46"
   d="m 432.1,748.6 c 0,0 -20.2,-3.8 -26.1,-17.6 -5.9,-13.8 -3.3,-25.5 2.6,-34.8 6.7,-10.7 60,-23.2 64.1,25.9 0,0 0.5,15.6 -14.6,23 -13.2,6.3 -26,3.5 -26,3.5 z"
   id="path380" />
				<path
   class="st47"
   d="m 429.2,735.6 c 0,0 -10.6,-2.8 -12.7,-13.6 -2.2,-11.5 -1.5,-14.3 5.5,-22 6.9,-7.6 33.4,-9 37,13.9 0,0 0.7,11.6 -3.6,16.6 -5.2,5.8 -16.6,7.3 -26.2,5.1 z"
   id="path381" />
				<path
   class="st48"
   d="m 428.9,709.5 c 0,0 -13.3,-0.9 -12.3,12.1 0.8,10.7 11.8,9.2 14.6,8.1 6.7,-2.6 10.4,-15.1 -2.3,-20.2 z"
   id="path382" />
			</g>
		</g>
	</g>
	<g
   id="Opened_eye_cover_happy">
		<path
   class="st39"
   d="m 371.3,677 c 0,0 40.9,8.7 68.4,4.4 27.5,-4.3 51.4,3.3 55,13.6 3.6,10.2 8.1,50 -16,25 -22.1,-23 -50.9,-14.8 -73.8,-21.2 -23,-6.4 -52.3,-20.9 -33.6,-21.8 z"
   id="path383" />
		<g
   id="g385">
			<path
   class="st1"
   d="m 498,714.4 c 0,0 17.9,16.4 19.4,9.2 1.5,-7.1 0.5,9.7 4.6,1.8 4.1,-7.9 18,-28.4 6.6,-54.4 -11.2,-26 -8.2,-15.8 -8.2,-15.8 l -1,9.5 c 0,0 -3.6,-19.8 -21.4,-28.9 -17.9,-9.2 -113.4,-28.6 -146,-9.7 -32.6,18.9 -47.5,40.9 -58.2,46.8 -10.7,5.8 -29.1,8.5 -29.1,8.5 h 9.2 c 0,0 -20.9,12.1 -38.3,8 -17.4,-4.1 -38.7,-8.4 -43.1,-8 -4.4,0.4 5.8,9.1 10.9,11.1 5.1,2 -4.6,2 -4.6,2 0,0 7.1,12.3 22.5,16.9 15.4,4.6 -2.6,3.5 -4.6,3 -2,-0.5 7.7,18.9 28.6,30.7 20.9,11.8 -3.6,0 -3.6,0 0,0 29.1,25.5 45.4,29.1 0,0 -3.1,-5.6 -6.6,-15.3 -3.6,-9.7 8.7,4.8 3.6,-7 -5.1,-11.8 -11.2,-17.5 -5.6,-18 5.6,-0.5 4.1,-1.5 -7.1,-6.1 -11.2,-4.6 12.8,4.6 35.2,-9.7 22.5,-14.3 25,-13.8 26.6,-15.3 1.6,-1.5 -13,2.6 -13,2.6 0,0 20.7,-8.2 25.8,-11.2 5.1,-3 16.3,-7.1 37.3,-5.1 20.9,2 27.1,7.1 53.1,1 26,-6.1 34.2,6.2 34.2,6.2 0,0 -2,-5.7 -6.6,-8.8 -4.8,-3.1 22.7,18.2 34,26.9 z"
   id="path384" />
			<path
   class="st2"
   d="m 221.3,711.4 c 0,0 11.2,8.2 30.6,12.3 19.4,4.1 27.9,6.5 28.5,8.1 0.6,1.6 -5.3,1.7 -4.1,4.6 1.3,3 7.2,13.4 8.7,18.2 1.5,4.8 -4.7,0.7 -4.7,0.7 l 6.7,18.9 c 0,0 -30.2,-14.9 -42.2,-26.3 -12,-11.4 0.3,-2.8 0.3,-2.8 0,0 -26.7,-18.9 -28.6,-30.7 z"
   id="path385" />
		</g>
		<path
   class="st49"
   d="m 322.8,694.9 c 0,0 29.1,-9.8 69.6,-5.1 40.4,4.7 52.1,7.6 52.1,7.6 0,0 -25.8,-6.6 -32.4,-11.4 0,0 16.7,1.7 23.9,4.6 7.2,2.9 20.5,7.5 27.3,8.9 6.8,1.4 31.4,9.5 42.2,23.5 0,0 -4.2,-4.4 -12.8,-8.1 0,0 8.5,17 8.3,21.9 0,0 -4.9,-5.5 -5.9,-8 -0.9,-2.5 -6.8,-13.1 -9.4,-15.8 -2.5,-2.7 -4.8,-3.6 -4.3,-1.7 0.5,1.9 6.5,13.1 1,21.7 0,0 0.6,-9.8 -11.3,-18.5 -8.2,-6.2 -16.3,-7.1 -27.3,-7.9 -10.9,-0.8 -41.2,-4.4 -53,-6.1 -11.8,-1.8 -44.9,-4.7 -53.9,-4.5 -8.9,0.4 -14.1,-1.1 -14.1,-1.1 z"
   id="path386" />
		<g
   id="g390">
			<path
   class="st39"
   d="m 716,677 c 0,0 -40.9,8.7 -68.4,4.4 -27.5,-4.3 -51.4,3.3 -55,13.6 -3.6,10.2 -18.6,31.7 12,15.2 30.6,-16.5 54.9,-5 77.8,-11.4 23,-6.4 52.3,-20.9 33.6,-21.8 z"
   id="path387" />
			<g
   id="g389">
				<path
   class="st1"
   d="m 584.7,713.9 c 0,0 -17.8,15.7 -19.3,8.9 -1.5,-6.9 -0.5,9.3 -4.6,1.7 -4.1,-7.6 -14.3,-26 -6.6,-52.2 11.6,-39.5 8.1,-15.2 8.1,-15.2 l -0.2,8.7 c 0,0 3.8,-12.5 19.5,-20.8 1,-0.6 -6.9,18.8 -6.5,17.6 1.3,-4 5.9,-14.9 21.8,-23.7 17.4,-9.6 102.4,-18 136.4,-2.6 34.4,15.7 39.4,25 50,30.6 10.6,5.6 29.8,16.1 29.8,16.1 l -5.6,1.3 c 0,0 21.2,9.5 38.5,5.6 17.3,-3.9 38.5,-8.1 42.9,-7.7 4.4,0.4 -5.8,8.7 -10.9,10.6 -5.1,2 4.6,2 4.6,2 0,0 -7.1,11.8 -22.4,16.2 -15.3,4.4 2.5,3.3 4.6,2.9 2,-0.4 -7.6,18.2 -28.5,29.4 -20.8,11.3 3.6,0 3.6,0 0,0 -29,24.5 -45.3,27.9 0,0 3.1,-5.4 6.6,-14.7 3.6,-9.3 -8.6,4.6 -3.6,-6.8 5.1,-11.4 11.2,-16.7 5.6,-17.2 -5.6,-0.5 -4.1,-1.5 7.1,-5.9 11.2,-4.4 -12.7,4.4 -35.1,-9.3 -22.4,-13.7 -24.9,-13.2 -26.4,-14.7 -1.5,-1.5 12.9,2.4 12.9,2.4 0,0 -20.6,-7.8 -25.7,-10.8 -5.1,-2.9 -16.3,-6.9 -37.1,-4.9 -20.8,2 -26.9,6.9 -52.9,1 -25.9,-5.9 -34.1,6 -34.1,6 0,0 2,-5.5 6.6,-8.4 4.9,-2.9 -22.5,17.6 -33.8,26 z"
   id="path388" />
				<path
   class="st2"
   d="m 847.8,722.5 c 0,0 -18.4,6.6 -31.3,3.9 0,0 11.9,-6.6 15.7,-8.6 0,0 -13.7,4.7 -24.6,5.8 l -6.1,1.6 10.7,0.7 -11.3,6.2 4.6,1.3 -8.8,19.5 c 0,0 -1.3,1.3 2.5,0 3.8,-1.3 1.5,11 -2.7,15 -4.2,4 2.1,2.4 4.9,1.1 2.8,-1.3 28.2,-17.4 31.5,-20 3.3,-2.6 7.2,-5.8 7.2,-5.8 l -11.9,4.9 21.1,-14.3 -15,5.4 c 0,0 19.3,-8.5 24.4,-15.7 4.5,-6.4 6.4,-9.8 6.4,-9.8 0,0 -10.7,13.9 -22.2,15.6 -0.2,0.2 4.1,-4.2 4.9,-6.8 z"
   id="path389" />
			</g>
			<path
   class="st49"
   d="m 591.2,716.4 c 2.3,-2.9 4.5,-4 4.1,-2 -0.4,2 -5.5,13.5 0.6,21.7 0,0 -1.3,-9.7 9.9,-19.3 7.7,-6.8 16.2,-6 27,-7.6 10.8,-1.6 40.4,-9.7 51.9,-12.3 11.5,-2.6 43.3,-9.9 52.3,-10.3 9,-0.4 17.4,-2.7 17.4,-2.7 0,0 -26.3,-3.9 -66.4,3.9 -40.1,7.7 -38.6,7.1 -38.6,7.1 0,0 14.2,-4.1 20.3,-9.3 0,0 -22.5,3.6 -29.5,7 -7,3.4 -13.4,2.9 -29.1,9.1 -6.4,2.6 -29.5,10 -39.3,28.1 0,0 2.5,-2.5 10.7,-6.8 z"
   id="path390" />
		</g>
	</g>
</g><g
       id="g415">
	<path
   class="st39"
   d="m 213.9,693.1 c 0,0 26.9,-3 36.2,-7.1 9.3,-4.1 19.8,-5.5 27.7,-14.3 7.9,-8.9 29.4,-18.9 34.5,-26.5 5.1,-7.6 36.4,-51.2 93.9,-40.3 57.5,10.9 115.1,14 127.3,33.1 0,0 29.9,-28.3 113,-26.8 83.1,1.5 97.9,22.5 125.3,36.9 27.4,14.4 45.2,31.4 49,33.3 3.8,1.8 0,8.9 0,8.9 l 37.8,4.7 c 0,0 -25.4,99.5 -63.5,76.2 -58.6,-35.9 -102.7,-17.8 -133.7,-9.6 -28.3,7.4 -62.2,-4.4 -79.8,-9.7 -17.7,-5.4 -21.8,-13.7 -27.4,-15.8 -5.6,-2.1 -8.6,-3.1 -23.8,2.3 -15.2,5.4 -21.4,15.5 -35,14.7 -13.6,-0.8 -35.5,16.2 -42.3,17.3 -6.8,1.1 -122.4,-43.2 -121,-15.3 3,58.3 -111.6,-34.9 -115.6,-40.7 -3.9,-5.9 -17.3,-32.9 -2.6,-21.3 z"
   id="path391" />
	<g
   id="g393">
		<path
   class="st39"
   d="m 353.1,694.1 c 0,0 18.5,-5.8 50,0 31.5,5.8 51.3,-11.4 65.3,5.4 14,16.7 14,23.1 36.5,31 22.5,7.9 6.7,22.6 -9.5,22.6 -16.1,0 -39.7,28.7 -68.4,21.5 -28.7,-7.3 -119.8,-57.3 -73.9,-80.5 z"
   id="path392" />
		<path
   class="st39"
   d="m 723.8,694.1 c 0,0 -18.5,-5.8 -50,0 -31.5,5.8 -51.3,-11.4 -65.3,5.4 -14,16.7 -11.9,16.3 -34.4,24.2 -22.5,7.9 -5.8,29.5 10.4,29.5 16.2,0 36.7,28.6 65.4,21.4 28.6,-7.3 119.8,-57.3 73.9,-80.5 z"
   id="path393" />
	</g>
	<g
   id="g395">
		<path
   class="st7"
   d="m 702.5,685.1 c 0,0 3.1,41.3 -15.8,57.3 -14.6,12.3 -29.6,19.7 -57.1,17.6 -27.5,-2 -41.5,-38.5 -30.5,-59.4 0.2,0 46.1,-11.1 103.4,-15.5 z"
   id="path394" />
		<path
   class="st45"
   d="m 697.3,728 c 0,0 0.9,-17.4 -2.3,-20.1 -3.1,-2.8 -38.4,14.1 -46.5,19.9 -8.1,5.7 -26,19.6 -33.9,28.9 0,0 -15.2,-16.3 -17.5,-25.6 -2.3,-9.4 -1.7,-27.5 1.9,-29.4 3.5,-1.8 28.3,0.1 56.6,-6.3 28.3,-6.4 45.9,-10.3 45.9,-10.3 0,0 6.3,28.6 -4.2,42.9 z"
   id="path395" />
	</g>
	<g
   id="g397">
		<path
   class="st7"
   d="m 372.5,690.4 c 0,0 -1,30.2 17.1,49 12.6,13.2 33.9,24.8 63,21.8 23.4,-2.4 30.8,-22.1 28.1,-39.1 -1.4,-28.6 -48,-26.7 -108.2,-31.7 z"
   id="path396" />
		<path
   class="st45"
   d="m 383.9,730.5 c 0,0 -2.6,-17.6 1.9,-21.5 4.4,-4.1 49.6,12.4 66.4,25.4 16.7,13 20.4,17.9 20.4,17.9 0,0 10.1,-16.6 9.2,-25.8 -0.9,-9.2 0.4,-16.2 -25.6,-24.9 -24.1,-7.9 -79.1,-9.1 -82.3,-10 -3.3,-0.9 3.5,30.6 10,38.9 z"
   id="path397" />
	</g>
	<g
   id="eyes_2_00000065777591122755130870000017360897703099367103_">
		<g
   id="Layer_29_00000067951616094226285290000011164873564366782625_">
			<g
   id="g400">
				<path
   class="st46"
   d="m 646.4,751.8 c 0,0 19.3,-4.2 25.2,-19 5.9,-14.8 3.5,-26.8 -1.8,-37.1 -5.3,-10.3 -63.5,-20.3 -63.3,19.2 0,0 1,25.1 15.2,33 12.5,7 24.7,3.9 24.7,3.9 z"
   id="path398" />
				<path
   class="st47"
   d="m 646,738.4 c 0,0 9.6,-2.4 12.9,-13.7 3.7,-10.7 -1.4,-19 -5.3,-23.9 -5.7,-7.1 -36.6,-10.3 -36.2,13.5 0,0 1,11.9 5,17.3 4.9,6.1 14.4,9.3 23.6,6.8 z"
   id="path399" />
				<path
   class="st48"
   d="m 624.6,715 c 0,0 13.5,-0.3 12.6,10.3 -0.9,10.7 -12.3,7.7 -14.7,6.3 -2.4,-1.5 -10,-12.2 2.1,-16.6 z"
   id="path400" />
			</g>
		</g>
	</g>
	<g
   id="eyes_1_00000059272050275260166380000016433420229690786696_">
		<g
   id="Layer_30_00000003789419224419444150000004076903488923922363_">
			<g
   id="g403">
				<path
   class="st46"
   d="m 432.3,749.4 c 0,0 -20.2,-3.8 -26.1,-17.6 -5.9,-13.8 -3.3,-25.5 2.6,-34.8 6.7,-10.7 60,-23.2 64.1,25.9 0,0 0.5,15.6 -14.6,23 -13.2,6.3 -26,3.5 -26,3.5 z"
   id="path401" />
				<path
   class="st47"
   d="m 429.4,736.4 c 0,0 -10.6,-2.8 -12.7,-13.6 -2.2,-11.5 -1.5,-14.3 5.5,-22 6.9,-7.6 33.4,-9 37,13.9 0,0 0.7,11.6 -3.6,16.6 -5.2,5.8 -16.6,7.3 -26.2,5.1 z"
   id="path402" />
				<path
   class="st48"
   d="m 429.1,710.3 c 0,0 -13.3,-0.9 -12.3,12.1 0.8,10.7 11.8,9.2 14.6,8.1 6.7,-2.6 10.4,-15.1 -2.3,-20.2 z"
   id="path403" />
			</g>
		</g>
	</g>
	<g
   id="Opened_eye_cover_happy_00000076592459163617460350000014811594277839868819_">
		<g
   id="g408">
			<path
   class="st39"
   d="m 372.6,674.6 c 0,0 40.9,8.7 68.4,4.4 27.5,-4.3 51.4,3.3 55,13.6 3.6,10.2 4.1,43.7 -20,18.7 -22.1,-23 -53.2,-14.3 -77.6,-18.1 -23,-6.3 -44.5,-17.7 -25.8,-18.6 z"
   id="path404" />
			<g
   id="g406">
				<path
   class="st1"
   d="m 353.3,691.1 c 6.1,-20.3 21.7,-37.7 37.1,-51.6 7.8,-7.1 16,-13.9 24.2,-20.6 -25,-1.8 -49.2,-0.6 -62.6,7.2 -32.6,18.9 -47.5,40.9 -58.2,46.8 -10.7,5.8 -29.1,8.5 -29.1,8.5 h 9.2 c 0,0 -20.9,12.1 -38.3,8 -17.4,-4.1 -38.7,-8.4 -43.1,-8 -4.4,0.4 5.8,9.1 10.9,11.1 5.1,2 -4.6,2 -4.6,2 0,0 7.1,12.3 22.5,16.9 15.4,4.6 -2.6,3.5 -4.6,3 -2,-0.5 7.7,18.9 28.6,30.7 20.9,11.8 -3.6,0 -3.6,0 0,0 29.1,25.5 45.4,29.1 0,0 -3.1,-5.6 -6.6,-15.3 -3.6,-9.7 8.7,4.8 3.6,-7 -5.1,-11.8 -11.2,-17.5 -5.6,-18 5.6,-0.5 4.1,-1.5 -7.1,-6.1 -11.2,-4.6 12.8,4.6 35.2,-9.7 22.5,-14.3 25,-13.8 26.6,-15.3 1.6,-1.5 -13,2.6 -13,2.6 0,0 20.7,-8.2 25.8,-11.2 1.8,-1 4.1,-2.1 7.3,-3.1 z"
   id="path405" />
				<path
   class="st2"
   d="m 221.3,711.4 c 0,0 11.2,8.2 30.6,12.3 19.4,4.1 27.9,6.5 28.5,8.1 0.6,1.6 -5.3,1.7 -4.1,4.6 1.3,3 7.2,13.4 8.7,18.2 1.5,4.8 -4.7,0.7 -4.7,0.7 l 6.7,18.9 c 0,0 -30.2,-14.9 -42.2,-26.3 -12,-11.4 0.3,-2.8 0.3,-2.8 0,0 -26.7,-18.9 -28.6,-30.7 z"
   id="path406" />
			</g>
			<g
   id="g407">
				<path
   class="st1"
   d="m 320.9,705.7 c 0,0 20.2,-9.4 25.1,-12.8 4.9,-3.3 15.8,-8.1 36.9,-7.4 21,0.7 26.4,-1.4 53.1,-2.2 20,-0.7 34.1,8.8 34.1,8.8 0,0 -3.9,-6.7 -8.6,-9.5 -5,-2.8 22.2,13.9 34,21.9 0,0 21.7,11.1 22.8,3.8 1.1,-7.2 2.9,5.3 6.5,-2.9 3.6,-8.1 14.9,-21.6 2.1,-46.9 -12.8,-25.3 -9.1,-15.3 -9.1,-15.3 l -0.4,9.5 c 0,0 -4.8,-19.5 -23.1,-27.5 -18.4,-8.1 -115.4,-15.6 -146.8,5.3 -31.4,20.9 -44.5,37.7 -54.8,44.2 -10.3,6.4 -28.5,10.3 -28.5,10.3"
   id="path407" />
			</g>
			<path
   class="st49"
   d="m 317.6,687.1 c 0,0 32,-6.5 72.5,-1.4 40.3,5.2 54.5,6.8 54.5,6.8 0,0 -25.7,-6.9 -32.3,-11.8 0,0 16.7,1.9 23.8,4.9 7.2,3 20.4,7.7 27.2,9.2 6.8,1.5 31.3,9.9 41.9,24 0,0 -4.1,-4.4 -12.7,-8.2 0,0 8.3,17.1 8.1,22 0,0 -4.8,-5.6 -5.8,-8.1 -0.9,-2.5 -6.7,-13.2 -9.2,-15.9 -2.5,-2.7 -4.8,-3.7 -4.3,-1.7 0.5,1.9 6.4,13.2 0.8,21.7 0,0 0.7,-9.8 -11.1,-18.6 -8.1,-6.3 -16.2,-7.3 -27.2,-8.2 -10.9,-0.9 -41.1,-4.9 -52.9,-6.7 -11.8,-1.9 -44.8,-5.2 -53.8,-5.1 -9,0.2 -19.5,-2.9 -19.5,-2.9 z"
   id="path408" />
		</g>
		<g
   id="g411">
			<g
   id="g410">
				<path
   class="st1"
   d="m 878,692.8 c 5.1,-1.9 15.3,-10.2 10.9,-10.6 -4.4,-0.4 -25.6,3.8 -42.9,7.7 -17.3,3.9 -38.5,-5.6 -38.5,-5.6 l 5.6,-1.3 c 0,0 -19.2,-10.5 -29.8,-16.1 -10.6,-5.6 -15.6,-14.9 -50,-30.6 -9.7,-4.4 -23.4,-6.8 -38.6,-7.9 7.2,7.1 13.5,15.4 18.9,23.6 8.2,12.3 15.1,26.2 19.2,40.7 1.2,0.5 2.3,1 3.1,1.5 5.1,3 25.7,10.8 25.7,10.8 0,0 -14.4,-3.9 -12.9,-2.4 1.5,1.5 4,1 26.4,14.7 22.4,13.7 46.3,4.9 35.1,9.3 -11.2,4.4 -12.7,5.4 -7.1,5.9 5.6,0.5 -0.5,5.8 -5.6,17.2 -5,11.4 7.2,-2.5 3.6,6.8 -3.5,9.3 -6.6,14.7 -6.6,14.7 16.3,-3.4 45.3,-27.9 45.3,-27.9 0,0 -24.4,11.3 -3.6,0 20.9,-11.2 30.5,-29.8 28.5,-29.4 -2.1,0.4 -19.9,1.5 -4.6,-2.9 15.3,-4.4 22.4,-16.2 22.4,-16.2 0,0 -9.6,0 -4.5,-2 z"
   id="path409" />
				<path
   class="st2"
   d="m 847.8,722.5 c 0,0 -18.4,6.6 -31.3,3.9 0,0 11.9,-6.6 15.7,-8.6 0,0 -13.7,4.7 -24.6,5.8 l -6.1,1.6 10.7,0.7 -11.3,6.2 4.6,1.3 -8.8,19.5 c 0,0 -1.3,1.3 2.5,0 3.8,-1.3 1.5,11 -2.7,15 -4.2,4 2.1,2.4 4.9,1.1 2.8,-1.3 28.2,-17.4 31.5,-20 3.3,-2.6 7.2,-5.8 7.2,-5.8 l -11.9,4.9 21.1,-14.3 -15,5.4 c 0,0 19.3,-8.5 24.4,-15.7 4.5,-6.4 6.4,-9.8 6.4,-9.8 0,0 -10.7,13.9 -22.2,15.6 -0.2,0.2 4.1,-4.2 4.9,-6.8 z"
   id="path410" />
			</g>
			<path
   class="st49"
   d="m 729.6,683 c 0.5,1.4 1,2.8 1.5,4.2 2.4,-0.4 4.4,-0.6 5.8,-0.7 9,-0.4 17.4,-2.7 17.4,-2.7 0,0 -9,-1.3 -24.7,-0.8 z"
   id="path411" />
		</g>
		<g
   id="g414">
			<path
   class="st39"
   d="m 719.6,675.1 c 0,0 -41.4,5.6 -68.5,-0.8 -27.1,-6.4 -51.5,-0.6 -55.9,9.4 -4.4,9.9 -20.9,30.2 10.8,16.1 31.8,-14.1 55.3,-7 78.6,-11.6 23.4,-4.7 53.5,-10.8 35,-13.1 z"
   id="path412" />
			<g
   id="g413">
				<path
   class="st1"
   d="m 749.1,704.3 c -1.3,-1.6 12.6,3.6 12.6,3.6 0,0 -19.7,-9.8 -24.5,-13.3 -4.8,-3.4 -15.5,-8.5 -36.4,-8.5 -20.9,0 -26.6,11.1 -51.8,2.7 -25.2,-8.4 -35.9,4.3 -35.9,4.3 0,0 4.5,-5.8 9.6,-8.8 -3.8,4.1 -23.9,11.1 -35.9,18.3 0,0 -18.2,10.9 -19.1,4 -0.8,-7 -7.6,0.8 -10.9,-7.2 -3.3,-8 -8.6,-19.1 1.7,-44.4 15.4,-38.2 9.5,-14.3 9.5,-14.3 l -1,8.6 c 0,0 5,-12.1 21.4,-18.8 1.1,-0.5 -8.7,18 -8.2,16.9 1.7,-3.9 8.5,-10.8 25.2,-18 18.3,-7.9 88,-20.8 134.3,9.7 32.7,19 37.3,26.3 47.3,32.9"
   id="path413" />
			</g>
			<path
   class="st49"
   d="m 592.1,709.9 c 2.3,-2.8 4.6,-3.8 4.1,-1.9 -0.5,1.9 -5.7,12.9 0.2,20.9 0,0 -1.1,-9.4 10.2,-18.4 7.8,-6.4 16.3,-5.5 27.1,-6.8 10.8,-1.3 40.6,-8.6 52.1,-10.9 11.5,-2.3 43.5,-8.8 52.5,-9 9,-0.2 17.4,-2.3 17.4,-2.3 0,0 -26.2,-4.2 -66.5,2.6 -40.2,6.7 -38.7,6.1 -38.7,6.1 0,0 14.3,-3.7 20.5,-8.6 0,0 -22.6,3.1 -29.6,6.2 -7,3.1 -13.4,2.6 -29.3,8.2 -6.4,2.4 -29.7,9.1 -39.8,26.4 0,0 2.5,-2.4 10.8,-6.4 z"
   id="path414" />
		</g>
	</g>
</g><g
       id="cap">
	<g
   id="g441">
		<path
   class="st3"
   d="m 296.9,645.8 c 0,0 -11.6,-133.3 112.6,-203.7 124.2,-70.4 240.7,-25.3 285.8,8.4 45.1,33.7 95.6,88.6 87.9,189.4 0,0 -18.9,-9.4 -72.4,-8.7 -56.7,0.7 -79.2,1.5 -109.5,-2.3 -30.3,-3.8 -31.1,-20.7 -123.5,-5.4 -92.4,15.3 -100.9,-4.6 -170.1,22.2 h -10.8 z"
   id="path437" />
		<g
   id="g440">
			<path
   class="st51"
   d="m 302.2,587.7 c 0,0 74.5,-37.7 193.2,-33.1 118.7,4.6 206.2,-1.1 286.9,36.2 0,0 13.2,37.8 1,49.1 0,0 -31.3,-14 -111.4,-12.9 -80.1,1.1 -116.4,-10.3 -131.6,-9.8 -15.1,0.5 -161.5,8.6 -189.6,15.9 -28.1,7.3 -54.4,22.2 -54.1,6.8 0.4,-15.4 -2.9,-48.4 5.6,-52.2 z"
   id="path438" />
			<path
   class="st52"
   d="m 788.2,627.8 c 0,0 -36.3,-21.7 -116.3,-25.2 -95.1,-4.1 -153,-7.8 -166.5,-7.3 -72.8,2.7 -203.1,22.9 -208.7,38.4"
   id="path439" />
			<path
   class="st52"
   d="m 296.3,611.6 c 0,0 76.3,-42.4 197.9,-37.2 121.6,5.2 211.2,-1.2 293.9,40.7"
   id="path440" />
		</g>
	</g>
</g><g
       id="Glasses">
	<g
   id="g450">
		<g
   id="g449">
			<path
   class="st53"
   d="m 542.6,534.7 c 0,0 -8.9,-1.4 -14.3,-13.6 -5.4,-12.3 -39.1,-59.6 -85.1,-54.1 -46,5.5 -100.4,26.6 -118.8,89.2 -18.4,62.6 37.1,109.3 74.9,108.6 37.8,-0.7 56.4,-8.5 80.3,-26.9 24,-18.4 32,-31.8 36.4,-38.9 4.4,-7.1 13.3,-18.6 30,-20 16.7,-1.4 28.6,19.4 39.8,36.4 11.2,17 53.1,48.3 91.2,43.9 38.1,-4.4 65,-20.1 79,-48 14,-27.9 7.3,-81.8 -23.5,-107.2 -30.8,-25.4 -110.8,-72.5 -168,8.2 0,0 -12.2,26.1 -21.9,22.4 z"
   id="path441" />
			<path
   class="st54"
   d="m 511.4,518.4 c 16,37.5 -17.6,94.8 -66.7,116.6 -44.6,19.8 -86.4,4.3 -101.8,-33.4 -18.6,-45.3 6.9,-93.2 56.2,-114.3 49.3,-21.1 96.3,-6.4 112.3,31.1 z"
   id="path442" />
			<path
   class="st54"
   d="m 578.4,519.4 c -16,37.5 17,94.5 65.4,116 44,19.5 85.4,3.9 100.8,-33.9 18.6,-45.3 -11.2,-94.9 -59.9,-115.8 -48.7,-20.8 -90.3,-3.8 -106.3,33.7 z"
   id="path443" />
			<path
   class="st55"
   d="m 350.8,644.4 c 0,0 20.2,25.1 55,29.7 34.7,4.6 68.1,-11.2 87.9,-34.7 19.8,-23.5 17.9,-28.6 29.2,-40.4 11.2,-11.8 15.3,-11.8 23.1,-12.5 7.8,-0.7 18.7,8.2 25.2,19.4 6.5,11.2 16.6,35.7 46.1,52.1 29.5,16.3 55.2,22.5 83.7,9.9 28.5,-12.6 50.3,-33 55.1,-56.5 0,0 -16.2,40.9 -76.3,47.7 -60.2,6.8 -95.9,-48 -102.8,-57.2 -6.9,-9.2 -14.1,-23.5 -32.7,-22.6 -18.6,0.9 -30.3,24.9 -37,32.6 -6.8,7.7 -39.8,44.8 -78.9,50.5 -39.4,5.4 -54.6,1.2 -77.6,-18 z"
   id="path444" />
			<path
   class="st56"
   d="m 489.3,527.4 c 16.1,38.3 -14.8,76.8 -52.9,93.7 -34.7,15.4 -64.4,3.9 -76.4,-25.5 -14.4,-35.2 5.3,-68.9 43.7,-85.3 38.3,-16.4 73.3,-12.1 85.6,17.1 z"
   id="path445" />
			<path
   class="st56"
   d="m 602.8,529.8 c -16.1,38.3 11.6,75 49.3,91.7 34.2,15.2 63.6,3.5 75.6,-25.8 14.4,-35.2 -4.9,-68.7 -42.8,-84.9 -37.8,-16.2 -69.8,-10.2 -82.1,19 z"
   id="path446" />
			<path
   class="st57"
   d="m 451.7,514.1 c 0,0 -26.6,32.7 -35.8,46.5 -9.1,13.8 -20.4,34.4 -37,29.6 -16.6,-4.9 -1.3,-46.5 22,-62.8 23.2,-16.4 38.3,-19.7 50.8,-13.3 z"
   id="path447" />
			<path
   class="st57"
   d="m 710,532.2 c 0,0 -26.8,-19.9 -46.6,-18.4 l 3.8,-2.2 c 0,0 -13.8,-5.7 -31.3,-2.6 -17.5,3.1 -26.1,41.5 -17.2,42.5 8.9,0.9 20.3,-3.3 34.4,-8.8 14.1,-5.5 52,-10.9 56.9,-10.5 z"
   id="path448" />
			<path
   class="st2"
   d="m 546,554.6 c 0,0 11.9,-0.2 21.6,16.3 9.6,16.3 23.1,39.3 38.8,52.1 15.8,12.8 52.1,41.9 114.8,22.7 0,0 27.9,-13 33.4,-29.1 0,0 -19.8,52.9 -79.1,58.3 -59.4,5.3 -93.6,-49.9 -95.9,-53.9 -2.3,-4 -15.9,-33.3 -33.6,-34.5 -17.7,-1.2 -31.5,23.3 -33.7,26.9 -2.2,3.7 -24.1,40.6 -47.8,49.5 -25.4,9.6 -66,30.5 -113.7,-18.5 0,0 31,19.6 75.4,10.3 42.5,-8.9 68.1,-33.7 79.3,-52.6 11,-18.9 23.4,-41.9 40.5,-47.5 z"
   id="path449" />
		</g>
	</g>
</g><g
       id="g11"
       transform="matrix(-1,0,0,1,1084.5682,0)">
	<g
   id="g10">
		<path
   class="st44"
   d="m 628.1,808.4 c 0.6,-1 1.6,-1.6 2.5,-2.3 2.8,-2 5.8,-3.7 8.8,-5.3 8,-4.1 16.6,-7.7 24.7,-11.4 20.5,-9.7 39.5,-22.3 58.7,-34.3 -18.1,13.7 -37.9,25.2 -58.3,35.2 -8.1,3.7 -16.8,7.4 -24.7,11.4 -3.1,1.4 -6.1,2.9 -9.1,4.7 -0.9,0.5 -1.9,1.1 -2.6,2 z"
   id="path6" />
		<path
   class="st44"
   d="m 658.5,797.8 c 27.1,-4.1 54.3,-7.8 81.4,-12.1 20.4,-3 40.9,-5.1 61,-9.1 6.7,-1.2 13.4,-2.7 19.9,-5 -12.8,5.1 -26.5,7.5 -40,9.5 -13.6,2 -27.2,3.7 -40.8,5.6 -27.1,4.1 -54.2,8.7 -81.5,11.1 z"
   id="path7" />
		<path
   class="st44"
   d="m 697.5,808.4 c 40.5,-3.3 82.8,-4.5 123.3,-6 22.6,-1.2 45,-5.4 67.7,-5.4 2.1,0.1 4.1,0.1 6.1,0.8 -2,-0.6 -4.1,-0.5 -6.1,-0.5 -22.6,1.2 -45,4.8 -67.6,6.2 -8.2,0.6 -16.5,0.5 -24.7,0.8 -31.9,0.9 -66.7,3.2 -98.7,4.1 z"
   id="path8" />
		<path
   class="st44"
   d="m 640.5,819.2 c 1.8,-0.2 3.5,-0.4 5.2,-0.6 l 5.2,-0.1 c 3.5,-0.1 7,-0.3 10.5,-0.5 4.3,-0.3 8.7,-0.7 13,-1.3 1.5,-0.3 3.7,-0.6 5.2,-0.8 0.9,-0.1 1.7,-0.4 2.6,-0.5 -0.8,0.3 -1.6,0.7 -2.4,1 -0.8,0.3 -1.7,0.6 -2.5,0.8 l -2.6,0.5 c -4.3,0.6 -8.8,1 -13.1,1.3 -3.5,0.2 -7,0.4 -10.5,0.5 l -5.3,0.1 c -1.8,-0.1 -3.6,-0.2 -5.3,-0.4 z"
   id="path9" />
		<path
   class="st44"
   d="m 694.5,828.4 c -1.9,0 -3.9,-0.2 -5.8,-0.3 l -5.7,-0.8 c -3.8,-0.6 -7.6,-1.2 -11.4,-1.9 -7.5,-1.6 -15.6,-2.3 -22.2,-6.2 11,3.4 22.4,5.3 33.8,7.1 3.5,0.5 7.8,1.2 11.3,2.1 z"
   id="path10" />
	</g>
</g></g></g>




</svg>
