<?xml version="1.0" encoding="UTF-8" standalone="no"?>
<!-- Generator: Adobe Illustrator 26.0.1, SVG Export Plug-In . SVG Version: 6.00 Build 0)  -->

<svg
   version="1.1"
   x="0px"
   y="0px"
   viewBox="0 0 352.04532 230.97243"
   xml:space="preserve"
   id="svg77"
   sodipodi:docname="fox-head.svg"
   width="352.04532"
   height="230.97243"
   inkscape:version="1.3 (0e150ed6c4, 2023-07-21)"
   xmlns:inkscape="http://www.inkscape.org/namespaces/inkscape"
   xmlns:sodipodi="http://sodipodi.sourceforge.net/DTD/sodipodi-0.dtd"
   xmlns="http://www.w3.org/2000/svg"
   xmlns:svg="http://www.w3.org/2000/svg"><defs
   id="defs77" /><sodipodi:namedview
   id="namedview77"
   pagecolor="#505050"
   bordercolor="#ffffff"
   borderopacity="1"
   inkscape:showpageshadow="0"
   inkscape:pageopacity="0"
   inkscape:pagecheckerboard="1"
   inkscape:deskcolor="#505050"
   inkscape:zoom="1.4033333"
   inkscape:cx="157.83848"
   inkscape:cy="197.38718"
   inkscape:window-width="1920"
   inkscape:window-height="1051"
   inkscape:window-x="-9"
   inkscape:window-y="-9"
   inkscape:window-maximized="1"
   inkscape:current-layer="g76" />&#10;<style
   type="text/css"
   id="style1">&#10;	.st0{fill:#37342F;stroke:#000000;stroke-width:1.4642;stroke-miterlimit:10;}&#10;	.st1{fill:#F4EFDF;stroke:#000000;stroke-width:1.4642;stroke-miterlimit:10;}&#10;	.st2{fill:#A09989;}&#10;	.st3{fill:#756F65;}&#10;	.st4{fill:#F4EFDF;}&#10;	.st5{fill:#3A0F0F;}&#10;	.st6{fill:#3F0E0E;}&#10;	.st7{fill:none;stroke:#000000;stroke-width:0.4881;stroke-linecap:round;stroke-linejoin:round;stroke-miterlimit:10;}&#10;	.st8{stroke:#000000;stroke-width:1.4642;stroke-miterlimit:10;}&#10;	.st9{fill:#262728;}&#10;	.st10{opacity:0.75;fill:#FFFFFF;}&#10;	.st11{fill:#AA9D7B;stroke:#000000;stroke-width:0.244;stroke-miterlimit:10;}&#10;	.st12{opacity:0.28;}&#10;	.st13{fill:#37342F;}&#10;	.st14{fill:#FFFFFF;stroke:#000000;stroke-width:1.4642;stroke-miterlimit:10;}&#10;	.st15{opacity:0.32;}&#10;	.st16{fill:#09568A;stroke:#000000;stroke-width:1.4642;stroke-miterlimit:10;}&#10;	.st17{fill:#000002;}&#10;	.st18{fill:#FAFFFF;}&#10;	.st19{fill:#030000;}&#10;	.st20{fill:#495D4A;stroke:#000000;stroke-width:1.9522;stroke-miterlimit:10;}&#10;	.st21{fill:#564D36;stroke:#000000;stroke-width:1.9522;stroke-miterlimit:10;}&#10;	.st22{fill:none;stroke:#000000;stroke-width:1.9522;stroke-miterlimit:10;}&#10;	.st23{fill:#817B66;stroke:#000000;stroke-width:1.9522;stroke-miterlimit:10;}&#10;	.st24{fill:#514E3F;stroke:#000000;stroke-width:1.4642;stroke-miterlimit:10;}&#10;	.st25{fill:#262314;stroke:#000000;stroke-width:1.4642;stroke-miterlimit:10;}&#10;	.st26{fill:#173A50;stroke:#000000;stroke-width:1.9522;stroke-miterlimit:10;}&#10;	.st27{opacity:0.86;fill:#7CA3B0;}&#10;</style>&#10;<g
   id="Layer_1"
   transform="translate(-123.98973,-46.4675)">&#10;</g>&#10;<g
   id="Layer_19"
   transform="translate(-123.98973,-46.4675)">&#10;</g>&#10;<g
   id="Layer_20"
   transform="translate(-123.98973,-46.4675)">&#10;</g>&#10;<g
   id="Tail"
   transform="translate(-123.98973,-46.4675)">&#10;</g>&#10;<g
   id="right_leg"
   transform="translate(-123.98973,-46.4675)">&#10;</g>&#10;<g
   id="Left_leg"
   transform="translate(-123.98973,-46.4675)">&#10;</g>&#10;<g
   id="body"
   transform="translate(-123.98973,-46.4675)">&#10;</g>&#10;<g
   id="belt"
   transform="translate(-123.98973,-46.4675)">&#10;</g>&#10;<g
   id="Face"
   transform="translate(-123.98973,-46.4675)">&#10;</g>&#10;<g
   id="Left_ear"
   transform="translate(-123.98973,-46.4675)">&#10;</g>&#10;<g
   id="Right_ear"
   transform="translate(-123.98973,-46.4675)">&#10;</g>&#10;<g
   id="White_mouth"
   transform="translate(-123.98973,-46.4675)">&#10;</g>&#10;<g
   id="Closed_mouth"
   transform="translate(-123.98973,-46.4675)">&#10;	<g
   id="Mouth_copy">&#10;	</g>&#10;</g>&#10;<g
   id="Mouth"
   transform="translate(-123.98973,-46.4675)">&#10;</g>&#10;<g
   id="wide_opened_mouth"
   transform="translate(-123.98973,-46.4675)">&#10;	<g
   id="Mouth_copy_2">&#10;	</g>&#10;</g>&#10;<g
   id="Nose"
   transform="translate(-123.98973,-46.4675)">&#10;</g>&#10;<g
   id="Nose_hair_2"
   transform="translate(-123.98973,-46.4675)">&#10;</g>&#10;<g
   id="Nose_hair_1"
   transform="translate(-123.98973,-46.4675)">&#10;</g>&#10;<g
   id="Eye_brow"
   transform="translate(-123.98973,-46.4675)">&#10;</g>&#10;<g
   id="white_part_of_eyes"
   transform="translate(-123.98973,-46.4675)">&#10;	<g
   id="Eyes_opened_copy">&#10;	</g>&#10;</g>&#10;<g
   id="eyes_2"
   transform="translate(-123.98973,-46.4675)">&#10;	<g
   id="Layer_29">&#10;	</g>&#10;</g>&#10;<g
   id="eyes_1"
   transform="translate(-123.98973,-46.4675)">&#10;	<g
   id="Layer_30">&#10;	</g>&#10;</g>&#10;<g
   id="Opened_eye_cover"
   transform="translate(-123.98973,-46.4675)">&#10;</g>&#10;<g
   id="Eyes_closed"
   transform="translate(-123.98973,-46.4675)">&#10;	<g
   id="Eyes_copy">&#10;	</g>&#10;</g>&#10;<g
   id="cap"
   transform="translate(-123.98973,-46.4675)">&#10;</g>&#10;<g
   id="Glasses"
   transform="translate(-123.98973,-46.4675)">&#10;	<g
   id="g77">&#10;		<g
   id="g76">&#10;			<g
   id="g369"
   transform="matrix(0.48827152,0,0,0.48827152,39.18703,-150.32596)"><g
     id="Face-9">&#10;	<path
   class="st8"
   d="m 541.1,874.3 c 0,0 22.9,2.4 40.5,-4.6 17.6,-7.1 52.9,-22.5 67.7,-26.8 14.9,-4.3 29.3,-5.3 40.8,-6.1 11.5,-0.8 21.2,-2.6 25.9,-4.3 4.7,-1.7 9.3,-1.9 9.3,-1.9 0,0 -7.9,-1.5 -11.7,-3.8 -3.8,-2.3 41.9,-1.2 73.8,-26 31.9,-24.8 -5.1,0 -5.1,0 0,0 36.3,-27.1 41.1,-33.2 4.9,-6.1 18.4,-23.1 30.1,-37.1 11.7,-14 14.3,-21 14.3,-21 0,0 -10.6,8.1 -19.4,16.9 -8.8,8.8 15.4,-14.1 17.8,-23.8 2.3,-9.8 6.8,-12.3 6.8,-12.3 l 7.1,-3.1 c 0,0 -32.7,-0.8 -47.3,0 -14.6,0.8 5.1,-4.6 5.6,-6.9 0.5,-2.3 -5.9,0.8 -17.6,-5.1 -11.7,-5.9 -6.5,-11.7 -16.3,-18.9 -9.9,-7.1 7,2.2 9.5,0.2 0,0 -3.2,-0.6 -3.2,-4.9 0,-4.3 -3.7,-4.5 -14.7,-7 -11.1,-2.6 -0.3,-1.9 0,-6.8 0,0 -9.9,4.5 -10.2,1.7 -0.3,-2.8 0.3,7.9 -3.1,7.7 0,0 13.4,-228.8 -230.9,-232.9 -244.3,-4.1 -251.4,203.2 -250.4,223.7 1,20.4 -10.6,11.4 -13.6,6.6 -3.1,-4.9 -15,0 -15,0 0,0 13.6,-2.8 12.9,4.3 -0.7,7.1 -7.1,13.3 -15,14.6 -7.8,1.4 5.4,1.4 5.4,1.4 0,0 -4.4,14.6 -26.2,16.6 -21.8,2 -18.4,0 -18.4,0 l 7.1,4.1 c 0,0 -24.5,2.7 -31.7,1.4 -7.1,-1.4 8.2,15.7 8.2,15.7 l 9.2,9.7 -14.3,-5 c 0,0 13,21.7 23.2,29.1 10.2,7.4 -12.1,-5.9 -12.1,-5.9 0,0 15.7,18.7 25.9,24.1 10.2,5.4 18.9,8.9 18.9,8.9 0,0 -25,-5.8 -33.2,-12.3 0,0 28,21.4 38.1,25.2 10.1,3.8 -9.2,0.9 -9.2,0.9 0,0 10.9,20.6 46.3,31.5 35.4,10.9 29.2,7.5 12.4,6.8 -16.8,-0.7 28.8,7.1 31.5,11.2 2.7,4.1 6.8,1.3 6.8,1.3 0,0 -10.3,3.8 -20,2 0,0 13.8,2.8 16.3,4.9 2.5,2.1 16.9,3.8 26.6,1.8 9.7,-2 -8.4,5.1 -7.5,4.9 0.9,-0.3 36.9,-4.2 61.9,1.9 25,6 45.7,19.1 58,23.3 12.3,4.2 25.2,8.8 47.1,7.3 z"
   id="path285"
   style="fill:#37342f;stroke:#000000;stroke-width:3;stroke-miterlimit:10" />&#10;</g><g
     id="White_mouth-3">&#10;	<path
   class="st1"
   d="m 541.8,742.1 c 0,0 3.3,9.9 4,11.2 0.7,1.4 4.1,-6.5 5.5,-5.6 1.4,0.9 2.4,12.5 2.4,12.5 0,0 5.4,-9.5 10.6,-9.1 0,0 6.5,8.1 20.4,9.1 14,0.9 25.2,11.5 35.4,22.9 8.2,9.1 16.5,9 16.5,9 0,0 -2.6,2.2 -12.5,1.6 -9.8,-0.6 11.3,5 14.7,3.1 3.4,-2 -6.5,11.7 -2.2,12 4.3,0.3 5.6,0 5.6,0 0,0 -1.8,3.2 0,6.3 1.8,3.1 3.2,5.6 3.7,7.3 0.4,1.7 2.2,7.3 5,7.8 2.8,0.5 -8.7,4.3 -8.7,4.3 0,0 13,1.3 13.3,1.3 0.3,0 -6.1,2.6 -8.2,2.8 -2.1,0.2 16.9,0 16.9,0 0,0 -23.5,5.9 -50,17.4 -26.6,11.5 -37,18.9 -68.2,18.4 h -8.3 c -31.1,0.5 -41.6,-6.9 -68.2,-18.4 -26.6,-11.5 -50,-17.4 -50,-17.4 0,0 18.9,0.3 16.9,0 -2,-0.3 -8.4,-2.8 -8.2,-2.8 0.2,0 13.3,-1.3 13.3,-1.3 0,0 -11.5,-3.8 -8.7,-4.3 2.8,-0.5 4.6,-6.1 5,-7.8 0.4,-1.7 1.9,-4.2 3.7,-7.3 1.8,-3.1 0,-6.3 0,-6.3 0,0 1.4,0.3 5.6,0 4.3,-0.3 -5.6,-14 -2.2,-12 3.4,2 24.5,-3.7 14.7,-3.1 -9.8,0.6 -12.5,-1.6 -12.5,-1.6 0,0 8.4,0.1 16.5,-9 10.2,-11.4 21.4,-22 35.4,-22.9 14,-0.9 20.4,-9.1 20.4,-9.1 5.1,-0.5 10.6,9.1 10.6,9.1 0,0 1,-11.7 2.4,-12.5 1.4,-0.8 4.8,7 5.5,5.6 0.6,-1.4 3.9,-11.2 3.9,-11.2"
   id="path294"
   style="fill:#f4efdf;stroke:#000000;stroke-width:3;stroke-miterlimit:10" />&#10;</g><g
     id="Closed_mouth-1">&#10;	<g
   id="Mouth_copy-7">&#10;		<path
   class="st27"
   d="m 510.4,830.1 c 0,0 11.5,11.4 30.7,10.1 19.1,-1.3 24.3,-7.9 30.2,-8.8 5.9,-0.9 38.2,3.4 33.1,13.7 -5.1,10.3 -25.6,30.2 -67.9,26 -42.2,-4.2 -52.1,-13.4 -55.2,-20.8 -3.1,-7.4 4.4,-17.8 29.1,-20.2 z"
   id="path295"
   style="fill:#f4efdf" />&#10;		<path
   d="m 577,848 c 0,0 -4.5,5.4 -34.6,6 -30.1,0.6 -33.3,-6.8 -32.8,-6.9 0.5,-0.2 18.2,4.1 25.5,3.6 7.3,-0.5 16.7,-0.7 20.3,-0.4 3.5,0.2 16,-2.7 21.6,-2.3 z"
   id="path296" />&#10;	</g>&#10;</g><g
     id="Mouth-4">&#10;	<path
   class="st27"
   d="m 510.4,830.1 c 0,0 11.5,11.4 30.7,10.1 19.1,-1.3 24.3,-7.9 30.2,-8.8 5.9,-0.9 38.2,3.4 33.1,13.7 -5.1,10.3 -25.6,30.2 -67.9,26 -42.2,-4.2 -52.1,-13.4 -55.2,-20.8 -3.1,-7.4 4.4,-17.8 29.1,-20.2 z"
   id="path297"
   style="fill:#f4efdf" />&#10;	<g
   id="g299">&#10;		<path
   class="st28"
   d="m 540.1,858.1 c -21.3,0 -29,-7.9 -31,-11.8 4,0.4 8,0.7 11.9,0.7 3.4,0 6.4,-0.2 9.2,-0.7 4,-0.7 7.9,-1 11.8,-1 5.3,0 9.7,0.6 13.3,1.2 1.8,0.3 5.5,0.5 9.4,0.5 v 0 c 1.9,0 6.1,-0.1 9.7,-0.5 -2.5,3.9 -10.3,11.6 -34.3,11.6 z"
   id="path298"
   style="fill:#3a0f0f" />&#10;		<path
   d="m 542,846.7 v 0 c 5.2,0 9.5,0.6 13,1.2 1.9,0.3 5.6,0.5 9.6,0.5 1.6,0 3.9,0 6.3,-0.2 -3.8,3.7 -12.3,8.3 -30.8,8.3 -17.1,0 -24.6,-5 -27.8,-8.6 2.9,0.2 5.8,0.4 8.7,0.4 3.5,0 6.6,-0.2 9.4,-0.7 4,-0.6 7.8,-0.9 11.6,-0.9 m 0,-3 c -3.6,0 -7.6,0.3 -12,1 -2.9,0.5 -5.9,0.7 -9,0.7 -4.5,0 -9.2,-0.4 -13.9,-0.9 v 0 c -0.5,0 2.8,15 32.9,15 33.9,0 36.8,-15 36.8,-15 -2.9,0.7 -7.8,0.9 -12.2,0.9 -3.9,0 -7.5,-0.2 -9.1,-0.5 -3.7,-0.6 -8.2,-1.2 -13.5,-1.2 z"
   id="path299" />&#10;	</g>&#10;</g><g
     id="wide_opened_mouth-5">&#10;	<g
   id="Mouth_copy_2-9">&#10;		<path
   class="st27"
   d="m 510.4,830.1 c 0,0 11.5,11.4 30.7,10.1 19.1,-1.3 24.3,-7.9 30.2,-8.8 5.9,-0.9 38.2,3.4 33.1,13.7 -5.1,10.3 -25.6,30.2 -67.9,26 -42.2,-4.2 -52.1,-13.4 -55.2,-20.8 -3.1,-7.4 4.4,-17.8 29.1,-20.2 z"
   id="path300"
   style="fill:#f4efdf" />&#10;		<g
   id="g302">&#10;			<path
   class="st29"
   d="m 539.2,863.3 c -13.4,0 -24.1,-3.7 -30.9,-10.6 -4.1,-4.2 -5.8,-8.6 -6.4,-10.9 4.9,0.6 9.7,1.1 14.6,1.1 4.2,0 8,-0.4 11.4,-1.2 5,-1.2 9.7,-1.7 14.4,-1.7 6.2,0 11.4,1 15.6,2 2.1,0.5 6.2,0.8 10.8,0.8 v 0 c 2.6,0 8.5,-0.1 13.1,-1 -2,6 -10.1,21.4 -42.2,21.6 0,-0.1 -0.4,-0.1 -0.4,-0.1 z"
   id="path301"
   style="fill:#3f0e0e" />&#10;			<path
   d="m 542.4,838.5 v 3 c 6.1,0 11.1,1 15.3,1.9 2.2,0.5 6.4,0.8 11.1,0.8 2.2,0 6.6,-0.1 10.7,-0.6 -3.1,6.6 -12.5,18.1 -39.8,18.2 h -0.4 c -13,0 -23.3,-3.5 -29.8,-10.1 -2.9,-2.9 -4.5,-5.9 -5.4,-8.1 4.2,0.5 8.3,0.8 12.4,0.8 4.4,0 8.2,-0.4 11.8,-1.2 4.8,-1.1 9.5,-1.7 14.1,-1.7 v -3 m 0,0 c -4.4,0 -9.3,0.5 -14.8,1.8 -3.6,0.8 -7.3,1.2 -11.1,1.2 -5.3,0 -10.8,-0.6 -16.3,-1.3 v 0 c -0.6,0 3.3,24.7 39,24.7 0.1,0 0.3,0 0.4,0 40.7,-0.2 44.2,-25.2 44.2,-25.2 -3.6,1.2 -9.7,1.6 -15.2,1.6 -4.5,0 -8.5,-0.3 -10.4,-0.7 -4.3,-1.1 -9.5,-2.1 -15.8,-2.1 z"
   id="path302" />&#10;		</g>&#10;	</g>&#10;</g><g
     id="Nose-2">&#10;	<g
   id="g309">&#10;		<g
   id="g305">&#10;			<path
   class="st30"
   d="m 485.8,813.6 c 0,0 2.1,5.9 8.5,9.1"
   id="path303"
   style="fill:none;stroke:#000000;stroke-linecap:round;stroke-linejoin:round;stroke-miterlimit:10" />&#10;			<path
   class="st30"
   d="m 490.1,823.4 c 0.8,0.6 3.5,4.4 10.6,6.7"
   id="path304"
   style="fill:none;stroke:#000000;stroke-linecap:round;stroke-linejoin:round;stroke-miterlimit:10" />&#10;			<path
   class="st30"
   d="m 593.3,814.1 c 0,0 -4.8,5.9 -7.1,7.7 -2.4,1.9 1.8,0 1.8,0 0,0 -3.4,4.5 -10.6,8.7"
   id="path305"
   style="fill:none;stroke:#000000;stroke-linecap:round;stroke-linejoin:round;stroke-miterlimit:10" />&#10;		</g>&#10;		<g
   id="g308">&#10;			<path
   class="st31"
   d="m 500.7,804.9 c 0,0 -1.3,-14.3 9.7,-18.9 11,-4.6 23.2,-4.9 31.1,-5.1 7.9,-0.3 23.5,0.8 32.4,6.1 8.9,5.3 7.7,16.1 7.4,17.9 -0.3,1.8 -5.5,31.9 -40.3,31.9 -34.7,0 -40.3,-31.9 -40.3,-31.9 z"
   id="path306"
   style="stroke:#000000;stroke-width:3;stroke-miterlimit:10" />&#10;			<path
   class="st32"
   d="m 505.7,803.8 c 0,0 -5.9,-18.9 35,-19.1 40.9,-0.2 37.8,15.6 34.2,15.8 -3,0.2 -7.1,3.6 -12.5,3.3 -4.1,-0.2 -10.5,3.8 -8.2,14 2.3,10.2 6.1,7.1 6.1,7.9 0,0.8 -5.1,6.1 -17.4,5.6 -12.3,-0.5 -17.1,-2.6 -16.9,-4.6 0.3,-2 5.1,0 5.6,-8.2 0.5,-8.2 -3.3,-13.5 -9.2,-14.6 -5.9,-1 -6.4,0.3 -8.2,-1.8 -1.8,-2.1 -8,-0.3 -8.5,1.7 z"
   id="path307"
   style="fill:#262728" />&#10;			<path
   class="st33"
   d="m 516.5,797.5 c 0,0 6.9,-3.4 22,-3.7 15.1,-0.3 27.3,2.2 27.3,3.1 0,0.9 -7,2.7 -24.6,2.5 -17.6,-0.2 -23.7,0.4 -24.7,-1.9 z"
   id="path308"
   style="opacity:0.75;fill:#ffffff;enable-background:new" />&#10;		</g>&#10;	</g>&#10;</g><g
     id="Nose_hair_2-9">&#10;	<g
   id="g314">&#10;		<path
   class="st34"
   d="m 419.5,801.6 c -24.9,-3 -63.9,-9.3 -88.9,-13 -25.1,-3.9 -64.1,-9.4 -88.8,-14 24.9,3 63.9,9.3 88.9,13 25.1,3.9 64.1,9.4 88.8,14 z"
   id="path309"
   style="fill:#aa9d7b;stroke:#000000;stroke-width:0.5;stroke-miterlimit:10" />&#10;		<path
   class="st34"
   d="m 382,809.1 c -29.1,-0.8 -74.8,-3.7 -104.2,-5.2 -29.4,-1.7 -75.1,-3.8 -104.1,-6.2 29.1,0.8 74.8,3.7 104.2,5.2 29.4,1.7 75,3.8 104.1,6.2 z"
   id="path310"
   style="fill:#aa9d7b;stroke:#000000;stroke-width:0.5;stroke-miterlimit:10" />&#10;		<path
   class="st34"
   d="m 210.4,781.1 c 11.3,0.1 28.4,2.1 39.8,3 11.5,1.1 28.5,2.1 39.7,4 -11.3,-0.2 -28.4,-2.1 -39.8,-3 -11.4,-1.1 -28.5,-2.1 -39.7,-4 z"
   id="path311"
   style="fill:#aa9d7b;stroke:#000000;stroke-width:0.5;stroke-miterlimit:10" />&#10;		<path
   class="st34"
   d="m 342.9,755 c 17.6,10.6 35.2,21.3 54.1,29.5 2.3,1 7.1,3 9.5,3.9 3.1,1.5 6.3,2.7 9.5,4 l -4.9,-1.5 -2.5,-0.8 c -10.4,-3.7 -20.7,-8.7 -30.5,-13.7 -12.2,-6.4 -24.4,-13 -35.2,-21.4 z"
   id="path312"
   style="fill:#aa9d7b;stroke:#000000;stroke-width:0.5;stroke-miterlimit:10" />&#10;		<path
   class="st34"
   d="m 447.1,803.4 c -2.4,-1.9 -4.8,-3.7 -7.3,-5.5 -6.1,-4.5 -12.9,-8.1 -19.9,-11.1 -1.3,-0.7 -2.7,-1.4 -4.1,-2.2 6,1.4 11.5,4.5 16.8,7.4 5.3,3.3 10.8,6.4 14.5,11.4 z"
   id="path313"
   style="fill:#aa9d7b;stroke:#000000;stroke-width:0.5;stroke-miterlimit:10" />&#10;		<path
   class="st34"
   d="m 436.3,819.2 c -2.2,0.6 -4.5,1.1 -6.7,1.6 -4.3,0.7 -16,2.7 -20.4,3.4 -7.9,1.2 -19.4,3.6 -27.3,4.1 7.5,-2.1 19.3,-3.7 27.1,-5.1 4.5,-0.8 16.1,-2.7 20.4,-3.5 2.4,0 4.6,-0.3 6.9,-0.5 z"
   id="path314"
   style="fill:#aa9d7b;stroke:#000000;stroke-width:0.5;stroke-miterlimit:10" />&#10;	</g>&#10;</g><g
     id="Nose_hair_1-1">&#10;	<g
   id="g319">&#10;		<path
   class="st34"
   d="m 628.1,808.4 c 0.6,-1 1.6,-1.6 2.5,-2.3 2.8,-2 5.8,-3.7 8.8,-5.3 8,-4.1 16.6,-7.7 24.7,-11.4 20.5,-9.7 39.5,-22.3 58.7,-34.3 -18.1,13.7 -37.9,25.2 -58.3,35.2 -8.1,3.7 -16.8,7.4 -24.7,11.4 -3.1,1.4 -6.1,2.9 -9.1,4.7 -0.9,0.5 -1.9,1.1 -2.6,2 z"
   id="path315"
   style="fill:#aa9d7b;stroke:#000000;stroke-width:0.5;stroke-miterlimit:10" />&#10;		<path
   class="st34"
   d="m 658.5,797.8 c 27.1,-4.1 54.3,-7.8 81.4,-12.1 20.4,-3 40.9,-5.1 61,-9.1 6.7,-1.2 13.4,-2.7 19.9,-5 -12.8,5.1 -26.5,7.5 -40,9.5 -13.6,2 -27.2,3.7 -40.8,5.6 -27.1,4.1 -54.2,8.7 -81.5,11.1 z"
   id="path316"
   style="fill:#aa9d7b;stroke:#000000;stroke-width:0.5;stroke-miterlimit:10" />&#10;		<path
   class="st34"
   d="m 697.5,808.4 c 40.5,-3.3 82.8,-4.5 123.3,-6 22.6,-1.2 45,-5.4 67.7,-5.4 2.1,0.1 4.1,0.1 6.1,0.8 -2,-0.6 -4.1,-0.5 -6.1,-0.5 -22.6,1.2 -45,4.8 -67.6,6.2 -8.2,0.6 -16.5,0.5 -24.7,0.8 -31.9,0.9 -66.7,3.2 -98.7,4.1 z"
   id="path317"
   style="fill:#aa9d7b;stroke:#000000;stroke-width:0.5;stroke-miterlimit:10" />&#10;		<path
   class="st34"
   d="m 640.5,819.2 c 1.8,-0.2 3.5,-0.4 5.2,-0.6 l 5.2,-0.1 c 3.5,-0.1 7,-0.3 10.5,-0.5 4.3,-0.3 8.7,-0.7 13,-1.3 1.5,-0.3 3.7,-0.6 5.2,-0.8 0.9,-0.1 1.7,-0.4 2.6,-0.5 -0.8,0.3 -1.6,0.7 -2.4,1 -0.8,0.3 -1.7,0.6 -2.5,0.8 l -2.6,0.5 c -4.3,0.6 -8.8,1 -13.1,1.3 -3.5,0.2 -7,0.4 -10.5,0.5 l -5.3,0.1 c -1.8,-0.1 -3.6,-0.2 -5.3,-0.4 z"
   id="path318"
   style="fill:#aa9d7b;stroke:#000000;stroke-width:0.5;stroke-miterlimit:10" />&#10;		<path
   class="st34"
   d="m 694.5,828.4 c -1.9,0 -3.9,-0.2 -5.8,-0.3 l -5.7,-0.8 c -3.8,-0.6 -7.6,-1.2 -11.4,-1.9 -7.5,-1.6 -15.6,-2.3 -22.2,-6.2 11,3.4 22.4,5.3 33.8,7.1 3.5,0.5 7.8,1.2 11.3,2.1 z"
   id="path319"
   style="fill:#aa9d7b;stroke:#000000;stroke-width:0.5;stroke-miterlimit:10" />&#10;	</g>&#10;</g><g
     id="Eye_brow-3">&#10;	<g
   id="g324">&#10;		<g
   id="g321">&#10;			<path
   class="st1"
   d="m 585.2,713.9 c 0,0 -17.8,15.7 -19.3,8.9 -1.5,-6.9 -0.5,9.3 -4.6,1.7 -4.1,-7.6 -14.3,-26 -6.6,-52.2 11.6,-39.5 8.1,-15.2 8.1,-15.2 l -0.2,8.7 c 0,0 3.8,-12.5 19.5,-20.8 1,-0.6 -6.9,18.8 -6.5,17.6 1.3,-4 5.9,-14.9 21.8,-23.7 17.4,-9.6 102.4,-18 136.4,-2.6 34.4,15.7 39.4,25 50,30.6 10.6,5.6 29.8,16.1 29.8,16.1 l -5.6,1.3 c 0,0 21.2,9.5 38.5,5.6 17.3,-3.9 38.5,-8.1 42.9,-7.7 4.4,0.4 -5.8,8.7 -10.9,10.6 -5.1,2 4.6,2 4.6,2 0,0 -7.1,11.8 -22.4,16.2 -15.3,4.4 2.5,3.3 4.6,2.9 2,-0.4 -7.6,18.2 -28.5,29.4 -20.8,11.3 3.6,0 3.6,0 0,0 -29,24.5 -45.3,27.9 0,0 3.1,-5.4 6.6,-14.7 3.6,-9.3 -8.6,4.6 -3.6,-6.8 5.1,-11.4 11.2,-16.7 5.6,-17.2 -5.6,-0.5 -4.1,-1.5 7.1,-5.9 11.2,-4.4 -12.7,4.4 -35.1,-9.3 -22.4,-13.7 -24.9,-13.2 -26.4,-14.7 -1.5,-1.5 12.9,2.4 12.9,2.4 0,0 -20.6,-7.8 -25.7,-10.8 -5.1,-2.9 -16.3,-6.9 -37.1,-4.9 -20.8,2 -26.9,6.9 -52.9,1 -25.9,-5.9 -34.1,6 -34.1,6 0,0 2,-5.5 6.6,-8.4 4.9,-2.9 -22.5,17.6 -33.8,26 z"
   id="path320"
   style="fill:#f4efdf;stroke:#000000;stroke-width:3;stroke-miterlimit:10" />&#10;			<path
   class="st2"
   d="m 848.3,722.5 c 0,0 -18.4,6.6 -31.3,3.9 0,0 11.9,-6.6 15.7,-8.6 0,0 -13.7,4.7 -24.6,5.8 l -6.1,1.6 10.7,0.7 -11.3,6.2 4.6,1.3 -8.8,19.5 c 0,0 -1.3,1.3 2.5,0 3.8,-1.3 1.5,11 -2.7,15 -4.2,4 2.1,2.4 4.9,1.1 2.8,-1.3 28.2,-17.4 31.5,-20 3.3,-2.6 7.2,-5.8 7.2,-5.8 l -11.9,4.9 21.1,-14.3 -15,5.4 c 0,0 19.3,-8.5 24.4,-15.7 4.5,-6.4 6.4,-9.8 6.4,-9.8 0,0 -10.7,13.9 -22.2,15.6 -0.2,0.2 4.2,-4.2 4.9,-6.8 z"
   id="path321"
   style="opacity:0.28;enable-background:new" />&#10;		</g>&#10;		<g
   id="g323">&#10;			<path
   class="st1"
   d="m 498.6,714.4 c 0,0 17.9,16.4 19.4,9.2 1.5,-7.1 0.5,9.7 4.6,1.8 4.1,-7.9 17.9,-28.4 6.6,-54.4 C 518,645 521,655.2 521,655.2 l -1,9.5 c 0,0 -3.6,-19.8 -21.4,-28.9 -17.9,-9.2 -113.4,-28.6 -146,-9.7 -32.6,18.9 -47.5,40.9 -58.2,46.8 -10.7,5.8 -29.1,8.5 -29.1,8.5 h 9.2 c 0,0 -20.9,12.1 -38.3,8 -17.4,-4.1 -38.7,-8.4 -43.1,-8 -4.4,0.4 5.8,9.1 10.9,11.1 5.1,2 -4.6,2 -4.6,2 0,0 7.1,12.3 22.5,16.9 15.4,4.6 -2.6,3.5 -4.6,3 -2,-0.5 7.7,18.9 28.6,30.7 20.9,11.8 -3.6,0 -3.6,0 0,0 29.1,25.5 45.4,29.1 0,0 -3.1,-5.6 -6.6,-15.3 -3.6,-9.7 8.7,4.8 3.6,-7 -5.1,-11.8 -11.2,-17.5 -5.6,-18 5.6,-0.5 4.1,-1.5 -7.1,-6.1 -11.2,-4.6 12.8,4.6 35.2,-9.7 22.5,-14.3 25,-13.8 26.6,-15.3 1.6,-1.5 -13,2.6 -13,2.6 0,0 20.7,-8.2 25.8,-11.2 5.1,-3 16.3,-7.1 37.3,-5.1 20.9,2 27.1,7.1 53.1,1 26,-6.1 34.2,6.2 34.2,6.2 0,0 -2,-5.7 -6.6,-8.8 -4.8,-3.1 22.7,18.2 34,26.9 z"
   id="path322"
   style="fill:#f4efdf;stroke:#000000;stroke-width:3;stroke-miterlimit:10" />&#10;			<path
   class="st2"
   d="m 221.9,711.4 c 0,0 11.2,8.2 30.6,12.3 19.4,4.1 27.9,6.5 28.5,8.1 0.6,1.6 -5.3,1.7 -4.1,4.6 1.3,3 7.2,13.4 8.7,18.2 1.5,4.8 -4.7,0.7 -4.7,0.7 l 6.7,18.9 c 0,0 -30.2,-14.9 -42.2,-26.3 -12,-11.4 0.3,-2.8 0.3,-2.8 0,0 -26.7,-18.9 -28.6,-30.7 z"
   id="path323"
   style="opacity:0.28;enable-background:new" />&#10;		</g>&#10;	</g>&#10;</g><g
     id="white_part_of_eyes-6">&#10;	<g
   id="Eyes_opened_copy-9">&#10;		<g
   id="g325">&#10;			<path
   class="st35"
   d="m 353.7,694.1 c 0,0 18.5,-5.8 50,0 31.5,5.8 51.3,-11.4 65.3,5.4 14,16.7 14,23.1 36.5,31 22.5,7.9 6.1,27.3 -10.1,27.3 -16.1,0 -39.1,24 -67.8,16.8 -28.7,-7.3 -119.8,-57.3 -73.9,-80.5 z"
   id="path324"
   style="fill:#37342f" />&#10;			<path
   class="st35"
   d="m 724.3,694.1 c 0,0 -18.5,-5.8 -50,0 -31.5,5.8 -51.3,-11.4 -65.3,5.4 -14,16.7 -14,23.1 -36.5,31 -22.5,7.9 -6.1,27.3 10.1,27.3 16.2,0 39.1,24 67.8,16.8 28.7,-7.3 119.8,-57.3 73.9,-80.5 z"
   id="path325"
   style="fill:#37342f" />&#10;		</g>&#10;		<g
   id="g327">&#10;			<path
   class="st7"
   d="m 702.1,687.2 c 0,0 4.1,35.2 -13.8,52.1 -13.8,13 -28.3,21.2 -55.9,20.9 -27.6,-0.3 -39.1,-15.2 -36.4,-39.1 0.1,0 49.2,-26 106.1,-33.9 z"
   id="path326"
   style="fill:#ffffff;stroke:#000000;stroke-width:3;stroke-miterlimit:10" />&#10;			<path
   class="st36"
   d="m 698,724.5 c 0,0 -0.2,-17.2 -3.5,-19.7 -3.3,-2.6 -37.5,16.3 -45.2,22.5 -7.7,6.1 -24.8,20.9 -32.1,30.6 0,0 -15,-5.6 -17.9,-14.7 -2.9,-9.1 -6.7,-20 -3.2,-22.1 3.4,-2 30.8,-14.2 58.6,-22.3 27.9,-8.1 47.4,-11.7 47.4,-11.7 0,0 5.5,22.7 -4.1,37.4 z"
   id="path327"
   style="opacity:0.32;enable-background:new" />&#10;		</g>&#10;		<g
   id="g329">&#10;			<path
   class="st7"
   d="m 374.8,690.3 c 0,0 -2.2,28.9 14.8,47.5 11.9,13 32.5,25 61.7,23.7 23.5,-1 32,-19.1 30.2,-35.2 0.1,-0.1 -46.8,-28.1 -106.7,-36 z"
   id="path328"
   style="fill:#ffffff;stroke:#000000;stroke-width:3;stroke-miterlimit:10" />&#10;			<path
   class="st36"
   d="m 384.4,729.2 c 0,0 -1.6,-16.6 3.1,-20.1 4.6,-3.6 48.9,14.2 64.9,27.3 16,13.1 19.4,17.9 19.4,17.9 0,0 11,-15 10.6,-23.7 -0.4,-8.7 -6.5,-10.5 -32,-20 -23.6,-8.7 -71.7,-19.7 -74.9,-20.7 -3.2,-1 2.9,31.2 8.9,39.3 z"
   id="path329"
   style="opacity:0.32;enable-background:new" />&#10;		</g>&#10;	</g>&#10;</g><g
     id="eyes_2-0">&#10;	<g
   id="Layer_29-2">&#10;		<g
   id="g332">&#10;			<path
   class="st37"
   d="m 649.3,753.2 c 0,0 18.9,-5.8 23.5,-21.1 4.6,-15.3 1.2,-27 -5,-36.8 -6.2,-9.8 -65,-14.8 -61.4,24.6 0,0 3.1,24.9 18,31.6 13,5.8 24.9,1.7 24.9,1.7 z"
   id="path330"
   style="fill:#09568a;stroke:#000000;stroke-width:3;stroke-miterlimit:10" />&#10;			<path
   class="st38"
   d="m 647.7,739.9 c 0,0 10.1,-4.7 12.4,-16.2 2.1,-10.1 -0.1,-17.7 -5.5,-20.9 -5.4,-3.2 -39.9,-8.1 -37.5,15.5 0,0 2,11.8 6.5,16.8 5.4,5.7 15.1,8 24.1,4.8 z"
   id="path331"
   style="fill:#000002" />&#10;			<path
   class="st39"
   d="m 624.4,718.4 c 0,0 13.4,-1.5 13.4,9.2 0,10.7 -11.6,8.7 -14.1,7.5 -2.5,-1.3 -11,-11.3 0.7,-16.7 z"
   id="path332"
   style="fill:#faffff" />&#10;		</g>&#10;	</g>&#10;</g><g
     id="eyes_1-9">&#10;	<g
   id="Layer_30-1">&#10;		<g
   id="g335">&#10;			<path
   class="st37"
   d="m 432.7,748.6 c 0,0 -20.2,-3.8 -26.1,-17.6 -5.9,-13.8 -3.3,-25.5 2.6,-34.8 6.7,-10.7 60,-23.2 64.1,25.9 0,0 0.5,15.6 -14.6,23 -13.2,6.3 -26,3.5 -26,3.5 z"
   id="path333"
   style="fill:#09568a;stroke:#000000;stroke-width:3;stroke-miterlimit:10" />&#10;			<path
   class="st38"
   d="m 429.8,735.6 c 0,0 -10.6,-2.8 -12.7,-13.6 -2.2,-11.5 -1.5,-14.3 5.5,-22 6.9,-7.6 33.4,-9 37,13.9 0,0 0.7,11.6 -3.6,16.6 -5.2,5.8 -16.6,7.3 -26.2,5.1 z"
   id="path334"
   style="fill:#000002" />&#10;			<path
   class="st39"
   d="m 429.5,709.5 c 0,0 -13.3,-0.9 -12.3,12.1 0.8,10.7 11.8,9.2 14.6,8.1 6.7,-2.6 10.4,-15.1 -2.3,-20.2 z"
   id="path335"
   style="fill:#faffff" />&#10;		</g>&#10;	</g>&#10;</g><g
     id="Opened_eye_cover-1">&#10;	<path
   class="st35"
   d="m 371.9,677 c 0,0 40.9,8.7 68.4,4.4 27.5,-4.3 51.4,3.3 55,13.6 3.6,10.2 13.7,44 -16.9,27.5 -30.6,-16.5 -50,-17.3 -72.9,-23.7 -23,-6.4 -52.3,-20.9 -33.6,-21.8 z"
   id="path336"
   style="fill:#37342f" />&#10;	<path
   class="st35"
   d="m 716.5,677 c 0,0 -40.9,8.7 -68.4,4.4 -27.5,-4.3 -51.4,3.3 -55,13.6 -3.6,10.2 -13.7,44 16.9,27.5 30.6,-16.5 50,-17.3 72.9,-23.7 23,-6.4 52.3,-20.9 33.6,-21.8 z"
   id="path337"
   style="fill:#37342f" />&#10;	<path
   class="st40"
   d="m 592.8,725.8 c 2,-3.1 4.1,-4.4 3.9,-2.4 -0.2,2 -4.1,14 2.8,21.5 0,0 -2.3,-9.5 7.9,-20.2 7,-7.5 15.5,-7.6 26.1,-10.3 10.6,-2.7 39.2,-13.7 50.4,-17.5 11.2,-3.8 42.1,-14.2 51,-15.5 8.9,-1.3 17,-4.4 17,-4.4 0,0 -26.6,-1.2 -65.7,10.6 -39.1,11.7 -37.7,11 -37.7,11 0,0 13.7,-5.5 19.3,-11.3 0,0 -22,5.8 -28.6,9.9 -6.6,4.1 -13,4.2 -28,12 -6.1,3.2 -28.3,12.9 -36.3,31.9 0,0 2.2,-2.7 10,-7.8 z"
   id="path338"
   style="fill:#030000" />&#10;	<g
   id="g343">&#10;		<g
   id="g340">&#10;			<path
   class="st1"
   d="m 585.2,713.9 c 0,0 -17.8,15.7 -19.3,8.9 -1.5,-6.9 -0.5,9.3 -4.6,1.7 -4.1,-7.6 -14.3,-26 -6.6,-52.2 11.6,-39.5 8.1,-15.2 8.1,-15.2 l -0.2,8.7 c 0,0 3.8,-12.5 19.5,-20.8 1,-0.6 -6.9,18.8 -6.5,17.6 1.3,-4 5.9,-14.9 21.8,-23.7 17.4,-9.6 102.4,-18 136.4,-2.6 34.4,15.7 39.4,25 50,30.6 10.6,5.6 29.8,16.1 29.8,16.1 l -5.6,1.3 c 0,0 21.2,9.5 38.5,5.6 17.3,-3.9 38.5,-8.1 42.9,-7.7 4.4,0.4 -5.8,8.7 -10.9,10.6 -5.1,2 4.6,2 4.6,2 0,0 -7.1,11.8 -22.4,16.2 -15.3,4.4 2.5,3.3 4.6,2.9 2,-0.4 -7.6,18.2 -28.5,29.4 -20.8,11.3 3.6,0 3.6,0 0,0 -29,24.5 -45.3,27.9 0,0 3.1,-5.4 6.6,-14.7 3.6,-9.3 -8.6,4.6 -3.6,-6.8 5.1,-11.4 11.2,-16.7 5.6,-17.2 -5.6,-0.5 -4.1,-1.5 7.1,-5.9 11.2,-4.4 -12.7,4.4 -35.1,-9.3 -22.4,-13.7 -24.9,-13.2 -26.4,-14.7 -1.5,-1.5 12.9,2.4 12.9,2.4 0,0 -20.6,-7.8 -25.7,-10.8 -5.1,-2.9 -16.3,-6.9 -37.1,-4.9 -20.8,2 -26.9,6.9 -52.9,1 -25.9,-5.9 -34.1,6 -34.1,6 0,0 2,-5.5 6.6,-8.4 4.9,-2.9 -22.5,17.6 -33.8,26 z"
   id="path339"
   style="fill:#f4efdf;stroke:#000000;stroke-width:3;stroke-miterlimit:10" />&#10;			<path
   class="st2"
   d="m 848.3,722.5 c 0,0 -18.4,6.6 -31.3,3.9 0,0 11.9,-6.6 15.7,-8.6 0,0 -13.7,4.7 -24.6,5.8 l -6.1,1.6 10.7,0.7 -11.3,6.2 4.6,1.3 -8.8,19.5 c 0,0 -1.3,1.3 2.5,0 3.8,-1.3 1.5,11 -2.7,15 -4.2,4 2.1,2.4 4.9,1.1 2.8,-1.3 28.2,-17.4 31.5,-20 3.3,-2.6 7.2,-5.8 7.2,-5.8 l -11.9,4.9 21.1,-14.3 -15,5.4 c 0,0 19.3,-8.5 24.4,-15.7 4.5,-6.4 6.4,-9.8 6.4,-9.8 0,0 -10.7,13.9 -22.2,15.6 -0.2,0.2 4.2,-4.2 4.9,-6.8 z"
   id="path340"
   style="opacity:0.28;enable-background:new" />&#10;		</g>&#10;		<g
   id="g342">&#10;			<path
   class="st1"
   d="m 498.6,714.4 c 0,0 17.9,16.4 19.4,9.2 1.5,-7.1 0.5,9.7 4.6,1.8 4.1,-7.9 17.9,-28.4 6.6,-54.4 C 518,645 521,655.2 521,655.2 l -1,9.5 c 0,0 -3.6,-19.8 -21.4,-28.9 -17.9,-9.2 -113.4,-28.6 -146,-9.7 -32.6,18.9 -47.5,40.9 -58.2,46.8 -10.7,5.8 -29.1,8.5 -29.1,8.5 h 9.2 c 0,0 -20.9,12.1 -38.3,8 -17.4,-4.1 -38.7,-8.4 -43.1,-8 -4.4,0.4 5.8,9.1 10.9,11.1 5.1,2 -4.6,2 -4.6,2 0,0 7.1,12.3 22.5,16.9 15.4,4.6 -2.6,3.5 -4.6,3 -2,-0.5 7.7,18.9 28.6,30.7 20.9,11.8 -3.6,0 -3.6,0 0,0 29.1,25.5 45.4,29.1 0,0 -3.1,-5.6 -6.6,-15.3 -3.6,-9.7 8.7,4.8 3.6,-7 -5.1,-11.8 -11.2,-17.5 -5.6,-18 5.6,-0.5 4.1,-1.5 -7.1,-6.1 -11.2,-4.6 12.8,4.6 35.2,-9.7 22.5,-14.3 25,-13.8 26.6,-15.3 1.6,-1.5 -13,2.6 -13,2.6 0,0 20.7,-8.2 25.8,-11.2 5.1,-3 16.3,-7.1 37.3,-5.1 20.9,2 27.1,7.1 53.1,1 26,-6.1 34.2,6.2 34.2,6.2 0,0 -2,-5.7 -6.6,-8.8 -4.8,-3.1 22.7,18.2 34,26.9 z"
   id="path341"
   style="fill:#f4efdf;stroke:#000000;stroke-width:3;stroke-miterlimit:10" />&#10;			<path
   class="st2"
   d="m 221.9,711.4 c 0,0 11.2,8.2 30.6,12.3 19.4,4.1 27.9,6.5 28.5,8.1 0.6,1.6 -5.3,1.7 -4.1,4.6 1.3,3 7.2,13.4 8.7,18.2 1.5,4.8 -4.7,0.7 -4.7,0.7 l 6.7,18.9 c 0,0 -30.2,-14.9 -42.2,-26.3 -12,-11.4 0.3,-2.8 0.3,-2.8 0,0 -26.7,-18.9 -28.6,-30.7 z"
   id="path342"
   style="opacity:0.28;enable-background:new" />&#10;		</g>&#10;	</g>&#10;	<path
   class="st40"
   d="m 328.3,682.3 c 0,0 30.4,-4.6 69.4,7.1 39,11.7 50,16.6 50,16.6 0,0 -24.3,-11 -29.9,-16.9 0,0 16.1,4.6 22.7,8.7 6.6,4.1 18.9,11 25.3,13.5 6.4,2.6 29.3,14.8 37.4,30.5 0,0 -3.4,-5.1 -11.2,-10.2 0,0 5.4,18.2 4.3,23 0,0 -3.9,-6.3 -4.4,-8.9 -0.5,-2.6 -4.4,-14.1 -6.5,-17.2 -2,-3.1 -4.1,-4.4 -3.9,-2.4 0.2,2 4.1,14 -2.8,21.5 0,0 2.3,-9.5 -7.9,-20.2 -7,-7.5 -14.8,-9.8 -25.5,-12.5 -10.6,-2.7 -39.8,-11.5 -51.1,-15.3 -11.3,-3.8 -43.4,-12.5 -52.3,-13.8 -8.7,-1.2 -13.6,-3.5 -13.6,-3.5 z"
   id="path343"
   style="fill:#030000" />&#10;</g><g
     id="cap-8">&#10;	<g
   id="g358">&#10;		<path
   class="st3"
   d="m 296.9,645.8 c 0,0 -11.6,-133.3 112.6,-203.7 124.2,-70.4 240.7,-25.3 285.8,8.4 45.1,33.7 95.6,88.6 87.9,189.4 0,0 -18.9,-9.4 -72.4,-8.7 -56.7,0.7 -79.2,1.5 -109.5,-2.3 -30.3,-3.8 -31.1,-20.7 -123.5,-5.4 -92.4,15.3 -100.9,-4.6 -170.1,22.2 h -10.8 z"
   id="path354"
   style="fill:#003366;stroke:#000000;stroke-width:4;stroke-miterlimit:10" />&#10;		<g
   id="g357">&#10;			<path
   class="st43"
   d="m 302.2,587.7 c 0,0 74.5,-37.7 193.2,-33.1 118.7,4.6 206.2,-1.1 286.9,36.2 0,0 13.2,37.8 1,49.1 0,0 -31.3,-14 -111.4,-12.9 -80.1,1.1 -116.4,-10.3 -131.6,-9.8 -15.1,0.5 -161.5,8.6 -189.6,15.9 -28.1,7.3 -54.4,22.2 -54.1,6.8 0.4,-15.4 -2.9,-48.4 5.6,-52.2 z"
   id="path355"
   style="fill:#564d36;stroke:#000000;stroke-width:4;stroke-miterlimit:10" />&#10;			<path
   class="st44"
   d="m 788.2,627.8 c 0,0 -36.3,-21.7 -116.3,-25.2 -95.1,-4.1 -153,-7.8 -166.5,-7.3 -72.8,2.7 -203.1,22.9 -208.7,38.4"
   id="path356"
   style="fill:none;stroke:#000000;stroke-width:4;stroke-miterlimit:10" />&#10;			<path
   class="st44"
   d="m 296.3,611.6 c 0,0 76.3,-42.4 197.9,-37.2 121.6,5.2 211.2,-1.2 293.9,40.7"
   id="path357"
   style="fill:none;stroke:#000000;stroke-width:4;stroke-miterlimit:10" />&#10;		</g>&#10;	</g>&#10;</g><g
     id="Glasses-5">&#10;	<g
   id="g367">&#10;		<g
   id="g366">&#10;			<path
   class="st45"
   d="m 542.6,534.7 c 0,0 -8.9,-1.4 -14.3,-13.6 -5.4,-12.3 -39.1,-59.6 -85.1,-54.1 -46,5.5 -100.4,26.6 -118.8,89.2 -18.4,62.6 37.1,109.3 74.9,108.6 37.8,-0.7 56.4,-8.5 80.3,-26.9 24,-18.4 32,-31.8 36.4,-38.9 4.4,-7.1 13.3,-18.6 30,-20 16.7,-1.4 28.6,19.4 39.8,36.4 11.2,17 53.1,48.3 91.2,43.9 38.1,-4.4 65,-20.1 79,-48 14,-27.9 7.3,-81.8 -23.5,-107.2 -30.8,-25.4 -110.8,-72.5 -168,8.2 0,0 -12.2,26.1 -21.9,22.4 z"
   id="path358"
   style="fill:#817b66;stroke:#000000;stroke-width:4;stroke-miterlimit:10" />&#10;			<path
   class="st46"
   d="m 511.4,518.4 c 16,37.5 -17.6,94.8 -66.7,116.6 -44.6,19.8 -86.4,4.3 -101.8,-33.4 -18.6,-45.3 6.9,-93.2 56.2,-114.3 49.3,-21.1 96.3,-6.4 112.3,31.1 z"
   id="path359"
   style="fill:#514e3f;stroke:#000000;stroke-width:3;stroke-miterlimit:10" />&#10;			<path
   class="st46"
   d="m 578.4,519.4 c -16,37.5 17,94.5 65.4,116 44,19.5 85.4,3.9 100.8,-33.9 18.6,-45.3 -11.2,-94.9 -59.9,-115.8 -48.7,-20.8 -90.3,-3.8 -106.3,33.7 z"
   id="path360"
   style="fill:#514e3f;stroke:#000000;stroke-width:3;stroke-miterlimit:10" />&#10;			<path
   class="st47"
   d="m 350.8,644.4 c 0,0 20.2,25.1 55,29.7 34.7,4.6 68.1,-11.2 87.9,-34.7 19.8,-23.5 17.9,-28.6 29.2,-40.4 11.2,-11.8 15.3,-11.8 23.1,-12.5 7.8,-0.7 18.7,8.2 25.2,19.4 6.5,11.2 16.6,35.7 46.1,52.1 29.5,16.3 55.2,22.5 83.7,9.9 28.5,-12.6 50.3,-33 55.1,-56.5 0,0 -16.2,40.9 -76.3,47.7 -60.2,6.8 -95.9,-48 -102.8,-57.2 -6.9,-9.2 -14.1,-23.5 -32.7,-22.6 -18.6,0.9 -30.3,24.9 -37,32.6 -6.8,7.7 -39.8,44.8 -78.9,50.5 -39.4,5.4 -54.6,1.2 -77.6,-18 z"
   id="path361"
   style="fill:#262314;stroke:#000000;stroke-width:3;stroke-miterlimit:10" />&#10;			<path
   class="st48"
   d="m 489.3,527.4 c 16.1,38.3 -14.8,76.8 -52.9,93.7 -34.7,15.4 -64.4,3.9 -76.4,-25.5 -14.4,-35.2 5.3,-68.9 43.7,-85.3 38.3,-16.4 73.3,-12.1 85.6,17.1 z"
   id="path362"
   style="fill:#173a50;stroke:#000000;stroke-width:4;stroke-miterlimit:10" />&#10;			<path
   class="st48"
   d="m 602.8,529.8 c -16.1,38.3 11.6,75 49.3,91.7 34.2,15.2 63.6,3.5 75.6,-25.8 14.4,-35.2 -4.9,-68.7 -42.8,-84.9 -37.8,-16.2 -69.8,-10.2 -82.1,19 z"
   id="path363"
   style="fill:#173a50;stroke:#000000;stroke-width:4;stroke-miterlimit:10" />&#10;			<path
   class="st49"
   d="m 451.7,514.1 c 0,0 -26.6,32.7 -35.8,46.5 -9.1,13.8 -20.4,34.4 -37,29.6 -16.6,-4.9 -1.3,-46.5 22,-62.8 23.2,-16.4 38.3,-19.7 50.8,-13.3 z"
   id="path364"
   style="opacity:0.86;fill:#7ca3b0;enable-background:new" />&#10;			<path
   class="st49"
   d="m 710,532.2 c 0,0 -26.8,-19.9 -46.6,-18.4 l 3.8,-2.2 c 0,0 -13.8,-5.7 -31.3,-2.6 -17.5,3.1 -26.1,41.5 -17.2,42.5 8.9,0.9 20.3,-3.3 34.4,-8.8 14.1,-5.5 52,-10.9 56.9,-10.5 z"
   id="path365"
   style="opacity:0.86;fill:#7ca3b0;enable-background:new" />&#10;			<path
   class="st2"
   d="m 546,554.6 c 0,0 11.9,-0.2 21.6,16.3 9.6,16.3 23.1,39.3 38.8,52.1 15.8,12.8 52.1,41.9 114.8,22.7 0,0 27.9,-13 33.4,-29.1 0,0 -19.8,52.9 -79.1,58.3 -59.4,5.3 -93.6,-49.9 -95.9,-53.9 -2.3,-4 -15.9,-33.3 -33.6,-34.5 -17.7,-1.2 -31.5,23.3 -33.7,26.9 -2.2,3.7 -24.1,40.6 -47.8,49.5 -25.4,9.6 -66,30.5 -113.7,-18.5 0,0 31,19.6 75.4,10.3 42.5,-8.9 68.1,-33.7 79.3,-52.6 11,-18.9 23.4,-41.9 40.5,-47.5 z"
   id="path366"
   style="opacity:0.28;enable-background:new" />&#10;		</g>&#10;	</g>&#10;</g></g>&#10;			&#10;			&#10;			&#10;			&#10;			&#10;			&#10;			&#10;			&#10;			&#10;			&#10;			&#10;			&#10;			&#10;			&#10;			&#10;			&#10;			&#10;			&#10;			&#10;			&#10;			&#10;			&#10;			&#10;			&#10;			&#10;			&#10;			&#10;		</g>&#10;	</g>&#10;</g>&#10;</svg>
