<?xml version="1.0" encoding="UTF-8" standalone="no"?>
<!-- Generator: Adobe Illustrator 26.0.1, SVG Export Plug-In . SVG Version: 6.00 Build 0)  -->

<svg
   version="1.1"
   x="0px"
   y="0px"
   viewBox="0 0 97.513153 104.59634"
   xml:space="preserve"
   id="svg77"
   sodipodi:docname="fox-head-eyes-open.svg"
   width="97.513153"
   height="104.59634"
   inkscape:version="1.3 (0e150ed6c4, 2023-07-21)"
   xmlns:inkscape="http://www.inkscape.org/namespaces/inkscape"
   xmlns:sodipodi="http://sodipodi.sourceforge.net/DTD/sodipodi-0.dtd"
   xmlns="http://www.w3.org/2000/svg"
   xmlns:svg="http://www.w3.org/2000/svg"><defs
   id="defs77" /><sodipodi:namedview
   id="namedview77"
   pagecolor="#505050"
   bordercolor="#ffffff"
   borderopacity="1"
   inkscape:showpageshadow="0"
   inkscape:pageopacity="0"
   inkscape:pagecheckerboard="1"
   inkscape:deskcolor="#505050"
   inkscape:zoom="1.4033333"
   inkscape:cx="-78.741093"
   inkscape:cy="262.23278"
   inkscape:window-width="1920"
   inkscape:window-height="1051"
   inkscape:window-x="-9"
   inkscape:window-y="-9"
   inkscape:window-maximized="1"
   inkscape:current-layer="g76" />&#10;<style
   type="text/css"
   id="style1">&#10;	.st0{fill:#37342F;stroke:#000000;stroke-width:1.4642;stroke-miterlimit:10;}&#10;	.st1{fill:#F4EFDF;stroke:#000000;stroke-width:1.4642;stroke-miterlimit:10;}&#10;	.st2{fill:#A09989;}&#10;	.st3{fill:#756F65;}&#10;	.st4{fill:#F4EFDF;}&#10;	.st5{fill:#3A0F0F;}&#10;	.st6{fill:#3F0E0E;}&#10;	.st7{fill:none;stroke:#000000;stroke-width:0.4881;stroke-linecap:round;stroke-linejoin:round;stroke-miterlimit:10;}&#10;	.st8{stroke:#000000;stroke-width:1.4642;stroke-miterlimit:10;}&#10;	.st9{fill:#262728;}&#10;	.st10{opacity:0.75;fill:#FFFFFF;}&#10;	.st11{fill:#AA9D7B;stroke:#000000;stroke-width:0.244;stroke-miterlimit:10;}&#10;	.st12{opacity:0.28;}&#10;	.st13{fill:#37342F;}&#10;	.st14{fill:#FFFFFF;stroke:#000000;stroke-width:1.4642;stroke-miterlimit:10;}&#10;	.st15{opacity:0.32;}&#10;	.st16{fill:#09568A;stroke:#000000;stroke-width:1.4642;stroke-miterlimit:10;}&#10;	.st17{fill:#000002;}&#10;	.st18{fill:#FAFFFF;}&#10;	.st19{fill:#030000;}&#10;	.st20{fill:#495D4A;stroke:#000000;stroke-width:1.9522;stroke-miterlimit:10;}&#10;	.st21{fill:#564D36;stroke:#000000;stroke-width:1.9522;stroke-miterlimit:10;}&#10;	.st22{fill:none;stroke:#000000;stroke-width:1.9522;stroke-miterlimit:10;}&#10;	.st23{fill:#817B66;stroke:#000000;stroke-width:1.9522;stroke-miterlimit:10;}&#10;	.st24{fill:#514E3F;stroke:#000000;stroke-width:1.4642;stroke-miterlimit:10;}&#10;	.st25{fill:#262314;stroke:#000000;stroke-width:1.4642;stroke-miterlimit:10;}&#10;	.st26{fill:#173A50;stroke:#000000;stroke-width:1.9522;stroke-miterlimit:10;}&#10;	.st27{opacity:0.86;fill:#7CA3B0;}&#10;</style>&#10;<g
   id="Layer_1"
   transform="translate(-379.25905,-37.935766)">&#10;</g>&#10;<g
   id="Layer_19"
   transform="translate(-379.25905,-37.935766)">&#10;</g>&#10;<g
   id="Layer_20"
   transform="translate(-379.25905,-37.935766)">&#10;</g>&#10;<g
   id="Tail"
   transform="translate(-379.25905,-37.935766)">&#10;</g>&#10;<g
   id="right_leg"
   transform="translate(-379.25905,-37.935766)">&#10;</g>&#10;<g
   id="Left_leg"
   transform="translate(-379.25905,-37.935766)">&#10;</g>&#10;<g
   id="body"
   transform="translate(-379.25905,-37.935766)">&#10;</g>&#10;<g
   id="belt"
   transform="translate(-379.25905,-37.935766)">&#10;</g>&#10;<g
   id="Face"
   transform="translate(-379.25905,-37.935766)">&#10;</g>&#10;<g
   id="Left_ear"
   transform="translate(-379.25905,-37.935766)">&#10;</g>&#10;<g
   id="Right_ear"
   transform="translate(-379.25905,-37.935766)">&#10;</g>&#10;<g
   id="White_mouth"
   transform="translate(-379.25905,-37.935766)">&#10;</g>&#10;<g
   id="Closed_mouth"
   transform="translate(-379.25905,-37.935766)">&#10;	<g
   id="Mouth_copy">&#10;	</g>&#10;</g>&#10;<g
   id="Mouth"
   transform="translate(-379.25905,-37.935766)">&#10;</g>&#10;<g
   id="wide_opened_mouth"
   transform="translate(-379.25905,-37.935766)">&#10;	<g
   id="Mouth_copy_2">&#10;	</g>&#10;</g>&#10;<g
   id="Nose"
   transform="translate(-379.25905,-37.935766)">&#10;</g>&#10;<g
   id="Nose_hair_2"
   transform="translate(-379.25905,-37.935766)">&#10;</g>&#10;<g
   id="Nose_hair_1"
   transform="translate(-379.25905,-37.935766)">&#10;</g>&#10;<g
   id="Eye_brow"
   transform="translate(-379.25905,-37.935766)">&#10;</g>&#10;<g
   id="white_part_of_eyes"
   transform="translate(-379.25905,-37.935766)">&#10;	<g
   id="Eyes_opened_copy">&#10;	</g>&#10;</g>&#10;<g
   id="eyes_2"
   transform="translate(-379.25905,-37.935766)">&#10;	<g
   id="Layer_29">&#10;	</g>&#10;</g>&#10;<g
   id="eyes_1"
   transform="translate(-379.25905,-37.935766)">&#10;	<g
   id="Layer_30">&#10;	</g>&#10;</g>&#10;<g
   id="Opened_eye_cover"
   transform="translate(-379.25905,-37.935766)">&#10;</g>&#10;<g
   id="Eyes_closed"
   transform="translate(-379.25905,-37.935766)">&#10;	<g
   id="Eyes_copy">&#10;	</g>&#10;</g>&#10;<g
   id="cap"
   transform="translate(-379.25905,-37.935766)">&#10;</g>&#10;<g
   id="Glasses"
   transform="translate(-379.25905,-37.935766)">&#10;	<g
   id="g77">&#10;		<g
   id="g76">&#10;			&#10;			<g
   id="g6">&#10;				<path
   class="st1"
   d="m 383.9,78.4 c 0,0 29.2,-16.1 32.3,-18.3 3.1,-2.2 4.9,-4.8 4.9,-4.8 l -1.8,5.9 c 0,0 14.4,-6.9 17.4,-11.3 3,-4.4 -1.7,5.4 -1.7,5.4 l 14.7,-9 -2.1,3.1 c 0,0 16.2,-6.6 17.5,-8.7 1.4,-2.1 0.3,5.5 0.3,5.5 0,0 4.8,-6.8 4.7,-7.5 -0.2,-0.7 0.7,2.2 0.6,10.9 -0.1,8.7 2,0.6 2,0.6 0,0 3.8,7 -0.9,20 -4.7,13 3,-1.2 3,-1.2 0,0 -5,21.2 -13.1,28.7 l 4.6,-3.5 c 0,0 -6.3,13.1 -9.6,15.6 -3.4,2.4 6.1,-3.3 6.1,-3.3 0,0 -6.3,13.1 -14.7,18 -8.5,4.9 3,-0.2 3,-0.2 0,0 -15.2,17.4 -35.6,17.5 -20.6,0 -42.9,-52.2 -31.6,-63.4 z"
   id="path2" />&#10;				<g
   id="g5">&#10;					<path
   class="st2"
   d="m 425.6,73.2 c 1.2,-1.4 14.1,-11.4 17.4,-13.7 3.3,-2.3 4.4,-2.6 4.4,-2.6 0,0 -4.4,4.1 -3.6,3.9 0.8,-0.2 3.8,-0.7 3.8,-0.7 0,0 5.5,2.4 8.8,-1.1 3.3,-3.5 0.4,4.1 0.3,5.8 -0.1,1.7 0.3,5.3 -1,6.9 -1.3,1.6 3.2,-3 2.7,-4.3 -0.5,-1.3 -0.9,6.2 -2.2,8.1 -1.3,1.9 4,-2 -1,9.2 -5,11.3 -10.9,17.1 -12.8,25.3 -1.9,8.2 -5.7,11.4 -6.7,13.9 -1,2.5 -1.6,4.7 1.1,5.4 2.7,0.7 5.5,-0.3 5.5,-0.3 0,0 -5.5,2.8 -6.2,2.8 -0.7,0 -2.9,2.3 1.9,1.2 4.8,-1.1 -5.7,5.6 -12.5,7.6 -6.8,2 -23.3,5.2 -33.7,-18.7 -10.4,-24 21.1,-33.9 33.8,-48.7 z"
   id="path3" />&#10;					<path
   class="st3"
   d="m 416.1,101.3 c 0,0 2.9,-4 10.4,-3.6 7.5,0.5 2.2,2.9 4.4,3.8 2.2,0.9 3.2,5.6 1.9,7.6 -1.3,2.1 -9.1,14.5 -10.1,17 -1,2.5 0.6,9.7 -4.7,11.7 -5.3,2 -25.3,-11.2 -12.6,-24.8 12.7,-13.6 10.7,-11.7 10.7,-11.7 z"
   id="path4" />&#10;					<path
   class="st0"
   d="m 422.9,59.7 c 0,0 -2.9,4.8 -4.1,6.5 -1.2,1.7 4.5,0.9 4.5,0.9 0,0 0,6.4 -1.8,9.2 -1.8,2.8 10,-8.8 10,-8.8 0,0 -7,9.5 -7.2,14.5 -0.2,5 -3.3,9.5 -4.8,12.4 -1.5,2.9 1.3,1.6 1.3,1.6 l -24.7,30.1 c 0,0 -17.6,-30.8 -16,-40.1 1.6,-9.3 12.9,-13.3 21.9,-17.4 9,-4 20.9,-8.9 20.9,-8.9"
   id="path5" />&#10;				</g>&#10;			</g>&#10;			&#10;			&#10;			&#10;			&#10;			&#10;			&#10;			&#10;			&#10;			&#10;			&#10;			&#10;			&#10;			&#10;			&#10;			&#10;			&#10;			&#10;			&#10;			&#10;			&#10;			&#10;			&#10;			&#10;			&#10;			&#10;			&#10;		</g>&#10;	</g>&#10;</g>&#10;</svg>
