<?xml version="1.0" encoding="UTF-8" standalone="no"?>
<!-- Created with Inkscape (http://www.inkscape.org/) -->

<svg
   width="23.381874mm"
   height="12.785851mm"
   viewBox="0 0 23.381874 12.785851"
   version="1.1"
   id="svg1"
   inkscape:version="1.4 (86a8ad7, 2024-10-11)"
   sodipodi:docname="fox-hand.svg"
   xmlns:inkscape="http://www.inkscape.org/namespaces/inkscape"
   xmlns:sodipodi="http://sodipodi.sourceforge.net/DTD/sodipodi-0.dtd"
   xmlns="http://www.w3.org/2000/svg"
   xmlns:svg="http://www.w3.org/2000/svg">
  <sodipodi:namedview
     id="namedview1"
     pagecolor="#505050"
     bordercolor="#ffffff"
     borderopacity="1"
     inkscape:showpageshadow="0"
     inkscape:pageopacity="0"
     inkscape:pagecheckerboard="1"
     inkscape:deskcolor="#505050"
     inkscape:document-units="mm"
     inkscape:zoom="0.72248176"
     inkscape:cx="-269.90301"
     inkscape:cy="17.301475"
     inkscape:window-width="2880"
     inkscape:window-height="1586"
     inkscape:window-x="2869"
     inkscape:window-y="-11"
     inkscape:window-maximized="1"
     inkscape:current-layer="layer1" />
  <defs
     id="defs1" />
  <g
     inkscape:label="Layer 1"
     inkscape:groupmode="layer"
     id="layer1"
     transform="translate(-176.31795,-143.71418)">
    <g
       id="left_hand_on_fence"
       transform="matrix(-0.14029323,0,0,0.14029323,295.38559,34.977916)">
	<g
   id="g398">
		<path
   class="st0"
   d="m 715.8,803.2 c -1.8,45.5 8.4,54.1 24.4,56.2 16,2.1 25.1,-8.9 25.1,-8.9 0,0 0.5,6.7 10.5,8.2 10,1.6 21.5,-9.8 21.5,-9.8 -0.7,4.4 4.8,14 16.3,15.2 14.2,1.6 25.4,-16.5 29.6,-22.9 4.2,-6.5 3.9,-26.6 2.8,-38.9 -1.1,-12.3 -13.8,-24.5 -28.6,-25.2 -14.7,-0.7 -21.5,8.8 -21.5,8.8 -2.1,-3.2 -7.5,-6.7 -17,-6.5 -9.5,0.2 -18.2,7 -18.2,7 -6.3,-3.2 -21.5,-18.4 -55.5,6.6 -12.1,8.9 -19.7,22.7 -19.7,22.7 l 28.6,-1.1 z"
   id="path395"
   style="fill:#43392e;stroke:#000000;stroke-width:4;stroke-miterlimit:10" />

		<path
   class="st47"
   d="m 794.2,783.9 c 0,0 6.8,4.9 7.5,21.1 0.3,7.1 4.8,41.3 -8.8,47.5"
   id="path396"
   style="fill:none;stroke:#000000;stroke-width:4;stroke-miterlimit:10" />

		<path
   class="st47"
   d="m 755.8,783.4 c 0,0 10.6,3.5 14.7,24.7 2.7,14 2.8,41.3 -12,47.7"
   id="path397"
   style="fill:none;stroke:#000000;stroke-width:4;stroke-miterlimit:10" />

		<path
   class="st2"
   d="m 846.7,815.5 c 0,0 -5.3,21.5 -21.6,26 -16.3,4.5 -22.7,-5 -22.6,-13 0,0 -4.9,11.7 -17,11.2 -12.1,-0.5 -14.4,-7 -14.2,-10.6 0,0 -1.3,9.5 -11,10.1 -9.7,0.5 -15.5,2.9 -22.1,-6 -6.6,-8.9 -9.8,-48 -27.8,-41.3 -16.7,6.2 -24.7,23.9 -24.7,23.9 0,0 20.6,-0.8 28.6,-1.1 2.4,-0.1 0.9,21.5 6.8,32.2 0,0 17.6,27.8 44.3,3.6 0,0 10.6,20.8 32.1,-1.6 0,0 0.4,13.3 17.8,15.3 17.2,2 35.4,-30.8 31.4,-48.7 z"
   id="path398"
   style="opacity:0.28;enable-background:new" />

	</g>

</g>
  </g>
</svg>
