<?xml version="1.0" encoding="UTF-8" standalone="no"?>
<!-- Generator: Adobe Illustrator 26.0.1, SVG Export Plug-In . SVG Version: 6.00 Build 0)  -->

<svg
   version="1.1"
   x="0px"
   y="0px"
   viewBox="0 0 352.04532 230.97243"
   xml:space="preserve"
   id="svg77"
   sodipodi:docname="fox-head-eyes-open.svg"
   width="352.04532"
   height="230.97243"
   inkscape:version="1.3 (0e150ed6c4, 2023-07-21)"
   xmlns:inkscape="http://www.inkscape.org/namespaces/inkscape"
   xmlns:sodipodi="http://sodipodi.sourceforge.net/DTD/sodipodi-0.dtd"
   xmlns="http://www.w3.org/2000/svg"
   xmlns:svg="http://www.w3.org/2000/svg"><defs
   id="defs77" /><sodipodi:namedview
   id="namedview77"
   pagecolor="#505050"
   bordercolor="#ffffff"
   borderopacity="1"
   inkscape:showpageshadow="0"
   inkscape:pageopacity="0"
   inkscape:pagecheckerboard="1"
   inkscape:deskcolor="#505050"
   inkscape:zoom="1.4033333"
   inkscape:cx="157.83848"
   inkscape:cy="197.38717"
   inkscape:window-width="1920"
   inkscape:window-height="1051"
   inkscape:window-x="-9"
   inkscape:window-y="-9"
   inkscape:window-maximized="1"
   inkscape:current-layer="g76" />&#10;<style
   type="text/css"
   id="style1">&#10;	.st0{fill:#37342F;stroke:#000000;stroke-width:1.4642;stroke-miterlimit:10;}&#10;	.st1{fill:#F4EFDF;stroke:#000000;stroke-width:1.4642;stroke-miterlimit:10;}&#10;	.st2{fill:#A09989;}&#10;	.st3{fill:#756F65;}&#10;	.st4{fill:#F4EFDF;}&#10;	.st5{fill:#3A0F0F;}&#10;	.st6{fill:#3F0E0E;}&#10;	.st7{fill:none;stroke:#000000;stroke-width:0.4881;stroke-linecap:round;stroke-linejoin:round;stroke-miterlimit:10;}&#10;	.st8{stroke:#000000;stroke-width:1.4642;stroke-miterlimit:10;}&#10;	.st9{fill:#262728;}&#10;	.st10{opacity:0.75;fill:#FFFFFF;}&#10;	.st11{fill:#AA9D7B;stroke:#000000;stroke-width:0.244;stroke-miterlimit:10;}&#10;	.st12{opacity:0.28;}&#10;	.st13{fill:#37342F;}&#10;	.st14{fill:#FFFFFF;stroke:#000000;stroke-width:1.4642;stroke-miterlimit:10;}&#10;	.st15{opacity:0.32;}&#10;	.st16{fill:#09568A;stroke:#000000;stroke-width:1.4642;stroke-miterlimit:10;}&#10;	.st17{fill:#000002;}&#10;	.st18{fill:#FAFFFF;}&#10;	.st19{fill:#030000;}&#10;	.st20{fill:#495D4A;stroke:#000000;stroke-width:1.9522;stroke-miterlimit:10;}&#10;	.st21{fill:#564D36;stroke:#000000;stroke-width:1.9522;stroke-miterlimit:10;}&#10;	.st22{fill:none;stroke:#000000;stroke-width:1.9522;stroke-miterlimit:10;}&#10;	.st23{fill:#817B66;stroke:#000000;stroke-width:1.9522;stroke-miterlimit:10;}&#10;	.st24{fill:#514E3F;stroke:#000000;stroke-width:1.4642;stroke-miterlimit:10;}&#10;	.st25{fill:#262314;stroke:#000000;stroke-width:1.4642;stroke-miterlimit:10;}&#10;	.st26{fill:#173A50;stroke:#000000;stroke-width:1.9522;stroke-miterlimit:10;}&#10;	.st27{opacity:0.86;fill:#7CA3B0;}&#10;</style>&#10;<g
   id="Layer_1"
   transform="translate(-123.98973,-46.4675)">&#10;</g>&#10;<g
   id="Layer_19"
   transform="translate(-123.98973,-46.4675)">&#10;</g>&#10;<g
   id="Layer_20"
   transform="translate(-123.98973,-46.4675)">&#10;</g>&#10;<g
   id="Tail"
   transform="translate(-123.98973,-46.4675)">&#10;</g>&#10;<g
   id="right_leg"
   transform="translate(-123.98973,-46.4675)">&#10;</g>&#10;<g
   id="Left_leg"
   transform="translate(-123.98973,-46.4675)">&#10;</g>&#10;<g
   id="body"
   transform="translate(-123.98973,-46.4675)">&#10;</g>&#10;<g
   id="belt"
   transform="translate(-123.98973,-46.4675)">&#10;</g>&#10;<g
   id="Face"
   transform="translate(-123.98973,-46.4675)">&#10;</g>&#10;<g
   id="Left_ear"
   transform="translate(-123.98973,-46.4675)">&#10;</g>&#10;<g
   id="Right_ear"
   transform="translate(-123.98973,-46.4675)">&#10;</g>&#10;<g
   id="White_mouth"
   transform="translate(-123.98973,-46.4675)">&#10;</g>&#10;<g
   id="Closed_mouth"
   transform="translate(-123.98973,-46.4675)">&#10;	<g
   id="Mouth_copy">&#10;	</g>&#10;</g>&#10;<g
   id="Mouth"
   transform="translate(-123.98973,-46.4675)">&#10;</g>&#10;<g
   id="wide_opened_mouth"
   transform="translate(-123.98973,-46.4675)">&#10;	<g
   id="Mouth_copy_2">&#10;	</g>&#10;</g>&#10;<g
   id="Nose"
   transform="translate(-123.98973,-46.4675)">&#10;</g>&#10;<g
   id="Nose_hair_2"
   transform="translate(-123.98973,-46.4675)">&#10;</g>&#10;<g
   id="Nose_hair_1"
   transform="translate(-123.98973,-46.4675)">&#10;</g>&#10;<g
   id="Eye_brow"
   transform="translate(-123.98973,-46.4675)">&#10;</g>&#10;<g
   id="white_part_of_eyes"
   transform="translate(-123.98973,-46.4675)">&#10;	<g
   id="Eyes_opened_copy">&#10;	</g>&#10;</g>&#10;<g
   id="eyes_2"
   transform="translate(-123.98973,-46.4675)">&#10;	<g
   id="Layer_29">&#10;	</g>&#10;</g>&#10;<g
   id="eyes_1"
   transform="translate(-123.98973,-46.4675)">&#10;	<g
   id="Layer_30">&#10;	</g>&#10;</g>&#10;<g
   id="Opened_eye_cover"
   transform="translate(-123.98973,-46.4675)">&#10;</g>&#10;<g
   id="Eyes_closed"
   transform="translate(-123.98973,-46.4675)">&#10;	<g
   id="Eyes_copy">&#10;	</g>&#10;</g>&#10;<g
   id="cap"
   transform="translate(-123.98973,-46.4675)">&#10;</g>&#10;<g
   id="Glasses"
   transform="translate(-123.98973,-46.4675)">&#10;	<g
   id="g77">&#10;		<g
   id="g76">&#10;			<path
   class="st0"
   d="m 303.4,276.5 c 0,0 11.2,1.2 19.8,-2.3 8.6,-3.5 25.8,-11 33.1,-13.1 7.3,-2.1 14.3,-2.6 19.9,-3 5.6,-0.4 10.3,-1.2 12.6,-2.1 2.3,-0.9 4.6,-0.9 4.6,-0.9 0,0 -3.9,-0.7 -5.7,-1.8 -1.8,-1.1 20.4,-0.6 36,-12.7 15.6,-12.1 -2.5,0 -2.5,0 0,0 17.7,-13.2 20.1,-16.2 2.4,-3 9,-11.3 14.7,-18.1 5.7,-6.8 7,-10.2 7,-10.2 0,0 -5.2,4 -9.4,8.3 -4.3,4.3 7.5,-6.9 8.7,-11.6 1.2,-4.7 3.3,-6 3.3,-6 l 3.4,-1.5 c 0,0 -16,-0.4 -23.1,0 -7.1,0.4 2.5,-2.2 2.7,-3.4 0.2,-1.1 -2.9,0.4 -8.6,-2.5 -5.7,-2.9 -3.2,-5.7 -8,-9.2 -4.8,-3.5 3.4,1.1 4.7,0.1 0,0 -1.6,-0.3 -1.6,-2.4 0,-2.1 -1.8,-2.2 -7.2,-3.4 -5.4,-1.2 -0.2,-0.9 0,-3.3 0,0 -4.8,2.2 -5,0.8 -0.1,-1.4 0.1,3.9 -1.5,3.7 0,0 6.5,-111.6 -112.7,-113.6 -119.2,-2 -122.7,99 -122.2,109 0.5,10 -5.2,5.6 -6.6,3.2 -1.4,-2.4 -7.3,0 -7.3,0 0,0 6.6,-1.4 6.3,2.1 -0.3,3.5 -3.5,6.5 -7.3,7.1 -3.8,0.6 2.7,0.7 2.7,0.7 0,0 -2.1,7.1 -12.8,8.1 -10.6,1 -9,0 -9,0 l 3.5,2 c 0,0 -12,1.3 -15.5,0.7 -3.5,-0.7 4,7.7 4,7.7 l 4.5,4.7 -7,-2.4 c 0,0 6.4,10.6 11.3,14.2 5,3.6 -5.9,-2.9 -5.9,-2.9 0,0 7.6,9.1 12.6,11.8 5,2.7 9.2,4.3 9.2,4.3 0,0 -12.2,-2.8 -16.2,-6 0,0 13.7,10.4 18.6,12.3 4.9,1.9 -4.5,0.4 -4.5,0.4 0,0 5.3,10.1 22.6,15.4 17.3,5.3 14.2,3.6 6,3.3 -8.2,-0.3 14.1,3.5 15.4,5.5 1.3,2 3.3,0.6 3.3,0.6 0,0 -5,1.9 -9.8,1 0,0 6.7,1.4 8,2.4 1.2,1 8.2,1.9 13,0.9 4.7,-1 -4.1,2.5 -3.7,2.4 0.4,-0.1 18,-2 30.2,0.9 12.2,2.9 22.3,9.3 28.3,11.4 6.2,2 12.3,4.3 23,3.6 z"
   id="path1" />&#10;			&#10;			&#10;			<path
   class="st1"
   d="m 303.8,212 c 0,0 1.6,4.8 2,5.5 0.4,0.7 2,-3.2 2.7,-2.7 0.7,0.4 1.2,6.1 1.2,6.1 0,0 2.7,-4.7 5.2,-4.4 0,0 3.2,4 10,4.4 6.8,0.4 12.1,5.5 17.1,11.1 4,4.5 8.1,4.4 8.1,4.4 0,0 -1.3,1.1 -6.1,0.8 -4.8,-0.3 5.5,2.5 7.2,1.5 1.7,-1 -3.2,5.7 -1.1,5.9 2.1,0.2 2.7,0 2.7,0 0,0 -0.9,1.6 0,3.1 0.9,1.5 1.6,2.7 1.8,3.6 0.2,0.8 1.1,3.6 2.5,3.8 1.4,0.2 -4.2,2.1 -4.2,2.1 0,0 6.3,0.6 6.5,0.6 0.2,0 -3,1.2 -4,1.4 -1,0.1 8.2,0 8.2,0 0,0 -11.5,2.9 -24.4,8.5 -13,5.6 -18.1,9.2 -33.3,9 h -4 c -15.2,0.2 -20.3,-3.4 -33.3,-9 -13,-5.6 -24.4,-8.5 -24.4,-8.5 0,0 9.2,0.1 8.2,0 -1,-0.1 -4.1,-1.4 -4,-1.4 0.1,0 6.5,-0.6 6.5,-0.6 0,0 -5.6,-1.9 -4.2,-2.1 1.4,-0.2 2.2,-3 2.5,-3.8 0.2,-0.8 0.9,-2.1 1.8,-3.6 0.9,-1.5 0,-3.1 0,-3.1 0,0 0.7,0.2 2.7,0 2.1,-0.2 -2.7,-6.8 -1.1,-5.9 1.7,1 12,-1.8 7.2,-1.5 -4.8,0.3 -6.1,-0.8 -6.1,-0.8 0,0 4.1,0.1 8.1,-4.4 5,-5.6 10.5,-10.7 17.3,-11.2 6.8,-0.5 10,-4.4 10,-4.4 2.5,-0.2 5.2,4.4 5.2,4.4 0,0 0.5,-5.7 1.2,-6.1 0.7,-0.4 2.3,3.4 2.7,2.7 0.4,-0.7 1.6,-5.4 1.6,-5.4"
   id="path10" />&#10;			<path
   class="st4"
   d="m 288.4,254.9 c 0,0 5.6,5.6 15,4.9 9.4,-0.7 11.9,-3.9 14.8,-4.3 2.9,-0.4 18.6,1.7 16.1,6.7 -2.5,5 -12.5,14.7 -33.1,12.7 -20.6,-2.1 -25.4,-6.5 -26.9,-10.2 -1.6,-3.6 2.1,-8.6 14.1,-9.8 z"
   id="path11" />&#10;			<path
   d="m 320.9,263.7 c 0,0 -2.2,2.6 -16.9,2.9 -14.7,0.3 -16.2,-3.3 -16,-3.4 0.3,-0.1 8.9,2 12.4,1.8 3.6,-0.2 8.1,-0.3 9.9,-0.2 1.8,0.1 7.9,-1.4 10.6,-1.1 z"
   id="path12" />&#10;			<path
   class="st4"
   d="m 288.4,254.9 c 0,0 5.6,5.6 15,4.9 9.4,-0.7 11.9,-3.9 14.8,-4.3 2.9,-0.4 18.6,1.7 16.1,6.7 -2.5,5 -12.5,14.7 -33.1,12.7 -20.6,-2.1 -25.4,-6.5 -26.9,-10.2 -1.6,-3.6 2.1,-8.6 14.1,-9.8 z"
   id="path13" />&#10;			<g
   id="g15">&#10;				<path
   class="st5"
   d="m 302.9,268.6 c -10.4,0 -14.2,-3.9 -15.1,-5.8 1.9,0.2 3.9,0.3 5.8,0.3 1.7,0 3.1,-0.1 4.5,-0.3 2,-0.3 3.9,-0.5 5.7,-0.5 2.6,0 4.7,0.3 6.5,0.6 0.9,0.1 2.7,0.2 4.6,0.2 v 0 c 0.9,0 3,0 4.7,-0.2 -1.2,1.9 -5,5.7 -16.7,5.7 z"
   id="path14" />&#10;				<path
   d="m 303.8,263 v 0 c 2.5,0 4.6,0.3 6.4,0.6 0.9,0.2 2.7,0.3 4.7,0.3 0.8,0 1.9,0 3.1,-0.1 -1.9,1.8 -6,4 -15.1,4 -8.3,0 -12,-2.4 -13.6,-4.2 1.4,0.1 2.8,0.2 4.3,0.2 1.7,0 3.2,-0.1 4.6,-0.3 1.9,-0.3 3.8,-0.5 5.6,-0.5 m 0,-1.4 c -1.7,0 -3.7,0.1 -5.9,0.5 -1.4,0.2 -2.9,0.3 -4.4,0.3 -2.2,0 -4.5,-0.2 -6.8,-0.4 0,0 0,0 0,0 -0.3,0 1.4,7.3 16.1,7.3 16.6,0 17.9,-7.3 17.9,-7.3 -1.4,0.3 -3.8,0.4 -5.9,0.4 -1.9,0 -3.6,-0.1 -4.5,-0.2 -1.7,-0.3 -3.8,-0.6 -6.5,-0.6 z"
   id="path15" />&#10;			</g>&#10;			<path
   class="st4"
   d="m 288.4,254.9 c 0,0 5.6,5.6 15,4.9 9.4,-0.7 11.9,-3.9 14.8,-4.3 2.9,-0.4 18.6,1.7 16.1,6.7 -2.5,5 -12.5,14.7 -33.1,12.7 -20.6,-2.1 -25.4,-6.5 -26.9,-10.2 -1.6,-3.6 2.1,-8.6 14.1,-9.8 z"
   id="path16" />&#10;			<g
   id="g18">&#10;				<path
   class="st6"
   d="m 302.5,271.1 c -6.5,0 -11.8,-1.8 -15.1,-5.2 -2,-2.1 -2.9,-4.2 -3.1,-5.3 2.4,0.3 4.7,0.5 7.1,0.5 2.1,0 3.9,-0.2 5.6,-0.6 2.4,-0.6 4.7,-0.8 7,-0.8 3,0 5.6,0.5 7.6,1 1,0.2 3,0.4 5.2,0.4 0,0 0,0 0,0 1.3,0 4.1,-0.1 6.4,-0.5 -1,2.9 -5,10.5 -20.6,10.6 0.1,-0.1 -0.1,-0.1 -0.1,-0.1 z"
   id="path17" />&#10;				<path
   d="m 304,260.5 v 0 c 3,0 5.4,0.5 7.4,0.9 1.1,0.2 3.1,0.4 5.4,0.4 1.1,0 3.2,0 5.2,-0.3 -1.5,3.2 -6.1,8.8 -19.4,8.9 h -0.2 c -12,0 -15.9,-6 -17.1,-8.9 2,0.2 4,0.4 6,0.4 2.1,0 4,-0.2 5.8,-0.6 2.4,-0.6 4.7,-0.8 6.9,-0.8 m 0,-1.5 c -2.1,0 -4.5,0.2 -7.2,0.9 -1.8,0.4 -3.6,0.6 -5.4,0.6 -2.6,0 -5.3,-0.3 -7.9,-0.6 0,0 0,0 0,0 -0.3,0 1.6,12.1 19.1,12.1 0.1,0 0.1,0 0.2,0 19.9,-0.1 21.6,-12.3 21.6,-12.3 -1.8,0.6 -4.8,0.8 -7.4,0.8 -2.2,0 -4.2,-0.1 -5.1,-0.4 -2.2,-0.6 -4.8,-1.1 -7.9,-1.1 z"
   id="path18" />&#10;			</g>&#10;			<g
   id="g25">&#10;				<g
   id="g21">&#10;					<path
   class="st7"
   d="m 276.4,246.9 c 0,0 1,2.9 4.1,4.5"
   id="path19" />&#10;					<path
   class="st7"
   d="m 278.5,251.7 c 0.4,0.3 1.7,2.1 5.2,3.3"
   id="path20" />&#10;					<path
   class="st7"
   d="m 328.9,247.1 c 0,0 -2.3,2.9 -3.5,3.8 -1.2,0.9 0.9,0 0.9,0 0,0 -1.7,2.2 -5.2,4.2"
   id="path21" />&#10;				</g>&#10;				<g
   id="g24">&#10;					<path
   class="st8"
   d="m 283.7,242.6 c 0,0 -0.6,-7 4.7,-9.2 5.4,-2.2 11.3,-2.4 15.2,-2.5 3.9,-0.1 11.5,0.4 15.8,3 4.3,2.6 3.7,7.9 3.6,8.7 -0.1,0.9 -2.7,15.6 -19.6,15.6 -17,0 -19.7,-15.6 -19.7,-15.6 z"
   id="path22" />&#10;					<path
   class="st9"
   d="m 286.1,242.1 c 0,0 -2.9,-9.2 17.1,-9.3 19.9,-0.1 18.4,7.6 16.7,7.7 -1.5,0.1 -3.5,1.7 -6.1,1.6 -2,-0.1 -5.1,1.9 -4,6.9 1.1,5 3,3.5 3,3.9 0,0.4 -2.5,3 -8.5,2.7 -6,-0.2 -8.3,-1.2 -8.2,-2.2 0.1,-1 2.5,0 2.7,-4 0.2,-4 -1.6,-6.6 -4.5,-7.1 -2.9,-0.5 -3.1,0.1 -4,-0.9 -0.9,-1 -3.9,-0.3 -4.2,0.7 z"
   id="path23" />&#10;					<path
   class="st10"
   d="m 291.4,239 c 0,0 3.4,-1.7 10.7,-1.8 7.4,-0.2 13.3,1.1 13.3,1.5 0,0.5 -3.4,1.3 -12,1.2 -8.6,-0.1 -11.5,0.2 -12,-0.9 z"
   id="path24" />&#10;				</g>&#10;			</g>&#10;			<g
   id="g30">&#10;				<path
   class="st11"
   d="m 244.1,241 c -12.1,-1.4 -31.2,-4.5 -43.4,-6.4 -12.3,-1.9 -31.3,-4.6 -43.3,-6.8 12.1,1.5 31.2,4.5 43.4,6.4 12.2,1.9 31.2,4.6 43.3,6.8 z"
   id="path25" />&#10;				<path
   class="st11"
   d="m 225.7,244.7 c -14.2,-0.4 -36.5,-1.8 -50.9,-2.5 -14.4,-0.8 -36.6,-1.8 -50.8,-3 14.2,0.4 36.5,1.8 50.9,2.5 14.4,0.8 36.6,1.8 50.8,3 z"
   id="path26" />&#10;				<path
   class="st11"
   d="m 142,231 c 5.5,0.1 13.9,1 19.4,1.4 5.6,0.5 13.9,1 19.4,1.9 -5.5,-0.1 -13.9,-1 -19.4,-1.4 -5.6,-0.5 -13.9,-1 -19.4,-1.9 z"
   id="path27" />&#10;				<path
   class="st11"
   d="m 206.7,218.3 c 8.6,5.2 17.2,10.4 26.4,14.4 1.1,0.5 3.5,1.5 4.6,1.9 1.5,0.7 3.1,1.3 4.6,2 l -2.4,-0.7 -1.2,-0.4 c -5.1,-1.8 -10.1,-4.2 -14.9,-6.7 -5.9,-3.2 -11.8,-6.4 -17.1,-10.5 z"
   id="path28" />&#10;				<path
   class="st11"
   d="m 257.5,241.9 c -1.2,-0.9 -2.4,-1.8 -3.5,-2.7 -3,-2.2 -6.3,-4 -9.7,-5.4 -0.7,-0.4 -1.3,-0.7 -2,-1.1 2.9,0.7 5.6,2.2 8.2,3.6 2.5,1.6 5.2,3.2 7,5.6 z"
   id="path29" />&#10;				<path
   class="st11"
   d="m 252.3,249.6 c -1.1,0.3 -2.2,0.5 -3.3,0.8 -2.1,0.4 -7.8,1.3 -10,1.7 -3.8,0.6 -9.5,1.8 -13.3,2 3.7,-1 9.4,-1.8 13.2,-2.5 2.2,-0.4 7.8,-1.3 10,-1.7 1.1,-0.1 2.3,-0.2 3.4,-0.3 z"
   id="path30" />&#10;			</g>&#10;			<g
   id="g35">&#10;				<path
   class="st11"
   d="m 345.9,244.3 c 0.3,-0.5 0.8,-0.8 1.2,-1.1 1.4,-1 2.8,-1.8 4.3,-2.6 3.9,-2 8.1,-3.8 12.1,-5.6 10,-4.7 19.3,-10.9 28.7,-16.8 -8.8,6.7 -18.5,12.3 -28.4,17.2 -4,1.8 -8.2,3.6 -12.1,5.6 -1.5,0.7 -3,1.4 -4.4,2.3 -0.6,0.3 -1.1,0.6 -1.4,1 z"
   id="path31" />&#10;				<path
   class="st11"
   d="m 360.7,239.1 c 13.2,-2 26.5,-3.8 39.7,-5.9 9.9,-1.5 19.9,-2.5 29.8,-4.5 3.3,-0.6 6.6,-1.3 9.7,-2.4 -6.2,2.5 -12.9,3.6 -19.5,4.6 -6.6,1 -13.3,1.8 -19.9,2.7 -13.2,2.1 -26.4,4.4 -39.8,5.5 z"
   id="path32" />&#10;				<path
   class="st11"
   d="m 379.8,244.3 c 19.8,-1.6 40.4,-2.2 60.2,-2.9 11,-0.6 22,-2.6 33,-2.7 1,0 2,0.1 3,0.4 -1,-0.3 -2,-0.3 -3,-0.3 -11,0.6 -22,2.4 -33,3 -4,0.3 -8,0.3 -12.1,0.4 -15.5,0.6 -32.5,1.7 -48.1,2.1 z"
   id="path33" />&#10;				<path
   class="st11"
   d="m 351.9,249.6 c 0.9,-0.1 1.7,-0.2 2.6,-0.3 l 2.6,-0.1 c 1.7,-0.1 3.4,-0.1 5.1,-0.2 2.1,-0.1 4.3,-0.3 6.4,-0.6 0.7,-0.1 1.8,-0.3 2.5,-0.4 0.4,-0.1 0.8,-0.2 1.3,-0.3 -0.4,0.2 -0.8,0.4 -1.2,0.5 -0.4,0.1 -0.8,0.3 -1.2,0.4 l -1.3,0.2 c -2.1,0.3 -4.3,0.5 -6.4,0.7 -1.7,0.1 -3.4,0.2 -5.1,0.2 l -2.6,0.1 c -1,0 -1.8,-0.1 -2.7,-0.2 z"
   id="path34" />&#10;				<path
   class="st11"
   d="m 378.3,254.1 c -0.9,0 -1.9,-0.1 -2.8,-0.1 l -2.8,-0.4 c -1.9,-0.3 -3.7,-0.6 -5.6,-0.9 -3.6,-0.8 -7.6,-1.1 -10.8,-3 5.4,1.7 10.9,2.6 16.5,3.5 1.6,0.1 3.8,0.5 5.5,0.9 z"
   id="path35" />&#10;			</g>&#10;			<g
   id="g40">&#10;				<g
   id="g37">&#10;					<path
   class="st1"
   d="m 324.9,198.2 c 0,0 -8.7,7.7 -9.4,4.3 -0.7,-3.3 -0.2,4.6 -2.2,0.8 -2,-3.7 -7,-12.7 -3.2,-25.5 5.7,-19.3 4,-7.4 4,-7.4 l -0.1,4.3 c 0,0 1.9,-6.1 9.5,-10.2 0.5,-0.3 -3.3,9.2 -3.2,8.6 0.6,-1.9 2.9,-7.3 10.6,-11.6 8.5,-4.7 50,-8.8 66.6,-1.2 16.8,7.6 19.2,12.2 24.4,15 5.2,2.7 14.5,7.9 14.5,7.9 l -2.7,0.6 c 0,0 10.3,4.6 18.8,2.7 8.5,-1.9 18.8,-3.9 20.9,-3.8 2.1,0.2 -2.8,4.2 -5.3,5.2 -2.5,1 2.2,1 2.2,1 0,0 -3.5,5.7 -10.9,7.9 -7.4,2.2 1.2,1.6 2.2,1.4 1,-0.2 -3.7,8.9 -13.9,14.4 -10.2,5.5 1.7,0 1.7,0 0,0 -14.1,12 -22.1,13.6 0,0 1.5,-2.6 3.2,-7.2 1.7,-4.5 -4.2,2.2 -1.7,-3.3 2.5,-5.5 5.5,-8.2 2.7,-8.4 -2.7,-0.2 -2,-0.7 3.5,-2.9 5.5,-2.2 -6.2,2.1 -17.1,-4.5 -10.9,-6.7 -12.2,-6.4 -12.9,-7.2 -0.7,-0.7 6.3,1.2 6.3,1.2 0,0 -10,-3.8 -12.5,-5.3 -2.5,-1.4 -7.9,-3.3 -18.1,-2.4 -10.2,0.9 -13.2,3.3 -25.8,0.5 -12.7,-2.9 -16.6,2.9 -16.6,2.9 0,0 1,-2.7 3.2,-4.1 2.3,-1.4 -11,8.6 -16.6,12.7 z"
   id="path36" />&#10;					<path
   class="st12"
   d="m 453.3,202.4 c 0,0 -9,3.2 -15.3,1.9 0,0 5.8,-3.2 7.6,-4.2 0,0 -6.7,2.3 -12,2.9 l -3,0.8 5.2,0.3 -5.5,3 2.2,0.6 -4.3,9.5 c 0,0 -0.6,0.7 1.2,0 1.8,-0.7 0.7,5.4 -1.3,7.3 -2,2 1,1.2 2.4,0.5 1.4,-0.7 13.7,-8.5 15.4,-9.7 1.6,-1.3 3.5,-2.8 3.5,-2.8 l -5.8,2.4 10.3,-7 -7.3,2.7 c 0,0 9.4,-4.1 11.9,-7.6 2.2,-3.1 3.1,-4.8 3.1,-4.8 0,0 -5.2,6.8 -10.9,7.6 0.1,0 2.3,-2.1 2.6,-3.4 z"
   id="path37" />&#10;				</g>&#10;				<g
   id="g39">&#10;					<path
   class="st1"
   d="m 282.7,198.5 c 0,0 8.7,8 9.5,4.5 0.8,-3.5 0.2,4.8 2.2,0.9 2,-3.9 8.7,-13.8 3.2,-26.6 -5.5,-12.7 -4,-7.7 -4,-7.7 l -0.5,4.7 c 0,0 -1.7,-9.6 -10.5,-14.1 -8.7,-4.5 -55.3,-14 -71.3,-4.7 -15.9,9.2 -23.2,20 -28.4,22.8 -5.2,2.8 -14.2,4.2 -14.2,4.2 h 4.5 c 0,0 -10.2,5.9 -18.7,3.9 -8.5,-2 -18.9,-4.1 -21,-3.9 -2.2,0.2 2.8,4.4 5.3,5.4 2.5,1 -2.2,1 -2.2,1 0,0 3.5,6 11,8.2 7.5,2.2 -1.2,1.7 -2.2,1.5 -1,-0.2 3.7,9.2 14,15 10.2,5.7 -1.7,0 -1.7,0 0,0 14.2,12.5 22.2,14.2 0,0 -1.5,-2.7 -3.2,-7.5 -1.7,-4.7 4.2,2.3 1.7,-3.4 -2.5,-5.8 -5.5,-8.5 -2.7,-8.8 2.7,-0.2 2,-0.7 -3.5,-3 -5.5,-2.2 6.2,2.2 17.2,-4.7 11,-7 12.2,-6.7 13,-7.5 0.7,-0.7 -6.3,1.2 -6.3,1.2 0,0 10.1,-4 12.6,-5.5 2.5,-1.5 8,-3.5 18.2,-2.5 10.2,1 13.2,3.5 25.9,0.5 12.7,-3 16.7,3 16.7,3 0,0 -1,-2.8 -3.2,-4.3 -2.6,-1.5 10.9,8.9 16.4,13.2 z"
   id="path38" />&#10;					<path
   class="st12"
   d="m 147.6,197 c 0,0 5.5,4 15,6 9.5,2 13.6,3.2 13.9,4 0.3,0.8 -2.6,0.8 -2,2.3 0.6,1.4 3.5,6.6 4.3,8.9 0.8,2.3 -2.3,0.3 -2.3,0.3 l 3.3,9.2 c 0,0 -14.7,-7.3 -20.6,-12.8 -5.9,-5.5 0.1,-1.4 0.1,-1.4 0,0 -13,-9.2 -14,-15 z"
   id="path39" />&#10;				</g>&#10;			</g>&#10;			<g
   id="g41">&#10;				<path
   class="st13"
   d="m 211.9,188.6 c 0,0 9,-2.8 24.4,0 15.4,2.8 25,-5.5 31.9,2.6 6.8,8.2 6.8,11.3 17.8,15.1 11,3.8 3,13.3 -4.9,13.3 -7.9,0 -19.1,11.7 -33.1,8.2 -14,-3.5 -58.5,-27.9 -36.1,-39.2 z"
   id="path40" />&#10;				<path
   class="st13"
   d="m 392.8,188.6 c 0,0 -9,-2.8 -24.4,0 -15.4,2.8 -25,-5.5 -31.9,2.6 -6.8,8.2 -6.8,11.3 -17.8,15.1 -11,3.8 -3,13.3 4.9,13.3 7.9,0 19.1,11.7 33.1,8.2 14.1,-3.5 58.5,-27.9 36.1,-39.2 z"
   id="path41" />&#10;			</g>&#10;			<g
   id="g43">&#10;				<path
   class="st14"
   d="m 382,185.2 c 0,0 2,17.2 -6.7,25.4 -6.7,6.4 -13.8,10.3 -27.3,10.2 -13.5,-0.1 -19.1,-7.4 -17.8,-19.1 0,0 24,-12.7 51.8,-16.5 z"
   id="path42" />&#10;				<path
   class="st15"
   d="m 380,203.4 c 0,0 -0.1,-8.4 -1.7,-9.6 -1.6,-1.2 -18.3,8 -22,11 -3.8,3 -12.1,10.2 -15.7,14.9 0,0 -7.3,-2.7 -8.7,-7.2 -1.4,-4.5 -3.2,-9.8 -1.6,-10.8 1.7,-1 15,-6.9 28.6,-10.9 13.6,-3.9 23.2,-5.7 23.2,-5.7 0,0 2.6,11.1 -2.1,18.3 z"
   id="path43" />&#10;			</g>&#10;			<g
   id="g45">&#10;				<path
   class="st14"
   d="m 222.3,186.7 c 0,0 -1.1,14.1 7.2,23.2 5.8,6.3 15.9,12.2 30.1,11.6 11.5,-0.5 15.6,-9.3 14.7,-17.2 0.1,-0.1 -22.8,-13.7 -52,-17.6 z"
   id="path44" />&#10;				<path
   class="st15"
   d="m 226.9,205.7 c 0,0 -0.8,-8.1 1.5,-9.8 2.3,-1.7 23.9,6.9 31.7,13.3 7.8,6.4 9.5,8.7 9.5,8.7 0,0 5.4,-7.3 5.2,-11.6 -0.2,-4.2 -3.2,-5.1 -15.6,-9.7 -11.5,-4.3 -35,-9.6 -36.6,-10.1 -1.6,-0.5 1.4,15.2 4.3,19.2 z"
   id="path45" />&#10;			</g>&#10;			<g
   id="g48">&#10;				<path
   class="st16"
   d="m 356.2,217.4 c 0,0 9.2,-2.8 11.4,-10.3 2.2,-7.5 0.6,-13.2 -2.4,-18 -3,-4.8 -31.7,-7.2 -30,12 0,0 1.5,12.2 8.8,15.4 6.4,2.9 12.2,0.9 12.2,0.9 z"
   id="path46" />&#10;				<path
   class="st17"
   d="m 355.4,210.9 c 0,0 4.9,-2.3 6.1,-7.9 1,-4.9 0,-8.7 -2.7,-10.2 -2.6,-1.6 -19.5,-4 -18.3,7.6 0,0 1,5.8 3.2,8.2 2.6,2.8 7.3,3.9 11.7,2.3 z"
   id="path47" />&#10;				<path
   class="st18"
   d="m 344.1,200.4 c 0,0 6.5,-0.7 6.6,4.5 0,5.2 -5.6,4.2 -6.9,3.7 -1.3,-0.5 -5.5,-5.6 0.3,-8.2 z"
   id="path48" />&#10;			</g>&#10;			<g
   id="g51">&#10;				<path
   class="st16"
   d="m 250.5,215.2 c 0,0 -9.8,-1.9 -12.7,-8.6 -2.9,-6.7 -1.6,-12.4 1.2,-17 3.3,-5.2 29.3,-11.3 31.3,12.6 0,0 0.2,7.6 -7.1,11.2 -6.4,3.1 -12.7,1.8 -12.7,1.8 z"
   id="path49" />&#10;				<path
   class="st17"
   d="m 249.1,208.8 c 0,0 -5.2,-1.4 -6.2,-6.6 -1.1,-5.6 -0.7,-7 2.7,-10.7 3.4,-3.7 16.3,-4.4 18.1,6.8 0,0 0.4,5.7 -1.8,8.1 -2.6,2.8 -8.1,3.5 -12.8,2.4 z"
   id="path50" />&#10;				<path
   class="st18"
   d="m 249,196.1 c 0,0 -6.5,-0.4 -6,5.9 0.4,5.2 5.8,4.5 7.1,4 3.2,-1.3 5.1,-7.4 -1.1,-9.9 z"
   id="path51" />&#10;			</g>&#10;			<path
   class="st13"
   d="m 220.8,180.2 c 0,0 20,4.3 33.4,2.2 13.4,-2.1 25.1,1.6 26.9,6.6 1.8,5 6.7,21.5 -8.3,13.4 -14.9,-8 -24.4,-8.4 -35.6,-11.6 -11.2,-3.1 -25.5,-10.2 -16.4,-10.6 z"
   id="path52" />&#10;			<path
   class="st13"
   d="m 389,180.2 c 0,0 -20,4.3 -33.4,2.2 -13.4,-2.1 -25.1,1.6 -26.9,6.6 -1.8,5 -6.7,21.5 8.3,13.4 14.9,-8 24.4,-8.4 35.6,-11.6 11.2,-3.1 25.6,-10.2 16.4,-10.6 z"
   id="path53" />&#10;			<path
   class="st19"
   d="m 328.7,204 c 1,-1.5 2,-2.2 1.9,-1.2 -0.1,1 -2,6.9 1.3,10.5 0,0 -1.1,-4.6 3.8,-9.9 3.4,-3.6 7.5,-3.7 12.7,-5 5.2,-1.3 19.1,-6.7 24.6,-8.6 5.5,-1.9 20.5,-6.9 24.9,-7.5 4.4,-0.6 8.3,-2.1 8.3,-2.1 0,0 -13,-0.6 -32.1,5.2 -19.1,5.7 -18.4,5.4 -18.4,5.4 0,0 6.7,-2.7 9.4,-5.5 0,0 -10.7,2.8 -14,4.8 -3.2,2 -6.4,2 -13.7,5.9 -3,1.6 -13.8,6.3 -17.7,15.6 0,0 1.1,-1.3 4.9,-3.8 z"
   id="path54" />&#10;			<g
   id="g59">&#10;				<g
   id="g56">&#10;					<path
   class="st1"
   d="m 324.9,198.2 c 0,0 -8.7,7.7 -9.4,4.3 -0.7,-3.3 -0.2,4.6 -2.2,0.8 -2,-3.7 -7,-12.7 -3.2,-25.5 5.7,-19.3 4,-7.4 4,-7.4 l -0.1,4.3 c 0,0 1.9,-6.1 9.5,-10.2 0.5,-0.3 -3.3,9.2 -3.2,8.6 0.6,-1.9 2.9,-7.3 10.6,-11.6 8.5,-4.7 50,-8.8 66.6,-1.2 16.8,7.6 19.2,12.2 24.4,15 5.2,2.7 14.5,7.9 14.5,7.9 l -2.7,0.6 c 0,0 10.3,4.6 18.8,2.7 8.5,-1.9 18.8,-3.9 20.9,-3.8 2.1,0.2 -2.8,4.2 -5.3,5.2 -2.5,1 2.2,1 2.2,1 0,0 -3.5,5.7 -10.9,7.9 -7.4,2.2 1.2,1.6 2.2,1.4 1,-0.2 -3.7,8.9 -13.9,14.4 -10.2,5.5 1.7,0 1.7,0 0,0 -14.1,12 -22.1,13.6 0,0 1.5,-2.6 3.2,-7.2 1.7,-4.5 -4.2,2.2 -1.7,-3.3 2.5,-5.5 5.5,-8.2 2.7,-8.4 -2.7,-0.2 -2,-0.7 3.5,-2.9 5.5,-2.2 -6.2,2.1 -17.1,-4.5 -10.9,-6.7 -12.2,-6.4 -12.9,-7.2 -0.7,-0.7 6.3,1.2 6.3,1.2 0,0 -10,-3.8 -12.5,-5.3 -2.5,-1.4 -7.9,-3.3 -18.1,-2.4 -10.2,0.9 -13.2,3.3 -25.8,0.5 -12.7,-2.9 -16.6,2.9 -16.6,2.9 0,0 1,-2.7 3.2,-4.1 2.3,-1.4 -11,8.6 -16.6,12.7 z"
   id="path55" />&#10;					<path
   class="st12"
   d="m 453.3,202.4 c 0,0 -9,3.2 -15.3,1.9 0,0 5.8,-3.2 7.6,-4.2 0,0 -6.7,2.3 -12,2.9 l -3,0.8 5.2,0.3 -5.5,3 2.2,0.6 -4.3,9.5 c 0,0 -0.6,0.7 1.2,0 1.8,-0.7 0.7,5.4 -1.3,7.3 -2,2 1,1.2 2.4,0.5 1.4,-0.7 13.7,-8.5 15.4,-9.7 1.6,-1.3 3.5,-2.8 3.5,-2.8 l -5.8,2.4 10.3,-7 -7.3,2.7 c 0,0 9.4,-4.1 11.9,-7.6 2.2,-3.1 3.1,-4.8 3.1,-4.8 0,0 -5.2,6.8 -10.9,7.6 0.1,0 2.3,-2.1 2.6,-3.4 z"
   id="path56" />&#10;				</g>&#10;				<g
   id="g58">&#10;					<path
   class="st1"
   d="m 282.7,198.5 c 0,0 8.7,8 9.5,4.5 0.8,-3.5 0.2,4.8 2.2,0.9 2,-3.9 8.7,-13.8 3.2,-26.6 -5.5,-12.7 -4,-7.7 -4,-7.7 l -0.5,4.7 c 0,0 -1.7,-9.6 -10.5,-14.1 -8.7,-4.5 -55.3,-14 -71.3,-4.7 -15.9,9.2 -23.2,20 -28.4,22.8 -5.2,2.8 -14.2,4.2 -14.2,4.2 h 4.5 c 0,0 -10.2,5.9 -18.7,3.9 -8.5,-2 -18.9,-4.1 -21,-3.9 -2.2,0.2 2.8,4.4 5.3,5.4 2.5,1 -2.2,1 -2.2,1 0,0 3.5,6 11,8.2 7.5,2.2 -1.2,1.7 -2.2,1.5 -1,-0.2 3.7,9.2 14,15 10.2,5.7 -1.7,0 -1.7,0 0,0 14.2,12.5 22.2,14.2 0,0 -1.5,-2.7 -3.2,-7.5 -1.7,-4.7 4.2,2.3 1.7,-3.4 -2.5,-5.8 -5.5,-8.5 -2.7,-8.8 2.7,-0.2 2,-0.7 -3.5,-3 -5.5,-2.2 6.2,2.2 17.2,-4.7 11,-7 12.2,-6.7 13,-7.5 0.7,-0.7 -6.3,1.2 -6.3,1.2 0,0 10.1,-4 12.6,-5.5 2.5,-1.5 8,-3.5 18.2,-2.5 10.2,1 13.2,3.5 25.9,0.5 12.7,-3 16.7,3 16.7,3 0,0 -1,-2.8 -3.2,-4.3 -2.6,-1.5 10.9,8.9 16.4,13.2 z"
   id="path57" />&#10;					<path
   class="st12"
   d="m 147.6,197 c 0,0 5.5,4 15,6 9.5,2 13.6,3.2 13.9,4 0.3,0.8 -2.6,0.8 -2,2.3 0.6,1.4 3.5,6.6 4.3,8.9 0.8,2.3 -2.3,0.3 -2.3,0.3 l 3.3,9.2 c 0,0 -14.7,-7.3 -20.6,-12.8 -5.9,-5.5 0.1,-1.4 0.1,-1.4 0,0 -13,-9.2 -14,-15 z"
   id="path58" />&#10;				</g>&#10;			</g>&#10;			<path
   class="st19"
   d="m 199.6,182.8 c 0,0 14.8,-2.2 33.9,3.5 19.1,5.7 24.4,8.1 24.4,8.1 0,0 -11.8,-5.4 -14.6,-8.2 0,0 7.9,2.2 11.1,4.2 3.2,2 9.2,5.4 12.3,6.6 3.1,1.2 14.3,7.2 18.3,14.9 0,0 -1.7,-2.5 -5.5,-5 0,0 2.7,8.9 2.1,11.2 0,0 -1.9,-3.1 -2.2,-4.3 -0.2,-1.2 -2.2,-6.9 -3.2,-8.4 -1,-1.5 -2,-2.2 -1.9,-1.2 0.1,1 2,6.9 -1.3,10.5 0,0 1.1,-4.6 -3.8,-9.9 -3.4,-3.6 -7.2,-4.8 -12.4,-6.1 -5.2,-1.3 -19.4,-5.6 -24.9,-7.5 -5.5,-1.9 -21.2,-6.1 -25.5,-6.7 -4.3,-0.6 -6.8,-1.7 -6.8,-1.7 z"
   id="path59" />&#10;			<path
   class="st4"
   d="m 389.6,185.2 c 0,0 -12.1,0.2 -20.5,1.8 -8.4,1.6 -16,-1.8 -16,-1.8 0,0 -2.5,-2 11,-0.9 13.5,1.1 23.4,-10.3 41.4,-6.3 18,4 11.5,11.6 0,9.4 -11.5,-2.3 -15.9,-2.2 -15.9,-2.2 z"
   id="path60" />&#10;			<path
   class="st4"
   d="m 218.7,185.2 c 0,0 12.1,0.2 20.5,1.8 8.4,1.5 16,-1.8 16,-1.8 0,0 2.5,-2 -11,-0.9 -13.5,1.1 -23.4,-10.3 -41.4,-6.3 -18,4 -11.5,11.6 0,9.4 11.4,-2.3 15.9,-2.2 15.9,-2.2 z"
   id="path61" />&#10;			<g
   id="g66">&#10;				<path
   class="st20"
   d="m 184.3,165 c 0,0 -5.7,-65 55,-99.4 60.7,-34.4 117.5,-12.3 139.5,4.1 22,16.4 46.7,43.2 42.9,92.5 0,0 -9.2,-4.6 -35.3,-4.2 -27.7,0.4 -38.7,0.7 -53.4,-1.1 -14.7,-1.8 -15.2,-10.1 -60.3,-2.6 -45.1,7.5 -49.3,-2.2 -83,10.8 h -5.4 z"
   id="path62" />&#10;				<g
   id="g65">&#10;					<path
   class="st21"
   d="m 186.8,136.6 c 0,0 36.4,-18.4 94.3,-16.1 57.9,2.3 100.6,-0.5 140,17.7 0,0 6.4,18.5 0.5,23.9 0,0 -15.3,-6.8 -54.3,-6.3 -39.1,0.6 -56.8,-5 -64.2,-4.8 -7.4,0.2 -78.8,4.2 -92.5,7.7 -13.7,3.5 -26.6,10.8 -26.4,3.3 0.1,-7.4 -1.5,-23.5 2.6,-25.4 z"
   id="path63" />&#10;					<path
   class="st22"
   d="m 424,156.2 c 0,0 -17.7,-10.6 -56.8,-12.3 -46.4,-2 -74.7,-3.8 -81.3,-3.6 -35.5,1.3 -99.1,11.2 -101.9,18.8"
   id="path64" />&#10;					<path
   class="st22"
   d="m 183.9,148.3 c 0,0 37.2,-20.7 96.6,-18.2 59.4,2.5 103.1,-0.6 143.5,19.9"
   id="path65" />&#10;				</g>&#10;			</g>&#10;			<g
   id="g75">&#10;				<g
   id="g74">&#10;					<path
   class="st23"
   d="m 304.1,110.8 c 0,0 -4.3,-0.7 -7,-6.6 -2.7,-6 -19.1,-29.1 -41.5,-26.4 -22.4,2.7 -49,13 -58,43.5 -9,30.6 18.1,53.3 36.6,53 18.5,-0.3 27.5,-4.2 39.2,-13.1 11.7,-9 15.6,-15.5 17.8,-19 2.2,-3.4 6.5,-9.1 14.6,-9.8 8.1,-0.7 14,9.5 19.4,17.8 5.4,8.3 25.9,23.6 44.5,21.4 18.6,-2.2 31.7,-9.8 38.5,-23.4 6.8,-13.6 3.6,-39.9 -11.5,-52.3 -15,-12.4 -54.1,-35.4 -82,4 0.1,-0.1 -5.8,12.7 -10.6,10.9 z"
   id="path66" />&#10;					<path
   class="st24"
   d="m 288.9,102.8 c 7.8,18.3 -8.6,46.3 -32.6,56.9 -21.8,9.7 -42.1,2.1 -49.7,-16.3 -9.1,-22.1 3.3,-45.5 27.4,-55.8 24.2,-10.4 47.1,-3.1 54.9,15.2 z"
   id="path67" />&#10;					<path
   class="st24"
   d="m 321.6,103.3 c -7.8,18.3 8.3,46.1 31.9,56.6 21.5,9.5 41.7,1.9 49.2,-16.5 9.1,-22.1 -5.5,-46.3 -29.2,-56.5 -23.8,-10.2 -44.1,-1.9 -51.9,16.4 z"
   id="path68" />&#10;					<path
   class="st25"
   d="m 210.5,164.3 c 0,0 9.9,12.3 26.8,14.5 16.9,2.2 33.3,-5.5 42.9,-16.9 9.7,-11.5 8.8,-14 14.2,-19.7 5.5,-5.8 7.5,-5.8 11.3,-6.1 3.8,-0.3 9.1,4 12.3,9.5 3.2,5.5 8.1,17.4 22.5,25.4 14.4,8 26.9,11 40.9,4.8 14,-6.2 24.6,-16.1 26.9,-27.6 0,0 -7.9,19.9 -37.3,23.3 -29.4,3.3 -46.8,-23.4 -50.2,-27.9 -3.4,-4.5 -6.9,-11.5 -15.9,-11.1 -9.1,0.4 -14.8,12.1 -18.1,15.9 -3.3,3.8 -19.4,21.9 -38.5,24.6 -19.1,2.7 -26.6,0.7 -37.8,-8.7 z"
   id="path69" />&#10;					<path
   class="st26"
   d="m 278.1,107.2 c 7.9,18.7 -7.2,37.5 -25.8,45.7 -16.9,7.5 -31.4,1.9 -37.3,-12.4 -7,-17.2 2.6,-33.6 21.3,-41.6 18.7,-8 35.8,-6 41.8,8.3 z"
   id="path70" />&#10;					<path
   class="st26"
   d="m 333.5,108.4 c -7.9,18.7 5.7,36.6 24.1,44.8 16.7,7.4 31.1,1.7 36.9,-12.6 7,-17.2 -2.4,-33.5 -20.9,-41.4 -18.5,-7.9 -34.1,-5.1 -40.1,9.2 z"
   id="path71" />&#10;					<path
   class="st27"
   d="m 259.8,100.7 c 0,0 -13,16 -17.5,22.7 -4.5,6.7 -9.9,16.8 -18,14.4 -8.1,-2.4 -0.6,-22.7 10.7,-30.7 11.3,-7.9 18.7,-9.5 24.8,-6.4 z"
   id="path72" />&#10;					<path
   class="st27"
   d="m 385.9,109.5 c 0,0 -13.1,-9.7 -22.8,-9 l 1.9,-1.1 c 0,0 -6.7,-2.8 -15.3,-1.3 -8.6,1.5 -12.8,20.3 -8.4,20.7 4.4,0.5 9.9,-1.6 16.8,-4.3 6.9,-2.7 25.4,-5.1 27.8,-5 z"
   id="path73" />&#10;					<path
   class="st12"
   d="m 305.8,120.5 c 0,0 5.8,-0.1 10.6,8 4.7,8 11.3,19.2 19,25.4 7.7,6.2 25.4,20.4 56,11.1 0,0 13.6,-6.4 16.3,-14.2 0,0 -9.6,25.8 -38.6,28.4 -29,2.6 -45.7,-24.4 -46.8,-26.3 -1.1,-2 -7.8,-16.3 -16.4,-16.8 -8.6,-0.6 -15.4,11.4 -16.4,13.1 -1.1,1.8 -11.8,19.8 -23.4,24.2 -12.4,4.7 -32.2,14.9 -55.5,-9 0,0 15.1,9.6 36.8,5 20.7,-4.4 33.3,-16.4 38.7,-25.7 5.3,-9.3 11.4,-20.5 19.7,-23.2 z"
   id="path74" />&#10;				</g>&#10;			</g>&#10;		</g>&#10;	</g>&#10;</g>&#10;</svg>
