<?xml version="1.0" encoding="UTF-8" standalone="no"?>
<!-- Generator: Adobe Illustrator 26.0.1, SVG Export Plug-In . SVG Version: 6.00 Build 0)  -->

<svg
   version="1.1"
   x="0px"
   y="0px"
   viewBox="0 0 293.86578 216.87852"
   xml:space="preserve"
   id="svg107"
   sodipodi:docname="fox-legs.svg"
   width="293.86578"
   height="216.87852"
   inkscape:version="1.3 (0e150ed6c4, 2023-07-21)"
   xmlns:inkscape="http://www.inkscape.org/namespaces/inkscape"
   xmlns:sodipodi="http://sodipodi.sourceforge.net/DTD/sodipodi-0.dtd"
   xmlns="http://www.w3.org/2000/svg"
   xmlns:svg="http://www.w3.org/2000/svg"><defs
   id="defs107" /><sodipodi:namedview
   id="namedview107"
   pagecolor="#505050"
   bordercolor="#ffffff"
   borderopacity="1"
   inkscape:showpageshadow="0"
   inkscape:pageopacity="0"
   inkscape:pagecheckerboard="1"
   inkscape:deskcolor="#505050"
   inkscape:zoom="2.8066667"
   inkscape:cx="157.83848"
   inkscape:cy="68.40855"
   inkscape:window-width="1920"
   inkscape:window-height="1051"
   inkscape:window-x="-9"
   inkscape:window-y="-9"
   inkscape:window-maximized="1"
   inkscape:current-layer="g106" />&#10;<style
   type="text/css"
   id="style1">&#10;	.st0{fill:#F4EFDF;stroke:#000000;stroke-width:1.4642;stroke-miterlimit:10;}&#10;	.st1{fill:#37342F;stroke:#000000;stroke-width:1.4642;stroke-miterlimit:10;}&#10;	.st2{opacity:0.28;}&#10;	.st3{fill:none;stroke:#000000;stroke-width:1.4642;stroke-miterlimit:10;}&#10;	.st4{fill:#59493D;}&#10;	.st5{fill:#FFFFFF;stroke:#000000;stroke-width:1.4642;stroke-miterlimit:10;}&#10;	.st6{fill:#4F4F4F;stroke:#000000;stroke-width:1.4642;stroke-miterlimit:10;}&#10;	.st7{fill:#A7A9A7;stroke:#000000;stroke-width:1.4642;stroke-miterlimit:10;}&#10;	.st8{fill:#485D4A;stroke:#000000;stroke-width:1.9522;stroke-miterlimit:10;}&#10;	.st9{fill:none;stroke:#000000;stroke-width:0.4881;stroke-miterlimit:10;}&#10;	.st10{fill:#485D4A;}&#10;	.st11{fill:#43392E;}&#10;</style>&#10;<g
   id="Layer_1"
   transform="translate(-180.1,-345.34716)">&#10;</g>&#10;<g
   id="Layer_19"
   transform="translate(-180.1,-345.34716)">&#10;</g>&#10;<g
   id="Layer_20"
   transform="translate(-180.1,-345.34716)">&#10;</g>&#10;<g
   id="Tail"
   transform="translate(-180.1,-345.34716)">&#10;</g>&#10;<g
   id="right_leg"
   transform="translate(-180.1,-345.34716)">&#10;</g>&#10;<g
   id="Left_leg"
   transform="translate(-180.1,-345.34716)">&#10;</g>&#10;<g
   id="body"
   transform="translate(-180.1,-345.34716)">&#10;</g>&#10;<g
   id="belt"
   transform="translate(-180.1,-345.34716)">&#10;</g>&#10;<g
   id="Face"
   transform="translate(-180.1,-345.34716)">&#10;</g>&#10;<g
   id="Left_ear"
   transform="translate(-180.1,-345.34716)">&#10;</g>&#10;<g
   id="Right_ear"
   transform="translate(-180.1,-345.34716)">&#10;</g>&#10;<g
   id="White_mouth"
   transform="translate(-180.1,-345.34716)">&#10;</g>&#10;<g
   id="Closed_mouth"
   transform="translate(-180.1,-345.34716)">&#10;	<g
   id="Mouth_copy">&#10;	</g>&#10;</g>&#10;<g
   id="Mouth"
   transform="translate(-180.1,-345.34716)">&#10;</g>&#10;<g
   id="wide_opened_mouth"
   transform="translate(-180.1,-345.34716)">&#10;	<g
   id="Mouth_copy_2">&#10;	</g>&#10;</g>&#10;<g
   id="Nose"
   transform="translate(-180.1,-345.34716)">&#10;</g>&#10;<g
   id="Nose_hair_2"
   transform="translate(-180.1,-345.34716)">&#10;</g>&#10;<g
   id="Nose_hair_1"
   transform="translate(-180.1,-345.34716)">&#10;</g>&#10;<g
   id="Eye_brow"
   transform="translate(-180.1,-345.34716)">&#10;</g>&#10;<g
   id="white_part_of_eyes"
   transform="translate(-180.1,-345.34716)">&#10;	<g
   id="Eyes_opened_copy">&#10;	</g>&#10;</g>&#10;<g
   id="eyes_2"
   transform="translate(-180.1,-345.34716)">&#10;	<g
   id="Layer_29">&#10;	</g>&#10;</g>&#10;<g
   id="eyes_1"
   transform="translate(-180.1,-345.34716)">&#10;	<g
   id="Layer_30">&#10;	</g>&#10;</g>&#10;<g
   id="Opened_eye_cover"
   transform="translate(-180.1,-345.34716)">&#10;</g>&#10;<g
   id="Eyes_closed"
   transform="translate(-180.1,-345.34716)">&#10;	<g
   id="Eyes_copy">&#10;	</g>&#10;</g>&#10;<g
   id="cap"
   transform="translate(-180.1,-345.34716)">&#10;</g>&#10;<g
   id="Glasses"
   transform="translate(-180.1,-345.34716)">&#10;	<g
   id="g107">&#10;		<g
   id="g106">&#10;			&#10;			<g
   id="g8"
   transform="matrix(0.94224079,0.14536238,-0.14536238,0.94224079,84.064045,-45.522106)">&#10;				<g
   id="g5">&#10;					<path
   class="st0"
   d="m 286.4,393.4 c 0,0 -11.8,16.9 18.4,58.3 16,21.9 28.1,24.4 54.1,23.6 l -4.1,-2.8 c 0,0 21.3,4.6 38.8,-1.6 0,0 -11.5,1.7 -15.1,-1 0,0 4.7,0.2 8.2,0.5 3.5,0.3 7.1,-2.2 13.5,-2 6.4,0.2 19.6,4.7 36.8,-5.4 0,0 -7.4,0.1 -9.1,-0.9 0,0 11.2,-1.5 16.1,-4.5 4.9,-3 8.1,-6.1 8.1,-6.1 0,0 -4.8,0 -5.4,0 -0.6,0 11.9,-0.4 19.9,-19.1 8.2,-19.3 1.9,-8.1 1.9,-8.1 0,0 7.4,-10.8 3.7,-24.8 0,0 -1.7,-0.6 -2.7,-1.1 -1,-0.5 -1.7,-5.8 -12.3,-8.8 h 4.3 c 0,0 -5.3,-3.9 -17.3,-5.1 -12,-1.2 -20.4,-0.1 -24.9,2.4 -4.5,2.5 -0.4,-1 -0.4,-1 0,0 -1.6,-0.2 -7.7,5 -6.1,5.2 -19,12.1 -28.8,10.6 -9.8,-1.5 0.8,-0.1 3.7,-1.7 2.9,-1.6 -29.8,1.1 -37,-6 -11.3,-10.9 -55.3,-22.3 -62.7,-0.4 z"
   id="path1"
   style="fill:#f4efdf;stroke:#000000;stroke-width:1.4642;stroke-miterlimit:10" />&#10;					<path
   class="st1"
   d="m 417.6,387.9 3.8,-1.8 c 0,0 -3.4,3.3 -1.9,5 1.5,1.6 4.3,2.1 7.2,2.4 3,0.2 4.7,5.2 5.7,7.2 1,2 5.2,4 7.7,4 0,0 -4.7,5.2 -1.2,8 3.5,2.7 5.5,6.9 5.7,10 0.2,3.2 2.7,4.1 2.7,0.1 0,-4.1 2,7.6 -1.5,12.1 -3.5,4.5 0.5,8.3 2.5,7.4 1,-0.5 -3,3.3 -4.2,6.6 -1.2,3.2 4.7,2.9 4.7,2.9 h 3.1 c 0,0 -4.1,8.2 -24.2,10.6 h -2.3 c 0,0 4.2,-4.3 4,-6 -0.2,-1.7 -6.5,1.5 -7.2,1 -0.7,-0.5 4,-3.5 4.3,-6.5 0.3,-3 -4.7,-3.3 -4.7,-3.3 0,0 4.5,-5.8 5.3,-8.6 0.8,-2.8 1.5,-7.3 -0.7,-9.5 -2.2,-2.2 -4.7,4 -4.7,4 0,0 2.6,-6 1.1,-11.9 -0.5,-1.9 -5.6,-3.6 -6.4,-1.2 -0.6,1.7 1,-6.7 0,-7.6 -4.1,-3.9 -5.9,-4.7 -7.8,-4.1 l 0.3,-2.9 c 0,0 0.6,-7.7 -11.3,-6.6 0,0 7.6,-3.5 12.3,-7.1 4.6,-3.6 8.7,-5.7 8.7,-5.7 z"
   id="path2"
   style="fill:#37342f;stroke:#000000;stroke-width:1.4642;stroke-miterlimit:10" />&#10;					<path
   class="st1"
   d="m 348.4,391.8 5.4,4.7 c 0,0 -5.3,-0.4 -4.7,2.2 0.6,2.6 0.5,3.1 3.5,5.4 3,2.3 2,7 1.9,9.6 -0.1,2.6 -0.8,5.8 1.8,7.6 0,0 -4.4,2.1 -2.4,7 2,5 -0.5,8.9 -2.2,12.1 -1.7,3.1 0.8,7.6 3.3,3.8 2.5,-3.8 1,8.2 -5.4,10 -6.4,1.8 -4.5,8.1 -1.9,8.6 1.4,0.3 -5.2,1 -8.5,3.2 -3.3,2.2 3.2,6 3.2,6 l 13.6,3.5 c 0,0 -14.6,2.5 -31.1,-4.8 0,0 -3.5,-2.6 -6.5,-5.5 -2.7,-2.5 -6.9,-6.1 -6.9,-6.1 0,0 5.7,4.1 6.5,2.4 0.8,-1.7 -0.7,-6.7 -1.6,-7.5 -0.7,-0.7 3.8,2 6,-0.5 2.2,-2.5 -3.3,-7.8 -3.3,-7.8 0,0 5.1,0.7 7.7,-1.3 2.6,-2.1 1.2,-5.1 0.2,-8.6 -0.9,-3.5 -4,-6.4 -4,-6.4 0,0 4.6,3.2 6.7,-3.2 0.7,-2.2 -1.7,-7.9 -4,-6.3 -1.6,1.2 4.5,-4.4 4,-5.9 -1.9,-6.5 -2.9,-8 -5.3,-8.7 0,0 3.7,-3.3 4.4,-6 0.6,-2.7 -4.4,-6.4 -4.4,-6.4 0,0 7.4,-6.4 1,-9.6 0,0 6.1,1.7 13.3,4.1 6.7,2.2 12.4,2.9 12.4,2.9 z"
   id="path3"
   style="fill:#37342f;stroke:#000000;stroke-width:1.4642;stroke-miterlimit:10" />&#10;					<path
   class="st1"
   d="m 386.6,401.5 3,-0.4 c 0,0 -0.2,4.6 0.7,6.6 0.9,2 0.3,4.6 3,5.8 2.7,1.3 5.2,1.1 4.3,3.1 -1.3,2.8 -1.1,4.6 1.9,3.2 0,0 -0.1,1.4 2.2,5.1 1.8,3 3.2,0.9 2.6,3.1 -0.2,0.6 -0.6,2.1 -1,3.4 -0.6,1.7 2.2,1.6 3.4,1.7 1,0.1 0.6,-0.2 -0.5,3.8 -0.6,2 3.1,4.4 4.6,5.9 0.8,0.8 1.3,0.6 -0.4,1.6 -7.9,4.9 2.3,3.3 2.1,4.2 -0.3,1.9 -4.6,3.6 -6.5,5.6 -2.7,2.8 4.4,2.6 4.9,2.3 1,-0.5 -1.6,5.8 -3.9,8.4 -2.3,2.6 -6.6,3.7 -6.6,3.7 l 6.5,0.4 c 0,0 -10.3,6.9 -29.9,2.1 l -2.1,-0.8 c 0,0 5.4,-2.6 5.8,-4.2 0.4,-1.6 -6.6,-0.9 -7.1,-1.6 -0.5,-0.7 5,-1.9 6.3,-4.6 1.4,-2.7 -3.2,-4.7 -3.2,-4.7 0,0 0.1,-3.1 1.8,-5.4 1.8,-2.4 4.9,-7.6 3.6,-10.4 -1.3,-2.8 -4.3,-2.5 -4.3,-2.5 0,0 4.6,-4.3 0.7,-12.9 -3.9,-8.6 -5.5,-7.7 -7.9,-7.8 l 2,-6.9 c 0,0 -0.7,-8.3 -12.2,-11.5 0,0 7.4,1 13.3,1.1 4.7,0.1 14.5,0.8 14.5,0.8 z"
   id="path4"
   style="fill:#37342f;stroke:#000000;stroke-width:1.4642;stroke-miterlimit:10" />&#10;					<path
   class="st2"
   d="m 370,473.8 c -0.5,-5.1 -0.8,-10.1 -1,-15.2 -0.3,-8 -0.5,-16.1 -1,-24.1 -1.3,-5.5 -3,-10.8 -4.9,-16.2 -1.5,-4.3 -3.1,-8.6 -4.7,-12.9 -1.5,-3.1 -3.1,-6.2 -4.8,-9.3 -1.9,-0.7 -3.5,-1.5 -4.5,-2.5 -11.2,-11 -55.3,-22.4 -62.6,-0.5 0,0 -11.8,16.9 18.4,58.3 16,21.9 28.1,24.4 54.1,23.6 l -4.1,-2.8 c 0,0 6.4,1.4 15.1,1.6 z"
   id="path5"
   style="opacity:0.28" />&#10;				</g>&#10;				<path
   class="st1"
   d="m 461.5,389.7 c 0,0 -11.7,-4.4 -14.5,-4.7 l -8.8,-0.8 11.6,2.8 -9.1,0.1 c 0,0 6.1,0.5 12.3,7.3 6.1,6.8 2,13.5 2,13.5 0,0 3,-2.6 6.5,2.4 3.5,4.9 2.3,7.4 2.3,7.4 0,0 0.8,-0.8 4,-1.3 3.2,-0.5 0.6,8.1 0.6,8.1 0,0 7.1,-9.3 3.7,-24.8 l -2.7,-1.1 c 0,0 -4.5,-7.5 -12.3,-8.8 h 4.4 z"
   id="path6"
   style="fill:#37342f;stroke:#000000;stroke-width:1.4642;stroke-miterlimit:10" />&#10;				<path
   class="st1"
   d="m 292.4,386.1 c 0,0 3,-2 6.9,-3.9 l 16,-1.4 -5.3,6.8 4.2,7.6 c 0,0 -2.7,1.1 -6.6,8.5 -2.3,4.4 5.7,13.5 5.7,13.5 0,0 -5.6,-2.2 -8.1,6.6 -2.6,8.8 0.3,11.8 0.3,11.8 0,0 -1.6,-0.8 -6.4,0.1 -4.8,0.9 3.1,11.9 3.1,11.9 0,0 -14.7,-9.8 -17.5,-33.8 l -1,-7.1 c 0,0 -1.2,-7.9 4.6,-16.3 z"
   id="path7"
   style="fill:#37342f;stroke:#000000;stroke-width:1.4642;stroke-miterlimit:10" />&#10;				<path
   class="st3"
   d="M 299.3,382.2"
   id="path8"
   style="fill:none;stroke:#000000;stroke-width:1.4642;stroke-miterlimit:10" />&#10;			</g><g
   id="g54">&#10;				<g
   id="g40">&#10;					<g
   id="g10">&#10;						<path
   class="st4"
   d="m 206.3,552.2 c -11.5,0 -19.1,-1.5 -24.7,-4.9 l -0.5,-0.3 0.2,-0.6 c 0.1,-0.4 3.6,-9.1 10,-15.2 3,-2.9 5,-4.6 6.3,-5.8 1.5,-1.3 2.3,-2 2.8,-2.8 l 0.2,-0.3 c 1.3,-1.9 4.4,-6.4 9.9,-11.6 5.5,-5.1 7.7,-25.9 7.2,-31.6 0,-0.6 -1.1,-15.2 -0.2,-19.7 0.6,-3.3 16.5,-11.9 32.1,-11.9 12.2,0 21.5,5.2 27,15.2 l 0.1,0.2 -0.1,0.3 c 0,0.1 -2.5,12.6 -6.1,22.2 -3.7,10 -4.1,16.9 -4,20.1 0.1,4.4 0.7,10.7 1.1,11.6 0.3,0.7 0.2,1.8 -0.4,2.6 -0.5,0.7 -1.1,1.2 -1.9,1.4 1.2,1.5 2.7,4.4 1.7,8.5 -0.4,1.8 -0.7,3.2 -0.8,4.1 -0.3,2.1 -0.5,3.1 -2.3,3.5 -0.5,0.1 -1.2,0.2 -2.1,0.4 -3.1,0.6 -8.9,1.6 -13,3.8 -1.3,0.7 -2.4,1.6 -3.5,2.6 -3.3,2.8 -7.4,6.4 -21,7.3 -5.9,0.5 -12.2,0.9 -18,0.9 z"
   id="path9" />&#10;						<path
   d="m 249.6,448.2 c 10,0 20.2,3.6 26.3,14.8 0,0 -2.5,12.4 -6.1,22.1 -3.6,9.7 -4.2,16.6 -4,20.4 0.1,3.7 0.6,10.7 1.1,11.8 0.5,1 -0.6,3.2 -2.6,3.2 -0.2,0 -0.4,0 -0.6,-0.1 0,0 3.9,3.2 2.6,9 -1.4,5.7 -0.6,6.6 -2.6,7.1 -1.9,0.5 -9.9,1.4 -15.3,4.2 -5.4,2.9 -6.2,8.6 -24.2,9.8 -6.4,0.4 -12.5,0.8 -18.1,0.8 -9.9,0 -18.2,-1.1 -24.3,-4.8 0,0 3.5,-8.8 9.8,-15 6.4,-6.1 8.1,-7.1 9.2,-8.7 1.1,-1.6 4.3,-6.4 10,-11.7 5.7,-5.4 8,-26.3 7.5,-32.2 0,0 -1.1,-15 -0.2,-19.5 0.7,-2.6 16,-11.2 31.5,-11.2 m 0,-1.4 v 0 c -15.7,0 -32,8.6 -32.8,12.5 -0.9,4.6 0.2,19.3 0.2,19.9 0.5,6.4 -2,26.4 -7,31 -5.5,5.2 -8.8,9.9 -10,11.7 l -0.2,0.3 c -0.5,0.7 -1.2,1.4 -2.7,2.7 -1.3,1.2 -3.3,3 -6.3,5.8 -6.5,6.3 -10,15.1 -10.2,15.5 l -0.5,1.1 1.1,0.6 c 5.7,3.5 13.4,5 25,5 5.8,0 12.2,-0.4 18.2,-0.8 13.8,-1 18,-4.6 21.4,-7.5 1.1,-1 2.1,-1.8 3.4,-2.5 4,-2.1 9.7,-3.1 12.7,-3.7 1,-0.2 1.7,-0.3 2.2,-0.4 2.2,-0.6 2.5,-2 2.8,-4.1 0.2,-1 0.4,-2.3 0.8,-4.1 0.9,-3.8 -0.2,-6.6 -1.3,-8.3 0.5,-0.3 1,-0.8 1.4,-1.3 0.7,-1.1 0.9,-2.4 0.4,-3.3 -0.3,-0.8 -0.8,-6.8 -1,-11.3 -0.1,-3.2 0.3,-9.9 3.9,-19.8 3.6,-9.7 6.1,-22.2 6.1,-22.4 l 0.1,-0.5 -0.3,-0.5 c -5.4,-10.3 -14.9,-15.6 -27.4,-15.6 z"
   id="path10" />&#10;					</g>&#10;					<path
   class="st5"
   d="m 265.2,535.3 c 0,0 1.1,4.9 0.5,5.9 -0.6,1 -0.2,2.6 -6.9,3.6 -6.6,1 -9.7,1.2 -12.6,3.6 -2.9,2.4 -6,9.7 -19.2,11.5 -13.2,1.7 -23.2,2.5 -31.5,0 -8.3,-2.5 -13,-4.2 -13.6,-7.7 -0.6,-3.5 -1.6,-6.4 0,-5.5 1.6,0.9 4.5,3.2 11.8,3.9 7.3,0.7 22.6,1.3 33.5,-0.2 10.9,-1.5 13.8,-3.4 18,-7.2 4.3,-3.9 12.1,-5.4 14,-5.7 1.9,-0.4 5.7,-0.6 6,-2.2 z"
   id="path11" />&#10;					<path
   class="st3"
   d="m 197.9,526.1 c 0,0 4.2,-2.6 19.3,0 15.1,2.6 19.6,14 24.2,20"
   id="path12" />&#10;					<g
   id="g13">&#10;						<path
   d="m 266.4,521.8 c -6.4,-0.3 -12.7,-1.9 -18.6,-4.2 3.1,0.8 6.2,1.6 9.3,2.2 3.1,0.4 6.3,0.5 9.4,0.6 z"
   id="path13" />&#10;					</g>&#10;					<path
   class="st3"
   d="m 244.9,527.4 c 0,0 5.6,5.9 5.5,13.4"
   id="path14" />&#10;					<path
   d="m 245.3,543.2 5.3,-2.4 -3.5,3.7 2.6,-1.6 -1.9,1.6 h 2.9 c 0,0 -2.8,1.6 -3.5,2.7 -0.7,1.1 -6.2,6.8 -6.2,6.8 l 1,-2.7 -5.7,2.7 6.2,-4.6 c 0,0 -5.5,2.4 -6.2,2.6 -0.6,0.2 5.3,-3.8 5.3,-3.8 0,0 -6.3,1.7 -7.5,1.5 -1.4,0.1 8.9,-1.7 11.2,-6.5 z"
   id="path15" />&#10;					<path
   class="st1"
   d="m 243.2,454.9 c 0,0 -10.9,-3.4 -17.3,0 -6.4,3.4 -6.5,5.3 -6.5,5.3 0,0 4.1,22 4.2,25 0.1,3 -0.5,8.6 -3.4,14.6 -2.9,6 -4,8.4 -4,8.4 l 12.2,2.8 c 0,0 4.6,-5.1 8.1,-11.2 3.5,-6.1 7.7,-13.7 8,-22.3 0.3,-8.6 -1.3,-22.6 -1.3,-22.6 z"
   id="path16" />&#10;					<g
   id="g18">&#10;						<path
   class="st3"
   d="m 218.6,456.9 c 0,0 2.2,13.4 2.6,17.8 0.4,4.4 3.8,14.7 0,21.9 -3.8,7.2 -5.3,11.2 -7.1,14.8 -1.8,3.6 -9.2,12 -14.4,12.3"
   id="path17" />&#10;						<path
   class="st3"
   d="m 215.7,455.6 c 0,0 2.2,13.4 2.6,17.8 0.4,4.4 3.8,14.7 0,21.9 -3.8,7.2 -5.3,11.2 -7.1,14.8 -1.8,3.6 -5.2,7.6 -10.1,10.3"
   id="path18" />&#10;					</g>&#10;					<g
   id="g22">&#10;						<path
   class="st3"
   d="m 246.5,531.4 c 0.1,0.9 -5.9,4.5 -6.5,4.5 -0.6,0 -2.4,-4.2 -5,-7.5 -2.5,-3.2 -6.4,-7.2 -7.2,-10.8 -0.8,-3.6 -0.1,-3.8 4.9,-10.4 5,-6.6 5.8,-11.8 8.2,-17 2.4,-5.2 2.4,-12.4 2.6,-18.6 0.2,-6.2 -1.3,-18 -1.3,-18"
   id="path19" />&#10;						<path
   class="st3"
   d="m 245.9,457.9 c 0,0 0.2,9.9 0,15.5 -0.2,5.7 -0.4,12.4 -2.3,17.3 -2,5.1 -3.4,9.1 -7.4,15.8 -3.8,6.5 -6.7,7.9 -6.2,10.1 0.8,3.3 3.2,6.1 5.5,9.1 2.3,3 5,7 5.5,7 0.5,0 3.7,-2.7 4.9,-3.3"
   id="path20" />&#10;						<path
   class="st3"
   d="m 244.1,533.6 c 1.2,-0.8 2.6,-2.1 2.6,-2.1 l -0.7,-1.6 c -3.7,-5.7 -3.9,-11 -3.7,-13.8 0.2,-2.7 4.5,-10.3 6.6,-14.6 2.1,-4.3 4,-13.7 4,-13.7 0,0 3.4,-12.1 3.2,-23.3"
   id="path21" />&#10;						<line
   class="st3"
   x1="237"
   y1="527.40002"
   x2="243.10001"
   y2="523.59998"
   id="line21" />&#10;						<line
   class="st3"
   x1="237.7"
   y1="529.20001"
   x2="243.7"
   y2="525.40002"
   id="line22" />&#10;					</g>&#10;					<g
   id="g39">&#10;						&#10;							<ellipse
   transform="matrix(0.8585,-0.5128,0.5128,0.8585,-231.7154,194.1432)"
   class="st6"
   cx="236"
   cy="517"
   rx="2.2"
   ry="2.3"
   id="ellipse22" />&#10;						<g
   id="g38">&#10;							<ellipse
   class="st6"
   cx="251.5"
   cy="463.39999"
   rx="2.7"
   ry="2.5"
   id="ellipse23" />&#10;							<ellipse
   class="st6"
   cx="250.60001"
   cy="475.70001"
   rx="2.7"
   ry="2.5"
   id="ellipse24" />&#10;							<ellipse
   class="st6"
   cx="248.8"
   cy="486.70001"
   rx="2.5"
   ry="2.3"
   id="ellipse25" />&#10;							&#10;								<ellipse
   transform="matrix(0.27,-0.9629,0.9629,0.27,-299.6553,598.6142)"
   class="st6"
   cx="244.89999"
   cy="496.89999"
   rx="2.2"
   ry="2.5"
   id="ellipse26" />&#10;							&#10;								<ellipse
   transform="matrix(0.27,-0.9629,0.9629,0.27,-314.7377,600.6979)"
   class="st6"
   cx="238.8"
   cy="507.89999"
   rx="2.2"
   ry="2.5"
   id="ellipse27" />&#10;							<g
   id="g32">&#10;								<path
   class="st7"
   d="m 250.9,476 c 0,0 0.9,-0.8 -1.4,-1.9 -2.3,-1.1 -11.8,-4.1 -16,-6.1 -4.2,-2 -12.8,-6.6 -14,-8.4 -1.2,-1.8 1.1,6.3 1.1,6.3 0,0 11,5.4 13.8,6.3 3.7,1.2 15.3,6.1 16.5,3.8 z"
   id="path27" />&#10;								<path
   class="st7"
   d="m 248.9,486.8 c 0,0 0.7,-1.4 -1.6,-2.5 -2.3,-1.1 -11.7,-4.2 -15.8,-6.3 -4.1,-2.1 -8.9,-4.2 -10,-6 -1.2,-1.7 -0.1,4.3 -0.1,4.3 0,0 9.2,5.3 12.1,6.3 3.6,1.2 14.6,5.9 15.4,4.2 z"
   id="path28" />&#10;								<path
   class="st7"
   d="m 245.4,496.8 c 0,0 1.2,-1 -2.8,-3.4 -2.1,-1.3 -7.5,-2.8 -11.8,-4.5 -4.3,-1.8 -8.3,-4.2 -8.3,-3.8 0.1,1.9 0.1,3 0.1,3 0,0 4.4,2.5 7.3,3.4 3.7,1.4 14.2,7.2 15.5,5.3 z"
   id="path29" />&#10;								<path
   class="st7"
   d="m 239.3,508.1 c 0,0 2.4,-0.4 -2,-5.1 -2,-2.2 -5,-4 -9.3,-5.8 -4.3,-1.8 -6.4,-1.1 -6.4,-0.5 0,1.2 -0.6,1.9 -0.6,1.9 0,0 5.1,0.3 7.6,1.8 8.9,5.3 7.6,8.4 10.7,7.7 z"
   id="path30" />&#10;								<path
   class="st7"
   d="m 236.3,517 c 0,0 1.1,-0.9 -1.8,-4 -2.1,-2.1 -5.9,-4 -9.6,-4.9 -5.4,-1.3 -9.8,-1 -10.1,-0.6 -0.9,1 -1.5,2.1 -1.5,2.1 0,0 9.8,0.8 13.5,2.1 8.2,3 6.4,6.1 9.5,5.3 z"
   id="path31" />&#10;								<path
   class="st7"
   d="m 251.9,463 c 0,0 0.5,-0.9 -2.3,-1.6 -2.8,-0.7 -10,-1.4 -18.5,-6.6 -8.5,-5.2 -12.2,-4.5 -12.3,-4 -0.1,0.5 5.6,6.1 13.4,9.3 7.8,3.2 13.8,3.8 15.8,3.9 2.1,0.2 3.4,0.7 3.9,-1 z"
   id="path32" />&#10;							</g>&#10;							<g
   id="g37">&#10;								<path
   class="st7"
   d="m 215.8,470.3 c 0,0 0,0.9 2,0.5 2,-0.4 9.4,-2.8 13.1,-3.4 3.7,-0.6 10.7,-2.7 12.1,-3.5 0.6,-0.4 -6.2,-2.1 -6.2,-2.1 0,0 -4.5,1.6 -9.8,3.3 -3,0.9 -11.8,3.3 -11.2,5.2 z"
   id="path33" />&#10;								<path
   class="st7"
   d="m 217.8,482.7 c 0,0 0.2,1.7 2.1,1 1.9,-0.6 8,-3.7 11.4,-5.1 3.7,-1.5 9.2,-3.1 11,-3.4 0.8,-0.1 -4.4,-1.8 -4.4,-1.8 0,0 -6.6,0.5 -11.5,2.9 -2.6,1.4 -9.5,4.7 -8.6,6.4 z"
   id="path34" />&#10;								<path
   class="st7"
   d="m 216.9,493.2 c 0,0 0.2,1.7 2.1,1 1.9,-0.6 5.8,-3.2 9.2,-4.5 3.5,-1.4 7.7,-2.1 12.5,-3.4 2.7,-0.7 -3.7,-2.4 -3.7,-2.4 0,0 -6.6,0.5 -11.5,2.9 -2.7,1.4 -9.6,4.7 -8.6,6.4 z"
   id="path35" />&#10;								<path
   class="st7"
   d="m 214.1,504 c 0,0 -0.3,1.1 1.6,0.4 1.9,-0.6 5.2,-2.2 8.1,-4.1 3.1,-2 8.3,-3.7 13.2,-4.8 1.1,-0.2 -3.6,-2.4 -3.6,-2.4 0,0 -6.6,1.3 -12.2,4.3 -2.6,1.4 -8,4.8 -7.1,6.6 z"
   id="path36" />&#10;								<path
   class="st7"
   d="m 210.8,511.1 c 0,0 1.4,0.9 3.3,0.2 1.9,-0.7 4.4,-1.2 7.7,-2.7 3.5,-1.6 6,-2.5 10.9,-5.2 0.9,-0.5 -2.2,-1.9 -2.2,-1.9 0,0 -7,2.8 -12.7,5.7 -2.7,1.4 -8,2.1 -7,3.9 z"
   id="path37" />&#10;							</g>&#10;						</g>&#10;					</g>&#10;				</g>&#10;				<g
   id="g51">&#10;					<path
   class="st8"
   d="m 231,475.3 c 0,0 -3.2,0.6 -7.7,-3.2 -4.5,-3.9 -12.3,-11.2 -13.6,-12.7 -1.3,-1.5 -2.7,-4 1.2,-7.6 3.9,-3.6 6.5,-7.5 6,-9 -0.5,-1.5 -3.3,-6.1 -2,-11.1 1.3,-5 3,-7.8 4.8,-10 0,0 -1.7,-12.8 8.8,-25.1 10.5,-12.3 22.8,-44.6 22.8,-44.6 0,0 33,-13.4 49.5,1 0,0 7.1,18.8 6.5,33.1 -0.6,14.3 -11.4,32.6 -9.8,35.1 1.6,2.4 2.7,4 8,4.6 l 0.4,6.4 c 0,0 -10.3,-1.8 -11.2,-1.9 -0.9,-0.1 -1.8,-1.6 -1.9,-0.1 0,1.5 3.3,5.6 2.8,8.8 -0.5,3.2 -0.7,5 -1.8,6.5 -1.2,1.5 -0.7,5.5 -0.2,6.1 0.5,0.7 4.3,5.6 2,7 -2.3,1.3 -2.2,2.8 -10.6,5.6 -8.5,2.8 -14.5,4.2 -17.8,5.5 -3.3,1.3 -9.2,3.2 -20.8,4.5 -11.6,1.3 -14.8,1 -15.4,1.1 z"
   id="path40" />&#10;					<path
   class="st3"
   d="m 237.9,382.9 c 0,0 -0.2,12.3 8.5,27.3"
   id="path41" />&#10;					<g
   id="g42">&#10;						<path
   d="m 261.1,461.7 c -10.1,6.1 -22.8,5.8 -33.9,2.7 -3.7,-1 -7.5,-2.2 -10.8,-4.2 1.8,0.8 3.6,1.3 5.5,1.8 12.8,3.3 26.7,5 39.2,-0.3 z"
   id="path42" />&#10;					</g>&#10;					<g
   id="g43">&#10;						<path
   d="m 215.3,433.3 c -0.4,6.1 3.7,10.9 8.7,14 4.9,3.4 10.3,6.2 16.2,7.6 -5.9,-1.2 -11.5,-3.8 -16.6,-7 -5.4,-3 -10,-8.1 -9.8,-14.7 0,0 1.5,0.1 1.5,0.1 z"
   id="path43" />&#10;					</g>&#10;					<g
   id="g44">&#10;						<path
   d="m 221,414 c -2.4,7.7 2.8,17.1 6.8,23.5 0,0 -1.9,-2.6 -1.9,-2.6 -3.7,-5.4 -7.1,-11.4 -7.2,-18.2 0,-1.3 0.1,-2.3 0.5,-3.6 0.1,0 1.8,0.9 1.8,0.9 z"
   id="path44" />&#10;					</g>&#10;					<path
   class="st9"
   d="m 295.5,437 c 0,0 1.8,6.3 -4.4,10.3 -6.2,4 -8.6,5.9 -8.6,5.9"
   id="path45" />&#10;					<g
   id="g46">&#10;						<path
   d="m 265.1,462 c 6.2,-1.4 12.4,-3.2 17.7,-6.6 3.9,-3 7.4,-6.6 10.3,-10.4 0,0 1.2,0.9 1.2,0.9 -3.2,3.9 -6.9,7.4 -11,10.3 -5.5,3.2 -11.9,4.7 -18.2,5.8 z"
   id="path46" />&#10;					</g>&#10;					<path
   class="st9"
   d="m 271.3,463 c 0,0 11.2,-2.8 15.6,-6.6 3.6,-3 6.1,-6 6.2,-7.7"
   id="path47" />&#10;					<g
   id="g48">&#10;						<path
   d="m 289.7,437.5 c -2.2,1.3 -4.7,2.6 -7.3,2.7 2.5,-0.7 4.8,-2 7.3,-2.7 z"
   id="path48" />&#10;					</g>&#10;					<path
   class="st8"
   d="m 279.6,465.9 c 0,0 -3.9,11.6 -17.2,12.6 -13.3,1 -14.2,0.8 -16,-1 -1.8,-1.8 -3.3,-2.9 -6.9,-2.6 0,0 17.7,-1.9 22.7,-3.5 5,-1.8 17.4,-5.5 17.4,-5.5 z"
   id="path49" />&#10;					<g
   id="g50">&#10;						<path
   d="m 219.6,431.5 c 1.1,7.4 6.1,13.8 12.7,17.2 -0.8,-0.4 -1.7,-0.8 -2.5,-1.2 -5.7,-3.3 -9.9,-9.4 -10.2,-16 z"
   id="path50" />&#10;					</g>&#10;					<path
   class="st10"
   d="m 313.2,391 c 0,0 -15.7,-5 -15.7,3.4 0,13 -4.1,35.8 8.7,36.6 11,0.7 9.1,-22.9 7,-40 z"
   id="path51" />&#10;				</g>&#10;				<g
   id="g53">&#10;					<path
   class="st11"
   d="m 283.7,415.8 c 0,0 10,7.6 15.1,10.6"
   id="path52" />&#10;					<path
   d="m 283.7,415.8 c 5.7,2.6 10.6,6.3 15.1,10.6 -5.9,-2 -11.1,-5.9 -15.1,-10.6 z"
   id="path53" />&#10;				</g>&#10;				<path
   d="m 306.6,431.2 c -4.5,0.3 -9.1,0.1 -13.6,-0.5 -3.3,-0.5 -6.4,-1.1 -9.5,-2.3 -4.6,-1.8 -9.3,-3.5 -13.2,-6.6 2.3,2.4 5.3,4 8.2,5.6 3,1.5 6,3 9.3,3.9 6.2,1.6 12.6,2.2 19,1.8 -0.1,-0.7 -0.1,-1.3 -0.2,-1.9 z"
   id="path54" />&#10;			</g>&#10;			<g
   id="g105">&#10;				<g
   id="g100">&#10;					<g
   id="g86">&#10;						<g
   id="g56">&#10;							<path
   class="st4"
   d="m 408.4,552.2 c -5.8,0 -12.1,-0.4 -18.1,-0.8 -13.5,-0.9 -17.6,-4.5 -21,-7.3 -1.1,-1 -2.2,-1.9 -3.5,-2.6 -4.1,-2.2 -9.8,-3.2 -13,-3.8 -0.9,-0.2 -1.7,-0.3 -2.1,-0.4 -1.8,-0.5 -1.9,-1.4 -2.3,-3.5 -0.2,-1 -0.4,-2.3 -0.8,-4.1 -1,-4.1 0.5,-7 1.7,-8.5 -0.8,-0.2 -1.4,-0.7 -1.9,-1.4 -0.6,-0.9 -0.7,-1.9 -0.4,-2.6 0.4,-0.9 0.9,-7.2 1.1,-11.6 0.1,-3.2 -0.3,-10.1 -4,-20.1 -3.6,-9.7 -6.1,-22.1 -6.1,-22.2 l -0.1,-0.3 0.1,-0.2 c 5.5,-9.9 14.8,-15.2 27,-15.2 15.6,0 31.4,8.6 32.1,11.9 0.9,4.5 -0.2,19.1 -0.2,19.7 -0.5,5.7 1.8,26.5 7.2,31.6 5.5,5.1 8.6,9.6 9.9,11.6 l 0.2,0.3 c 0.5,0.8 1.3,1.5 2.8,2.8 1.3,1.2 3.3,3 6.3,5.8 6.4,6.1 9.9,14.8 10,15.2 l 0.2,0.6 -0.5,0.3 c -5.5,3.3 -13.1,4.8 -24.6,4.8 z"
   id="path55" />&#10;							<path
   d="m 365.1,448.2 c 15.5,0 30.8,8.6 31.4,11.3 0.9,4.5 -0.2,19.5 -0.2,19.5 -0.5,5.9 1.7,26.8 7.5,32.2 5.7,5.4 8.9,10.1 10,11.7 1.1,1.6 2.9,2.6 9.2,8.7 6.4,6.1 9.8,15 9.8,15 -6.1,3.7 -14.4,4.8 -24.3,4.8 -5.6,0 -11.6,-0.4 -18.1,-0.8 -17.9,-1.2 -18.8,-7 -24.2,-9.8 -5.4,-2.9 -13.3,-3.7 -15.3,-4.2 -1.9,-0.5 -1.2,-1.4 -2.6,-7.1 -1.4,-5.7 2.6,-9 2.6,-9 -0.2,0 -0.4,0.1 -0.6,0.1 -2,0 -3,-2.2 -2.6,-3.2 0.5,-1.1 1,-8.1 1.1,-11.8 0.1,-3.7 -0.4,-10.7 -4,-20.4 -3.6,-9.7 -6.1,-22.1 -6.1,-22.1 6.2,-11.3 16.3,-14.9 26.4,-14.9 m 0,-1.4 c -12.4,0 -22,5.4 -27.6,15.6 l -0.3,0.5 0.1,0.5 c 0,0.1 2.5,12.6 6.1,22.4 3.7,9.9 4,16.7 3.9,19.8 -0.2,4.5 -0.7,10.4 -1,11.3 -0.4,1 -0.3,2.2 0.5,3.3 0.4,0.6 0.8,1 1.4,1.3 -1.1,1.8 -2.2,4.6 -1.3,8.3 0.4,1.8 0.6,3.1 0.8,4.1 0.4,2.1 0.6,3.5 2.8,4.1 0.5,0.1 1.2,0.3 2.2,0.4 3.1,0.5 8.8,1.6 12.7,3.7 1.2,0.7 2.2,1.5 3.4,2.5 3.4,2.9 7.6,6.6 21.4,7.5 6,0.4 12.4,0.8 18.2,0.8 11.6,0 19.3,-1.5 25,-5 l 1.1,-0.6 -0.5,-1.1 c -0.1,-0.4 -3.7,-9.2 -10.2,-15.5 -3,-2.9 -5,-4.7 -6.3,-5.8 -1.5,-1.3 -2.2,-2 -2.7,-2.7 l -0.2,-0.3 c -1.2,-1.8 -4.5,-6.5 -10,-11.7 -5,-4.6 -7.5,-24.6 -7,-31 0,-0.6 1.1,-15.3 0.2,-19.9 -0.7,-3.9 -17,-12.5 -32.7,-12.5 z"
   id="path56" />&#10;						</g>&#10;						<path
   class="st5"
   d="m 349.5,535.3 c 0,0 -1.1,4.9 -0.5,5.9 0.6,1 0.2,2.6 6.9,3.6 6.6,1 9.7,1.2 12.6,3.6 2.9,2.4 6,9.7 19.2,11.5 13.2,1.7 23.2,2.5 31.5,0 8.3,-2.5 13,-4.2 13.6,-7.7 0.6,-3.5 1.6,-6.4 0,-5.5 -1.6,0.9 -4.5,3.2 -11.8,3.9 -7.3,0.7 -22.6,1.3 -33.5,-0.2 -10.9,-1.5 -13.8,-3.4 -18,-7.2 -4.3,-3.9 -12.1,-5.4 -14,-5.7 -1.9,-0.4 -5.7,-0.6 -6,-2.2 z"
   id="path57" />&#10;						<path
   class="st3"
   d="m 416.8,526.1 c 0,0 -4.2,-2.6 -19.3,0 -15.1,2.6 -19.6,14 -24.2,20"
   id="path58" />&#10;						<g
   id="g59">&#10;							<path
   d="m 348.2,520.4 c 6.4,0.1 12.6,-0.9 18.7,-2.7 -1.5,0.5 -3,1 -4.5,1.5 -4.5,1.6 -9.4,2.2 -14.1,2.6 0,0 -0.1,-1.4 -0.1,-1.4 z"
   id="path59" />&#10;						</g>&#10;						<path
   class="st3"
   d="m 369.8,527.4 c 0,0 -5.6,5.9 -5.5,13.4"
   id="path60" />&#10;						<path
   d="m 369.4,543.2 -5.3,-2.4 3.5,3.7 -2.6,-1.6 1.9,1.6 H 364 c 0,0 2.8,1.6 3.5,2.7 0.7,1.1 6.2,6.8 6.2,6.8 l -1,-2.7 5.7,2.7 -6.2,-4.6 c 0,0 5.5,2.4 6.2,2.6 0.6,0.2 -5.3,-3.8 -5.3,-3.8 0,0 6.3,1.7 7.5,1.5 1.4,0.1 -8.9,-1.7 -11.2,-6.5 z"
   id="path61" />&#10;						<path
   class="st1"
   d="m 371.5,454.9 c 0,0 10.9,-3.4 17.3,0 6.4,3.4 6.5,5.3 6.5,5.3 0,0 -4.1,22 -4.2,25 -0.1,3 0.5,8.6 3.4,14.6 2.9,6 4,8.4 4,8.4 l -12.2,2.8 c 0,0 -4.6,-5.1 -8.1,-11.2 -3.5,-6.1 -7.7,-13.7 -8,-22.3 -0.3,-8.6 1.3,-22.6 1.3,-22.6 z"
   id="path62" />&#10;						<g
   id="g64">&#10;							<path
   class="st3"
   d="m 396.1,456.9 c 0,0 -2.2,13.4 -2.6,17.8 -0.4,4.4 -3.8,14.7 0,21.9 3.8,7.2 5.3,11.2 7.1,14.8 1.8,3.6 9.2,12 14.4,12.3"
   id="path63" />&#10;							<path
   class="st3"
   d="m 399.1,455.6 c 0,0 -2.2,13.4 -2.6,17.8 -0.4,4.4 -3.8,14.7 0,21.9 3.8,7.2 5.3,11.2 7.1,14.8 1.8,3.6 5.2,7.6 10.1,10.3"
   id="path64" />&#10;						</g>&#10;						<g
   id="g68">&#10;							<path
   class="st3"
   d="m 368.2,531.4 c -0.1,0.9 5.9,4.5 6.5,4.5 0.6,0 2.4,-4.2 5,-7.5 2.5,-3.2 6.4,-7.2 7.2,-10.8 0.8,-3.6 0.1,-3.8 -4.9,-10.4 -5,-6.6 -5.8,-11.8 -8.2,-17 -2.4,-5.2 -2.4,-12.4 -2.6,-18.6 -0.2,-6.2 1.3,-18 1.3,-18"
   id="path65" />&#10;							<path
   class="st3"
   d="m 368.9,457.9 c 0,0 -0.2,9.9 0,15.5 0.2,5.7 0.4,12.4 2.3,17.3 2,5.1 3.4,9.1 7.4,15.8 3.8,6.5 6.7,7.9 6.2,10.1 -0.8,3.3 -3.2,6.1 -5.5,9.1 -2.3,3 -5,7 -5.5,7 -0.5,0 -3.7,-2.7 -4.9,-3.3"
   id="path66" />&#10;							<path
   class="st3"
   d="m 370.6,533.6 c -1.2,-0.8 -2.6,-2.1 -2.6,-2.1 l 0.7,-1.6 c 3.7,-5.7 3.9,-11 3.7,-13.8 -0.2,-2.7 -4.5,-10.3 -6.6,-14.6 -2.1,-4.3 -4,-13.7 -4,-13.7 0,0 -3.4,-12.1 -3.2,-23.3"
   id="path67" />&#10;							<line
   class="st3"
   x1="377.70001"
   y1="527.40002"
   x2="371.60001"
   y2="523.59998"
   id="line67" />&#10;							<line
   class="st3"
   x1="377.10001"
   y1="529.20001"
   x2="371"
   y2="525.40002"
   id="line68" />&#10;						</g>&#10;						<g
   id="g85">&#10;							&#10;								<ellipse
   transform="matrix(0.5128,-0.8585,0.8585,0.5128,-259.3233,577.0522)"
   class="st6"
   cx="378.70001"
   cy="517"
   rx="2.3"
   ry="2.2"
   id="ellipse68" />&#10;							<g
   id="g84">&#10;								<ellipse
   class="st6"
   cx="363.20001"
   cy="463.39999"
   rx="2.7"
   ry="2.5"
   id="ellipse69" />&#10;								<ellipse
   class="st6"
   cx="364.10001"
   cy="475.70001"
   rx="2.7"
   ry="2.5"
   id="ellipse70" />&#10;								<ellipse
   class="st6"
   cx="365.89999"
   cy="486.70001"
   rx="2.5"
   ry="2.3"
   id="ellipse71" />&#10;								&#10;									<ellipse
   transform="matrix(0.9629,-0.27,0.27,0.9629,-120.4272,118.2817)"
   class="st6"
   cx="369.79999"
   cy="496.89999"
   rx="2.5"
   ry="2.2"
   id="ellipse72" />&#10;								&#10;									<ellipse
   transform="matrix(0.9629,-0.27,0.27,0.9629,-123.1648,120.3547)"
   class="st6"
   cx="375.89999"
   cy="507.89999"
   rx="2.5"
   ry="2.2"
   id="ellipse73" />&#10;								<g
   id="g78">&#10;									<path
   class="st7"
   d="m 363.8,476 c 0,0 -0.9,-0.8 1.4,-1.9 2.3,-1.1 11.8,-4.1 16,-6.1 4.2,-2.1 12.8,-6.6 14,-8.4 1.2,-1.7 -1.1,6.3 -1.1,6.3 0,0 -11,5.4 -13.8,6.3 -3.7,1.2 -15.3,6.1 -16.5,3.8 z"
   id="path73" />&#10;									<path
   class="st7"
   d="m 365.8,486.8 c 0,0 -0.7,-1.4 1.6,-2.5 2.3,-1.1 11.7,-4.2 15.8,-6.3 4.1,-2.1 8.9,-4.2 10,-6 1.1,-1.8 0.1,4.3 0.1,4.3 0,0 -9.2,5.3 -12.1,6.3 -3.6,1.2 -14.6,5.9 -15.4,4.2 z"
   id="path74" />&#10;									<path
   class="st7"
   d="m 369.3,496.8 c 0,0 -1.2,-1 2.8,-3.4 2.1,-1.3 7.5,-2.8 11.8,-4.5 4.3,-1.8 8.3,-4.2 8.3,-3.8 -0.1,1.9 -0.1,3 -0.1,3 0,0 -4.4,2.5 -7.3,3.4 -3.7,1.4 -14.2,7.2 -15.5,5.3 z"
   id="path75" />&#10;									<path
   class="st7"
   d="m 375.5,508.1 c 0,0 -2.4,-0.4 2,-5.1 2,-2.2 5,-4 9.3,-5.8 4.3,-1.8 6.4,-1.1 6.4,-0.5 0,1.2 0.6,1.9 0.6,1.9 0,0 -5.1,0.3 -7.6,1.8 -9,5.3 -7.7,8.4 -10.7,7.7 z"
   id="path76" />&#10;									<path
   class="st7"
   d="m 378.5,517 c 0,0 -1.1,-0.9 1.8,-4 2.1,-2.1 5.9,-4 9.6,-4.9 5.4,-1.3 9.8,-1 10.1,-0.6 0.9,1 1.5,2.1 1.5,2.1 0,0 -9.8,0.8 -13.5,2.1 -8.3,3 -6.5,6.1 -9.5,5.3 z"
   id="path77" />&#10;									<path
   class="st7"
   d="m 362.8,463 c 0,0 -0.5,-0.9 2.3,-1.6 2.8,-0.7 10,-1.4 18.5,-6.6 8.5,-5.2 12.2,-4.5 12.3,-4 0.1,0.5 -5.6,6.1 -13.4,9.3 -7.8,3.2 -13.8,3.8 -15.8,3.9 -2,0.2 -3.4,0.7 -3.9,-1 z"
   id="path78" />&#10;								</g>&#10;								<g
   id="g83">&#10;									<path
   class="st7"
   d="m 398.9,470.3 c 0,0 0,0.9 -2,0.5 -2,-0.4 -9.4,-2.8 -13.1,-3.4 -3.7,-0.6 -10.7,-2.7 -12.1,-3.5 -0.6,-0.4 6.2,-2.1 6.2,-2.1 0,0 4.5,1.6 9.8,3.3 3,0.9 11.8,3.3 11.2,5.2 z"
   id="path79" />&#10;									<path
   class="st7"
   d="m 396.9,482.7 c 0,0 -0.2,1.7 -2.1,1 -1.9,-0.6 -8,-3.7 -11.4,-5.1 -3.7,-1.5 -9.2,-3.1 -11,-3.4 -0.8,-0.1 4.4,-1.8 4.4,-1.8 0,0 6.6,0.5 11.5,2.9 2.6,1.4 9.5,4.7 8.6,6.4 z"
   id="path80" />&#10;									<path
   class="st7"
   d="m 397.8,493.2 c 0,0 -0.2,1.7 -2.1,1 -1.9,-0.6 -5.8,-3.2 -9.2,-4.5 -3.5,-1.4 -7.7,-2.1 -12.5,-3.4 -2.7,-0.7 3.7,-2.4 3.7,-2.4 0,0 6.6,0.5 11.5,2.9 2.7,1.4 9.6,4.7 8.6,6.4 z"
   id="path81" />&#10;									<path
   class="st7"
   d="m 400.6,504 c 0,0 0.3,1.1 -1.6,0.4 -1.9,-0.6 -5.2,-2.2 -8.1,-4.1 -3.1,-2 -8.3,-3.7 -13.2,-4.8 -1.1,-0.2 3.6,-2.4 3.6,-2.4 0,0 6.6,1.3 12.2,4.3 2.6,1.4 8,4.8 7.1,6.6 z"
   id="path82" />&#10;									<path
   class="st7"
   d="m 404,511.1 c 0,0 -1.4,0.9 -3.3,0.2 -1.9,-0.7 -4.4,-1.2 -7.7,-2.7 -3.5,-1.6 -6,-2.5 -10.9,-5.2 -0.9,-0.5 2.2,-1.9 2.2,-1.9 0,0 7,2.8 12.7,5.7 2.6,1.4 7.9,2.1 7,3.9 z"
   id="path83" />&#10;								</g>&#10;							</g>&#10;						</g>&#10;					</g>&#10;					<g
   id="g97">&#10;						<path
   class="st8"
   d="m 381,475.3 c 0,0 3.2,0.6 7.7,-3.2 4.5,-3.8 12.3,-11.2 13.6,-12.7 1.3,-1.5 2.7,-4 -1.2,-7.6 -3.9,-3.6 -6.5,-7.5 -6,-9 0.5,-1.5 3.3,-6.1 2,-11.1 -1.3,-5 -3,-7.8 -4.8,-10 0,0 1.7,-12.8 -8.8,-25.1 -10.5,-12.3 -14.8,-37 -14.8,-37 0,0 -43.8,-21.9 -60.3,-7.6 0,0 5.3,26.9 5.9,41.2 0.6,14.3 1.8,25.5 0.2,27.9 -1.6,2.4 -2.7,4 -8,4.6 l -0.4,6.4 c 0,0 10.3,-1.8 11.2,-1.9 0.9,-0.1 1.8,-1.6 1.9,-0.1 0,1.5 -3.3,5.6 -2.8,8.8 0.5,3.2 0.7,5 1.8,6.5 1.2,1.5 0.7,5.5 0.2,6.1 -0.5,0.7 -4.3,5.6 -2,7 2.3,1.3 2.2,2.8 10.6,5.6 8.5,2.8 14.5,4.2 17.8,5.5 3.3,1.3 9.2,3.2 20.8,4.5 11.6,1.4 14.8,1.1 15.4,1.2 z"
   id="path86" />&#10;						<g
   id="g87">&#10;							<path
   d="m 375.1,382.9 c -0.6,9.8 -4.4,19 -9.4,27.3 1.1,-2.1 2.2,-4.3 3.1,-6.5 2.6,-6.5 4.5,-13.7 4.4,-20.8 -0.1,0 1.9,0 1.9,0 z"
   id="path87" />&#10;						</g>&#10;						<g
   id="g88">&#10;							<path
   d="m 350.9,461.7 c 12.5,5.3 26.4,3.6 39.2,0.3 1.9,-0.5 3.7,-1 5.5,-1.8 -3.3,2 -7.1,3.2 -10.8,4.2 -11.1,3.1 -23.8,3.4 -33.9,-2.7 z"
   id="path88" />&#10;						</g>&#10;						<g
   id="g89">&#10;							<path
   d="m 398.4,433.1 c 0.2,6.7 -4.4,11.9 -10,14.9 -5.1,3.2 -10.7,5.7 -16.6,6.9 5.8,-1.4 11.2,-4.3 16.1,-7.7 4.9,-3.1 9,-7.8 8.6,-13.8 0,-0.1 1.9,-0.3 1.9,-0.3 z"
   id="path89" />&#10;						</g>&#10;						<g
   id="g90">&#10;							<path
   d="m 392.7,413.1 c 2.3,8.4 -3.8,17.9 -8.6,24.3 4.1,-6.6 8.4,-14.2 7.2,-22.2 -0.1,-0.5 -0.2,-1 -0.4,-1.3 z"
   id="path90" />&#10;						</g>&#10;						<g
   id="g91">&#10;							<path
   d="m 317.4,437.3 c -1.6,6.5 3,9.2 7.7,12.5 1.5,1.1 3,2.2 4.5,3.4 -1.5,-1.1 -3.1,-2 -4.7,-3 -4.3,-2.5 -8.9,-4.7 -9.4,-10.3 -0.1,-1 -0.1,-2 0.1,-3.1 0,0 1.8,0.5 1.8,0.5 z"
   id="path91" />&#10;						</g>&#10;						<path
   class="st3"
   d="m 346.9,462 c 0,0 -13.1,-2.3 -19.2,-7.2 -6.1,-4.9 -9.4,-9.5 -9.4,-9.5"
   id="path92" />&#10;						<g
   id="g93">&#10;							<path
   d="m 340.8,463 c -6.5,-1.6 -13.5,-3.6 -18.2,-8.7 -1.5,-1.6 -3.3,-3.4 -3.6,-5.6 0.2,1.1 0.9,2.1 1.6,2.9 2.2,2.5 4.7,4.9 7.6,6.5 4,2.1 8.3,3.6 12.6,4.9 z"
   id="path93" />&#10;						</g>&#10;						<g
   id="g94">&#10;							<path
   d="m 322.3,437.5 c 2.5,0.7 4.8,2 7.3,2.7 -2.6,-0.1 -5.1,-1.4 -7.3,-2.7 z"
   id="path94" />&#10;						</g>&#10;						<path
   class="st8"
   d="m 332.4,465.9 c 0,0 3.9,11.6 17.2,12.6 13.3,1 14.2,0.8 16,-1 1.8,-1.8 3.3,-2.9 6.9,-2.6 0,0 -17.7,-1.9 -22.7,-3.5 -5,-1.8 -17.4,-5.5 -17.4,-5.5 z"
   id="path95" />&#10;						<g
   id="g96">&#10;							<path
   d="m 392.4,431.5 c -0.4,6.6 -4.5,12.7 -10.2,16 -0.8,0.5 -1.7,0.8 -2.5,1.2 6.6,-3.4 11.6,-9.8 12.7,-17.2 z"
   id="path96" />&#10;						</g>&#10;						<path
   class="st10"
   d="m 298.8,391 c 0,0 15.7,-5 15.7,3.4 0,13 4.1,35.8 -8.7,36.6 -11,0.7 -9.1,-22.9 -7,-40 z"
   id="path97" />&#10;					</g>&#10;					<g
   id="g99">&#10;						<path
   class="st11"
   d="m 329.6,414.7 c 0,0 -11.3,7.5 -14.6,9.6"
   id="path98" />&#10;						<path
   d="m 329.6,414.7 c -4,4.3 -9.1,7.6 -14.6,9.6 4,-4.3 9.1,-7.6 14.6,-9.6 z"
   id="path99" />&#10;					</g>&#10;					<path
   d="m 326.9,427.9 c -1.5,0.6 -3,1.1 -4.5,1.1 -2.4,0.2 -5.1,0.1 -7.5,0.7 -2.4,0.6 -4.7,1.2 -7.2,1.4 -0.1,0 -0.2,0 -0.3,0 0,0 0,0 0,0 0.1,0.6 0.1,1.3 0.2,1.9 0.1,0 0.2,0 0.3,0 3.3,-0.2 6.5,-1.5 9.8,-1.9 2.2,-0.3 4.6,-0.2 6.9,-0.7 1.1,-0.3 2.1,-0.7 3,-1.1 6.1,-2.8 11.7,-6.2 17.3,-9.8 -6,2.8 -11.9,5.9 -18,8.4 z"
   id="path100" />&#10;				</g>&#10;				<g
   id="g104">&#10;					<path
   class="st3"
   d="m 306.1,390.7 c 0,0 0.4,12.2 0.4,14.7 0,2.5 -0.4,13.3 -0.1,16.4"
   id="path101" />&#10;					<path
   class="st3"
   d="m 298.8,391 c 0,0 -1.1,13.5 -0.8,17.2 0.3,3.7 -0.7,14.8 1.5,16.4 2.2,1.7 7,1.1 9.6,0.8 1.9,-0.2 5.9,-1.9 5.9,-6.8 0,-5.1 0.2,-20 -0.9,-28.3 z"
   id="path102" />&#10;					<g
   id="g103">&#10;						<path
   d="m 312.1,390.9 c 0.8,8.5 0.8,17.1 0.4,25.6 -0.1,1.7 0,3.7 -1.4,4.9 -1.4,1.2 -3.3,1 -5,1.2 -1.7,0.1 -3.5,0 -5,-0.9 1.5,0.9 3.3,0.9 4.9,0.7 4.6,-0.4 6,-1.1 5.9,-6 0,-5.1 0,-10.2 -0.3,-15.3 -0.2,-3.4 -0.6,-6.8 -1,-10.1 z"
   id="path103" />&#10;					</g>&#10;				</g>&#10;			</g>&#10;		</g>&#10;	</g>&#10;</g>&#10;</svg>
