<?xml version="1.0" encoding="UTF-8" standalone="no"?>
<!-- Generator: Adobe Illustrator 26.0.1, SVG Export Plug-In . SVG Version: 6.00 Build 0)  -->

<svg
   version="1.1"
   x="0px"
   y="0px"
   viewBox="0 0 206.60001 42.3633"
   xml:space="preserve"
   id="svg85"
   sodipodi:docname="fox-head-eyes-closed.svg"
   width="206.60001"
   height="42.3633"
   inkscape:version="1.3 (0e150ed6c4, 2023-07-21)"
   xmlns:inkscape="http://www.inkscape.org/namespaces/inkscape"
   xmlns:sodipodi="http://sodipodi.sourceforge.net/DTD/sodipodi-0.dtd"
   xmlns="http://www.w3.org/2000/svg"
   xmlns:svg="http://www.w3.org/2000/svg"><defs
   id="defs85" /><sodipodi:namedview
   id="namedview85"
   pagecolor="#505050"
   bordercolor="#ffffff"
   borderopacity="1"
   inkscape:showpageshadow="0"
   inkscape:pageopacity="0"
   inkscape:pagecheckerboard="1"
   inkscape:deskcolor="#505050"
   inkscape:zoom="1.4033333"
   inkscape:cx="163.1829"
   inkscape:cy="-34.916865"
   inkscape:window-width="1920"
   inkscape:window-height="1051"
   inkscape:window-x="-9"
   inkscape:window-y="-9"
   inkscape:window-maximized="1"
   inkscape:current-layer="g84" />&#10;<style
   type="text/css"
   id="style1">&#10;	.st0{fill:#37342F;stroke:#000000;stroke-width:1.4642;stroke-miterlimit:10;}&#10;	.st1{fill:#F4EFDF;stroke:#000000;stroke-width:1.4642;stroke-miterlimit:10;}&#10;	.st2{fill:#A09989;}&#10;	.st3{fill:#756F65;}&#10;	.st4{fill:#F4EFDF;}&#10;	.st5{fill:#3A0F0F;}&#10;	.st6{fill:#3F0E0E;}&#10;	.st7{fill:none;stroke:#000000;stroke-width:0.4881;stroke-linecap:round;stroke-linejoin:round;stroke-miterlimit:10;}&#10;	.st8{stroke:#000000;stroke-width:1.4642;stroke-miterlimit:10;}&#10;	.st9{fill:#262728;}&#10;	.st10{opacity:0.75;fill:#FFFFFF;}&#10;	.st11{fill:#AA9D7B;stroke:#000000;stroke-width:0.244;stroke-miterlimit:10;}&#10;	.st12{opacity:0.28;}&#10;	.st13{fill:#37342F;}&#10;	.st14{fill:#FFFFFF;stroke:#000000;stroke-width:1.4642;stroke-miterlimit:10;}&#10;	.st15{opacity:0.32;}&#10;	.st16{fill:#09568A;stroke:#000000;stroke-width:1.4642;stroke-miterlimit:10;}&#10;	.st17{fill:#000002;}&#10;	.st18{fill:#FAFFFF;}&#10;	.st19{fill:#030000;}&#10;	.st20{fill:#495D4A;stroke:#000000;stroke-width:1.9522;stroke-miterlimit:10;}&#10;	.st21{fill:#564D36;stroke:#000000;stroke-width:1.9522;stroke-miterlimit:10;}&#10;	.st22{fill:none;stroke:#000000;stroke-width:1.9522;stroke-miterlimit:10;}&#10;	.st23{fill:#817B66;stroke:#000000;stroke-width:1.9522;stroke-miterlimit:10;}&#10;	.st24{fill:#514E3F;stroke:#000000;stroke-width:1.4642;stroke-miterlimit:10;}&#10;	.st25{fill:#262314;stroke:#000000;stroke-width:1.4642;stroke-miterlimit:10;}&#10;	.st26{fill:#173A50;stroke:#000000;stroke-width:1.9522;stroke-miterlimit:10;}&#10;	.st27{opacity:0.86;fill:#7CA3B0;}&#10;</style>&#10;<g
   id="Layer_1"
   transform="translate(-199.6,-186.19016)">&#10;</g>&#10;<g
   id="Layer_19"
   transform="translate(-199.6,-186.19016)">&#10;</g>&#10;<g
   id="Layer_20"
   transform="translate(-199.6,-186.19016)">&#10;</g>&#10;<g
   id="Tail"
   transform="translate(-199.6,-186.19016)">&#10;</g>&#10;<g
   id="right_leg"
   transform="translate(-199.6,-186.19016)">&#10;</g>&#10;<g
   id="Left_leg"
   transform="translate(-199.6,-186.19016)">&#10;</g>&#10;<g
   id="body"
   transform="translate(-199.6,-186.19016)">&#10;</g>&#10;<g
   id="belt"
   transform="translate(-199.6,-186.19016)">&#10;</g>&#10;<g
   id="Face"
   transform="translate(-199.6,-186.19016)">&#10;</g>&#10;<g
   id="Left_ear"
   transform="translate(-199.6,-186.19016)">&#10;</g>&#10;<g
   id="Right_ear"
   transform="translate(-199.6,-186.19016)">&#10;</g>&#10;<g
   id="White_mouth"
   transform="translate(-199.6,-186.19016)">&#10;</g>&#10;<g
   id="Closed_mouth"
   transform="translate(-199.6,-186.19016)">&#10;	<g
   id="Mouth_copy">&#10;	</g>&#10;</g>&#10;<g
   id="Mouth"
   transform="translate(-199.6,-186.19016)">&#10;</g>&#10;<g
   id="wide_opened_mouth"
   transform="translate(-199.6,-186.19016)">&#10;	<g
   id="Mouth_copy_2">&#10;	</g>&#10;</g>&#10;<g
   id="Nose"
   transform="translate(-199.6,-186.19016)">&#10;</g>&#10;<g
   id="Nose_hair_2"
   transform="translate(-199.6,-186.19016)">&#10;</g>&#10;<g
   id="Nose_hair_1"
   transform="translate(-199.6,-186.19016)">&#10;</g>&#10;<g
   id="Eye_brow"
   transform="translate(-199.6,-186.19016)">&#10;</g>&#10;<g
   id="white_part_of_eyes"
   transform="translate(-199.6,-186.19016)">&#10;	<g
   id="Eyes_opened_copy">&#10;	</g>&#10;</g>&#10;<g
   id="eyes_2"
   transform="translate(-199.6,-186.19016)">&#10;	<g
   id="Layer_29">&#10;	</g>&#10;</g>&#10;<g
   id="eyes_1"
   transform="translate(-199.6,-186.19016)">&#10;	<g
   id="Layer_30">&#10;	</g>&#10;</g>&#10;<g
   id="Opened_eye_cover"
   transform="translate(-199.6,-186.19016)">&#10;</g>&#10;<g
   id="Eyes_closed"
   transform="translate(-199.6,-186.19016)">&#10;	<g
   id="Eyes_copy">&#10;	</g>&#10;</g>&#10;<g
   id="cap"
   transform="translate(-199.6,-186.19016)">&#10;</g>&#10;<g
   id="Glasses"
   transform="translate(-199.6,-186.19016)">&#10;	<g
   id="g85">&#10;		<g
   id="g84">&#10;			&#10;			&#10;			&#10;			&#10;			&#10;			&#10;			&#10;			&#10;			&#10;			&#10;			&#10;			&#10;			&#10;			&#10;			&#10;			&#10;			&#10;			&#10;			&#10;			&#10;			&#10;			&#10;			&#10;			&#10;			&#10;			&#10;			&#10;			<g
   id="g86"><g
     id="g61">&#10;				<path
   class="st13"
   d="m 211.9,188.6 c 0,0 8.8,-1.6 24.4,0 16,1.7 24.6,-6.9 30.8,1.5 6.3,8.6 7.9,12.4 18.8,16.2 11,3.8 3,13.3 -4.9,13.3 -7.9,0 -19.1,11.7 -33.1,8.2 -13.9,-3.5 -58.4,-27.9 -36,-39.2 z"
   id="path60" />&#10;				<path
   class="st13"
   d="m 392.8,188.6 c 0,0 -8.9,-1.7 -24.4,0 -15,1.6 -20.6,-7.1 -30.5,2.9 -7.5,7.6 -8.2,11.1 -19.1,14.9 -11,3.8 -3,13.3 4.9,13.3 7.9,0 19.1,11.7 33.1,8.2 14,-3.6 58.4,-28 36,-39.3 z"
   id="path61" />&#10;			</g><g
     id="g69">&#10;				<g
   id="g65">&#10;					<path
   class="st0"
   d="m 382,189.9 c 0,0 2,13.1 -6.7,19.3 -6.7,4.8 -13.8,7.9 -27.3,7.8 -13.5,-0.1 -19.1,-5.6 -17.8,-14.5 0,0 24,-9.7 51.8,-12.6 z"
   id="path64" />&#10;					<path
   class="st15"
   d="m 380,203.8 c 0,0 -0.1,-6.4 -1.7,-7.3 -1.6,-0.9 -18.3,6.1 -22,8.3 -3.8,2.3 -12.1,7.7 -15.7,11.3 0,0 -7.3,-2.1 -8.7,-5.4 -1.4,-3.3 -3.2,-7.4 -1.6,-8.2 1.7,-0.8 15,-5.3 28.6,-8.3 13.6,-3 23.2,-4.3 23.2,-4.3 0,0 2.6,8.4 -2.1,13.9 z"
   id="path65" />&#10;				</g>&#10;				<g
   id="g67">&#10;					<path
   class="st0"
   d="m 222.3,191.1 c 0,0 -1.1,10.7 7.2,17.6 5.8,4.8 15.9,9.3 30.1,8.8 11.5,-0.4 15.6,-7.1 14.7,-13.1 0.1,0 -22.8,-10.4 -52,-13.3 z"
   id="path66" />&#10;					<path
   class="st15"
   d="m 226.9,205.5 c 0,0 -0.8,-6.1 1.5,-7.5 2.3,-1.3 23.9,5.3 31.7,10.1 7.8,4.9 9.5,6.6 9.5,6.6 0,0 5.4,-5.6 5.2,-8.8 -0.2,-3.2 -3.2,-3.9 -15.6,-7.4 -11.5,-3.2 -35,-7.3 -36.6,-7.7 -1.6,-0.4 1.4,11.7 4.3,14.7 z"
   id="path67" />&#10;				</g>&#10;				<path
   class="st19"
   d="m 199.6,188.1 c 0,0 14.8,-1.7 33.9,2.7 19.1,4.4 24.4,6.2 24.4,6.2 0,0 -11.8,-4.1 -14.6,-6.2 0,0 7.9,1.7 11.1,3.2 3.2,1.5 9.2,4.1 12.3,5 3.1,0.9 14.3,5.5 18.3,11.3 0,0 -1.7,-1.9 -5.5,-3.8 0,0 2.7,6.8 2.1,8.5 0,0 -1.9,-2.3 -2.2,-3.3 -0.2,-0.9 -2.2,-5.2 -3.2,-6.4 -1,-1.1 -2,-1.6 -1.9,-0.9 0.1,0.7 2,5.2 -1.3,8 0,0 1.1,-3.5 -3.8,-7.5 -3.4,-2.8 -7.2,-3.6 -12.4,-4.6 -5.2,-1 -19.4,-4.3 -24.9,-5.7 -5.5,-1.4 -21.2,-4.6 -25.5,-5.1 -4.5,-0.5 -6.8,-1.4 -6.8,-1.4 z"
   id="path68" />&#10;				<path
   class="st19"
   d="m 328.7,204.2 c 1,-1.1 2,-1.6 1.9,-0.9 -0.1,0.7 -2,5.2 1.3,8 0,0 -1.1,-3.5 3.8,-7.5 3.4,-2.8 7.5,-2.8 12.7,-3.8 5.2,-1 19.1,-5.1 24.6,-6.5 5.5,-1.4 20.5,-5.3 24.9,-5.7 4.4,-0.5 8.3,-1.6 8.3,-1.6 0,0 -13,-0.4 -32.1,3.9 -19.1,4.4 -18.4,4.1 -18.4,4.1 0,0 6.7,-2 9.4,-4.2 0,0 -10.7,2.1 -14,3.7 -3.2,1.5 -6.4,1.5 -13.7,4.4 -3,1.2 -13.8,4.8 -17.7,11.8 0,0 1.1,-1 4.9,-2.9 z"
   id="path69" />&#10;			</g></g>&#10;			&#10;			&#10;		</g>&#10;	</g>&#10;</g>&#10;</svg>
