<?xml version="1.0" encoding="UTF-8" standalone="no"?>
<!-- Generator: Adobe Illustrator 26.0.1, SVG Export Plug-In . SVG Version: 6.00 Build 0)  -->

<svg
   version="1.1"
   x="0px"
   y="0px"
   viewBox="0 0 250.33774 186.69403"
   xml:space="preserve"
   id="svg183"
   sodipodi:docname="fox-body.svg"
   width="250.33774"
   height="186.69403"
   inkscape:version="1.3 (0e150ed6c4, 2023-07-21)"
   xmlns:inkscape="http://www.inkscape.org/namespaces/inkscape"
   xmlns:sodipodi="http://sodipodi.sourceforge.net/DTD/sodipodi-0.dtd"
   xmlns="http://www.w3.org/2000/svg"
   xmlns:svg="http://www.w3.org/2000/svg"><defs
   id="defs183" /><sodipodi:namedview
   id="namedview183"
   pagecolor="#505050"
   bordercolor="#ffffff"
   borderopacity="1"
   inkscape:showpageshadow="0"
   inkscape:pageopacity="0"
   inkscape:pagecheckerboard="1"
   inkscape:deskcolor="#505050"
   inkscape:zoom="1.4033333"
   inkscape:cx="119.35867"
   inkscape:cy="68.408553"
   inkscape:window-width="1920"
   inkscape:window-height="1051"
   inkscape:window-x="-9"
   inkscape:window-y="-9"
   inkscape:window-maximized="1"
   inkscape:current-layer="svg183" />&#10;<style
   type="text/css"
   id="style1">&#10;	.st0{fill:#43392E;stroke:#000000;stroke-width:1.9522;stroke-miterlimit:10;}&#10;	.st1{fill:#F4EFDF;stroke:#000000;stroke-width:1.4642;stroke-miterlimit:10;}&#10;	.st2{opacity:0.28;}&#10;	.st3{fill:#485D4A;stroke:#000000;stroke-width:1.9522;stroke-miterlimit:10;}&#10;	.st4{fill:#28352A;}&#10;	.st5{fill:none;stroke:#000000;stroke-width:1.4642;stroke-miterlimit:10;}&#10;	.st6{fill:#635F3B;}&#10;	.st7{fill:#FFFFFF;stroke:#000000;stroke-width:1.4642;stroke-miterlimit:10;}&#10;	.st8{fill:none;stroke:#000000;stroke-width:0.9761;stroke-miterlimit:10;}&#10;	.st9{fill:#7C735F;stroke:#000000;stroke-width:1.9522;stroke-miterlimit:10;}&#10;	.st10{fill:#A09989;}&#10;	.st11{fill:#28352A;stroke:#000000;stroke-width:1.9522;stroke-miterlimit:10;}&#10;	.st12{fill:#D8D8D8;}&#10;	.st13{fill:none;stroke:#000000;stroke-width:0.9761;stroke-linecap:round;stroke-linejoin:round;stroke-miterlimit:10;}&#10;	.st14{fill:#59493D;}&#10;	.st15{fill:#5B5445;stroke:#000000;stroke-width:1.9522;stroke-miterlimit:10;}&#10;	.st16{opacity:0.43;}&#10;	.st17{fill:#DDDDDD;stroke:#000000;stroke-width:1.4642;stroke-miterlimit:10;}&#10;</style>&#10;<g
   id="Layer_1"
   transform="translate(-180.18113,-230.9)">&#10;</g>&#10;<g
   id="Layer_19"
   transform="translate(-180.18113,-230.9)">&#10;</g>&#10;<g
   id="Layer_20"
   transform="translate(-180.18113,-230.9)">&#10;</g>&#10;<g
   id="Tail"
   transform="translate(-180.18113,-230.9)">&#10;</g>&#10;<g
   id="right_leg"
   transform="translate(-180.18113,-230.9)">&#10;</g>&#10;<g
   id="Left_leg"
   transform="translate(-180.18113,-230.9)">&#10;</g>&#10;<g
   id="body"
   transform="translate(-180.18113,-230.9)">&#10;</g>&#10;<g
   id="belt"
   transform="translate(-180.18113,-230.9)">&#10;</g>&#10;<g
   id="Face"
   transform="translate(-180.18113,-230.9)">&#10;</g>&#10;<g
   id="Left_ear"
   transform="translate(-180.18113,-230.9)">&#10;</g>&#10;<g
   id="Right_ear"
   transform="translate(-180.18113,-230.9)">&#10;</g>&#10;<g
   id="White_mouth"
   transform="translate(-180.18113,-230.9)">&#10;</g>&#10;<g
   id="Closed_mouth"
   transform="translate(-180.18113,-230.9)">&#10;	<g
   id="Mouth_copy">&#10;	</g>&#10;</g>&#10;<g
   id="Mouth"
   transform="translate(-180.18113,-230.9)">&#10;</g>&#10;<g
   id="wide_opened_mouth"
   transform="translate(-180.18113,-230.9)">&#10;	<g
   id="Mouth_copy_2">&#10;	</g>&#10;</g>&#10;<g
   id="Nose"
   transform="translate(-180.18113,-230.9)">&#10;</g>&#10;<g
   id="Nose_hair_2"
   transform="translate(-180.18113,-230.9)">&#10;</g>&#10;<g
   id="Nose_hair_1"
   transform="translate(-180.18113,-230.9)">&#10;</g>&#10;<g
   id="Eye_brow"
   transform="translate(-180.18113,-230.9)">&#10;</g>&#10;<g
   id="white_part_of_eyes"
   transform="translate(-180.18113,-230.9)">&#10;	<g
   id="Eyes_opened_copy">&#10;	</g>&#10;</g>&#10;<g
   id="eyes_2"
   transform="translate(-180.18113,-230.9)">&#10;	<g
   id="Layer_29">&#10;	</g>&#10;</g>&#10;<g
   id="eyes_1"
   transform="translate(-180.18113,-230.9)">&#10;	<g
   id="Layer_30">&#10;	</g>&#10;</g>&#10;<g
   id="Opened_eye_cover"
   transform="translate(-180.18113,-230.9)">&#10;</g>&#10;<g
   id="Eyes_closed"
   transform="translate(-180.18113,-230.9)">&#10;	<g
   id="Eyes_copy">&#10;	</g>&#10;</g>&#10;<g
   id="cap"
   transform="translate(-180.18113,-230.9)">&#10;</g>&#10;<g
   id="Glasses"
   transform="translate(-180.18113,-230.9)">&#10;	<g
   id="g183">&#10;		<g
   id="g182">&#10;			<g
   id="g28">&#10;				<g
   id="g5">&#10;					<path
   class="st0"
   d="m 416.8,365 c 0,0 -0.9,10.1 -1.5,11.1 -0.7,1 -4.5,5.6 -5,7.1 -0.5,1.5 0.4,10 -3,15.8 -3.3,5.8 -8.7,11.5 -11.1,12.8 -2.4,1.3 -2.8,8.3 -14.1,1.7 -11.3,-6.6 -21.6,-20.5 -14.1,-35.8 7.4,-15.3 10.4,-21 20.7,-23.4 10.1,-2.3 23.6,-3.2 28.1,10.7 z"
   id="path1" />&#10;					<g
   id="g2">&#10;						<path
   d="m 403.2,371.5 c 0.5,1.6 1.3,3.1 2.2,4.5 1,1.5 2.5,2.3 3.5,3.7 2.2,2.9 2.5,6.8 1.9,10.3 0,0 -1.9,-0.4 -1.9,-0.4 1.1,-3.9 0.8,-8.4 -2.3,-11.2 -1.9,-1.9 -2.8,-4.5 -3.4,-6.9 z"
   id="path2" />&#10;					</g>&#10;					<path
   class="st1"
   d="m 383.8,405.3 c 0.2,-0.3 3,-4.7 6.6,-6 3.6,-1.2 5.5,-1.7 5.9,-2.7 0,0 -1.3,2.2 -2.5,2.1 -1.2,-0.1 2.2,0 3.1,2.3 0.8,2.3 2,6.3 0.2,10.4 -1.8,4.1 -6.7,5.8 -7.5,5.4 -0.7,-0.6 -10.8,-5.1 -5.8,-11.5 z"
   id="path3" />&#10;					<g
   id="g4">&#10;						<path
   d="m 381,367.7 c 1.1,0 2.6,0.7 4.8,2.1 0,0 3.1,4.9 2.1,9.5 -1.1,4.7 -4.2,11.6 -5.5,13.4 -0.9,1.2 -6,2.6 -9.2,2.6 -1.4,0 -2.4,-0.2 -2.7,-0.8 -0.9,-2 -4.6,-12.4 2.4,-19.4 4.7,-4.8 5.8,-7.4 8.1,-7.4 m 0,-1.5 v 0 c -2.2,0 -3.5,1.5 -5.5,3.8 -0.9,1.1 -2.1,2.4 -3.6,3.9 -8.2,8.2 -2.9,20.5 -2.7,21 0.8,1.7 3.2,1.7 4,1.7 2.8,0 8.9,-1.2 10.4,-3.2 1.5,-2 4.7,-9.2 5.8,-13.9 1.2,-5.2 -2.2,-10.4 -2.3,-10.6 -0.1,-0.2 -0.3,-0.3 -0.5,-0.5 -2.3,-1.3 -4,-2.2 -5.6,-2.2 z"
   id="path4" />&#10;					</g>&#10;					<path
   class="st2"
   d="m 404.6,353.5 c 0,0 -11.5,7.5 -10.3,10.8 1.2,3.3 -2.3,11.3 -4.1,12.3 -1.8,1 -7.1,6.1 -3.4,14.4 3.6,8.3 4.1,21 3.4,23.3 -0.6,2.3 -19.9,-5.7 -22.4,-15.8 -2.4,-10 -0.3,-25.9 8.9,-37.8 9.3,-11.8 27.9,-7.2 27.9,-7.2 z"
   id="path5" />&#10;				</g>&#10;				<g
   id="g27">&#10;					<path
   class="st3"
   d="m 366.1,269 c 0,0 9.9,7.7 9.9,10 0,2.2 0.8,-1.6 0.8,-1.6 0,0 0.2,3.1 4,6.7 3.8,3.6 8.7,8.8 8.7,9.6 0,0.8 3.1,-1.2 4.1,0 1,1.2 10.6,15.2 14.4,16.7 3.8,1.5 4.7,10.5 7.2,12.9 2.5,2.3 16.7,11.2 14,20.7 -2.7,9.5 -11.2,13.8 -11.5,16.7 -0.2,2.8 -0.5,7.7 -0.7,9 -0.2,1.3 -3,-12.5 -15,-14.1 -12,-1.6 -19.3,3 -19.3,3 0,0 -24.9,-25.1 -23.5,-30.1 1.4,-5 -4.3,-41.3 6.9,-59.5 z"
   id="path6" />&#10;					<path
   class="st4"
   d="m 362.9,285.4 c 0,0 4.6,20.2 9.4,21.2 4.9,1 6.4,1.4 7.5,4 1.1,2.6 -1.2,3.7 2.3,9 3.5,5.3 6.8,6.3 7,7.8 0.3,1.5 -2,5 -5,6.9 -3,1.9 -1.7,1.9 2.6,0.9 4.4,-1 7.9,-3.8 14.7,-3.7 6.7,0.1 -7.5,-0.5 -11.8,10.2 -2.6,6.4 1.9,16.1 -2.7,14.3 -15,-6 -37.1,-21.8 -24,-70.6 z"
   id="path7" />&#10;					<path
   class="st5"
   d="m 373.7,311.4 c 0,0 -0.5,8.5 -1.8,11.9 -1.3,3.3 -3.1,7.7 0,9.9 3.1,2.2 4.1,5.7 4.1,5.7"
   id="path8" />&#10;					<g
   id="g10">&#10;						<path
   class="st6"
   d="m 417,370.4 c -0.3,0 -0.6,-0.2 -0.7,-0.4 -4.8,-11.3 -8.7,-12.2 -14.5,-13.4 -0.7,-0.1 -1.4,-0.3 -2.2,-0.5 -0.9,-0.2 -1.9,-0.3 -3,-0.3 -6.3,0 -13.4,3.5 -13.5,3.5 -0.1,0 -0.2,0.1 -0.3,0.1 -0.2,0 -0.4,-0.1 -0.5,-0.2 l -2.5,-2.6 c -0.2,-0.2 -0.2,-0.4 -0.2,-0.7 0.1,-0.2 0.2,-0.4 0.5,-0.5 7.1,-2.7 13.5,-4.1 19,-4.1 15.6,0 19.3,11.1 19.3,11.2 0,0.1 0,0.2 0,0.3 l -0.6,7 c 0,0.3 -0.3,0.6 -0.6,0.7 -0.1,-0.1 -0.1,-0.1 -0.2,-0.1 z"
   id="path9" />&#10;						<path
   d="m 399,352 c 15.3,0 18.6,10.7 18.6,10.7 l -0.6,7 c -5.6,-13.1 -10.2,-12.7 -17.2,-14.3 -1,-0.2 -2.1,-0.3 -3.2,-0.3 -6.5,0 -13.8,3.6 -13.8,3.6 l -2.5,-2.6 c 7.6,-3 13.8,-4.1 18.7,-4.1 m 0,-1.5 c -5.6,0 -12.1,1.4 -19.3,4.1 -0.5,0.2 -0.8,0.6 -0.9,1.1 -0.1,0.5 0,1 0.4,1.3 l 2.5,2.6 c 0.3,0.3 0.7,0.4 1,0.4 0.2,0 0.4,0 0.6,-0.1 0.1,0 7.1,-3.4 13.2,-3.4 1,0 2,0.1 2.9,0.3 0.8,0.2 1.5,0.3 2.2,0.5 5.6,1.2 9.4,2 14,13 0.2,0.5 0.8,0.9 1.3,0.9 0.1,0 0.2,0 0.2,0 0.7,-0.1 1.2,-0.7 1.2,-1.3 l 0.6,-7 c 0,-0.2 0,-0.4 -0.1,-0.6 0.1,-0.6 -3.6,-11.8 -19.8,-11.8 z"
   id="path10" />&#10;					</g>&#10;					<path
   class="st7"
   d="m 397.6,297.6 c 0,0 -1.4,3.8 -4,5.6 0,0 4.1,5.4 7.2,8 2.1,1.8 2.9,3.5 2.9,3.5 0,0 3.3,-4.1 3.6,-6.2 0.2,-1.7 -2.3,-4.5 -3,-4.8 -0.7,-0.4 -5.2,-7.6 -6.7,-6.1 z"
   id="path11" />&#10;					<path
   class="st7"
   d="m 404.7,306.4 c 0,0 -0.9,1.1 -1.2,1.3 0,0 -0.8,1.1 -1.1,1.6 -0.2,0.3 -0.4,0.6 -0.4,0.6 0,0 0.8,-0.8 1.1,-1.1 0.3,-0.3 0.6,-0.8 0.7,-0.9 0,-0.1 1.2,-1.7 0.9,-1.5 z"
   id="path12" />&#10;					<path
   class="st7"
   d="m 403.1,304.7 c 0,0 -0.9,1.1 -1.2,1.3 0,0 -0.8,1.1 -1.1,1.6 -0.2,0.3 -0.4,0.6 -0.4,0.6 0,0 0.8,-0.8 1.1,-1.1 0.3,-0.3 0.6,-0.8 0.7,-0.9 0.1,-0.1 1.2,-1.7 0.9,-1.5 z"
   id="path13" />&#10;					<path
   class="st7"
   d="m 401.5,302.4 c 0,0 -0.9,1.1 -1.2,1.3 0,0 -0.8,1.1 -1.1,1.6 -0.2,0.3 -0.4,0.6 -0.4,0.6 0,0 0.8,-0.8 1.1,-1.1 0.3,-0.3 0.6,-0.8 0.7,-0.9 0.1,-0.1 1.2,-1.7 0.9,-1.5 z"
   id="path14" />&#10;					<path
   class="st7"
   d="m 399.7,300.7 c 0,0 -0.9,1.1 -1.2,1.3 0,0 -0.8,1.1 -1.1,1.6 -0.2,0.3 -0.4,0.6 -0.4,0.6 0,0 0.8,-0.8 1.1,-1.1 0.3,-0.3 0.6,-0.8 0.7,-0.9 0.1,-0.1 1.2,-1.8 0.9,-1.5 z"
   id="path15" />&#10;					<g
   id="g15">&#10;						<polygon
   points="388.4,292.5 389.8,293 386.7,298.8 "
   id="polygon15" />&#10;					</g>&#10;					<path
   class="st5"
   d="m 373.7,275.6 c 0,0 2.5,3.1 1.2,10.4 -1.3,7.3 -2.6,14 -3,17.6 -0.4,3.7 0.4,7.7 0.4,11.1 0,3.4 -0.6,9.9 -1.7,12.6"
   id="path16" />&#10;					<path
   class="st5"
   d="m 371.9,274.4 c 0,0 1.6,2.2 1,8.6 -0.6,6.3 -3.8,15.6 -3.5,23.8 0.3,8.2 1.1,9.7 -0.1,14.4 -1.3,5.2 -3.1,9.6 0.8,12.9"
   id="path17" />&#10;					<g
   id="g24">&#10;						<g
   id="g18">&#10;							<path
   d="m 419.3,352.2 c -3.5,-4.4 -8.9,-7 -14.5,-7.4 -2.8,-0.2 -5.6,0 -8.4,0.4 -2.8,0.4 -5.6,0.9 -8.5,1.3 6.7,-2.4 14.2,-4.4 21.3,-2.4 4.2,1.4 8.2,4.1 10.1,8.1 z"
   id="path18" />&#10;						</g>&#10;						<g
   id="g19">&#10;							<path
   d="m 405.3,330.9 c 4.4,-0.8 9,0.2 13,2 3,1.2 6.5,2.9 7.8,6.2 0.4,1.1 0.6,2.2 0.6,3.3 -0.3,-1.1 -0.7,-2.1 -1.3,-3 -1.7,-2.8 -4.8,-3.9 -7.7,-5.1 -4,-1.8 -8,-2.9 -12.4,-3.4 z"
   id="path19" />&#10;						</g>&#10;						<g
   id="g20">&#10;							<path
   d="m 394.3,344 c 3.5,-4.2 9.7,-6 15,-4.8 -5.3,0.9 -10.3,2.3 -15,4.8 z"
   id="path20" />&#10;						</g>&#10;						<g
   id="g21">&#10;							<path
   d="m 423.1,339.2 c -11,-2.9 -22.7,-4.3 -33.5,0 9.9,-6.3 23.2,-4.8 33.5,0 z"
   id="path21" />&#10;						</g>&#10;						<g
   id="g22">&#10;							<path
   d="m 414.4,338.3 c -5.3,-0.2 -10.3,-0.5 -15.5,0 4.8,-2.5 10.8,-2.2 15.5,0 z"
   id="path22" />&#10;						</g>&#10;						<g
   id="g23">&#10;							<path
   d="m 377.9,318.9 c -0.9,5.1 -0.7,10 2.4,14.3 -4.9,-2.9 -5.4,-10 -2.4,-14.3 z"
   id="path23" />&#10;						</g>&#10;					</g>&#10;					<g
   id="g25">&#10;						<path
   d="m 416.8,324.5 c -3.5,-2 -6.7,-3.7 -10.5,-5.1 4.1,-0.7 8.5,1.6 10.5,5.1 z"
   id="path24" />&#10;					</g>&#10;					<g
   id="g26">&#10;						<path
   d="m 389.6,326.6 c -2.6,3.9 -5.5,7.3 -7.5,11.6 -0.1,-4.9 3.5,-9.2 7.5,-11.6 z"
   id="path25" />&#10;					</g>&#10;				</g>&#10;			</g>&#10;			<g
   id="g55">&#10;				<g
   id="g32">&#10;					<path
   class="st0"
   d="m 193.9,365 c 0,0 0.9,10.1 1.5,11.1 0.7,1 4.5,5.6 5,7.1 0.5,1.5 -0.4,10 3,15.8 3.3,5.8 8.7,11.5 11.1,12.8 2.5,1.3 2.8,8.3 14.1,1.7 11.3,-6.6 21.6,-20.5 14.1,-35.8 -7.4,-15.3 -10.4,-21 -20.7,-23.4 -10.1,-2.3 -23.6,-3.2 -28.1,10.7 z"
   id="path28" />&#10;					<g
   id="g29">&#10;						<path
   d="m 207.6,371.5 c -0.4,1.6 -1,3.3 -1.8,4.8 -0.8,1.5 -2.2,2.5 -3.1,4 -1.8,2.8 -1.6,6.2 -0.8,9.3 0,0 -1.9,0.4 -1.9,0.4 -0.5,-3.5 -0.3,-7.4 1.9,-10.3 1,-1.4 2.5,-2.3 3.5,-3.7 0.9,-1.4 1.6,-2.9 2.2,-4.5 z"
   id="path29" />&#10;					</g>&#10;					<path
   class="st1"
   d="m 226.9,405.3 c -0.2,-0.3 -3,-4.7 -6.6,-6 -3.6,-1.3 -5.5,-1.7 -5.9,-2.7 0,0 1.3,2.2 2.5,2.1 1.2,-0.1 -2.2,0 -3.1,2.3 -0.8,2.3 -2,6.3 -0.2,10.4 1.8,4.1 6.7,5.8 7.5,5.4 0.8,-0.6 10.8,-5.1 5.8,-11.5 z"
   id="path30" />&#10;					<g
   id="g31">&#10;						<path
   d="m 229.7,367.7 c 2.3,0 3.4,2.6 8.1,7.3 7,7 3.2,17.4 2.4,19.4 -0.3,0.6 -1.3,0.8 -2.7,0.8 -3.2,0 -8.3,-1.3 -9.2,-2.6 -1.3,-1.7 -4.5,-8.7 -5.5,-13.4 -1.1,-4.7 2.1,-9.5 2.1,-9.5 2.3,-1.4 3.7,-2 4.8,-2 m 0,-1.5 c -1.6,0 -3.3,0.9 -5.6,2.3 -0.2,0.1 -0.3,0.3 -0.5,0.5 -0.1,0.2 -3.5,5.5 -2.3,10.6 1.1,4.8 4.3,11.9 5.8,13.9 1.4,2 7.5,3.2 10.4,3.2 0.8,0 3.3,0 4,-1.7 0.2,-0.5 5.5,-12.8 -2.7,-21 -1.5,-1.5 -2.7,-2.8 -3.6,-3.9 -2,-2.4 -3.3,-3.9 -5.5,-3.9 z"
   id="path31" />&#10;					</g>&#10;					<path
   class="st2"
   d="m 206.2,353.5 c 0,0 11.5,7.5 10.3,10.8 -1.2,3.3 2.3,11.3 4.1,12.3 1.8,1 7.1,6.1 3.4,14.4 -3.6,8.3 -4.1,21 -3.4,23.3 0.6,2.3 19.9,-5.7 22.4,-15.8 2.4,-10 0.3,-25.9 -8.9,-37.8 -9.3,-11.8 -27.9,-7.2 -27.9,-7.2 z"
   id="path32" />&#10;				</g>&#10;				<g
   id="g54">&#10;					<path
   class="st3"
   d="m 244.6,269 c 0,0 -9.9,7.7 -9.9,10 0,2.2 -0.8,-1.6 -0.8,-1.6 0,0 -0.2,3.1 -4,6.7 -3.8,3.6 -8.7,8.8 -8.7,9.6 0,0.8 -3.1,-1.2 -4.1,0 -1,1.2 -10.6,15.2 -14.4,16.7 -3.8,1.5 -4.7,10.5 -7.2,12.9 -2.5,2.3 -16.7,11.2 -14,20.7 2.7,9.5 11.2,13.8 11.5,16.7 0.3,2.9 0.5,7.7 0.7,9 0.2,1.3 3,-12.5 15,-14.1 12,-1.6 19.3,3 19.3,3 0,0 24.9,-25.1 23.5,-30.1 -1.4,-5 4.3,-41.3 -6.9,-59.5 z"
   id="path33" />&#10;					<path
   class="st4"
   d="m 247.9,285.4 c 0,0 -4.6,20.2 -9.4,21.2 -4.9,1 -6.4,1.4 -7.5,4 -1.1,2.6 1.2,3.7 -2.3,9 -3.5,5.3 -6.8,6.3 -7,7.8 -0.2,1.5 2,5 5,6.9 3,1.9 1.7,1.9 -2.6,0.9 -4.4,-1 -7.9,-3.8 -14.7,-3.7 -6.7,0.1 7.5,-0.5 11.8,10.2 2.6,6.4 -1.9,16.1 2.7,14.3 14.9,-6 37,-21.8 24,-70.6 z"
   id="path34" />&#10;					<path
   class="st5"
   d="m 237,311.4 c 0,0 0.5,8.5 1.8,11.9 1.3,3.3 3.1,7.7 0,9.9 -3.1,2.2 -4.1,5.7 -4.1,5.7"
   id="path35" />&#10;					<g
   id="g37">&#10;						<path
   class="st6"
   d="m 193.7,370.4 c 0,0 -0.1,0 -0.1,0 -0.3,-0.1 -0.6,-0.3 -0.6,-0.7 l -0.6,-7 c 0,-0.1 0,-0.2 0,-0.3 0,-0.1 3.7,-11.2 19.3,-11.2 5.5,0 11.9,1.4 19,4.1 0.2,0.1 0.4,0.3 0.5,0.5 0.1,0.2 0,0.5 -0.2,0.7 l -2.5,2.6 c -0.1,0.1 -0.3,0.2 -0.5,0.2 -0.1,0 -0.2,0 -0.3,-0.1 -0.1,0 -7.2,-3.5 -13.5,-3.5 -1.1,0 -2.1,0.1 -3,0.3 -0.8,0.2 -1.5,0.3 -2.2,0.5 -5.9,1.2 -9.7,2 -14.5,13.4 -0.2,0.3 -0.5,0.5 -0.8,0.5 z"
   id="path36" />&#10;						<path
   d="m 211.7,352 c 4.9,0 11.1,1.1 18.8,4 l -2.5,2.6 c 0,0 -7.3,-3.6 -13.8,-3.6 -1.1,0 -2.2,0.1 -3.2,0.3 -7,1.6 -11.7,1.2 -17.2,14.3 l -0.6,-7 c -0.1,0 3.3,-10.6 18.5,-10.6 m 0,-1.5 v 0 c -16.2,0 -19.9,11.2 -20,11.7 -0.1,0.2 -0.1,0.4 -0.1,0.6 l 0.6,7 c 0.1,0.7 0.6,1.2 1.2,1.3 0.1,0 0.2,0 0.2,0 0.6,0 1.1,-0.3 1.3,-0.9 4.7,-11 8.4,-11.8 14,-13 0.7,-0.1 1.4,-0.3 2.2,-0.5 0.9,-0.2 1.8,-0.3 2.9,-0.3 6.1,0 13.1,3.4 13.2,3.4 0.2,0.1 0.4,0.1 0.6,0.1 0.4,0 0.8,-0.2 1,-0.4 l 2.5,-2.6 c 0.3,-0.4 0.5,-0.9 0.4,-1.3 -0.1,-0.5 -0.4,-0.9 -0.9,-1.1 -7,-2.6 -13.5,-4 -19.1,-4 z"
   id="path37" />&#10;					</g>&#10;					<path
   class="st7"
   d="m 213.1,297.6 c 0,0 1.4,3.8 4,5.6 0,0 -4.1,5.4 -7.2,8 -2.1,1.8 -2.9,3.5 -2.9,3.5 0,0 -3.3,-4.1 -3.6,-6.2 -0.2,-1.7 2.3,-4.5 3,-4.8 0.7,-0.4 5.3,-7.6 6.7,-6.1 z"
   id="path38" />&#10;					<path
   class="st7"
   d="m 206,306.4 c 0,0 0.9,1.1 1.2,1.3 0,0 0.8,1.1 1.1,1.6 0.2,0.3 0.4,0.6 0.4,0.6 0,0 -0.8,-0.8 -1.1,-1.1 -0.3,-0.3 -0.6,-0.8 -0.7,-0.9 0,-0.1 -1.2,-1.7 -0.9,-1.5 z"
   id="path39" />&#10;					<path
   class="st7"
   d="m 207.6,304.7 c 0,0 0.9,1.1 1.2,1.3 0,0 0.8,1.1 1.1,1.6 0.2,0.3 0.4,0.6 0.4,0.6 0,0 -0.8,-0.8 -1.1,-1.1 -0.3,-0.3 -0.6,-0.8 -0.7,-0.9 0,-0.1 -1.2,-1.7 -0.9,-1.5 z"
   id="path40" />&#10;					<path
   class="st7"
   d="m 209.2,302.4 c 0,0 0.9,1.1 1.2,1.3 0,0 0.8,1.1 1.1,1.6 0.2,0.3 0.4,0.6 0.4,0.6 0,0 -0.8,-0.8 -1.1,-1.1 -0.3,-0.3 -0.6,-0.8 -0.7,-0.9 -0.1,-0.1 -1.2,-1.7 -0.9,-1.5 z"
   id="path41" />&#10;					<path
   class="st7"
   d="m 211,300.7 c 0,0 0.9,1.1 1.2,1.3 0,0 0.8,1.1 1.1,1.6 0.2,0.3 0.4,0.6 0.4,0.6 0,0 -0.8,-0.8 -1.1,-1.1 -0.3,-0.3 -0.6,-0.8 -0.7,-0.9 0.1,-0.2 -1.2,-1.8 -0.9,-1.5 z"
   id="path42" />&#10;					<g
   id="g42">&#10;						<polygon
   points="221,293 222.3,292.5 224,298.8 "
   id="polygon42" />&#10;					</g>&#10;					<path
   class="st5"
   d="m 237,275.6 c 0,0 -2.5,3.1 -1.2,10.4 1.3,7.3 2.6,14 3,17.6 0.4,3.7 -0.4,7.7 -0.4,11.1 0,3.4 0.6,9.9 1.7,12.6"
   id="path43" />&#10;					<path
   class="st5"
   d="m 238.8,274.4 c 0,0 -1.6,2.2 -1,8.6 0.6,6.3 3.8,15.6 3.5,23.8 -0.3,8.2 -1.1,9.7 0.1,14.4 1.3,5.2 3.1,9.6 -0.8,12.9"
   id="path44" />&#10;					<g
   id="g51">&#10;						<g
   id="g45">&#10;							<path
   d="m 191.5,352.2 c 1.9,-4 5.9,-6.7 10,-8.1 7.1,-2.1 14.6,0 21.3,2.4 -2.9,-0.4 -5.7,-1 -8.5,-1.3 -2.8,-0.4 -5.6,-0.6 -8.4,-0.4 -5.5,0.4 -10.9,3 -14.4,7.4 z"
   id="path45" />&#10;						</g>&#10;						<g
   id="g46">&#10;							<path
   d="m 205.4,330.9 c -4.4,0.4 -8.4,1.5 -12.4,3.3 -2.9,1.2 -6,2.4 -7.7,5.1 -0.6,0.9 -0.9,1.9 -1.3,3 0,-1.1 0.2,-2.2 0.6,-3.3 1.3,-3.3 4.8,-4.9 7.8,-6.2 4.1,-1.6 8.6,-2.6 13,-1.9 z"
   id="path46" />&#10;						</g>&#10;						<g
   id="g47">&#10;							<path
   d="m 216.4,344 c -4.7,-2.5 -9.7,-3.9 -15,-4.8 5.3,-1.2 11.5,0.6 15,4.8 z"
   id="path47" />&#10;						</g>&#10;						<g
   id="g48">&#10;							<path
   d="m 187.6,339.2 c 10.3,-4.9 23.5,-6.3 33.5,0 -10.7,-4.3 -22.4,-2.8 -33.5,0 z"
   id="path48" />&#10;						</g>&#10;						<g
   id="g49">&#10;							<path
   d="m 196.3,338.3 c 4.8,-2.2 10.8,-2.5 15.5,0 -5.2,-0.5 -10.2,-0.2 -15.5,0 z"
   id="path49" />&#10;						</g>&#10;						<g
   id="g50">&#10;							<path
   d="m 232.8,318.9 c 3,4.3 2.5,11.4 -2.4,14.3 3.2,-4.3 3.3,-9.2 2.4,-14.3 z"
   id="path50" />&#10;						</g>&#10;					</g>&#10;					<g
   id="g52">&#10;						<path
   d="m 193.9,324.5 c 2,-3.5 6.4,-5.8 10.5,-5.1 -3.8,1.4 -7,3.1 -10.5,5.1 z"
   id="path51" />&#10;					</g>&#10;					<g
   id="g53">&#10;						<path
   d="m 221.2,326.6 c 4,2.4 7.6,6.7 7.5,11.6 -2,-4.3 -4.9,-7.7 -7.5,-11.6 z"
   id="path52" />&#10;					</g>&#10;				</g>&#10;			</g>&#10;			<g
   id="g146">&#10;				<path
   class="st3"
   d="m 248.4,334.5 c 0,0 -4.9,2.8 -2,12.2 2.9,9.3 1.9,20.1 22.4,23.4 20.4,3.4 80.2,7.1 89.1,-0.4 8.9,-7.5 21.1,-17.1 14.1,-27.6 -7,-10.5 -10.5,-2.7 -14.3,-15.8 -3.8,-13.1 -3.6,-55.8 -1.4,-59.6 2.2,-3.8 -74,-0.8 -87.7,0.9 -13.8,1.7 -19,51.9 -20.2,66.9 z"
   id="path55" />&#10;				<g
   id="g58">&#10;					<path
   class="st8"
   d="m 325,313.1 c 0,0 5.7,-4.3 9.9,-5 4.2,-0.7 10.8,-2 17,-4.6 6.2,-2.5 5.4,0.5 5.4,0.5 0,0 4.8,13.5 2.7,15.5 -2.2,2.1 -7,3.9 -13.4,5.9 -6.4,2 -12.5,3.1 -14.5,3 -2,-0.1 -5.5,-0.8 -6.3,-6.8 -0.8,-6 -0.8,-8.5 -0.8,-8.5 z"
   id="path56" />&#10;					<path
   class="st5"
   d="m 325.8,322.2 c -0.3,-1.8 -0.8,-9.1 -0.8,-9.1 0,0 3.9,-3.8 12.4,-5.5 8.5,-1.7 12.4,-4.3 14.5,-4.1 2.1,0.2 4.3,-2.6 5.4,0.5 1.1,3.1 3.1,12 3.1,12 0.2,1.3 7,11.1 5.2,17.6 -1.8,6.5 -16.2,9.3 -16.2,9.3 0,0 -14.5,3.2 -18.9,-1.3 -4.5,-4.6 -3.5,-8.1 -4,-16.6 0.1,-0.1 -0.5,-1.8 -0.7,-2.8 z"
   id="path57" />&#10;					<path
   class="st7"
   d="m 351.6,335.7 c 0,1.5 -0.7,2.6 -2.2,2.6 -1.5,0 -2.8,-0.8 -2.8,-2.4 0,-1.5 1.2,-2.8 2.8,-2.8 1.4,0.1 2.2,1.1 2.2,2.6 z"
   id="path58" />&#10;				</g>&#10;				<g
   id="g61">&#10;					<path
   class="st8"
   d="m 286.4,313.3 c 0,0 -5.5,-3.9 -9.3,-4.4 -3.8,-0.5 -10,-1.4 -15.8,-3.6 -5.8,-2.1 -4.9,0.8 -4.9,0.8 0,0 -3.6,13.5 -1.5,15.4 2.1,1.9 6.6,3.5 12.6,5.1 5.9,1.6 11.6,2.4 13.4,2.2 1.8,-0.2 5,-1.1 5.4,-7 0.3,-5.8 0.1,-8.5 0.1,-8.5 z"
   id="path59" />&#10;					<path
   class="st5"
   d="m 286.1,322.3 c 0.2,-1.8 0.2,-9 0.2,-9 0,0 -3.8,-3.5 -11.6,-4.7 -7.9,-1.2 -11.5,-3.5 -13.4,-3.2 -1.9,0.3 -4.1,-2.3 -4.9,0.8 -0.8,3.1 -2.2,12 -2.2,12 -0.1,1.3 -4.6,10.8 -2.6,17.1 2,6.3 14.1,8.9 14.1,8.9 0,0 13.4,2.4 17.2,-2.3 3.8,-4.7 2.7,-8.2 2.7,-16.6 0,-0.2 0.4,-2 0.5,-3 z"
   id="path60" />&#10;					<path
   class="st7"
   d="m 261.9,335.5 c 0.1,1.3 0.7,2.2 1.9,2.1 1.2,-0.1 2.1,-0.8 2.1,-2.1 0,-1.3 -1.1,-2.3 -2.3,-2.2 -1.2,0 -1.7,0.9 -1.7,2.2 z"
   id="path61" />&#10;				</g>&#10;				<g
   id="g68">&#10;					<path
   class="st9"
   d="m 368.8,271.3 c 0,0 -1.8,1.7 -1.6,7.4 0.2,5.6 -1.1,17.7 -0.8,27.9 0.2,10.2 -2.9,17.2 -2.4,18.7 0.5,1.5 3.4,7.5 7.7,10.1 0,0 1.9,11.2 -7.8,3.6 -9.7,-7.6 -13.7,-16.6 -14.7,-22.1 -1,-5.5 -1.2,-16.1 -2,-20.8 -0.8,-4.7 -1.8,-15.6 1.8,-20.3 3.8,-4.7 21.4,-9.9 19.8,-4.5 z"
   id="path62" />&#10;					<g
   id="g63">&#10;						<path
   d="m 364.6,271.4 c -1.8,2.5 -2.5,5.5 -2.2,8.5 0.3,1.8 0.7,3.6 0.9,5.4 0.6,4.9 0.9,9.8 0.1,14.8 -0.3,2.4 -1.3,4.7 -1.5,7.1 -0.4,4.8 0.4,9.7 1.5,14.3 0.5,2.4 1,4.8 2.1,7 -0.8,-1 -1.3,-2.1 -1.8,-3.2 -2.4,-5.7 -3.3,-12 -2.9,-18.2 0.2,-2.5 1.2,-4.7 1.5,-7.2 0.7,-4.8 0.5,-9.7 -0.1,-14.5 -0.2,-2.5 -1.1,-4.8 -1,-7.3 0.5,-2.5 1.7,-4.9 3.4,-6.7 z"
   id="path63" />&#10;					</g>&#10;					<g
   id="g64">&#10;						<path
   d="m 358.1,271.4 c -3.5,9.7 -0.1,20.4 1.9,30.1 0.8,3.8 1.5,7.6 1.8,11.5 0.1,3.8 0.9,7.5 2.3,11.1 0.8,2.4 1.8,4.8 3.1,7 -0.9,-1 -1.6,-2.1 -2.2,-3.2 -2.7,-4.4 -4.1,-9.6 -4.2,-14.8 -0.2,-3.8 -1,-7.6 -1.8,-11.3 -1.7,-9.8 -6.1,-21.1 -0.9,-30.4 z"
   id="path64" />&#10;					</g>&#10;					<g
   id="g65">&#10;						<path
   d="m 353.5,274.4 c -3.6,8.3 -1.4,18.4 -0.8,27.1 0.8,9 1.2,18.5 6.4,26.2 3.3,4.8 6.9,10.8 13.2,11.5 -3.2,0.1 -6.1,-1.5 -8.4,-3.6 -10.1,-10.6 -11.1,-20.1 -12.2,-34 0,0 -0.8,-9.1 -0.8,-9.1 -0.3,-3 -0.7,-6.1 -0.3,-9.3 0.5,-3.1 1.3,-6.1 2.9,-8.8 z"
   id="path65" />&#10;					</g>&#10;					<g
   id="g66">&#10;						<path
   d="m 356.2,300.9 c 2.1,2.9 2.7,6.6 2.4,10.1 -0.2,3.4 -0.4,6.6 1.2,9.7 2.3,4.4 5,8.8 8.7,12.3 1.1,1.3 2.2,2.6 3.3,3.9 -1.5,-0.9 -3,-1.8 -4.4,-2.9 -2.5,-2.4 -4.6,-5.3 -6.4,-8.2 -1.8,-2.9 -3.8,-6.1 -4,-9.7 0.1,-5.2 0.5,-10.1 -0.8,-15.2 z"
   id="path66" />&#10;					</g>&#10;					<g
   id="g67">&#10;						<path
   d="m 353.8,313.1 c 0.5,2 1.3,3.7 1.9,5.6 0.1,0.5 0.5,1.4 0.7,1.8 2.5,6 7.2,10.9 12.6,14.5 3.6,3.2 3.8,3.1 -0.8,1.2 -5.6,-3.8 -10.5,-8.9 -13.1,-15.2 -0.2,-0.5 -0.6,-1.4 -0.7,-1.9 -0.9,-1.8 -1,-4 -0.6,-6 z"
   id="path67" />&#10;					</g>&#10;				</g>&#10;				<g
   id="g74">&#10;					<path
   class="st9"
   d="m 239.9,274.9 c 0,0 1.8,1.7 1.9,7.3 0.1,5.6 1.8,17.6 2,27.9 0.2,10.3 3.6,17.1 3.2,18.6 -0.4,1.5 -3,7.6 -7.3,10.4 0,0 -1.4,11.3 7.9,3.2 9.4,-8.1 13,-17.2 13.7,-22.7 0.7,-5.5 0.5,-16.2 1.1,-20.8 0.6,-4.7 1.2,-15.7 -2.7,-20.2 -3.9,-4.5 -21.6,-9 -19.8,-3.7 z"
   id="path68" />&#10;					<g
   id="g69">&#10;						<path
   d="m 244.1,274.8 c 1.8,1.7 3.1,4 3.5,6.5 0.2,2.5 -0.5,4.9 -0.7,7.4 -0.4,4.8 -0.4,9.7 0.5,14.5 0.4,2.4 1.5,4.7 1.8,7.1 0.7,6.1 0,12.5 -2.1,18.3 -0.4,1.1 -0.9,2.3 -1.6,3.3 1,-2.2 1.4,-4.7 1.8,-7 1,-4.7 1.6,-9.6 0.9,-14.4 -0.3,-2.4 -1.4,-4.7 -1.8,-7.1 -0.9,-4.9 -0.9,-9.9 -0.5,-14.7 0.1,-2.4 0.9,-4.8 0.7,-7.2 -0.1,-2.4 -1,-4.7 -2.5,-6.7 z"
   id="path69" />&#10;					</g>&#10;					<g
   id="g70">&#10;						<path
   d="m 250.6,274.6 c 5.6,9.1 1.7,20.5 0.4,30.3 -0.6,3.8 -1.2,7.6 -1.3,11.4 0.1,5.2 -1.1,10.4 -3.6,15 -0.6,1.1 -1.3,2.3 -2.1,3.3 1.3,-2.2 2.1,-4.7 2.8,-7.1 1.3,-3.6 2,-7.3 1.9,-11.1 0.1,-3.9 0.7,-7.7 1.3,-11.5 1.6,-10 4.5,-20.8 0.6,-30.3 z"
   id="path70" />&#10;					</g>&#10;					<g
   id="g71">&#10;						<path
   d="m 255.4,277.3 c 1.6,2.6 2.6,5.6 3.2,8.6 0.5,3.1 0.2,6.2 0.1,9.3 l -0.4,9.2 c -0.4,13.9 -1.1,23.5 -10.7,34.5 -2.2,2.2 -5,4 -8.2,4 6.3,-1 9.6,-7.2 12.7,-12.1 4.9,-7.9 4.8,-17.5 5.3,-26.5 0.1,-8.7 1.9,-18.8 -2,-27 z"
   id="path71" />&#10;					</g>&#10;					<g
   id="g72">&#10;						<path
   d="m 253.7,303.9 c -1,5.2 -0.4,10 -0.3,15.2 -0.1,3.6 -1.9,6.8 -3.6,9.9 -1.6,3 -3.6,6 -6,8.5 -1.4,1.1 -2.8,2.1 -4.2,3 1.1,-1.4 2.2,-2.7 3.2,-4.1 3.5,-3.6 6,-8.2 8.1,-12.7 1.5,-3.1 1.1,-6.4 0.8,-9.7 -0.4,-3.4 0.1,-7.1 2,-10.1 z"
   id="path72" />&#10;					</g>&#10;					<g
   id="g73">&#10;						<path
   d="m 256.7,316 c 0.4,2 0.5,4.1 -0.2,6.1 -0.1,0.5 -0.5,1.5 -0.6,1.9 -2.4,6.4 -7,11.7 -12.5,15.7 -4.4,2 -4.4,2.2 -0.9,-1.2 5.2,-3.8 9.7,-8.9 12,-15.1 0.2,-0.4 0.5,-1.4 0.6,-1.8 0.4,-1.8 1.2,-3.6 1.6,-5.6 z"
   id="path73" />&#10;					</g>&#10;				</g>&#10;				<polygon
   class="st10"
   points="303.4,308.9 306.7,319 324.7,295.9 350.6,266.6 367.2,230.9 261.8,244.2 282.4,291 "
   id="polygon74" />&#10;				<g
   id="g96">&#10;					<path
   class="st11"
   d="m 242.9,248.6 c 0,0 -14.3,11.7 -10.6,21.4 3.7,9.7 18.4,16.4 33.9,18.7 0,0 -3.2,1 1.7,3 5,2 11.3,3.2 18,10.7 6.7,7.5 16,18.4 17.4,20.2 1.5,1.7 2.3,-1.5 0,-13.7 -2.3,-12.2 -7.3,-20.4 -9,-21.2 -1.7,-0.7 -7.8,-2 -9.4,-4 -1.6,-2 -7.1,-9.7 -8.6,-14.2 C 275,265 262,238.8 242.9,248.6 Z"
   id="path74" />&#10;					<path
   class="st3"
   d="m 248.5,246.4 c 0,0 -13.1,6.6 -4.4,17 8.7,10.3 14.5,14.8 24.2,18.3 9.7,3.5 13.7,6.7 14.2,9.2 0.5,2.5 2.7,6.7 7.7,11.5 5,4.7 15.4,12.7 14.7,18.7 0,0 -0.2,2.9 -1.4,1.5 -1.2,-1.4 -8.8,-10.3 -11.6,-13.5 -2.8,-3.2 -7.9,-11.1 -15.4,-14.1 -7.5,-3 -11,-3.6 -11.1,-5 -0.1,-1.5 0.9,-1.3 0.9,-1.3 0,0 -21.2,-2.9 -30.1,-12.9 -8.9,-10 -2.6,-16.7 -0.4,-19.4 2.2,-2.8 6.1,-7.2 7.2,-7.7 1,-0.6 5.5,-2.3 5.5,-2.3 z"
   id="path75" />&#10;					<path
   class="st8"
   d="m 283.7,281.9 c 0,0 6.2,8.5 1.4,14.5"
   id="path76" />&#10;					<path
   class="st8"
   d="m 295.2,292.9 c 0,0 -8.1,0.5 -8.3,-1.7"
   id="path77" />&#10;					<path
   class="st8"
   d="m 253.3,253.3 c 0,0 12.8,6 17,23.4"
   id="path78" />&#10;					<g
   id="g95">&#10;						<g
   id="g80">&#10;							<path
   class="st12"
   d="m 289,305.6 c -0.1,0 -0.3,-0.1 -0.3,-0.1 l -1.6,-1.6 c -0.1,-0.1 -0.1,-0.2 -0.1,-0.3 0,-0.1 0.1,-0.3 0.1,-0.3 l 1.6,-1.6 c 0.1,-0.1 0.2,-0.1 0.3,-0.1 0.1,0 0.2,0 0.3,0.1 l 1.6,1.6 c 0.2,0.2 0.2,0.5 0,0.7 l -1.6,1.6 c -0.1,-0.1 -0.2,0 -0.3,0 z"
   id="path79" />&#10;							<path
   d="m 289,301.9 1.6,1.6 -1.6,1.6 -1.6,-1.6 1.6,-1.6 m 0,-0.9 c -0.3,0 -0.5,0.1 -0.7,0.3 l -1.6,1.6 c -0.4,0.4 -0.4,1 0,1.4 l 1.6,1.6 c 0.2,0.2 0.4,0.3 0.7,0.3 0.3,0 0.5,-0.1 0.7,-0.3 l 1.6,-1.6 c 0.4,-0.4 0.4,-1 0,-1.4 l -1.6,-1.6 c -0.2,-0.2 -0.4,-0.3 -0.7,-0.3 z"
   id="path80" />&#10;						</g>&#10;						<g
   id="g82">&#10;							<path
   class="st12"
   d="m 291.7,308.3 c -0.1,0 -0.3,-0.1 -0.3,-0.1 l -1.6,-1.6 c -0.2,-0.2 -0.2,-0.5 0,-0.7 l 1.6,-1.6 c 0.1,-0.1 0.2,-0.1 0.3,-0.1 0.1,0 0.2,0 0.3,0.1 l 1.6,1.6 c 0.1,0.1 0.1,0.2 0.1,0.3 0,0.1 -0.1,0.3 -0.1,0.3 l -1.6,1.6 c 0,0.1 -0.1,0.2 -0.3,0.2 z"
   id="path81" />&#10;							<path
   d="m 291.7,304.7 1.6,1.6 -1.6,1.6 -1.6,-1.6 1.6,-1.6 m 0,-1 c -0.2,0 -0.5,0.1 -0.7,0.3 l -1.6,1.6 c -0.4,0.4 -0.4,1 0,1.4 l 1.6,1.6 c 0.2,0.2 0.4,0.3 0.7,0.3 0.3,0 0.5,-0.1 0.7,-0.3 L 294,307 c 0.4,-0.4 0.4,-1 0,-1.4 l -1.6,-1.6 c -0.2,-0.2 -0.4,-0.3 -0.7,-0.3 z"
   id="path82" />&#10;						</g>&#10;						<g
   id="g84">&#10;							<path
   class="st12"
   d="m 294.3,310.9 c -0.1,0 -0.2,0 -0.3,-0.1 l -1.6,-1.6 c -0.1,-0.1 -0.1,-0.2 -0.1,-0.3 0,-0.1 0.1,-0.3 0.1,-0.3 l 1.7,-1.7 c 0.1,-0.1 0.2,-0.1 0.3,-0.1 0.1,0 0.2,0 0.3,0.1 l 1.6,1.6 c 0.1,0.1 0.1,0.2 0.1,0.3 0,0.1 -0.1,0.3 -0.1,0.3 l -1.7,1.7 c 0,0 -0.2,0.1 -0.3,0.1 z"
   id="path83" />&#10;							<path
   d="m 294.4,307.2 1.6,1.6 -1.7,1.7 -1.6,-1.6 1.7,-1.7 m 0,-1 c -0.3,0 -0.5,0.1 -0.7,0.3 l -1.7,1.7 c -0.4,0.4 -0.4,1 0,1.4 l 1.6,1.6 c 0.2,0.2 0.4,0.3 0.7,0.3 0.3,0 0.5,-0.1 0.7,-0.3 l 1.7,-1.7 c 0.4,-0.4 0.4,-1 0,-1.4 l -1.6,-1.6 c -0.2,-0.2 -0.4,-0.3 -0.7,-0.3 z"
   id="path84" />&#10;						</g>&#10;						<g
   id="g86">&#10;							<path
   class="st12"
   d="m 298.5,315.6 c -0.1,0 -0.2,0 -0.3,-0.1 l -1.2,-1.2 c -0.1,-0.1 -0.1,-0.2 -0.1,-0.3 0,-0.1 0.1,-0.3 0.1,-0.3 l 1.7,-1.7 c 0.1,-0.1 0.2,-0.1 0.3,-0.1 v 0 c 0.1,0 0.3,0.1 0.3,0.1 l 1.2,1.2 c 0.2,0.2 0.2,0.5 0,0.7 l -1.7,1.7 c 0,-0.1 -0.1,0 -0.3,0 z"
   id="path85" />&#10;							<path
   d="m 299.1,312.2 1.2,1.2 -1.7,1.7 -1.2,-1.2 1.7,-1.7 m 0,-0.9 c -0.2,0 -0.5,0.1 -0.7,0.3 l -1.7,1.7 c -0.4,0.4 -0.4,1 0,1.4 l 1.2,1.2 c 0.2,0.2 0.4,0.3 0.7,0.3 0.3,0 0.5,-0.1 0.7,-0.3 l 1.7,-1.7 c 0.4,-0.4 0.4,-1 0,-1.4 l -1.2,-1.2 c -0.2,-0.3 -0.5,-0.3 -0.7,-0.3 z"
   id="path86" />&#10;						</g>&#10;						<g
   id="g88">&#10;							<path
   class="st12"
   d="m 296.5,313.5 c -0.1,0 -0.2,0 -0.3,-0.1 l -1.2,-1.2 c -0.1,-0.1 -0.1,-0.2 -0.1,-0.3 0,-0.1 0.1,-0.3 0.1,-0.3 l 1.7,-1.7 c 0.1,-0.1 0.2,-0.1 0.3,-0.1 0.1,0 0.2,0 0.3,0.1 l 1.2,1.2 c 0.1,0.1 0.1,0.2 0.1,0.3 0,0.1 -0.1,0.3 -0.1,0.3 l -1.7,1.7 c -0.1,0.1 -0.2,0.1 -0.3,0.1 z"
   id="path87" />&#10;							<path
   d="m 297,310.2 1.2,1.2 -1.7,1.7 -1.2,-1.2 1.7,-1.7 m 0,-1 c -0.2,0 -0.5,0.1 -0.7,0.3 l -1.7,1.7 c -0.4,0.4 -0.4,1 0,1.4 l 1.2,1.2 c 0.2,0.2 0.4,0.3 0.7,0.3 0.3,0 0.5,-0.1 0.7,-0.3 l 1.7,-1.7 c 0.4,-0.4 0.4,-1 0,-1.4 l -1.2,-1.2 c -0.2,-0.2 -0.5,-0.3 -0.7,-0.3 z"
   id="path88" />&#10;						</g>&#10;						<g
   id="g90">&#10;							<path
   class="st12"
   d="m 300.4,317.9 c -0.1,0 -0.2,0 -0.3,-0.1 l -1.2,-1.2 c -0.2,-0.2 -0.2,-0.5 0,-0.7 l 1.8,-1.8 c 0.1,-0.1 0.2,-0.1 0.3,-0.1 0.1,0 0.2,0 0.3,0.1 l 1.2,1.2 c 0.2,0.2 0.2,0.5 0,0.7 l -1.8,1.8 c -0.1,0.1 -0.2,0.1 -0.3,0.1 z"
   id="path89" />&#10;							<path
   d="m 301,314.5 1.2,1.2 -1.8,1.8 -1.2,-1.2 1.8,-1.8 m 0,-1 c -0.2,0 -0.5,0.1 -0.7,0.3 l -1.8,1.8 c -0.4,0.4 -0.4,1 0,1.4 l 1.2,1.2 c 0.2,0.2 0.4,0.3 0.7,0.3 0.3,0 0.5,-0.1 0.7,-0.3 l 1.8,-1.8 c 0.4,-0.4 0.4,-1 0,-1.4 l -1.2,-1.2 c -0.2,-0.2 -0.5,-0.3 -0.7,-0.3 z"
   id="path90" />&#10;						</g>&#10;						<g
   id="g92">&#10;							<path
   class="st12"
   d="m 302,320 c -0.1,0 -0.3,-0.1 -0.3,-0.2 l -0.9,-1 c -0.2,-0.2 -0.2,-0.5 0,-0.7 l 1.7,-1.6 c 0.1,-0.1 0.2,-0.1 0.3,-0.1 0,0 0,0 0,0 0.1,0 0.3,0.1 0.3,0.2 l 0.8,1.1 c 0.1,0.2 0.1,0.5 -0.1,0.7 l -1.7,1.5 c 0.2,0.1 0.1,0.1 -0.1,0.1 z"
   id="path91" />&#10;							<path
   d="m 302.9,317 0.8,1.1 -1.7,1.5 -0.9,-1 1.8,-1.6 m 0,-1 c -0.2,0 -0.5,0.1 -0.7,0.3 l -1.7,1.6 c -0.4,0.4 -0.4,1 -0.1,1.4 l 0.9,1 c 0.2,0.2 0.4,0.3 0.7,0.3 0,0 0,0 0.1,0 0.2,0 0.5,-0.1 0.7,-0.2 l 1.7,-1.5 c 0.4,-0.3 0.4,-0.9 0.1,-1.3 l -0.8,-1.1 c -0.3,-0.3 -0.5,-0.5 -0.9,-0.5 0.1,0 0,0 0,0 z"
   id="path92" />&#10;						</g>&#10;						<g
   id="g94">&#10;							<path
   class="st12"
   d="m 303.7,322.2 c -0.1,0 -0.3,-0.1 -0.4,-0.2 l -1.1,-1.2 c -0.1,-0.1 -0.1,-0.2 -0.1,-0.4 0,-0.1 0.1,-0.2 0.2,-0.3 l 1.7,-1.5 c 0.1,-0.1 0.2,-0.1 0.3,-0.1 0,0 0.1,0 0.1,0 0.2,0 0.3,0.2 0.3,0.3 l 0.6,1.6 c 0.1,0.2 0,0.4 -0.1,0.5 L 304,322 c -0.1,0.2 -0.2,0.2 -0.3,0.2 z"
   id="path93" />&#10;							<path
   d="m 304.2,319 0.6,1.6 -1.2,1.1 -1.1,-1.2 1.7,-1.5 m 0,-0.9 c -0.2,0 -0.5,0.1 -0.7,0.2 l -1.7,1.5 c -0.4,0.4 -0.4,1 -0.1,1.4 l 1.1,1.2 c 0.2,0.2 0.5,0.3 0.7,0.3 0.2,0 0.5,-0.1 0.7,-0.2 l 1.2,-1.1 c 0.3,-0.3 0.4,-0.7 0.3,-1.1 l -0.6,-1.6 c -0.1,-0.3 -0.4,-0.5 -0.7,-0.6 0,0 -0.1,0 -0.2,0 z"
   id="path94" />&#10;						</g>&#10;					</g>&#10;				</g>&#10;				<g
   id="g117">&#10;					<path
   class="st11"
   d="m 353.8,245.3 c 0,0 19.1,8.6 21.4,16.8 2.3,8.1 -0.2,11 -4.2,12.6 -4,1.7 -22.3,10.3 -25.2,11.8 -2.8,1.5 -15.6,12.7 -20.8,16.5 -5.2,3.8 -16.4,18.8 -17.5,19.3 -1.1,0.5 -3,0.5 -1.7,-4.7 1.3,-5.2 2,-7.1 2.9,-13 0.9,-5.8 6.1,-16.1 11.2,-19.3 5.1,-3.2 4.8,-1.4 6.1,-3.5 1.3,-2 6.1,-10.7 18.3,-18.5 12.2,-7.7 -1.9,-11.3 9.5,-18 z"
   id="path96" />&#10;					<path
   class="st8"
   d="m 353.8,245.3 c -2.2,1.5 -5.6,2.7 -4.4,8.8 1.1,6 -2.3,7.3 -6.9,10.6 -4.6,3.3 -13.3,11.2 -17.3,18.3 -4,7.1 -0.9,9.3 -0.4,12.9 0.5,3.6 -6.6,7.8 -14,16.1 -7.5,8.3 -4.9,10.2 -4.9,10.2"
   id="path97" />&#10;					<path
   class="st8"
   d="m 323.2,290.4 c 0,0 -4,1.2 -5.4,2.6 -1.4,1.4 -2.1,1.4 -2.1,1.4"
   id="path98" />&#10;					<path
   class="st3"
   d="m 353.4,248.6 c 0,0 10.5,2.2 13.1,8.8 2.6,6.6 -13.5,17.9 -23.8,23.1 -10.3,5.2 -14.6,11.5 -14.6,11.5 0,0 -4,8.1 -11.8,14.2 0,0 -4,3.1 -6.8,7.1 0,0 -4.8,4.9 -4.1,8.4 0,0 1.1,1.8 2.9,-0.3 1.8,-2.1 8.4,-10.1 10.7,-12.6 2.3,-2.5 4.1,-4.9 12.5,-11 8.4,-6.1 11.6,-10 16.7,-12.4 5.1,-2.4 17.6,-8 22.3,-10.4 4.7,-2.4 5.7,-3.5 5.6,-9.1 -0.1,-5.6 -3.9,-11.5 -18.2,-18.6 l -3.3,-1.7 c -0.1,0.1 -4.3,0.4 -1.2,3 z"
   id="path99" />&#10;					<g
   id="g116">&#10;						<g
   id="g101">&#10;							<path
   class="st12"
   d="m 320.8,305.9 c -0.1,0 -0.2,0 -0.3,-0.1 l -1.6,-1.4 c -0.1,-0.1 -0.2,-0.2 -0.2,-0.3 0,-0.1 0,-0.3 0.1,-0.4 l 1.5,-1.5 c 0.1,-0.1 0.2,-0.2 0.4,-0.2 0.1,0 0.2,0 0.3,0.1 l 1.6,1.4 c 0.1,0.1 0.2,0.2 0.2,0.3 0,0.1 0,0.3 -0.1,0.4 l -1.5,1.5 c -0.2,0.2 -0.3,0.2 -0.4,0.2 z"
   id="path100" />&#10;							<path
   d="m 320.7,302.5 1.6,1.4 -1.5,1.5 -1.6,-1.4 1.5,-1.5 m 0,-0.9 c -0.3,0 -0.5,0.1 -0.7,0.3 l -1.5,1.5 c -0.2,0.2 -0.3,0.5 -0.3,0.7 0,0.2 0.1,0.5 0.3,0.7 l 1.6,1.4 c 0.2,0.2 0.4,0.2 0.6,0.2 0.3,0 0.5,-0.1 0.7,-0.3 l 1.5,-1.5 c 0.2,-0.2 0.3,-0.5 0.3,-0.7 0,-0.2 -0.1,-0.5 -0.3,-0.7 l -1.6,-1.4 c -0.2,-0.1 -0.4,-0.2 -0.6,-0.2 z"
   id="path101" />&#10;						</g>&#10;						<g
   id="g103">&#10;							<path
   class="st12"
   d="m 318.2,308.6 c -0.1,0 -0.2,0 -0.3,-0.1 l -1.6,-1.4 c -0.1,-0.1 -0.2,-0.2 -0.2,-0.3 0,-0.1 0,-0.3 0.1,-0.4 l 1.5,-1.5 c 0.1,-0.1 0.2,-0.2 0.4,-0.2 0.1,0 0.2,0 0.3,0.1 l 1.6,1.4 c 0.1,0.1 0.2,0.2 0.2,0.3 0,0.1 0,0.3 -0.1,0.4 l -1.5,1.5 c -0.1,0.1 -0.2,0.2 -0.4,0.2 z"
   id="path102" />&#10;							<path
   d="m 318.1,305.2 1.6,1.4 -1.5,1.5 -1.6,-1.4 1.5,-1.5 m 0,-1 c -0.3,0 -0.5,0.1 -0.7,0.3 L 316,306 c -0.2,0.2 -0.3,0.5 -0.3,0.7 0,0.2 0.1,0.5 0.3,0.7 l 1.6,1.4 c 0.2,0.2 0.4,0.2 0.6,0.2 0.3,0 0.5,-0.1 0.7,-0.3 l 1.5,-1.5 c 0.2,-0.2 0.3,-0.5 0.3,-0.7 0,-0.2 -0.1,-0.5 -0.3,-0.7 l -1.6,-1.4 c -0.2,-0.1 -0.5,-0.2 -0.7,-0.2 z"
   id="path103" />&#10;						</g>&#10;						<g
   id="g105">&#10;							<path
   class="st12"
   d="m 315.9,311.1 c -0.1,0 -0.2,0 -0.3,-0.1 l -1.7,-1.5 c -0.1,-0.1 -0.2,-0.2 -0.2,-0.3 0,-0.1 0,-0.3 0.1,-0.4 l 1.5,-1.5 c 0.1,-0.1 0.2,-0.2 0.4,-0.2 0.1,0 0.2,0 0.3,0.1 l 1.7,1.5 c 0.1,0.1 0.2,0.2 0.2,0.3 0,0.1 0,0.3 -0.1,0.4 l -1.5,1.5 c -0.2,0.1 -0.3,0.2 -0.4,0.2 z"
   id="path104" />&#10;							<path
   d="m 315.7,307.6 1.7,1.5 -1.5,1.5 -1.7,-1.5 1.5,-1.5 m 0,-1 c -0.3,0 -0.5,0.1 -0.7,0.3 l -1.5,1.5 c -0.2,0.2 -0.3,0.5 -0.3,0.7 0,0.2 0.1,0.5 0.3,0.7 l 1.7,1.5 c 0.2,0.2 0.4,0.2 0.6,0.2 0.3,0 0.5,-0.1 0.7,-0.3 l 1.5,-1.5 c 0.2,-0.2 0.3,-0.5 0.3,-0.7 0,-0.2 -0.1,-0.5 -0.3,-0.7 l -1.7,-1.5 c -0.2,-0.1 -0.4,-0.2 -0.6,-0.2 z"
   id="path105" />&#10;						</g>&#10;						<g
   id="g107">&#10;							<path
   class="st12"
   d="m 312,315.6 c -0.1,0 -0.2,0 -0.3,-0.1 L 310,314 c -0.1,-0.1 -0.2,-0.2 -0.2,-0.3 0,-0.1 0,-0.3 0.1,-0.4 l 1.1,-1.1 c 0.1,-0.1 0.2,-0.2 0.4,-0.2 0.1,0 0.2,0 0.3,0.1 l 1.7,1.5 c 0.1,0.1 0.2,0.2 0.2,0.3 0,0.1 0,0.3 -0.1,0.4 l -1.1,1.1 c -0.2,0.1 -0.3,0.2 -0.4,0.2 z"
   id="path106" />&#10;							<path
   d="m 311.4,312.5 1.7,1.5 -1.1,1.1 -1.7,-1.5 1.1,-1.1 m 0,-1 c -0.3,0 -0.5,0.1 -0.7,0.3 l -1.1,1.1 c -0.2,0.2 -0.3,0.5 -0.3,0.7 0,0.2 0.1,0.5 0.3,0.7 l 1.7,1.5 c 0.2,0.2 0.4,0.2 0.6,0.2 0.3,0 0.5,-0.1 0.7,-0.3 l 1.1,-1.1 c 0.2,-0.2 0.3,-0.5 0.3,-0.7 0,-0.2 -0.1,-0.5 -0.3,-0.7 l -1.7,-1.5 c -0.2,-0.1 -0.4,-0.2 -0.6,-0.2 z"
   id="path107" />&#10;						</g>&#10;						<g
   id="g109">&#10;							<path
   class="st12"
   d="m 313.9,313.6 c -0.1,0 -0.2,0 -0.3,-0.1 l -1.7,-1.5 c -0.1,-0.1 -0.2,-0.2 -0.2,-0.3 0,-0.1 0,-0.3 0.1,-0.4 l 1.1,-1.1 c 0.1,-0.1 0.2,-0.2 0.4,-0.2 0.1,0 0.2,0 0.3,0.1 l 1.7,1.5 c 0.1,0.1 0.2,0.2 0.2,0.3 0,0.1 0,0.3 -0.1,0.4 l -1.1,1.1 c -0.1,0.1 -0.3,0.2 -0.4,0.2 z"
   id="path108" />&#10;							<path
   d="m 313.3,310.5 1.7,1.5 -1.1,1.1 -1.7,-1.5 1.1,-1.1 m 0,-1 c -0.3,0 -0.5,0.1 -0.7,0.3 l -1.1,1.1 c -0.2,0.2 -0.3,0.5 -0.3,0.7 0,0.2 0.1,0.5 0.3,0.7 l 1.7,1.5 c 0.2,0.2 0.4,0.2 0.6,0.2 0.3,0 0.5,-0.1 0.7,-0.3 l 1.1,-1.1 c 0.2,-0.2 0.3,-0.5 0.3,-0.7 0,-0.2 -0.1,-0.5 -0.3,-0.7 l -1.7,-1.5 c -0.2,-0.1 -0.4,-0.2 -0.6,-0.2 z"
   id="path109" />&#10;						</g>&#10;						<g
   id="g111">&#10;							<path
   class="st12"
   d="m 310.3,317.8 c -0.1,0 -0.2,0 -0.3,-0.1 l -1.8,-1.6 c -0.1,-0.1 -0.2,-0.2 -0.2,-0.3 0,-0.1 0,-0.3 0.1,-0.4 l 1.1,-1.2 c 0.1,-0.1 0.2,-0.2 0.4,-0.2 0.1,0 0.2,0 0.3,0.1 l 1.8,1.6 c 0.1,0.1 0.2,0.2 0.2,0.3 0,0.1 0,0.3 -0.1,0.4 l -1.1,1.2 c -0.2,0.2 -0.3,0.2 -0.4,0.2 z"
   id="path110" />&#10;							<path
   d="m 309.6,314.6 1.8,1.6 -1.1,1.2 -1.8,-1.6 1.1,-1.2 m 0,-1 c -0.3,0 -0.5,0.1 -0.7,0.3 l -1.1,1.2 c -0.2,0.2 -0.3,0.5 -0.3,0.7 0,0.2 0.1,0.5 0.3,0.7 l 1.8,1.6 c 0.2,0.2 0.4,0.2 0.6,0.2 0.3,0 0.5,-0.1 0.7,-0.3 l 1.1,-1.2 c 0.2,-0.2 0.3,-0.5 0.3,-0.7 0,-0.2 -0.1,-0.5 -0.3,-0.7 l -1.8,-1.6 c -0.1,-0.1 -0.4,-0.2 -0.6,-0.2 z"
   id="path111" />&#10;						</g>&#10;						<g
   id="g113">&#10;							<path
   class="st12"
   d="m 308.8,319.8 c -0.1,0 -0.2,0 -0.3,-0.1 l -1.7,-1.3 c -0.2,-0.2 -0.2,-0.5 -0.1,-0.7 l 0.7,-1 c 0.1,-0.1 0.2,-0.2 0.3,-0.2 0,0 0,0 0.1,0 0.1,0 0.2,0 0.3,0.1 l 1.7,1.4 c 0.1,0.1 0.2,0.2 0.2,0.3 0,0.1 0,0.3 -0.1,0.4 l -0.8,0.9 c 0,0.2 -0.2,0.2 -0.3,0.2 z"
   id="path112" />&#10;							<path
   d="m 307.8,317 1.7,1.4 -0.8,0.9 -1.7,-1.3 0.8,-1 m 0,-1 c 0,0 -0.1,0 -0.1,0 -0.3,0 -0.5,0.2 -0.7,0.4 l -0.7,1 c -0.3,0.4 -0.2,1 0.2,1.3 l 1.7,1.3 c 0.2,0.1 0.4,0.2 0.6,0.2 0.3,0 0.5,-0.1 0.7,-0.3 l 0.8,-0.9 c 0.2,-0.2 0.3,-0.5 0.2,-0.7 0,-0.3 -0.2,-0.5 -0.4,-0.7 l -1.7,-1.4 c -0.1,-0.1 -0.3,-0.2 -0.6,-0.2 z"
   id="path113" />&#10;						</g>&#10;						<g
   id="g115">&#10;							<path
   class="st12"
   d="m 307.3,321.9 c -0.1,0 -0.2,0 -0.3,-0.1 l -1.2,-0.9 c -0.2,-0.1 -0.2,-0.3 -0.2,-0.5 l 0.5,-1.5 c 0.1,-0.2 0.2,-0.3 0.3,-0.3 0,0 0.1,0 0.1,0 0.1,0 0.2,0 0.3,0.1 l 1.7,1.3 c 0.1,0.1 0.2,0.2 0.2,0.3 0,0.1 0,0.3 -0.1,0.4 l -1,1.1 c 0,0 -0.1,0.1 -0.3,0.1 z"
   id="path114" />&#10;							<path
   d="m 306.7,319 1.7,1.3 -1,1.2 -1.2,-0.9 0.5,-1.6 m 0,-1 c -0.1,0 -0.2,0 -0.3,0 -0.3,0.1 -0.5,0.3 -0.6,0.6 l -0.5,1.5 c -0.1,0.4 0,0.8 0.3,1.1 l 1.2,0.9 c 0.2,0.1 0.4,0.2 0.6,0.2 0.3,0 0.5,-0.1 0.7,-0.3 l 1,-1.2 c 0.2,-0.2 0.3,-0.5 0.2,-0.7 0,-0.3 -0.2,-0.5 -0.4,-0.7 l -1.7,-1.3 c -0.1,0 -0.3,-0.1 -0.5,-0.1 z"
   id="path115" />&#10;						</g>&#10;					</g>&#10;				</g>&#10;				<g
   id="g145">&#10;					<g
   id="g118">&#10;						<path
   class="st12"
   d="m 304.1,324.9 c -0.1,0 -0.3,-0.1 -0.3,-0.2 -0.1,-0.1 -0.1,-0.2 -0.1,-0.4 l 0.1,-1.4 c 0,-0.3 0.2,-0.5 0.5,-0.5 0,0 2.2,0.1 2.2,0.1 0.1,0 0.3,0.1 0.3,0.2 0.1,0.1 0.1,0.2 0.1,0.4 l -0.1,1.4 c 0,0.3 -0.2,0.5 -0.5,0.5 0.1,0 -2.2,-0.1 -2.2,-0.1 z"
   id="path117" />&#10;						<path
   d="m 304.2,323 2.2,0.1 -0.1,1.4 -2.2,-0.1 0.1,-1.4 m 0,-1 c -0.2,0 -0.5,0.1 -0.7,0.3 -0.2,0.2 -0.3,0.4 -0.3,0.7 l -0.1,1.4 c 0,0.3 0.1,0.5 0.3,0.7 0.2,0.2 0.4,0.3 0.7,0.3 l 2.2,0.1 c 0,0 0,0 0,0 0.5,0 1,-0.4 1,-0.9 l 0.1,-1.4 c 0,-0.5 -0.4,-1 -0.9,-1 l -2.3,-0.2 z"
   id="path118" />&#10;					</g>&#10;					<g
   id="g120">&#10;						<path
   class="st12"
   d="m 304,327.7 c -0.3,0 -0.5,-0.2 -0.5,-0.5 v -1.3 c 0,-0.3 0.2,-0.5 0.5,-0.5 0,0 2.2,0.1 2.2,0.1 0.1,0 0.3,0.1 0.3,0.2 0.1,0.1 0.1,0.2 0.1,0.4 v 1.3 c 0,0.1 -0.1,0.3 -0.2,0.3 -0.1,0.1 -0.2,0.1 -0.3,0.1 0.2,0 -2.1,-0.1 -2.1,-0.1 z"
   id="path119" />&#10;						<path
   d="m 304.1,325.9 2.2,0.1 v 1.3 l -2.2,-0.1 v -1.3 m 0,-1 c -0.2,0 -0.5,0.1 -0.7,0.3 -0.2,0.2 -0.3,0.4 -0.3,0.7 v 1.3 c 0,0.5 0.4,1 0.9,1 l 2.2,0.1 c 0,0 0,0 0,0 0.2,0 0.5,-0.1 0.7,-0.3 0.2,-0.2 0.3,-0.4 0.3,-0.7 V 326 c 0,-0.5 -0.4,-1 -0.9,-1 l -2.2,-0.1 z"
   id="path120" />&#10;					</g>&#10;					<g
   id="g122">&#10;						<path
   class="st12"
   d="m 304.1,330.6 c -0.1,0 -0.3,-0.1 -0.3,-0.1 -0.1,-0.1 -0.1,-0.2 -0.1,-0.3 v -1.4 c 0,-0.3 0.2,-0.5 0.5,-0.5 h 2.2 c 0.1,0 0.3,0.1 0.3,0.1 0.1,0.1 0.1,0.2 0.1,0.3 v 1.4 c 0,0.3 -0.2,0.5 -0.5,0.5 z"
   id="path121" />&#10;						<path
   d="m 306.4,328.7 v 1.4 h -2.2 v -1.4 h 2.2 m 0,-1 c 0,0 0,0 0,0 h -2.2 c -0.5,0 -1,0.4 -1,1 v 1.4 c 0,0.3 0.1,0.5 0.3,0.7 0.2,0.2 0.4,0.3 0.7,0.3 0,0 0,0 0,0 h 2.2 c 0.5,0 1,-0.4 1,-1 v -1.4 c 0,-0.3 -0.1,-0.5 -0.3,-0.7 -0.2,-0.2 -0.5,-0.3 -0.7,-0.3 z"
   id="path122" />&#10;					</g>&#10;					<g
   id="g124">&#10;						<path
   class="st12"
   d="m 304.1,333.4 c -0.3,0 -0.5,-0.2 -0.5,-0.5 v -1.3 c 0,-0.3 0.2,-0.5 0.5,-0.5 h 2.2 c 0.1,0 0.3,0.1 0.3,0.1 0.1,0.1 0.1,0.2 0.1,0.3 v 1.3 c 0,0.1 -0.1,0.3 -0.1,0.3 -0.1,0.1 -0.2,0.1 -0.3,0.1 h -2.2 z"
   id="path123" />&#10;						<path
   d="m 306.4,331.6 v 1.3 h -2.2 v -1.3 h 2.2 m 0,-1 c 0,0 0,0 0,0 h -2.2 c -0.5,0 -1,0.4 -1,1 v 1.3 c 0,0.3 0.1,0.5 0.3,0.7 0.2,0.2 0.4,0.3 0.7,0.3 0,0 0,0 0,0 h 2.2 c 0.5,0 1,-0.4 1,-1 v -1.3 c 0,-0.3 -0.1,-0.5 -0.3,-0.7 -0.2,-0.2 -0.5,-0.3 -0.7,-0.3 z"
   id="path124" />&#10;					</g>&#10;					<g
   id="g126">&#10;						<path
   class="st12"
   d="m 304.1,336.3 c -0.3,0 -0.5,-0.2 -0.5,-0.5 v -1.4 c 0,-0.1 0.1,-0.3 0.1,-0.3 0.1,-0.1 0.2,-0.1 0.3,-0.1 h 2.2 c 0.3,0 0.5,0.2 0.5,0.5 v 1.4 c 0,0.3 -0.2,0.5 -0.5,0.5 h -2.1 z"
   id="path125" />&#10;						<path
   d="m 306.4,334.4 v 1.4 h -2.2 v -1.4 h 2.2 m 0,-1 c 0,0 0,0 0,0 h -2.2 c -0.5,0 -1,0.4 -1,1 v 1.4 c 0,0.3 0.1,0.5 0.3,0.7 0.2,0.2 0.4,0.3 0.7,0.3 0,0 0,0 0,0 h 2.2 c 0.5,0 1,-0.4 1,-1 v -1.4 c 0,-0.3 -0.1,-0.5 -0.3,-0.7 -0.2,-0.2 -0.5,-0.3 -0.7,-0.3 z"
   id="path126" />&#10;					</g>&#10;					<g
   id="g128">&#10;						<path
   class="st12"
   d="m 304.1,339.1 c -0.1,0 -0.3,-0.1 -0.3,-0.1 -0.1,-0.1 -0.1,-0.2 -0.1,-0.3 v -1.3 c 0,-0.1 0.1,-0.3 0.1,-0.3 0.1,-0.1 0.2,-0.1 0.3,-0.1 h 2.2 c 0.3,0 0.5,0.2 0.5,0.5 v 1.3 c 0,0.3 -0.2,0.5 -0.5,0.5 z"
   id="path127" />&#10;						<path
   d="m 306.4,337.3 v 1.3 h -2.2 v -1.3 h 2.2 m 0,-1 c 0,0 0,0 0,0 h -2.2 c -0.3,0 -0.5,0.1 -0.7,0.3 -0.2,0.2 -0.3,0.4 -0.3,0.7 v 1.3 c 0,0.5 0.4,1 1,1 0,0 0,0 0,0 h 2.2 c 0.5,0 1,-0.4 1,-1 v -1.3 c 0,-0.3 -0.1,-0.5 -0.3,-0.7 -0.2,-0.2 -0.5,-0.3 -0.7,-0.3 z"
   id="path128" />&#10;					</g>&#10;					<g
   id="g130">&#10;						<path
   class="st12"
   d="m 304.1,342 c -0.1,0 -0.3,-0.1 -0.3,-0.1 -0.1,-0.1 -0.1,-0.2 -0.1,-0.3 v -1.4 c 0,-0.1 0.1,-0.3 0.1,-0.3 0.1,-0.1 0.2,-0.1 0.3,-0.1 h 2.2 c 0.3,0 0.5,0.2 0.5,0.5 v 1.4 c 0,0.3 -0.2,0.5 -0.5,0.5 z"
   id="path129" />&#10;						<path
   d="m 306.4,340 v 1.4 h -2.2 V 340 h 2.2 m 0,-0.9 c 0,0 0,0 0,0 h -2.2 c -0.3,0 -0.5,0.1 -0.7,0.3 -0.2,0.2 -0.3,0.4 -0.3,0.7 v 1.4 c 0,0.3 0.1,0.5 0.3,0.7 0.2,0.2 0.4,0.3 0.7,0.3 0,0 0,0 0,0 h 2.2 c 0.5,0 1,-0.4 1,-1 v -1.4 c -0.1,-0.6 -0.5,-1 -1,-1 z"
   id="path130" />&#10;					</g>&#10;					<g
   id="g132">&#10;						<path
   class="st12"
   d="m 304.1,344.7 c -0.1,0 -0.3,-0.1 -0.3,-0.1 -0.1,-0.1 -0.1,-0.2 -0.1,-0.3 V 343 c 0,-0.1 0.1,-0.3 0.1,-0.3 0.1,-0.1 0.2,-0.1 0.3,-0.1 h 2.2 c 0.3,0 0.5,0.2 0.5,0.5 v 1.3 c 0,0.3 -0.2,0.5 -0.5,0.5 z"
   id="path131" />&#10;						<path
   d="m 306.4,343 v 1.3 h -2.2 V 343 h 2.2 m 0,-1 c 0,0 0,0 0,0 h -2.2 c -0.3,0 -0.5,0.1 -0.7,0.3 -0.2,0.2 -0.3,0.4 -0.3,0.7 v 1.3 c 0,0.5 0.4,1 1,1 0,0 0,0 0,0 h 2.2 c 0.5,0 1,-0.4 1,-1 V 343 c 0,-0.3 -0.1,-0.5 -0.3,-0.7 -0.2,-0.2 -0.5,-0.3 -0.7,-0.3 z"
   id="path132" />&#10;					</g>&#10;					<g
   id="g134">&#10;						<path
   class="st12"
   d="m 304.1,347.6 c -0.1,0 -0.3,-0.1 -0.3,-0.1 -0.1,-0.1 -0.1,-0.2 -0.1,-0.3 v -1.4 c 0,-0.3 0.2,-0.5 0.5,-0.5 h 2.2 c 0.1,0 0.3,0.1 0.3,0.1 0.1,0.1 0.1,0.2 0.1,0.3 v 1.4 c 0,0.3 -0.2,0.5 -0.5,0.5 z"
   id="path133" />&#10;						<path
   d="m 306.4,345.7 v 1.4 h -2.2 v -1.4 h 2.2 m 0,-1 c 0,0 0,0 0,0 h -2.2 c -0.5,0 -1,0.4 -1,1 v 1.4 c 0,0.5 0.4,1 1,1 0,0 0,0 0,0 h 2.2 c 0.3,0 0.5,-0.1 0.7,-0.3 0.2,-0.2 0.3,-0.4 0.3,-0.7 v -1.4 c 0,-0.3 -0.1,-0.5 -0.3,-0.7 -0.2,-0.2 -0.5,-0.3 -0.7,-0.3 z"
   id="path134" />&#10;					</g>&#10;					<g
   id="g136">&#10;						<path
   class="st12"
   d="m 304.1,350.4 c -0.3,0 -0.5,-0.2 -0.5,-0.5 v -1.3 c 0,-0.3 0.2,-0.5 0.5,-0.5 h 2.2 c 0.1,0 0.3,0.1 0.3,0.1 0.1,0.1 0.1,0.2 0.1,0.3 v 1.3 c 0,0.3 -0.2,0.5 -0.5,0.5 h -2.1 z"
   id="path135" />&#10;						<path
   d="m 306.4,348.6 v 1.3 h -2.2 v -1.3 h 2.2 m 0,-0.9 c 0,0 0,0 0,0 h -2.2 c -0.3,0 -0.5,0.1 -0.7,0.3 -0.2,0.2 -0.3,0.4 -0.3,0.7 v 1.3 c 0,0.5 0.4,1 1,1 0,0 0,0 0,0 h 2.2 c 0.5,0 1,-0.4 1,-1 v -1.3 c 0,-0.3 -0.1,-0.5 -0.3,-0.7 -0.2,-0.2 -0.5,-0.3 -0.7,-0.3 z"
   id="path136" />&#10;					</g>&#10;					<g
   id="g138">&#10;						<path
   class="st12"
   d="m 304.1,353.3 c -0.3,0 -0.5,-0.2 -0.5,-0.5 v -1.4 c 0,-0.1 0.1,-0.3 0.1,-0.3 0.1,-0.1 0.2,-0.1 0.3,-0.1 h 2.2 c 0.3,0 0.5,0.2 0.5,0.5 v 1.4 c 0,0.3 -0.2,0.5 -0.5,0.5 h -2.1 z"
   id="path137" />&#10;						<path
   d="m 306.3,351.4 v 1.4 h -2.2 v -1.4 h 2.2 m 0,-1 c 0,0 0,0 0,0 h -2.2 c -0.3,0 -0.5,0.1 -0.7,0.3 -0.2,0.2 -0.3,0.4 -0.3,0.7 v 1.4 c 0,0.3 0.1,0.5 0.3,0.7 0.2,0.2 0.4,0.3 0.7,0.3 0,0 0,0 0,0 h 2.2 c 0.5,0 1,-0.4 1,-1 v -1.4 c 0,-0.5 -0.5,-1 -1,-1 z"
   id="path138" />&#10;					</g>&#10;					<g
   id="g140">&#10;						<path
   class="st12"
   d="m 304.1,356.1 c -0.1,0 -0.3,-0.1 -0.3,-0.1 -0.1,-0.1 -0.1,-0.2 -0.1,-0.3 v -1.3 c 0,-0.3 0.2,-0.5 0.5,-0.5 h 2.2 c 0.3,0 0.5,0.2 0.5,0.5 v 1.3 c 0,0.3 -0.2,0.5 -0.5,0.5 z"
   id="path139" />&#10;						<path
   d="m 306.3,354.3 v 1.3 h -2.2 v -1.3 h 2.2 m 0,-1 c 0,0 0,0 0,0 h -2.2 c -0.5,0 -1,0.4 -1,1 v 1.3 c 0,0.3 0.1,0.5 0.3,0.7 0.2,0.2 0.4,0.3 0.7,0.3 0,0 0,0 0,0 h 2.2 c 0.5,0 1,-0.4 1,-1 v -1.3 c 0,-0.3 -0.1,-0.5 -0.3,-0.7 -0.2,-0.2 -0.4,-0.3 -0.7,-0.3 z"
   id="path140" />&#10;					</g>&#10;					<g
   id="g142">&#10;						<path
   class="st12"
   d="m 304.1,359.3 c -0.3,0 -0.5,-0.2 -0.5,-0.5 v -1.4 c 0,-0.3 0.2,-0.5 0.5,-0.5 h 2.2 c 0.3,0 0.5,0.2 0.5,0.5 v 1.4 c 0,0.1 -0.1,0.3 -0.1,0.3 -0.1,0.1 -0.2,0.1 -0.3,0.1 h -2.3 z"
   id="path141" />&#10;						<path
   d="m 306.3,357.4 v 1.4 h -2.2 v -1.4 h 2.2 m 0,-1 c 0,0 0,0 0,0 h -2.2 c -0.5,0 -1,0.4 -1,1 v 1.4 c 0,0.5 0.4,1 1,1 0,0 0,0 0,0 h 2.2 c 0.3,0 0.5,-0.1 0.7,-0.3 0.2,-0.2 0.3,-0.4 0.3,-0.7 v -1.4 c 0,-0.3 -0.1,-0.5 -0.3,-0.7 -0.2,-0.2 -0.4,-0.3 -0.7,-0.3 z"
   id="path142" />&#10;					</g>&#10;					<g
   id="g144">&#10;						<path
   class="st12"
   d="m 304.1,362.1 c -0.1,0 -0.3,-0.1 -0.3,-0.1 -0.1,-0.1 -0.1,-0.2 -0.1,-0.3 v -1.3 c 0,-0.3 0.2,-0.5 0.5,-0.5 h 2.2 c 0.3,0 0.5,0.2 0.5,0.5 v 1.3 c 0,0.3 -0.2,0.5 -0.5,0.5 z"
   id="path143" />&#10;						<path
   d="m 306.3,360.3 v 1.3 h -2.2 v -1.3 h 2.2 m 0,-1 c 0,0 0,0 0,0 h -2.2 c -0.3,0 -0.5,0.1 -0.7,0.3 -0.2,0.2 -0.3,0.4 -0.3,0.7 v 1.3 c 0,0.5 0.4,1 1,1 0,0 0,0 0,0 h 2.2 c 0.3,0 0.5,-0.1 0.7,-0.3 0.2,-0.2 0.3,-0.4 0.3,-0.7 v -1.3 c 0,-0.5 -0.5,-1 -1,-1 z"
   id="path144" />&#10;					</g>&#10;					<path
   class="st13"
   d="m 301.5,320.7 c 0,0 2.2,2.9 1.9,4.4 -0.3,1.5 0.1,9.7 0,14 -0.1,4.3 0,15.1 0,18.3 0,3.2 0,4.2 0,4.7 0,0.6 0,0.6 0,0.6 h 3.6 v -4.9 -10.9 -8 -7.9 -5.9 c 0,0 0.4,-2 1.7,-3.5 1.5,-1.4 -2.9,-6.2 -7.2,-0.9 z"
   id="path145" />&#10;				</g>&#10;				<path
   class="st5"
   d="m 285.3,301.6 c 0,0 0.9,5.3 3.7,12.1 2.8,6.8 6.2,5.2 7,17 0.8,11.8 1.2,25.9 0.7,32 0,0 6.1,0 10.4,0 4.3,0 7.1,0 7.1,0 0,0 0.1,-9.9 0.3,-21.2 0.2,-11.3 -0.6,-15.5 3.6,-20.1 4.2,-4.6 12.6,-19.6 13.3,-23.5 0.7,-4 -14.9,10 -19.5,17.2 -4.5,7.2 -6.7,8.7 -6.7,8.7 0,0 -16.5,-21.2 -19.9,-22.2 z"
   id="path146" />&#10;			</g>&#10;			<g
   id="g180">&#10;				<g
   id="g160">&#10;					<g
   id="g148">&#10;						<path
   class="st14"
   d="m 301.3,389.9 c -2.2,0 -4.3,-0.1 -6.2,-0.2 l -3,-0.2 c -14.5,-0.9 -28.3,-1.7 -40.1,-11.4 -5.5,-4.5 -7.5,-10.5 -5.5,-16.1 1.5,-4.3 5.2,-7.2 9.1,-7.2 1,0 2.1,0.2 3.1,0.6 0.2,0.1 10.4,5.5 25.1,7.2 4.5,0.5 8.5,0.8 12.4,0.8 4,0 7.2,-0.3 9.7,-0.5 1.7,-0.1 3.2,-0.3 4.5,-0.3 h 1.9 c 6.2,0 14.3,-0.2 22.7,-1.7 7.5,-1.3 11.8,-2.7 14.1,-3.4 0.8,-0.3 1.4,-0.4 1.8,-0.5 0.2,0 0.6,-0.2 1.1,-0.3 2,-0.6 5.8,-1.9 9.1,-1.9 2.6,0 4.5,0.8 5.5,2.3 l 0.2,0.3 c 1.7,2.5 4.3,6.3 3,10.6 -1.2,4.2 -5.5,7.9 -13.2,11.3 -17.7,7.8 -40.8,10.6 -55.3,10.6 z"
   id="path147" />&#10;						<path
   d="m 255.6,355.6 c 0.9,0 1.9,0.2 2.8,0.6 0,0 10.3,5.5 25.3,7.3 5,0.6 9.1,0.8 12.5,0.8 6.8,0 11,-0.8 14.1,-0.8 0.6,0 1.2,0 1.9,0 5.2,0 13.8,-0.1 22.8,-1.7 10.2,-1.8 14.6,-3.7 15.9,-3.9 0.9,-0.2 6,-2.2 10.1,-2.2 2.1,0 3.9,0.5 4.9,2 3,4.4 9.3,12.8 -9.7,21.1 -16.6,7.3 -39.2,10.4 -54.9,10.4 -2.2,0 -4.3,-0.1 -6.2,-0.2 -15.5,-1 -30.2,-1.2 -42.6,-11.4 -11.1,-9.2 -4.7,-22 3.1,-22 m 0,-1.5 v 0 c -4.2,0 -8.1,3.1 -9.8,7.7 -2.1,5.9 0,12.2 5.7,16.9 12,9.9 25.9,10.7 40.5,11.6 1,0.1 2,0.1 3,0.2 1.9,0.1 4,0.2 6.3,0.2 14.6,0 37.8,-2.8 55.5,-10.6 7.9,-3.5 12.4,-7.3 13.6,-11.7 1.3,-4.7 -1.3,-8.6 -3.1,-11.2 l -0.2,-0.3 c -1.2,-1.7 -3.2,-2.6 -6.1,-2.6 -3.4,0 -7.3,1.2 -9.4,1.9 -0.4,0.1 -0.9,0.3 -1,0.3 -0.4,0.1 -1,0.3 -1.9,0.5 -2.3,0.7 -6.6,2 -14,3.4 -8.3,1.5 -16.4,1.7 -22.6,1.7 h -1.1 -0.8 c -1.3,0 -2.8,0.1 -4.5,0.3 -2.5,0.2 -5.6,0.5 -9.6,0.5 -3.9,0 -7.9,-0.2 -12.3,-0.8 -14.5,-1.7 -24.6,-7 -24.7,-7.1 h -0.1 -0.1 c -1,-0.7 -2.1,-0.9 -3.3,-0.9 z"
   id="path148" />&#10;					</g>&#10;					<g
   id="g154">&#10;						<g
   id="g149">&#10;							<path
   d="m 261.3,360.8 c 6.9,4.3 15.4,5.6 23.4,6.3 0,0 3.5,0.2 3.5,0.2 -7.1,0.1 -14.3,-0.4 -21.1,-2.4 -2.3,-0.7 -4.5,-1.5 -6.7,-2.8 0.1,-0.1 0.9,-1.3 0.9,-1.3 z"
   id="path149" />&#10;						</g>&#10;						<g
   id="g150">&#10;							<path
   d="m 259.6,369.4 c 2,1.3 4.3,2.3 6.7,3 -1.2,-0.1 -2.5,-0.3 -3.7,-0.6 -1.3,-0.3 -2.4,-0.6 -3.7,-1.1 0,0 0.7,-1.3 0.7,-1.3 z"
   id="path150" />&#10;						</g>&#10;						<g
   id="g151">&#10;							<path
   d="m 279.7,380.8 c 2.6,1 5.5,1.6 8.3,2.1 -1.4,0 -2.9,-0.1 -4.3,-0.2 -1.5,-0.1 -2.9,-0.3 -4.4,-0.6 -0.1,0.1 0.4,-1.3 0.4,-1.3 z"
   id="path151" />&#10;						</g>&#10;						<g
   id="g153">&#10;							<path
   class="st14"
   d="m 278,389.9 c -1,0 -2.1,-0.9 -2.5,-1.4 -0.7,-0.9 -0.7,-3.3 -0.3,-8.9 0,-0.7 0.1,-1.4 0.1,-2.1 0.2,-3.7 0.2,-12.3 0,-13.3 -0.1,-0.9 -0.3,-3.1 2.9,-3.5 0.2,0 0.5,0 0.7,0 2,0 2.7,1.1 2.8,1.3 l 0.4,0.6 -0.7,0.4 c 0,0 -0.6,0.4 -1.6,1.6 -0.3,0.4 -1.1,2.2 -0.8,10.7 0.1,1.5 0.2,3.3 0.3,5 0.2,3.3 0.4,6.4 0.3,7.9 -0.1,1.5 -1.3,1.7 -1.6,1.7 z"
   id="path152" />&#10;							<path
   d="m 278.9,361.4 c 1.6,0 2.2,0.9 2.2,0.9 0,0 -0.7,0.4 -1.8,1.8 -1.1,1.4 -1.1,6.8 -0.9,11.2 0.2,4.4 0.8,10.7 0.6,12.7 -0.1,0.9 -0.5,1.2 -1,1.2 -0.7,0 -1.5,-0.6 -2,-1.2 -0.8,-0.9 -0.2,-6.9 0,-10.5 0.2,-3.6 0.2,-12.3 0,-13.4 -0.1,-1.1 -0.2,-2.4 2.3,-2.7 0.3,0 0.5,0 0.6,0 m 0,-1.5 c -0.2,0 -0.5,0 -0.7,0 -4,0.5 -3.7,3.3 -3.6,4.3 0.1,1 0.2,9.5 0,13.2 0,0.6 -0.1,1.3 -0.1,2.1 -0.4,6.2 -0.4,8.4 0.5,9.5 0.7,0.8 1.8,1.7 3.1,1.7 1,0 2.2,-0.6 2.4,-2.5 0.2,-1.5 0,-4.5 -0.3,-8 -0.1,-1.7 -0.2,-3.5 -0.3,-5 -0.4,-8.8 0.6,-10.2 0.6,-10.2 0.8,-1.1 1.4,-1.4 1.4,-1.4 l 1.3,-0.7 -0.8,-1.3 c -0.1,-0.3 -1.1,-1.7 -3.5,-1.7 z"
   id="path153" />&#10;						</g>&#10;					</g>&#10;					<g
   id="g159">&#10;						<g
   id="g155">&#10;							<path
   d="m 354.8,375.6 c -8.5,4.4 -18.4,5 -27.8,4.9 7,-0.2 14.1,-1.1 20.7,-3.3 2.1,-0.7 4.4,-1.6 6.2,-2.8 0.1,0 0.9,1.2 0.9,1.2 z"
   id="path154" />&#10;						</g>&#10;						<g
   id="g156">&#10;							<path
   d="m 352.9,366.2 c -2.4,0.9 -4.8,1.3 -7.3,1.6 1.8,-0.5 3.5,-1.2 5.1,-2 0.5,-0.3 1.1,-0.6 1.6,-0.9 z"
   id="path155" />&#10;						</g>&#10;						<g
   id="g157">&#10;							<path
   d="m 334.3,366 c -2.9,0.5 -5.8,0.6 -8.7,0.7 1.4,-0.2 2.8,-0.5 4.2,-0.9 1.4,-0.3 2.8,-0.7 4.1,-1.2 -0.1,0 0.4,1.4 0.4,1.4 z"
   id="path156" />&#10;						</g>&#10;						<g
   id="g158">&#10;							<path
   class="st14"
   d="m 335.5,386.8 c -0.3,0 -1.5,-0.1 -1.7,-1.7 -0.2,-1.3 0,-4.3 0.3,-7.4 0.1,-1.6 0.2,-3.3 0.3,-4.7 0.3,-6.4 -0.2,-9.3 -0.8,-10 -0.9,-1.1 -1.6,-1.5 -1.6,-1.5 l -0.7,-0.4 0.4,-0.7 c 0.1,-0.1 0.8,-1.2 2.8,-1.2 0.2,0 0.4,0 0.7,0 1.2,0.1 2,0.5 2.5,1.1 0.6,0.7 0.5,1.5 0.4,2.2 -0.1,1 -0.2,9 0,12.5 0,0.6 0.1,1.2 0.1,1.9 0.4,5.3 0.4,7.6 -0.3,8.5 -0.4,0.6 -1.4,1.4 -2.4,1.4 z"
   id="path157" />&#10;							<path
   d="m 334.5,360 c 0.2,0 0.4,0 0.6,0 2.4,0.3 2.4,1.4 2.3,2.5 -0.1,1.1 -0.2,9.2 0,12.6 0.2,3.4 0.8,9 0,9.9 -0.5,0.5 -1.3,1.1 -2,1.1 -0.5,0 -0.9,-0.3 -1,-1.1 -0.2,-1.9 0.4,-7.8 0.6,-12 0.2,-4.1 0.1,-9.2 -0.9,-10.5 -1.1,-1.3 -1.8,-1.7 -1.8,-1.7 0,0 0.6,-0.8 2.2,-0.8 m 0,-1.5 v 0 c -1.8,0 -3,0.8 -3.4,1.5 l -0.9,1.3 1.4,0.8 c 0,0 0,0 0,0 0,0 0.5,0.3 1.4,1.3 0,0 1,1.4 0.6,9.5 -0.1,1.4 -0.2,3.1 -0.3,4.7 -0.2,3.3 -0.4,6.1 -0.3,7.5 0.2,1.8 1.4,2.4 2.4,2.4 1.2,0 2.4,-0.9 3,-1.6 0.9,-1 0.9,-3.1 0.5,-9 0,-0.7 -0.1,-1.3 -0.1,-1.9 -0.2,-3.4 -0.2,-11.4 0,-12.4 0.1,-0.6 0.2,-1.8 -0.6,-2.8 -0.6,-0.8 -1.6,-1.2 -3,-1.4 -0.2,0.1 -0.4,0.1 -0.7,0.1 z"
   id="path158" />&#10;						</g>&#10;					</g>&#10;				</g>&#10;				<g
   id="g169">&#10;					<path
   class="st9"
   d="m 348.5,357.5 c 0,0 -3,-2.1 -2,-5.3 1,-3.2 2.7,-3.9 8.7,-8.3 6,-4.4 12.8,-8.5 16.6,-8.7 3.7,-0.1 7.2,-0.4 12.1,6.2 4.9,6.6 6.7,13.4 3,14.3 0,0 3.6,5.7 2.5,9.8 -1.1,4.1 -5.6,9.5 -7.7,11.2 0,0 -2.5,3.1 -4.9,1.5 0,0 -5.7,8.1 -12.7,8.6 -3.6,0.3 -7.9,-7.9 -7.9,-7.9 0,0 -2,-7.4 -2.4,-10.1 -0.4,-2.7 -1.6,-8.1 -1.7,-9.1 -0.1,-0.7 -2.9,-1.6 -3.6,-2.2 z"
   id="path160" />&#10;					<path
   class="st5"
   d="m 376.1,379.3 c 0.3,-0.2 1.9,-5.2 0,-13.7 -1.9,-8.5 -2.6,-6.9 -2.1,-9 0.5,-2.1 0.4,-3.1 -1.7,-7.9 -2.1,-4.7 -4.4,-9.6 -8.2,-10.6"
   id="path161" />&#10;					<path
   class="st8"
   d="m 364,338.9 c 0,0 3.2,1 7.2,9 3,6.1 3.3,7.5 2.2,8.9 -1.1,1.4 -4.1,4.3 -6.7,5.3 -2.6,1 -3.9,2.5 -4.4,0.9 -0.5,-1.6 -0.9,-4.5 -3.6,-7.1 -2.5,-2.4 -5,-3 -6.1,-3.5 -1.1,-0.5 -6.8,0.3 -5.5,-1.5 1.3,-1.7 10.7,-9.4 16.9,-12 z"
   id="path162" />&#10;					<path
   class="st8"
   d="m 388.6,354.3 c 0,0 -4.4,3.4 -8.1,3.4 -3.7,0 -0.7,-12.5 -10,-18.5 0,0 -2.5,-2 -5.9,-1.4 0,0 4.9,-3.3 10.4,-2.5 5.5,0.8 8.7,5.5 11.9,11.1 3.2,5.7 2,5.7 1.7,7.9 z"
   id="path163" />&#10;					<path
   class="st15"
   d="m 379.7,378.5 c 3.3,-2.3 2.4,-7.9 1.5,-12.8 -0.9,-4.9 -0.7,-8 -0.7,-8 0,0 -2,-0.6 -4,-9.6 -2,-9 -10.2,-9.8 -10.2,-9.8 0,0 -0.7,1.7 0.9,3 2.6,2 6.8,10.3 7.2,12.1 0.4,1.8 -0.1,3.1 -0.3,3.8 -0.2,0.7 0.8,3.5 1.2,5.2 0.4,1.8 2.3,9.5 1.5,14.7 l -0.1,1.3 c 0.1,0 1.9,0.9 3,0.1 z"
   id="path164" />&#10;					<path
   class="st15"
   d="m 364.1,387 c 2.1,0 0.4,-11.1 -1.2,-14.7 -1.6,-3.6 -2.3,-5.2 -2.4,-9.6 -0.1,-4.4 -0.7,-4.3 -1.2,-5 -1.4,-1.7 -3,-3.9 -6.3,-4.2 -3.2,-0.3 -6.4,-1.2 -6.4,-1.2 0,0 -0.9,2.1 0.9,4.2 1.8,2.1 3.6,2.1 4.2,2.8 0.5,0.7 1.7,5.2 2.2,8.7 0.5,3.5 1.2,9.1 2.4,11.2 1.2,2 3.8,7.8 7.8,7.8 z"
   id="path165" />&#10;					<g
   id="g166">&#10;						<path
   d="m 350.9,350 c 4,-3.9 8.7,-7 13.8,-9.2 -4,3.9 -8.7,7 -13.8,9.2 z"
   id="path166" />&#10;					</g>&#10;					<g
   id="g167">&#10;						<path
   d="m 377.9,338.3 c 4.8,1.8 7.7,6.8 8.6,11.6 0.1,0.7 0.2,1.4 0.2,2.1 -0.3,-0.7 -0.5,-1.3 -0.7,-2 -1.6,-4.5 -4.1,-8.9 -8.1,-11.7 z"
   id="path167" />&#10;					</g>&#10;					<path
   class="st16"
   d="m 379.6,357.5 c 0,0 -5.2,-0.2 -5.2,-2.2 0,-2 -7.5,-14.7 -6.5,-14.1 3.3,1.8 4.6,-0.5 9.7,11 0.2,0.6 1,4.1 2,5.3 z"
   id="path168" />&#10;					<path
   class="st16"
   d="m 361.7,369 c 0,0 -6.7,-1.9 -7.9,-5.3 -2.7,-8 -10.1,-5.8 -7.3,-10.4 2,-3.2 14.9,0.5 13.9,9.4 0,0.6 0.4,5.2 1.3,6.3 z"
   id="path169" />&#10;				</g>&#10;				<g
   id="g179">&#10;					<path
   class="st9"
   d="m 264,358.8 c 0,0 3,-2.1 2,-5.3 -1.1,-3.1 -2.7,-3.9 -8.7,-8.3 -6,-4.4 -12.8,-8.5 -16.6,-8.7 -3.7,-0.1 -7.2,-0.4 -12.1,6.2 -4.9,6.6 -6.7,13.4 -3,14.3 0,0 -3.6,5.7 -2.5,9.8 1.1,4.1 5.6,9.5 7.7,11.2 0,0 2.5,3.1 4.9,1.5 0,0 5.7,8.1 12.7,8.6 3.6,0.3 7.9,-7.9 7.9,-7.9 0,0 2,-7.4 2.4,-10.1 0.4,-2.7 1.6,-8.1 1.7,-9.1 0.1,-0.8 2.9,-1.6 3.6,-2.2 z"
   id="path170" />&#10;					<path
   class="st5"
   d="m 236.4,380.5 c -0.3,-0.2 -1.9,-5.2 0,-13.7 1.9,-8.5 2.6,-6.9 2.1,-9 -0.5,-2.1 -0.4,-3.1 1.7,-7.9 2.1,-4.7 4.4,-9.6 8.2,-10.6"
   id="path171" />&#10;					<path
   class="st8"
   d="m 248.5,340.1 c 0,0 -3.2,1 -7.2,9 -3,6.1 -3.3,7.5 -2.2,8.9 1.1,1.4 4.1,4.3 6.7,5.3 2.6,1 3.9,2.5 4.4,0.9 0.5,-1.6 0.9,-4.5 3.6,-7.1 2.5,-2.4 5,-3 6.1,-3.5 1.1,-0.5 6.8,0.3 5.5,-1.5 -1.3,-1.7 -10.7,-9.3 -16.9,-12 z"
   id="path172" />&#10;					<path
   class="st8"
   d="m 223.9,355.6 c 0,0 4.4,3.4 8.1,3.4 3.7,0 0.7,-12.5 10,-18.5 0,0 2.5,-2 5.9,-1.4 0,0 -4.9,-3.3 -10.4,-2.5 -5.5,0.8 -8.7,5.5 -11.9,11.1 -3.2,5.7 -2,5.7 -1.7,7.9 z"
   id="path173" />&#10;					<path
   class="st15"
   d="m 232.8,379.7 c -3.3,-2.3 -2.4,-7.9 -1.5,-12.8 0.9,-4.9 0.7,-8 0.7,-8 0,0 2,-0.6 4,-9.6 2,-9 10.2,-9.8 10.2,-9.8 0,0 0.7,1.7 -0.9,3 -2.6,2 -6.8,10.3 -7.2,12.1 -0.4,1.8 0.1,3.1 0.3,3.8 0.2,0.6 -0.8,3.5 -1.2,5.2 -0.4,1.8 -2.3,9.5 -1.5,14.7 l 0.1,1.3 c -0.1,0.1 -1.9,1 -3,0.1 z"
   id="path174" />&#10;					<path
   class="st15"
   d="m 248.4,388.3 c -2.1,0 -0.4,-11.1 1.2,-14.7 1.6,-3.6 2.3,-5.2 2.4,-9.6 0.1,-4.4 0.7,-4.3 1.2,-5 1.4,-1.7 3,-3.9 6.3,-4.2 3.2,-0.3 6.4,-1.2 6.4,-1.2 0,0 0.9,2.1 -0.9,4.2 -1.8,2.1 -3.6,2.1 -4.2,2.8 -0.5,0.7 -1.7,5.2 -2.2,8.7 -0.5,3.5 -1.2,9.1 -2.4,11.2 -1.2,2 -3.8,7.8 -7.8,7.8 z"
   id="path175" />&#10;					<g
   id="g176">&#10;						<path
   d="m 261.6,351.3 c -5.1,-2.2 -9.8,-5.3 -13.8,-9.2 5.1,2.1 9.8,5.3 13.8,9.2 z"
   id="path176" />&#10;					</g>&#10;					<g
   id="g177">&#10;						<path
   d="m 234.6,339.6 c -4,2.8 -6.5,7.2 -8.1,11.7 -0.2,0.7 -0.4,1.3 -0.7,2 0,-0.7 0.1,-1.4 0.2,-2.1 0.9,-4.9 3.8,-9.9 8.6,-11.6 z"
   id="path177" />&#10;					</g>&#10;					<path
   class="st16"
   d="m 233,358.7 c 0,0 5.2,-0.2 5.2,-2.2 0,-2 7.5,-14.7 6.5,-14.1 -3.3,1.8 -4.6,-0.5 -9.7,11 -0.3,0.7 -1.1,4.2 -2,5.3 z"
   id="path178" />&#10;					<path
   class="st16"
   d="m 250.8,370.3 c 0,0 6.7,-1.9 7.9,-5.3 2.7,-8 10.1,-5.8 7.3,-10.4 -2,-3.2 -14.9,0.5 -13.9,9.4 0,0.6 -0.3,5.1 -1.3,6.3 z"
   id="path179" />&#10;				</g>&#10;			</g>&#10;			<g
   id="g181">&#10;				<path
   class="st17"
   d="m 309,391 h -5 c -6.4,0 -11.7,-5.2 -11.7,-11.7 v -5 c 0,-6.4 5.2,-11.7 11.7,-11.7 h 5 c 6.4,0 11.7,5.2 11.7,11.7 v 5 c 0,6.5 -5.2,11.7 -11.7,11.7 z"
   id="path180" />&#10;				<path
   class="st17"
   d="m 307,387.6 v 0 c -5.7,0 -10.3,-4.6 -10.3,-10.3 V 376 c 0,-5.7 4.6,-10.3 10.3,-10.3 v 0 c 5.7,0 10.3,4.6 10.3,10.3 v 1.2 c 0,5.8 -4.6,10.4 -10.3,10.4 z"
   id="path181" />&#10;			</g>&#10;		</g>&#10;	</g>&#10;</g>&#10;</svg>
