<?xml version="1.0" encoding="UTF-8" standalone="no"?>
<!-- Generator: Adobe Illustrator 26.0.1, SVG Export Plug-In . SVG Version: 6.00 Build 0)  -->

<svg
   version="1.1"
   x="0px"
   y="0px"
   viewBox="0 0 60.621155 20.267699"
   xml:space="preserve"
   id="svg77"
   sodipodi:docname="fox-mouth.svg"
   width="60.621155"
   height="20.267698"
   inkscape:version="1.3 (0e150ed6c4, 2023-07-21)"
   xmlns:inkscape="http://www.inkscape.org/namespaces/inkscape"
   xmlns:sodipodi="http://sodipodi.sourceforge.net/DTD/sodipodi-0.dtd"
   xmlns="http://www.w3.org/2000/svg"
   xmlns:svg="http://www.w3.org/2000/svg"><defs
   id="defs77" /><sodipodi:namedview
   id="namedview77"
   pagecolor="#505050"
   bordercolor="#ffffff"
   borderopacity="1"
   inkscape:showpageshadow="0"
   inkscape:pageopacity="0"
   inkscape:pagecheckerboard="1"
   inkscape:deskcolor="#505050"
   inkscape:zoom="3.9692261"
   inkscape:cx="-11.589161"
   inkscape:cy="5.7945805"
   inkscape:window-width="1920"
   inkscape:window-height="1051"
   inkscape:window-x="-9"
   inkscape:window-y="-9"
   inkscape:window-maximized="1"
   inkscape:current-layer="g78" />&#10;<style
   type="text/css"
   id="style1">&#10;	.st0{fill:#37342F;stroke:#000000;stroke-width:1.4642;stroke-miterlimit:10;}&#10;	.st1{fill:#F4EFDF;stroke:#000000;stroke-width:1.4642;stroke-miterlimit:10;}&#10;	.st2{fill:#A09989;}&#10;	.st3{fill:#756F65;}&#10;	.st4{fill:#F4EFDF;}&#10;	.st5{fill:#3A0F0F;}&#10;	.st6{fill:#3F0E0E;}&#10;	.st7{fill:none;stroke:#000000;stroke-width:0.4881;stroke-linecap:round;stroke-linejoin:round;stroke-miterlimit:10;}&#10;	.st8{stroke:#000000;stroke-width:1.4642;stroke-miterlimit:10;}&#10;	.st9{fill:#262728;}&#10;	.st10{opacity:0.75;fill:#FFFFFF;}&#10;	.st11{fill:#AA9D7B;stroke:#000000;stroke-width:0.244;stroke-miterlimit:10;}&#10;	.st12{opacity:0.28;}&#10;	.st13{fill:#37342F;}&#10;	.st14{fill:#FFFFFF;stroke:#000000;stroke-width:1.4642;stroke-miterlimit:10;}&#10;	.st15{opacity:0.32;}&#10;	.st16{fill:#09568A;stroke:#000000;stroke-width:1.4642;stroke-miterlimit:10;}&#10;	.st17{fill:#000002;}&#10;	.st18{fill:#FAFFFF;}&#10;	.st19{fill:#030000;}&#10;	.st20{fill:#495D4A;stroke:#000000;stroke-width:1.9522;stroke-miterlimit:10;}&#10;	.st21{fill:#564D36;stroke:#000000;stroke-width:1.9522;stroke-miterlimit:10;}&#10;	.st22{fill:none;stroke:#000000;stroke-width:1.9522;stroke-miterlimit:10;}&#10;	.st23{fill:#817B66;stroke:#000000;stroke-width:1.9522;stroke-miterlimit:10;}&#10;	.st24{fill:#514E3F;stroke:#000000;stroke-width:1.4642;stroke-miterlimit:10;}&#10;	.st25{fill:#262314;stroke:#000000;stroke-width:1.4642;stroke-miterlimit:10;}&#10;	.st26{fill:#173A50;stroke:#000000;stroke-width:1.9522;stroke-miterlimit:10;}&#10;	.st27{opacity:0.86;fill:#7CA3B0;}&#10;</style>&#10;<g
   id="Layer_1"
   transform="translate(-273.94744,-254.9)">&#10;</g>&#10;<g
   id="Layer_19"
   transform="translate(-273.94744,-254.9)">&#10;</g>&#10;<g
   id="Layer_20"
   transform="translate(-273.94744,-254.9)">&#10;</g>&#10;<g
   id="Tail"
   transform="translate(-273.94744,-254.9)">&#10;</g>&#10;<g
   id="right_leg"
   transform="translate(-273.94744,-254.9)">&#10;</g>&#10;<g
   id="Left_leg"
   transform="translate(-273.94744,-254.9)">&#10;</g>&#10;<g
   id="body"
   transform="translate(-273.94744,-254.9)">&#10;</g>&#10;<g
   id="belt"
   transform="translate(-273.94744,-254.9)">&#10;</g>&#10;<g
   id="Face"
   transform="translate(-273.94744,-254.9)">&#10;</g>&#10;<g
   id="Left_ear"
   transform="translate(-273.94744,-254.9)">&#10;</g>&#10;<g
   id="Right_ear"
   transform="translate(-273.94744,-254.9)">&#10;</g>&#10;<g
   id="White_mouth"
   transform="translate(-273.94744,-254.9)">&#10;</g>&#10;<g
   id="Closed_mouth"
   transform="translate(-273.94744,-254.9)">&#10;	<g
   id="Mouth_copy">&#10;	</g>&#10;</g>&#10;<g
   id="Mouth"
   transform="translate(-273.94744,-254.9)">&#10;</g>&#10;<g
   id="wide_opened_mouth"
   transform="translate(-273.94744,-254.9)">&#10;	<g
   id="Mouth_copy_2">&#10;	</g>&#10;</g>&#10;<g
   id="Nose"
   transform="translate(-273.94744,-254.9)">&#10;</g>&#10;<g
   id="Nose_hair_2"
   transform="translate(-273.94744,-254.9)">&#10;</g>&#10;<g
   id="Nose_hair_1"
   transform="translate(-273.94744,-254.9)">&#10;</g>&#10;<g
   id="Eye_brow"
   transform="translate(-273.94744,-254.9)">&#10;</g>&#10;<g
   id="white_part_of_eyes"
   transform="translate(-273.94744,-254.9)">&#10;	<g
   id="Eyes_opened_copy">&#10;	</g>&#10;</g>&#10;<g
   id="eyes_2"
   transform="translate(-273.94744,-254.9)">&#10;	<g
   id="Layer_29">&#10;	</g>&#10;</g>&#10;<g
   id="eyes_1"
   transform="translate(-273.94744,-254.9)">&#10;	<g
   id="Layer_30">&#10;	</g>&#10;</g>&#10;<g
   id="Opened_eye_cover"
   transform="translate(-273.94744,-254.9)">&#10;</g>&#10;<g
   id="Eyes_closed"
   transform="translate(-273.94744,-254.9)">&#10;	<g
   id="Eyes_copy">&#10;	</g>&#10;</g>&#10;<g
   id="cap"
   transform="translate(-273.94744,-254.9)">&#10;</g>&#10;<g
   id="Glasses"
   transform="translate(-273.94744,-254.9)">&#10;	<g
   id="g77">&#10;		<g
   id="g76">&#10;			&#10;			&#10;			&#10;			&#10;			&#10;			&#10;			&#10;			&#10;			&#10;			<g
   id="g78"><path
     class="st4"
     d="m 288.4,254.9 c 0,0 5.6,5.6 15,4.9 9.4,-0.7 11.9,-3.9 14.8,-4.3 2.9,-0.4 18.6,1.7 16.1,6.7 -2.5,5 -12.5,14.7 -33.1,12.7 -20.6,-2.1 -25.4,-6.5 -26.9,-10.2 -1.6,-3.6 2.1,-8.6 14.1,-9.8 z"
     id="path16" /><g
     id="g18">&#10;				<path
   class="st6"
   d="m 303.25581,265.74631 c -7.27094,0.6017 -16.50713,-0.64917 -18.95581,-5.14631 2.4,0.3 4.88895,1.12985 7.28895,1.12985 2.1,0 4.08896,-0.0111 5.78896,-0.41105 2.4,-0.6 4.32209,-0.86299 6.62209,-0.86299 3,0 5.6,0.43702 7.6,0.93702 1,0.2 2.9522,0.5321 5.13702,0.27403 2.45299,-0.28974 4.75335,-0.68331 6.46298,-1.06686 -4.75832,4.1929 -3.83754,4.83322 -19.94419,5.14631 z"
   id="path17"
   sodipodi:nodetypes="ccscscscc" />&#10;				<path
   d="m 304,261.57074 v 0 c 0,0 5.4,0.5 7.4,0.9 1.1,0.2 3.1,0.4 5.4,0.4 1.1,0 3.2,-1.07074 5.2,-1.37074 -3.32655,2.63313 -8.49341,3.57228 -19.27403,3.73526 h -0.2 c -8.85077,0 -14.82926,-1.65406 -17.22597,-3.73526 2,0.2 4,1.47074 6,1.47074 2.1,0 4,-0.2 5.8,-0.6 2.4,-0.6 4.7,-0.8 6.9,-0.8 m 0,-1.5 c -2.1,0 -4.5,0.2 -7.2,0.9 -1.8,0.4 -3.6,0.6 -5.4,0.6 -2.6,0 -7.9,-1.16686 -7.9,-1.16686 v 0 c 0,0 1.72597,6.24243 19.22597,6.24243 h 0.2 c 19.9,-0.1 21.47403,-6.94631 21.47403,-6.94631 -1.8,0.6 -4.8,1.87074 -7.4,1.87074 -2.2,0 -4.2,-0.1 -5.1,-0.4 -2.2,-0.6 -4.8,-1.1 -7.9,-1.1 z"
   id="path18"
   sodipodi:nodetypes="cscsccscsccscssssccscs" />&#10;			</g></g>&#10;			&#10;			&#10;			&#10;			&#10;			&#10;			&#10;			&#10;			&#10;			&#10;			&#10;			&#10;			&#10;			&#10;			&#10;			&#10;			&#10;			&#10;			&#10;		</g>&#10;	</g>&#10;</g>&#10;</svg>
