<?xml version="1.0" encoding="UTF-8" standalone="no"?>
<!-- Generator: Adobe Illustrator 26.0.1, SVG Export Plug-In . SVG Version: 6.00 Build 0)  -->

<svg
   version="1.1"
   x="0px"
   y="0px"
   viewBox="0 0 97.957123 101.78878"
   xml:space="preserve"
   id="svg77"
   sodipodi:docname="fox-head-eyes-open.svg"
   width="97.957123"
   height="101.78878"
   inkscape:version="1.3 (0e150ed6c4, 2023-07-21)"
   xmlns:inkscape="http://www.inkscape.org/namespaces/inkscape"
   xmlns:sodipodi="http://sodipodi.sourceforge.net/DTD/sodipodi-0.dtd"
   xmlns="http://www.w3.org/2000/svg"
   xmlns:svg="http://www.w3.org/2000/svg"><defs
   id="defs77" /><sodipodi:namedview
   id="namedview77"
   pagecolor="#505050"
   bordercolor="#ffffff"
   borderopacity="1"
   inkscape:showpageshadow="0"
   inkscape:pageopacity="0"
   inkscape:pagecheckerboard="1"
   inkscape:deskcolor="#505050"
   inkscape:zoom="1.4033333"
   inkscape:cx="157.83848"
   inkscape:cy="205.93824"
   inkscape:window-width="1920"
   inkscape:window-height="1051"
   inkscape:window-x="-9"
   inkscape:window-y="-9"
   inkscape:window-maximized="1"
   inkscape:current-layer="g76" />&#10;<style
   type="text/css"
   id="style1">&#10;	.st0{fill:#37342F;stroke:#000000;stroke-width:1.4642;stroke-miterlimit:10;}&#10;	.st1{fill:#F4EFDF;stroke:#000000;stroke-width:1.4642;stroke-miterlimit:10;}&#10;	.st2{fill:#A09989;}&#10;	.st3{fill:#756F65;}&#10;	.st4{fill:#F4EFDF;}&#10;	.st5{fill:#3A0F0F;}&#10;	.st6{fill:#3F0E0E;}&#10;	.st7{fill:none;stroke:#000000;stroke-width:0.4881;stroke-linecap:round;stroke-linejoin:round;stroke-miterlimit:10;}&#10;	.st8{stroke:#000000;stroke-width:1.4642;stroke-miterlimit:10;}&#10;	.st9{fill:#262728;}&#10;	.st10{opacity:0.75;fill:#FFFFFF;}&#10;	.st11{fill:#AA9D7B;stroke:#000000;stroke-width:0.244;stroke-miterlimit:10;}&#10;	.st12{opacity:0.28;}&#10;	.st13{fill:#37342F;}&#10;	.st14{fill:#FFFFFF;stroke:#000000;stroke-width:1.4642;stroke-miterlimit:10;}&#10;	.st15{opacity:0.32;}&#10;	.st16{fill:#09568A;stroke:#000000;stroke-width:1.4642;stroke-miterlimit:10;}&#10;	.st17{fill:#000002;}&#10;	.st18{fill:#FAFFFF;}&#10;	.st19{fill:#030000;}&#10;	.st20{fill:#495D4A;stroke:#000000;stroke-width:1.9522;stroke-miterlimit:10;}&#10;	.st21{fill:#564D36;stroke:#000000;stroke-width:1.9522;stroke-miterlimit:10;}&#10;	.st22{fill:none;stroke:#000000;stroke-width:1.9522;stroke-miterlimit:10;}&#10;	.st23{fill:#817B66;stroke:#000000;stroke-width:1.9522;stroke-miterlimit:10;}&#10;	.st24{fill:#514E3F;stroke:#000000;stroke-width:1.4642;stroke-miterlimit:10;}&#10;	.st25{fill:#262314;stroke:#000000;stroke-width:1.4642;stroke-miterlimit:10;}&#10;	.st26{fill:#173A50;stroke:#000000;stroke-width:1.9522;stroke-miterlimit:10;}&#10;	.st27{opacity:0.86;fill:#7CA3B0;}&#10;</style>&#10;<g
   id="Layer_1"
   transform="translate(-132.26436,-41.295961)">&#10;</g>&#10;<g
   id="Layer_19"
   transform="translate(-132.26436,-41.295961)">&#10;</g>&#10;<g
   id="Layer_20"
   transform="translate(-132.26436,-41.295961)">&#10;</g>&#10;<g
   id="Tail"
   transform="translate(-132.26436,-41.295961)">&#10;</g>&#10;<g
   id="right_leg"
   transform="translate(-132.26436,-41.295961)">&#10;</g>&#10;<g
   id="Left_leg"
   transform="translate(-132.26436,-41.295961)">&#10;</g>&#10;<g
   id="body"
   transform="translate(-132.26436,-41.295961)">&#10;</g>&#10;<g
   id="belt"
   transform="translate(-132.26436,-41.295961)">&#10;</g>&#10;<g
   id="Face"
   transform="translate(-132.26436,-41.295961)">&#10;</g>&#10;<g
   id="Left_ear"
   transform="translate(-132.26436,-41.295961)">&#10;</g>&#10;<g
   id="Right_ear"
   transform="translate(-132.26436,-41.295961)">&#10;</g>&#10;<g
   id="White_mouth"
   transform="translate(-132.26436,-41.295961)">&#10;</g>&#10;<g
   id="Closed_mouth"
   transform="translate(-132.26436,-41.295961)">&#10;	<g
   id="Mouth_copy">&#10;	</g>&#10;</g>&#10;<g
   id="Mouth"
   transform="translate(-132.26436,-41.295961)">&#10;</g>&#10;<g
   id="wide_opened_mouth"
   transform="translate(-132.26436,-41.295961)">&#10;	<g
   id="Mouth_copy_2">&#10;	</g>&#10;</g>&#10;<g
   id="Nose"
   transform="translate(-132.26436,-41.295961)">&#10;</g>&#10;<g
   id="Nose_hair_2"
   transform="translate(-132.26436,-41.295961)">&#10;</g>&#10;<g
   id="Nose_hair_1"
   transform="translate(-132.26436,-41.295961)">&#10;</g>&#10;<g
   id="Eye_brow"
   transform="translate(-132.26436,-41.295961)">&#10;</g>&#10;<g
   id="white_part_of_eyes"
   transform="translate(-132.26436,-41.295961)">&#10;	<g
   id="Eyes_opened_copy">&#10;	</g>&#10;</g>&#10;<g
   id="eyes_2"
   transform="translate(-132.26436,-41.295961)">&#10;	<g
   id="Layer_29">&#10;	</g>&#10;</g>&#10;<g
   id="eyes_1"
   transform="translate(-132.26436,-41.295961)">&#10;	<g
   id="Layer_30">&#10;	</g>&#10;</g>&#10;<g
   id="Opened_eye_cover"
   transform="translate(-132.26436,-41.295961)">&#10;</g>&#10;<g
   id="Eyes_closed"
   transform="translate(-132.26436,-41.295961)">&#10;	<g
   id="Eyes_copy">&#10;	</g>&#10;</g>&#10;<g
   id="cap"
   transform="translate(-132.26436,-41.295961)">&#10;</g>&#10;<g
   id="Glasses"
   transform="translate(-132.26436,-41.295961)">&#10;	<g
   id="g77">&#10;		<g
   id="g76">&#10;			&#10;			&#10;			<g
   id="g10">&#10;				<g
   id="g9">&#10;					<path
   class="st1"
   d="m 225.9,77.5 c 0,0 -33.5,-12.8 -36.8,-14.8 C 185.8,60.7 180,57 180,57 l 6.5,7.4 c 0,0 -12.1,-9.8 -16.7,-12.5 -6.1,-3.7 3.8,5.3 3.8,5.3 l -17.6,-9.5 4.6,4.2 c 0,0 -15.2,-7.6 -16.7,-9.6 -1.5,-2 -1.3,7.3 -1.3,7.3 0,0 -5.2,-6.5 -5.1,-7.2 0.1,-0.7 -0.6,2.2 0,11 0.6,8.7 -2,0.7 -2,0.7 0,0 -3.4,7.2 2,19.9 5.4,12.7 -3,-1 -3,-1 0,0 6.1,20.9 14.6,27.9 l -4.7,-3.3 c 0,0 7,12.8 10.5,15 3.5,2.2 -6.2,-3 -6.2,-3 0,0 7,12.8 15.7,17.2 8.7,4.4 -3,0 -3,0 0,0 16.1,16.6 36.5,15.5 20.4,-1.1 39.8,-54.2 28,-64.8 z"
   id="path6" />&#10;					<g
   id="g8">&#10;						<path
   class="st2"
   d="m 183.9,74.5 c -1.2,-1.3 -14.7,-10.6 -18.1,-12.8 -3.5,-2.2 -4.5,-2.3 -4.5,-2.3 0,0 4.7,3.8 3.8,3.7 -0.9,-0.1 -3.8,-0.5 -3.8,-0.5 0,0 -5.3,2.7 -8.8,-0.7 -3.5,-3.3 -0.2,4.2 0,5.8 0.2,1.7 0,5.3 1.3,6.8 1.3,1.5 -3.3,-2.8 -2.9,-4.1 0.4,-1.3 1.3,6.1 2.6,8 1.3,1.8 -4.2,-1.8 1.5,9.1 5.7,10.9 11.8,16.4 14.1,24.6 2.3,8.1 6.3,11 7.5,13.5 1.2,2.5 1.8,4.6 -0.8,5.5 -2.7,0.8 -5.5,0 -5.5,0 0,0 5.6,2.5 6.3,2.5 0.7,0 3.1,2.1 -1.8,1.3 -4.9,-0.8 5.9,5.3 12.9,6.9 6.9,1.6 23.6,3.9 32.7,-20.5 9,-24.5 -23,-32.7 -36.5,-46.8 z"
   id="path7" />&#10;						<path
   class="st3"
   d="m 194.9,102.2 c 0,0 -3.1,-3.9 -10.6,-3 -7.5,0.9 -2,3 -4.2,4 -2.2,1 -2.9,5.7 -1.5,7.7 1.4,2 9.9,14 11,16.4 1.1,2.5 0,9.7 5.3,11.5 5.4,1.7 24.6,-12.5 11.2,-25.4 -13.4,-12.9 -11.2,-11.2 -11.2,-11.2 z"
   id="path8" />&#10;					</g>&#10;				</g>&#10;				<path
   class="st0"
   d="m 184.1,60.9 c 0,0 3.1,4.6 4.4,6.3 1.3,1.7 -4.4,1.2 -4.4,1.2 0,0.3 5.5,4.5 7.4,6.1 1.3,1.1 -2.5,0.9 -6.7,0.2 -4.1,-0.7 -8.3,-4.8 -8.3,-4.8 0,0 6.9,8.4 7.4,13.4 0.5,5 3.8,9.3 5.5,12.1 1.7,2.8 -1.2,1.7 -1.2,1.7 l 26.2,28.7 c 0,0 15.9,-31.7 13.8,-40.9 -2.1,-9.2 -13.6,-12.7 -22.8,-16.2 -9.2,-3.5 -21.3,-7.8 -21.3,-7.8"
   id="path9" />&#10;			</g>&#10;			&#10;			&#10;			&#10;			&#10;			&#10;			&#10;			&#10;			&#10;			&#10;			&#10;			&#10;			&#10;			&#10;			&#10;			&#10;			&#10;			&#10;			&#10;			&#10;			&#10;			&#10;			&#10;			&#10;			&#10;			&#10;		</g>&#10;	</g>&#10;</g>&#10;</svg>
