<?xml version="1.0" encoding="UTF-8" standalone="no"?>
<!-- Generator: Adobe Illustrator 26.0.1, SVG Export Plug-In . SVG Version: 6.00 Build 0)  -->

<svg
   version="1.1"
   x="0px"
   y="0px"
   viewBox="0 0 60.621155 20.267699"
   xml:space="preserve"
   id="svg77"
   sodipodi:docname="fox-mouth-smile.svg"
   width="60.621155"
   height="20.267698"
   inkscape:version="1.3.2 (091e20e, 2023-11-25, custom)"
   xmlns:inkscape="http://www.inkscape.org/namespaces/inkscape"
   xmlns:sodipodi="http://sodipodi.sourceforge.net/DTD/sodipodi-0.dtd"
   xmlns="http://www.w3.org/2000/svg"
   xmlns:svg="http://www.w3.org/2000/svg"><defs
   id="defs77" /><sodipodi:namedview
   id="namedview77"
   pagecolor="#505050"
   bordercolor="#ffffff"
   borderopacity="1"
   inkscape:showpageshadow="0"
   inkscape:pageopacity="0"
   inkscape:pagecheckerboard="1"
   inkscape:deskcolor="#505050"
   inkscape:zoom="15.876904"
   inkscape:cx="28.311565"
   inkscape:cy="27.366796"
   inkscape:window-width="1920"
   inkscape:window-height="1057"
   inkscape:window-x="-8"
   inkscape:window-y="-8"
   inkscape:window-maximized="1"
   inkscape:current-layer="g78" />
<style
   type="text/css"
   id="style1">
	.st0{fill:#37342F;stroke:#000000;stroke-width:1.4642;stroke-miterlimit:10;}
	.st1{fill:#F4EFDF;stroke:#000000;stroke-width:1.4642;stroke-miterlimit:10;}
	.st2{fill:#A09989;}
	.st3{fill:#756F65;}
	.st4{fill:#F4EFDF;}
	.st5{fill:#3A0F0F;}
	.st6{fill:#3F0E0E;}
	.st7{fill:none;stroke:#000000;stroke-width:0.4881;stroke-linecap:round;stroke-linejoin:round;stroke-miterlimit:10;}
	.st8{stroke:#000000;stroke-width:1.4642;stroke-miterlimit:10;}
	.st9{fill:#262728;}
	.st10{opacity:0.75;fill:#FFFFFF;}
	.st11{fill:#AA9D7B;stroke:#000000;stroke-width:0.244;stroke-miterlimit:10;}
	.st12{opacity:0.28;}
	.st13{fill:#37342F;}
	.st14{fill:#FFFFFF;stroke:#000000;stroke-width:1.4642;stroke-miterlimit:10;}
	.st15{opacity:0.32;}
	.st16{fill:#09568A;stroke:#000000;stroke-width:1.4642;stroke-miterlimit:10;}
	.st17{fill:#000002;}
	.st18{fill:#FAFFFF;}
	.st19{fill:#030000;}
	.st20{fill:#495D4A;stroke:#000000;stroke-width:1.9522;stroke-miterlimit:10;}
	.st21{fill:#564D36;stroke:#000000;stroke-width:1.9522;stroke-miterlimit:10;}
	.st22{fill:none;stroke:#000000;stroke-width:1.9522;stroke-miterlimit:10;}
	.st23{fill:#817B66;stroke:#000000;stroke-width:1.9522;stroke-miterlimit:10;}
	.st24{fill:#514E3F;stroke:#000000;stroke-width:1.4642;stroke-miterlimit:10;}
	.st25{fill:#262314;stroke:#000000;stroke-width:1.4642;stroke-miterlimit:10;}
	.st26{fill:#173A50;stroke:#000000;stroke-width:1.9522;stroke-miterlimit:10;}
	.st27{opacity:0.86;fill:#7CA3B0;}
</style>
<g
   id="Layer_1"
   transform="translate(-273.94744,-254.9)">
</g>
<g
   id="Layer_19"
   transform="translate(-273.94744,-254.9)">
</g>
<g
   id="Layer_20"
   transform="translate(-273.94744,-254.9)">
</g>
<g
   id="Tail"
   transform="translate(-273.94744,-254.9)">
</g>
<g
   id="right_leg"
   transform="translate(-273.94744,-254.9)">
</g>
<g
   id="Left_leg"
   transform="translate(-273.94744,-254.9)">
</g>
<g
   id="body"
   transform="translate(-273.94744,-254.9)">
</g>
<g
   id="belt"
   transform="translate(-273.94744,-254.9)">
</g>
<g
   id="Face"
   transform="translate(-273.94744,-254.9)">
</g>
<g
   id="Left_ear"
   transform="translate(-273.94744,-254.9)">
</g>
<g
   id="Right_ear"
   transform="translate(-273.94744,-254.9)">
</g>
<g
   id="White_mouth"
   transform="translate(-273.94744,-254.9)">
</g>
<g
   id="Closed_mouth"
   transform="translate(-273.94744,-254.9)">
	<g
   id="Mouth_copy">
	</g>
</g>
<g
   id="Mouth"
   transform="translate(-273.94744,-254.9)">
</g>
<g
   id="wide_opened_mouth"
   transform="translate(-273.94744,-254.9)">
	<g
   id="Mouth_copy_2">
	</g>
</g>
<g
   id="Nose"
   transform="translate(-273.94744,-254.9)">
</g>
<g
   id="Nose_hair_2"
   transform="translate(-273.94744,-254.9)">
</g>
<g
   id="Nose_hair_1"
   transform="translate(-273.94744,-254.9)">
</g>
<g
   id="Eye_brow"
   transform="translate(-273.94744,-254.9)">
</g>
<g
   id="white_part_of_eyes"
   transform="translate(-273.94744,-254.9)">
	<g
   id="Eyes_opened_copy">
	</g>
</g>
<g
   id="eyes_2"
   transform="translate(-273.94744,-254.9)">
	<g
   id="Layer_29">
	</g>
</g>
<g
   id="eyes_1"
   transform="translate(-273.94744,-254.9)">
	<g
   id="Layer_30">
	</g>
</g>
<g
   id="Opened_eye_cover"
   transform="translate(-273.94744,-254.9)">
</g>
<g
   id="Eyes_closed"
   transform="translate(-273.94744,-254.9)">
	<g
   id="Eyes_copy">
	</g>
</g>
<g
   id="cap"
   transform="translate(-273.94744,-254.9)">
</g>
<g
   id="Glasses"
   transform="translate(-273.94744,-254.9)">
	<g
   id="g77">
		<g
   id="g76">
			
			
			
			
			
			
			
			
			
			<g
   id="g78"><g
     id="Smiling"
     transform="matrix(0.48768301,0,0,0.48768301,39.547779,-149.92567)">
		<g
   id="Mouth_copy_00000039111315703936657950000018133680472030840972_">
			<path
   class="st27"
   d="m 510.4,830.1 c 0,0 11.5,11.4 30.7,10.1 19.1,-1.3 24.3,-7.9 30.2,-8.8 5.9,-0.9 38.2,3.4 33.1,13.7 -5.1,10.3 -25.6,30.2 -67.9,26 -42.2,-4.2 -52.1,-13.4 -55.2,-20.8 -3.1,-7.4 4.4,-17.8 29.1,-20.2 z"
   id="path297"
   style="fill:#f4efdf;opacity:1" />
			<path
   d="m 574,840.6 c 1.1,-0.6 2.2,0.9 1.2,1.8 -4.3,3.8 -12.5,8.7 -27.4,10.7 -20.4,2.8 -31.7,-7.4 -31.2,-7.6 0.4,-0.3 8.2,5.2 22.9,4.3 7.9,-0.5 11.3,-0.6 21,-3.5 3.2,-0.9 8.3,-3 13.5,-5.7 z"
   id="path298" />
		</g>
	</g><g
     id="angry"
     transform="matrix(0.48768301,0,0,0.48768301,39.547779,-149.92567)">
		<g
   id="Mouth_copy_00000077285975337303201040000009307161942701292475_">
			<path
   class="st27"
   d="m 510.4,830.1 c 0,0 11.5,11.4 30.7,10.1 19.1,-1.3 24.3,-7.9 30.2,-8.8 5.9,-0.9 38.2,3.4 33.1,13.7 -5.1,10.3 -25.6,30.2 -67.9,26 -42.2,-4.2 -52.1,-13.4 -55.2,-20.8 -3.1,-7.4 4.4,-17.8 29.1,-20.2 z"
   id="path295"
   style="opacity:1;fill:#f4efdf;fill-opacity:1" />
			<path
   d="m 515,859 c 0,0 3.4,-8.9 30.6,-12.1 27.2,-3.2 31.1,8.3 30.7,8.5 -7.4,-3.9 -13.9,-4.5 -20.6,-5.2 -6.6,-0.7 -16.6,1.1 -20.6,2 -4,0.8 -13.4,3.8 -20.1,6.8 z"
   id="path296" />
		</g>
	</g></g>
			
			
			
			
			
			
			
			
			
			
			
			
			
			
			
			
			
			
		</g>
	</g>
</g>
</svg>
